<svg width="179" height="179" viewBox="0 0 179 179" fill="none" xmlns="http://www.w3.org/2000/svg">
<path d="M178.081 89.0406C178.081 113.952 167.848 136.475 151.36 152.634C149.91 154.055 148.41 155.429 146.865 156.749C144.034 159.172 141.05 161.419 137.928 163.472C123.896 172.71 107.096 178.082 89.0407 178.082C70.9857 178.082 54.1857 172.71 40.1533 163.472C37.0315 161.419 34.0471 159.172 31.2166 156.749C29.6709 155.429 28.1718 154.055 26.7216 152.634C10.2333 136.475 0 113.952 0 89.0406C0 39.8657 39.8645 -1.6228e-05 89.0407 -1.6228e-05C138.217 -1.6228e-05 178.081 39.8657 178.081 89.0406Z" fill="#D9DAD7"/>
<path d="M151.36 152.636C149.91 154.057 148.411 155.431 146.865 156.75C144.034 159.174 141.05 161.419 137.928 163.474C123.896 172.711 107.096 178.083 89.0408 178.083C70.986 178.083 54.1859 172.711 40.1536 163.474C37.0318 161.419 34.0475 159.174 31.2168 156.75C29.6712 155.431 28.1721 154.057 26.7217 152.636C30.2786 142.536 38.4028 134.394 49.0203 131.046L75.6464 122.634V118.239C72.3245 116.284 69.3239 114.037 66.861 112.349C62.2798 109.266 59.2255 104.42 58.3154 98.9806L56.8954 90.49C52.4491 90.49 48.8597 86.9006 48.8597 82.4521V63.7018C48.8597 52.6109 53.3594 42.567 60.6176 35.2791C67.9062 28.0191 77.9229 23.5195 89.0408 23.5195C111.221 23.5195 129.222 41.5199 129.222 63.7018V82.4521C129.222 86.9006 125.632 90.49 121.186 90.49L119.766 98.9806C118.856 104.42 115.776 109.266 111.195 112.349C108.73 114.009 105.783 116.284 102.435 118.239V122.634L129.036 131.046C139.672 134.394 147.801 142.536 151.36 152.636Z" fill="#909292"/>
</svg>
