<svg width="196" height="34" viewBox="0 0 196 34" fill="none" xmlns="http://www.w3.org/2000/svg">
<path d="M22.6699 31.4004C22.6699 32.1309 22.4121 32.7396 21.8965 33.2266C21.3809 33.7422 20.7721 34 20.0703 34H20.0059C19.304 34 18.6953 33.7422 18.1797 33.2266C17.6641 32.7396 17.4062 32.1309 17.4062 31.4004V11.5488C17.4062 9.93034 16.8405 8.54818 15.709 7.40234C14.5632 6.25651 13.1738 5.68359 11.541 5.68359C9.92253 5.68359 8.54036 6.25651 7.39453 7.40234C6.26302 8.54818 5.69727 9.93034 5.69727 11.5488V31.4004C5.69727 32.1309 5.43945 32.7396 4.92383 33.2266C4.4082 33.7422 3.79948 34 3.09766 34H3.0332C2.33138 34 1.72266 33.7422 1.20703 33.2266C0.691406 32.7396 0.433594 32.1309 0.433594 31.4004V11.5488C0.433594 8.48372 1.52214 5.86263 3.69922 3.68555C5.8763 1.52279 8.49023 0.441406 11.541 0.441406C14.6061 0.441406 17.2272 1.52279 19.4043 3.68555C21.5814 5.86263 22.6699 8.48372 22.6699 11.5488V31.4004ZM32.6816 14.5996H42.9297C43.6315 14.5996 44.2402 14.8503 44.7559 15.3516C45.2715 15.8672 45.5293 16.4831 45.5293 17.1992V17.2422C45.5293 17.9583 45.2715 18.5742 44.7559 19.0898C44.2402 19.5911 43.6315 19.8418 42.9297 19.8418H32.6816V26.1582C32.6816 26.8743 32.9323 27.4831 33.4336 27.9844C33.9349 28.4857 34.5436 28.7363 35.2598 28.7363H42.9297C43.6315 28.7363 44.2402 28.9941 44.7559 29.5098C45.2715 30.0254 45.5293 30.6413 45.5293 31.3574V31.4004C45.5293 32.1309 45.2715 32.7396 44.7559 33.2266C44.2402 33.7422 43.6315 34 42.9297 34H35.2598C33.097 34 31.2493 33.2337 29.7168 31.7012C28.1842 30.1686 27.418 28.321 27.418 26.1582V8.2832C27.418 6.12044 28.1842 4.27279 29.7168 2.74023C31.2493 1.20768 33.097 0.441406 35.2598 0.441406H42.9297C43.6315 0.441406 44.2402 0.699219 44.7559 1.21484C45.2715 1.70182 45.5293 2.31055 45.5293 3.04102V3.08398C45.5293 3.80013 45.2715 4.41602 44.7559 4.93164C44.2402 5.44727 43.6315 5.70508 42.9297 5.70508H35.2598C34.5436 5.70508 33.9349 5.95573 33.4336 6.45703C32.9323 6.95833 32.6816 7.56706 32.6816 8.2832V14.5996ZM65.209 0.441406C69.8353 0.441406 73.7956 2.08138 77.0898 5.36133C80.3698 8.64128 82.0098 12.5944 82.0098 17.2207C82.0098 21.847 80.3698 25.8001 77.0898 29.0801C73.7956 32.36 69.8353 34 65.209 34C60.5827 34 56.6296 32.36 53.3496 29.0801C50.0697 25.8001 48.4297 21.847 48.4297 17.2207C48.4297 12.5944 50.0697 8.64128 53.3496 5.36133C56.6296 2.08138 60.5827 0.441406 65.209 0.441406ZM65.209 5.68359C62.0293 5.68359 59.3151 6.80794 57.0664 9.05664C54.8177 11.3053 53.6934 14.0267 53.6934 17.2207C53.6934 20.4147 54.8177 23.1361 57.0664 25.3848C59.3151 27.6191 62.0293 28.7363 65.209 28.7363C68.403 28.7363 71.1243 27.6191 73.373 25.3848C75.6217 23.1361 76.7461 20.4147 76.7461 17.2207C76.7461 14.0267 75.6217 11.3053 73.373 9.05664C71.1243 6.80794 68.403 5.68359 65.209 5.68359ZM115.289 0.441406C116.707 0.441406 118.096 0.613281 119.457 0.957031C120.775 1.30078 121.434 2.13867 121.434 3.4707V3.53516C121.434 4.38021 121.09 5.06771 120.402 5.59766C119.944 5.95573 119.443 6.13477 118.898 6.13477C118.669 6.13477 118.433 6.10612 118.189 6.04883C117.23 5.80534 116.263 5.68359 115.289 5.68359C112.109 5.68359 109.395 6.80794 107.146 9.05664C104.898 11.3053 103.773 14.0267 103.773 17.2207C103.773 20.4147 104.898 23.1361 107.146 25.3848C109.395 27.6191 112.109 28.7363 115.289 28.7363C116.263 28.7363 117.23 28.6217 118.189 28.3926C118.433 28.3353 118.669 28.3066 118.898 28.3066C119.443 28.3066 119.944 28.4857 120.402 28.8438C121.09 29.3594 121.434 30.0469 121.434 30.9062V30.9492C121.434 32.2956 120.775 33.1406 119.457 33.4844C118.096 33.8281 116.707 34 115.289 34C110.663 34 106.71 32.36 103.43 29.0801C100.15 25.8001 98.5098 21.847 98.5098 17.2207C98.5098 12.5944 100.15 8.64128 103.43 5.36133C106.71 2.08138 110.663 0.441406 115.289 0.441406ZM147.322 31.4004C147.322 32.1309 147.064 32.7396 146.549 33.2266C146.033 33.7422 145.424 34 144.723 34H144.658C143.956 34 143.348 33.7422 142.832 33.2266C142.316 32.7396 142.059 32.1309 142.059 31.4004V21.8184H130.35V31.4004C130.35 32.1309 130.092 32.7396 129.576 33.2266C129.061 33.7422 128.452 34 127.75 34H127.686C126.984 34 126.375 33.7422 125.859 33.2266C125.344 32.7396 125.086 32.1309 125.086 31.4004V11.5488C125.086 8.48372 126.174 5.86263 128.352 3.68555C130.529 1.52279 133.143 0.441406 136.193 0.441406C139.258 0.441406 141.88 1.52279 144.057 3.68555C146.234 5.86263 147.322 8.48372 147.322 11.5488V31.4004ZM142.059 16.5762V11.5488C142.059 9.93034 141.493 8.54818 140.361 7.40234C139.215 6.25651 137.826 5.68359 136.193 5.68359C134.575 5.68359 133.193 6.25651 132.047 7.40234C130.915 8.54818 130.35 9.93034 130.35 11.5488V16.5762H142.059ZM163.242 16.6836C164.76 16.6836 166.057 16.1536 167.131 15.0938C168.205 14.0195 168.742 12.7233 168.742 11.2051C168.742 9.67253 168.205 8.36914 167.131 7.29492C166.057 6.23503 164.76 5.70508 163.242 5.70508H160.771C159.697 5.70508 158.859 5.9987 158.258 6.58594C157.785 7.05859 157.484 7.61719 157.355 8.26172C157.327 8.41927 157.312 8.66992 157.312 9.01367V16.6836H163.242ZM168.742 27.4258C168.742 25.9076 168.205 24.6113 167.131 23.5371C166.157 22.5488 164.997 22.0189 163.65 21.9473H157.312V31.4004C157.312 32.1165 157.062 32.7253 156.561 33.2266C156.045 33.7422 155.429 34 154.713 34H154.67C153.939 34 153.331 33.7422 152.844 33.2266C152.328 32.7396 152.07 32.1309 152.07 31.4004V8.82031C152.07 6.51432 152.887 4.54492 154.52 2.91211C156.167 1.26497 158.143 0.441406 160.449 0.441406H163.242C166.207 0.441406 168.735 1.49414 170.826 3.59961C172.932 5.70508 173.984 8.24023 173.984 11.2051C173.984 14.1556 172.932 16.6836 170.826 18.7891L170.332 19.3047L170.848 19.8418C172.939 21.9329 173.984 24.4609 173.984 27.4258V31.4004C173.984 32.1309 173.727 32.7396 173.211 33.2266C172.695 33.7422 172.087 34 171.385 34H171.342C170.64 34 170.031 33.7422 169.516 33.2266C169 32.7396 168.742 32.1309 168.742 31.4004V27.4258ZM182.9 14.5996H193.148C193.85 14.5996 194.459 14.8503 194.975 15.3516C195.49 15.8672 195.748 16.4831 195.748 17.1992V17.2422C195.748 17.9583 195.49 18.5742 194.975 19.0898C194.459 19.5911 193.85 19.8418 193.148 19.8418H182.9V26.1582C182.9 26.8743 183.151 27.4831 183.652 27.9844C184.154 28.4857 184.762 28.7363 185.479 28.7363H193.148C193.85 28.7363 194.459 28.9941 194.975 29.5098C195.49 30.0254 195.748 30.6413 195.748 31.3574V31.4004C195.748 32.1309 195.49 32.7396 194.975 33.2266C194.459 33.7422 193.85 34 193.148 34H185.479C183.316 34 181.468 33.2337 179.936 31.7012C178.403 30.1686 177.637 28.321 177.637 26.1582V8.2832C177.637 6.12044 178.403 4.27279 179.936 2.74023C181.468 1.20768 183.316 0.441406 185.479 0.441406H193.148C193.85 0.441406 194.459 0.699219 194.975 1.21484C195.49 1.70182 195.748 2.31055 195.748 3.04102V3.08398C195.748 3.80013 195.49 4.41602 194.975 4.93164C194.459 5.44727 193.85 5.70508 193.148 5.70508H185.479C184.762 5.70508 184.154 5.95573 183.652 6.45703C183.151 6.95833 182.9 7.56706 182.9 8.2832V14.5996Z" fill="#FFC51B"/>
</svg>
