<svg width="134" height="68" viewBox="0 0 134 68" fill="none" xmlns="http://www.w3.org/2000/svg">
<ellipse cx="43.2222" cy="23.3815" rx="43.2222" ry="23.3815" transform="matrix(0.980067 -0.198666 0.206346 0.978479 13.1191 24.2432)" fill="#FFBE00"/>
<path d="M15.4004 20.8177H13.1354V18.597H10.265V20.8177H8V23.6319H10.265V25.8525H13.1354V23.6319H15.4004V20.8177Z" fill="#2C68F6"/>
<path d="M117.4 32.5833H115.135V30.3627H112.265V32.5833H110V35.3976H112.265V37.6182H115.135V35.3976H117.4V32.5833Z" fill="#2C68F6"/>
<path d="M57.1377 61.9974H55.8713V60.7559H54.2663V61.9974H53V63.571H54.2663V64.8125H55.8713V63.571H57.1377V61.9974Z" fill="#FFFBE9"/>
<path d="M66.6858 10.5468H65.8199V9.69783H64.7225V10.5468H63.8564V11.6227H64.7225V12.4717H65.8199V11.6227H66.6858V10.5468Z" fill="#FFC51B"/>
<path d="M37.4754 57.252L38.0571 53.9732L38.5902 57.252H40.6258C40.6258 57.252 38.8809 57.7747 38.8324 57.9647C38.784 58.1547 38.0571 60.4355 38.0571 60.4355L37.4754 57.9171L35.6338 57.3946L37.4754 57.252Z" fill="#2659B0"/>
<path d="M82.802 9.45161L83.4727 5.67087L84.0875 9.45161H86.435C86.435 9.45161 84.4228 10.0545 84.367 10.2737C84.3111 10.4927 83.4727 13.123 83.4727 13.123L82.802 10.2188L80.6782 9.61605L82.802 9.45161Z" fill="#203A69"/>
<path d="M118.576 19.4439L119.075 16.6366L119.531 19.4439H121.273C121.273 19.4439 119.78 19.8915 119.738 20.0542C119.697 20.217 119.075 22.1699 119.075 22.1699L118.576 20.0135L117 19.566L118.576 19.4439Z" fill="#5B98C9"/>
<path d="M25.1804 15.7963L25.5531 13.6951L25.8948 15.7963H27.1994C27.1994 15.7963 26.0812 16.1314 26.0502 16.2532C26.0191 16.375 25.5531 17.8369 25.5531 17.8369L25.1804 16.2227L24 15.8877L25.1804 15.7963Z" fill="#5B98C9"/>
<path d="M17.9292 62.6341L18.3392 60.1834L18.715 62.6341H20.15C20.15 62.6341 18.9201 63.0247 18.8858 63.1668C18.8517 63.3088 18.3392 65.0137 18.3392 65.0137L17.9292 63.1313L16.6309 62.7407L17.9292 62.6341Z" fill="white"/>
<path d="M131.298 46.5394L131.708 44.0887L132.084 46.5394H133.519C133.519 46.5394 132.289 46.93 132.255 47.0721C132.221 47.2141 131.708 48.9189 131.708 48.9189L131.298 47.0366L130 46.6459L131.298 46.5394Z" fill="white"/>
<path d="M1.2983 6.34209L1.70837 3.8914L2.08417 6.34209H3.51911C3.51911 6.34209 2.2892 6.73275 2.25493 6.87479C2.2208 7.01684 1.70837 8.72168 1.70837 8.72168L1.2983 6.83932L0 6.44866L1.2983 6.34209Z" fill="white"/>
<path d="M38.5482 32.275L38.9249 30.1516L39.2701 32.275H40.5884C40.5884 32.275 39.4584 32.6135 39.4271 32.7367C39.3957 32.8597 38.9249 34.3369 38.9249 34.3369L38.5482 32.7059L37.3555 32.3674L38.5482 32.275Z" fill="#FFFBE9"/>
<path d="M38.0006 43.4784C38.1872 43.8903 38.2902 44.1289 38.2902 44.1289L37.6664 44.4961L36.4507 45.2117C36.4507 45.2117 29.1112 51.5788 26.1272 49.1677C23.1851 46.7888 25.9198 44.5431 25.9935 44.4816C25.8179 44.5119 15.3795 46.3115 15.4561 43.7087C15.5345 41.0853 18.5414 40.1704 18.5414 40.1704C18.5414 40.1704 8.59802 39.2431 9.01261 35.1038C9.42615 30.9639 19.7445 36.0032 19.7445 36.0032C19.7445 36.0032 15.4275 32.4671 17.7523 30.6208C20.0354 28.8053 28.4293 37.1475 28.7277 37.4441C28.5263 37.2083 24.725 32.6747 28.2311 30.9531C31.376 29.4064 36.7063 40.6241 38.0006 43.4784Z" fill="#FFDB8F"/>
<path d="M38.0008 43.4784C38.1873 43.8903 38.2903 44.1289 38.2903 44.1289L37.6665 44.4961L13.4941 36.5312L13.5803 36.2633L38.0008 43.4784Z" fill="#DBAD35"/>
<path d="M80.3272 31.8412C79.7406 31.7594 79.4042 31.7068 79.4042 31.7068L79.4215 30.7874L79.4551 28.9956C79.4551 28.9956 77.3763 16.7783 82.1042 15.2299C86.7672 13.7043 87.4006 18.1697 87.4189 18.2906C87.5052 18.0817 92.6366 5.6676 95.4857 7.52928C98.3554 9.40704 97.3196 13.2542 97.3196 13.2542C97.3196 13.2542 105.153 3.23468 109.482 6.50929C113.815 9.7829 101.141 17.3925 101.141 17.3925C101.141 17.3925 108.034 15.1851 108.504 18.9381C108.966 22.6258 93.9287 25.9152 93.3937 26.0321C93.7937 25.9775 101.447 25.0044 100.969 29.9381C100.541 34.3653 84.3939 32.4061 80.3272 31.8412Z" fill="#FFDB8F"/>
<path d="M80.3272 31.8418C79.7407 31.76 79.4043 31.7074 79.4043 31.7074L79.4216 30.788L104.828 10.3351L105.067 10.6108L80.3272 31.8418Z" fill="#DBAD35"/>
<path d="M53.1217 39.6093C53.0827 39.0915 53.0654 38.7936 53.0654 38.7936L53.8785 38.6379L55.4629 38.3344C55.4629 38.3344 65.829 34.2879 68.0881 38.051C70.3148 41.763 66.502 43.1336 66.3989 43.1717C66.5992 43.2069 78.5044 45.3005 77.4042 48.0863C76.2941 50.8938 72.7095 50.7195 72.7095 50.7195C72.7095 50.7195 83.0171 55.5712 80.9532 59.8883C78.8903 64.2064 69.7887 54.7614 69.7887 54.7614C69.7887 54.7614 73.0382 60.2575 69.8215 61.3547C66.6615 62.4349 60.9166 50.1622 60.7124 49.7258C60.8364 50.0589 63.1426 56.4342 58.7068 56.9395C54.727 57.3953 53.3943 43.1979 53.1217 39.6093Z" fill="#FFDB8F"/>
<path d="M53.1225 39.609C53.0835 39.0912 53.0662 38.7933 53.0662 38.7933L53.8792 38.6376L76.7034 56.6094L76.5061 56.866L53.1225 39.609Z" fill="#DBAD35"/>
<path d="M58.2809 39.4854C57.9518 40.0094 57.7574 40.3073 57.7574 40.3073L56.8539 39.9023L55.0933 39.1129C55.0933 39.1129 42.1123 35.9273 42.5771 30.7709C43.0371 25.6857 47.7283 26.9705 47.8557 27.0043C47.6853 26.8338 37.5571 16.6998 40.6057 14.7742C43.6793 12.8347 47.0523 15.448 47.0523 15.448C47.0523 15.448 40.4381 3.75437 45.5125 1.01546C50.5867 -1.72535 52.7675 13.5578 52.7675 13.5578C52.7675 13.5578 53.4949 6.06112 57.4107 7.20159C61.2592 8.32032 58.1603 24.0294 58.0501 24.588C58.1655 24.1836 60.4367 16.4857 65.1218 19.0267C69.3269 21.3043 60.5595 35.852 58.2809 39.4854Z" fill="#FFDB8F"/>
<path d="M58.281 39.4852C57.9519 40.0092 57.7574 40.3071 57.7574 40.3071L56.854 39.9022L47.334 7.06481L47.7084 6.95305L58.281 39.4852Z" fill="#DBAD35"/>
<path d="M95.2647 58.415L95.2149 58.3884C95.2149 58.3884 91.9802 55.397 90.2714 51.5557C88.8722 48.4123 88.4942 44.7 91.745 41.5914C98.9683 34.6838 101.617 46.8603 101.617 46.8603L101.666 46.8869C101.666 46.8869 105.144 45.5897 108.017 45.9377C110.453 46.2315 112.453 47.7077 111.538 52.1557C109.541 61.8524 95.2647 58.415 95.2647 58.415Z" fill="#FE5F5C"/>
<path d="M103.553 52.4756L101.182 51.2098L102.473 48.8849L99.4678 47.2809L98.1762 49.6058L95.8048 48.34L94.1686 51.2865L96.5401 52.5523L95.2491 54.8773L98.2544 56.4813L99.5458 54.1563L101.917 55.4221L103.553 52.4756Z" fill="#FFFBE9"/>
<path d="M101.412 58.9963C98.0951 59.0964 95.2645 58.4148 95.2645 58.4148L95.2147 58.3882C95.2147 58.3882 92.416 55.8 90.6498 52.347C90.5173 52.0879 90.3905 51.8237 90.2712 51.5555C91.0786 51.9357 92.0373 52.0807 93.0867 52.049C93.7378 52.0294 94.4238 51.9419 95.1316 51.8004L96.5398 52.5522L95.2489 54.8771L98.2541 56.4812L99.5456 54.1562L101.917 55.422L103.553 52.4755L101.182 51.2097L102.325 49.1496C104.698 47.9785 106.781 46.7217 108.017 45.9375C109.989 46.1754 111.676 47.1881 111.761 49.9254C111.781 50.5692 111.712 51.3084 111.537 52.1555C110.43 57.5336 105.544 58.8716 101.412 58.9963Z" fill="#FE4C48"/>
<path d="M98.254 56.4826L95.2488 54.8785L96.5397 52.5535L95.1315 51.8018C97.4656 51.3354 100.03 50.2835 102.325 49.1509L101.182 51.211L103.553 52.4768L101.917 55.4233L99.5454 54.1575L98.254 56.4826Z" fill="#FFF8DC"/>
<path d="M45.0917 26.5805L45.0564 26.5988C45.0564 26.5988 42.0076 27.2914 39.0454 26.7763C36.621 26.3552 34.2547 25.1256 33.6633 22.0462C32.3494 15.2034 40.6601 18.4277 40.6601 18.4277L40.6954 18.4095C40.6954 18.4095 41.2753 15.9057 42.6033 14.39C43.728 13.1054 45.3904 12.5308 47.6921 14.7909C52.7105 19.7173 45.0917 26.5805 45.0917 26.5805Z" fill="#FE5F5C"/>
<path d="M44.7711 19.5028L43.0902 20.372L42.2036 18.7241L40.0735 19.8258L40.9601 21.4737L39.2793 22.3429L40.403 24.4315L42.0838 23.5621L42.9705 25.21L45.1006 24.1084L44.2139 22.4604L45.8948 21.5912L44.7711 19.5028Z" fill="#FFFBE9"/>
<path d="M44.617 26.6855L43.6382 24.8665L45.1005 24.1103L44.2137 22.4623L45.8946 21.5931L44.771 19.5047L43.0901 20.3739L42.3044 18.9136C42.5291 17.0941 42.5893 15.4078 42.6027 14.3912C43.1788 13.7332 43.8958 13.2615 44.7675 13.2615C45.5979 13.2615 46.5686 13.6896 47.6915 14.7921C48.9338 16.0117 49.4017 17.3499 49.4023 18.6734C49.4026 19.1906 49.3315 19.7059 49.2074 20.2105C49.1441 20.4681 49.0673 20.7223 48.9787 20.9734C48.3745 22.6888 47.24 24.2309 46.3519 25.2616C45.643 26.0845 45.091 26.5817 45.091 26.5817L45.0558 26.6C45.0558 26.6 44.8971 26.636 44.617 26.6855ZM39.8506 26.1215C40.3454 25.5901 40.7518 24.8856 41.0854 24.0803L42.0836 23.564L42.8228 24.9377C42.1549 25.173 41.0823 25.5739 39.8506 26.1215Z" fill="#FE4C48"/>
<path d="M42.8233 24.9365L42.0842 23.5628L41.0859 24.0791C41.7169 22.5562 42.0878 20.6722 42.3049 18.9124L43.0906 20.3727L44.7716 19.5035L45.8952 21.5919L44.2143 22.4611L45.101 24.1091L43.6387 24.8653L43.5459 24.6928C43.5459 24.6928 43.2789 24.7761 42.8233 24.9365Z" fill="#FFF8DC"/>
<path d="M95.864 38.1275C94.8747 41.894 92.5338 44.8491 89.5124 46.5917C86.5046 48.3324 82.8293 48.8559 79.2242 47.7473L62.8875 42.3601L70.0212 15.0921L86.3443 20.4812C93.5817 22.696 97.8291 30.5964 95.864 38.1275Z" fill="#2248A1"/>
<path d="M84.4216 48.373C84.3073 48.3912 83.8119 48.5317 83.6094 48.533C82.3099 48.5621 80.2395 48.4553 78.964 48.1504C77.6885 47.8455 62.9374 42.4814 62.9374 42.4814L67.4629 37.3253C70.0665 38.5389 74.1688 41.435 78.2461 42.0346C84.8829 43.0131 88.3134 43.0627 94.88 40.9412C94.6606 41.8366 94.0395 42.5888 93.4969 43.3833C93.3002 43.7062 93.0811 44.0146 92.829 44.3091C91.6387 45.69 89.7447 46.9451 87.6734 47.5843C86.5005 47.9485 85.4363 48.212 84.4216 48.373Z" fill="#113B9C"/>
<path d="M70.7766 29.7538C68.8745 37.3152 65.3229 42.9591 62.8438 42.3597C60.3649 41.7603 59.8971 35.1446 61.7992 27.5831C63.7012 20.0216 67.2528 14.3777 69.7319 14.9771C72.2109 15.5765 72.6786 22.1923 70.7766 29.7538Z" fill="#FEF6E3"/>
<path d="M62.9639 40.6338C62.8043 40.4664 62.1826 39.6407 62.0679 36.8997C61.9616 34.3542 62.3531 31.163 63.1703 27.9139C63.9877 24.6648 65.1545 21.6611 66.4558 19.456C67.8573 17.0816 68.7993 16.634 69.0199 16.5585C69.1795 16.7259 69.8012 17.5516 69.9159 20.2926C70.0224 22.8381 69.6309 26.0293 68.8135 29.2784C67.9962 32.5274 66.8295 35.5312 65.5279 37.7363C64.1266 40.1107 63.1845 40.5583 62.9639 40.6338Z" fill="#5BCFBC"/>
<path d="M31.4369 47.131C32.7795 49.8923 35.1185 51.8579 37.846 52.8065C40.5621 53.7553 43.6554 53.685 46.4615 52.3722L59.1261 46.1445L48.4667 25.6641L36.7761 32.3775C31.1413 35.0047 28.7629 41.6081 31.4369 47.131Z" fill="#2248A1"/>
<path d="M40.9318 53.4374C41.0312 53.4478 41.4655 53.5535 41.6396 53.5419C42.7581 53.4878 44.5309 53.2522 45.6084 52.8738C46.686 52.4954 59.0363 46.3265 59.0363 46.3265L55.8562 42.9156C53.6926 44.2647 49.4703 48.3025 46.0027 49.1462C40.3588 50.522 37.6986 49.7435 31.9263 48.0909C32.2782 48.7809 32.1155 48.3853 32.6301 49.1259C32.8188 49.4283 33.2248 49.7355 33.4593 50.0069C34.5663 51.2783 36.2704 52.3824 38.0893 52.8745C39.1195 53.1552 40.05 53.3447 40.9318 53.4374Z" fill="#113B9C"/>
<path d="M50.2493 37.7817C53.283 43.4201 57.2408 47.2158 59.0893 46.2599C60.9379 45.3038 59.9771 39.958 56.9435 34.3197C53.9098 28.6812 49.9519 24.8854 48.1034 25.8415C46.2549 26.7974 47.2156 32.1433 50.2493 37.7817Z" fill="#FEF6E3"/>
<path d="M58.646 44.9141C58.7391 44.7501 59.0667 43.974 58.6057 41.7744C58.1776 39.7318 57.2241 37.2726 55.9205 34.8499C54.6169 32.4271 53.0851 30.2669 51.6073 28.7671C50.016 27.1523 49.1775 26.9791 48.987 26.9618C48.8939 27.1257 48.5663 27.902 49.0273 30.1015C49.4553 32.1441 50.409 34.6034 51.7126 37.026C53.016 39.4488 54.5478 41.6091 56.0257 43.1088C57.6172 44.7236 58.4555 44.8968 58.646 44.9141Z" fill="#5BCFBC"/>
</svg>
