<svg width="28" height="28" viewBox="0 0 28 28" fill="none" xmlns="http://www.w3.org/2000/svg">
<path d="M25.903 12.284C25.8465 12.2346 25.7726 12.2096 25.6976 12.2146C25.6226 12.2196 25.5527 12.2541 25.5032 12.3107L22.6942 15.521H5.3058L2.49687 12.3107C2.44735 12.2541 2.37738 12.2195 2.30235 12.2145C2.22733 12.2095 2.15339 12.2345 2.09681 12.284C2.04022 12.3335 2.00562 12.4035 2.00063 12.4785C1.99563 12.5536 2.02064 12.6275 2.07016 12.6841L4.92917 15.9515V23.5525C4.92917 24.1539 5.16809 24.7307 5.59337 25.156C6.01865 25.5813 6.59545 25.8202 7.19688 25.8202H20.8031C21.4046 25.8202 21.9814 25.5813 22.4066 25.156C22.8319 24.7307 23.0708 24.1539 23.0708 23.5525V15.9515L25.9299 12.6841C25.9544 12.6561 25.9731 12.6235 25.985 12.5882C25.997 12.5529 26.0018 12.5156 25.9993 12.4785C25.9968 12.4413 25.987 12.4051 25.9705 12.3717C25.954 12.3383 25.9311 12.3085 25.903 12.284Z" fill="#D32F2F"/>
<path d="M12.0166 15.5205H15.9851V25.8197H12.0166V15.5205Z" fill="#FFC107"/>
<path d="M24.2306 4.69153C24.1062 4.56821 23.9381 4.49902 23.7629 4.49902C23.5877 4.49902 23.4196 4.56821 23.2952 4.69153L22.2261 5.76056C22.1042 5.88503 22.0362 6.05261 22.0371 6.22688C22.038 6.40115 22.1076 6.56803 22.2309 6.69125C22.3541 6.81446 22.521 6.88406 22.6953 6.88491C22.8696 6.88577 23.0371 6.81781 23.1616 6.6958L24.2306 5.62677C24.3539 5.50237 24.4231 5.3343 24.4231 5.15915C24.4231 4.98399 24.3539 4.81593 24.2306 4.69153Z" fill="#FFC107"/>
<path d="M24.2306 10.6736L23.1616 9.60513C23.0371 9.48313 22.8696 9.41517 22.6953 9.41602C22.521 9.41688 22.3541 9.48648 22.2309 9.60969C22.1076 9.73291 22.038 9.89979 22.0371 10.0741C22.0362 10.2483 22.1042 10.4159 22.2261 10.5404L23.2952 11.6094C23.3564 11.6718 23.4293 11.7215 23.5098 11.7556C23.5903 11.7897 23.6768 11.8074 23.7642 11.8079C23.8516 11.8083 23.9382 11.7914 24.0191 11.7582C24.0999 11.7249 24.1734 11.676 24.2352 11.6142C24.297 11.5524 24.346 11.479 24.3792 11.3981C24.4125 11.3173 24.4294 11.2306 24.429 11.1432C24.4285 11.0558 24.4108 10.9694 24.3767 10.8888C24.3427 10.8083 24.293 10.7354 24.2306 10.6742V10.6736Z" fill="#FFC107"/>
<path d="M3.77131 4.69153C3.89574 4.56821 4.06384 4.49902 4.23902 4.49902C4.41421 4.49902 4.58231 4.56821 4.70674 4.69153L5.77577 5.76056C5.89775 5.88503 5.96568 6.05261 5.96479 6.22688C5.9639 6.40115 5.89427 6.56803 5.77103 6.69125C5.64779 6.81446 5.48089 6.88406 5.30662 6.88491C5.13235 6.88577 4.96479 6.81781 4.84034 6.6958L3.77131 5.6262C3.64817 5.50183 3.5791 5.33388 3.5791 5.15887C3.5791 4.98385 3.64817 4.8159 3.77131 4.69153Z" fill="#FFC107"/>
<path d="M3.77106 10.6736L4.84009 9.60513C4.96453 9.48313 5.1321 9.41517 5.30637 9.41602C5.48064 9.41688 5.64753 9.48648 5.77077 9.60969C5.89402 9.73291 5.96365 9.89979 5.96454 10.0741C5.96543 10.2483 5.8975 10.4159 5.77552 10.5404L4.70649 11.6083C4.58204 11.7303 4.41448 11.7982 4.24021 11.7974C4.06594 11.7965 3.89904 11.7269 3.7758 11.6037C3.65256 11.4805 3.58293 11.3136 3.58204 11.1394C3.58115 10.9651 3.64908 10.7975 3.77106 10.673V10.6736Z" fill="#FFC107"/>
<path d="M14.2459 13.4128L16.7854 13.9551C16.946 13.9893 17.1121 13.9893 17.2727 13.9552C17.4334 13.921 17.585 13.8535 17.7179 13.7569C17.8508 13.6604 17.9618 13.537 18.0439 13.3948C18.126 13.2525 18.1773 13.0946 18.1944 12.9313L18.4635 10.3485C18.4806 10.1846 18.5321 10.0261 18.6147 9.88345L19.915 7.63596C19.9972 7.49375 20.0485 7.33585 20.0657 7.17251C20.0829 7.00917 20.0656 6.84404 20.0148 6.68783C19.9641 6.53163 19.8811 6.38784 19.7711 6.26579C19.6612 6.14375 19.5269 6.04617 19.3768 5.9794L17.0037 4.92549C16.853 4.85858 16.7182 4.76063 16.608 4.63805L14.8722 2.70767C14.7624 2.58546 14.6282 2.48772 14.4781 2.42082C14.3281 2.35391 14.1657 2.31934 14.0014 2.31934C13.8371 2.31934 13.6747 2.35391 13.5247 2.42082C13.3747 2.48772 13.2404 2.58546 13.1306 2.70767L11.3949 4.639C11.2847 4.76158 11.1498 4.85952 10.9992 4.92643L8.626 5.9794C8.47594 6.04617 8.3416 6.14375 8.23169 6.26579C8.12177 6.38784 8.03875 6.53163 7.988 6.68783C7.93725 6.84404 7.91991 7.00917 7.9371 7.17251C7.95429 7.33585 8.00564 7.49375 8.08779 7.63596L9.38814 9.88345C9.47073 10.0261 9.52225 10.1846 9.53932 10.3485L9.80842 12.9313C9.82554 13.0946 9.87681 13.2525 9.9589 13.3948C10.041 13.537 10.1521 13.6604 10.2849 13.7569C10.4178 13.8535 10.5695 13.921 10.7301 13.9552C10.8908 13.9893 11.0568 13.9893 11.2174 13.9551L13.7569 13.4128C13.9181 13.3784 14.0847 13.3784 14.2459 13.4128Z" fill="#FFC107"/>
<path d="M16.7887 4.80173L14 8.64171V2.31934C14.1643 2.31881 14.3269 2.35317 14.4769 2.42015C14.627 2.48713 14.7611 2.5852 14.8704 2.70788L16.6079 4.6377C16.6615 4.69932 16.7222 4.75438 16.7887 4.80173Z" fill="#FFA000"/>
<path d="M9.48633 10.1077L14.0002 8.6416L10.2846 13.757C10.1511 13.661 10.0394 13.5378 9.95701 13.3955C9.8746 13.2532 9.82329 13.0951 9.80645 12.9315L9.53905 10.3496C9.53062 10.2672 9.51294 10.1861 9.48633 10.1077Z" fill="#FFA000"/>
<path d="M13.9999 8.64174L7.9873 6.68679C8.03766 6.53089 8.12037 6.38738 8.23002 6.26565C8.33967 6.14393 8.47378 6.04672 8.62359 5.9804L10.9986 4.92667C11.0733 4.89188 11.1445 4.85005 11.2112 4.80176L13.9999 8.64174Z" fill="#FFA000"/>
<path d="M17.7156 13.757C17.5835 13.8543 17.4321 13.9223 17.2716 13.9566C17.1111 13.9909 16.9451 13.9907 16.7847 13.956L14.244 13.4134C14.1638 13.3962 14.082 13.3877 14 13.3881V8.6416L17.7156 13.757Z" fill="#FFA000"/>
<path d="M19.9131 7.63487L18.6133 9.88368C18.5722 9.95476 18.5389 10.03 18.5139 10.1082L14 8.64135L20.0126 6.68848C20.0639 6.8443 20.0815 7.00922 20.0643 7.17235C20.0471 7.33548 19.9956 7.49312 19.9131 7.63487Z" fill="#FFA000"/>
</svg>
