<svg width="36" height="36" viewBox="0 0 36 36" fill="none" xmlns="http://www.w3.org/2000/svg">
<g id="icon_his_donhang 1">
<path id="Vector" d="M24.5401 19.7701C26.8201 20.1201 28.4301 21.2701 29.2301 23.4001C30.4401 26.6201 28.4101 30.1401 25.0201 30.7401C23.2901 31.0501 21.7501 30.5901 20.4101 29.4701C20.3101 29.3801 20.1401 29.3401 20.0101 29.3401C16.2201 29.3401 12.4201 29.3401 8.63005 29.3401C7.27005 29.3401 6.43005 28.5001 6.43005 27.1401C6.43005 20.5201 6.43005 13.9001 6.43005 7.29005C6.43005 6.19005 7.10005 5.39005 8.17005 5.20005C8.28005 5.18005 8.40005 5.18005 8.52005 5.18005C13.1701 5.18005 17.8101 5.18005 22.4601 5.18005C23.6401 5.18005 24.4801 5.97005 24.5501 7.15005C24.5501 7.27005 24.5501 7.38005 24.5501 7.50005C24.5501 11.4901 24.5501 15.4701 24.5501 19.4601V19.7801L24.5401 19.7701ZM19.3701 22.2801H19.0801C17.6301 22.2801 16.1701 22.2801 14.7201 22.2801C14.6301 22.2801 14.5401 22.2801 14.4401 22.2801C14.1501 22.2601 13.9701 22.0501 13.9801 21.7701C13.9901 21.4701 14.2101 21.2901 14.5901 21.2901C16.4001 21.2901 18.2201 21.2901 20.0301 21.2901C20.1601 21.2901 20.3101 21.2301 20.4001 21.1501C21.2501 20.4301 22.2201 19.9801 23.3201 19.8401C23.5101 19.8201 23.5301 19.7401 23.5301 19.5901C23.5301 15.5001 23.5301 11.4001 23.5301 7.31005C23.5301 6.59005 23.1201 6.20005 22.4101 6.20005C17.7901 6.20005 13.1701 6.20005 8.55005 6.20005C7.83005 6.20005 7.42005 6.61005 7.42005 7.33005C7.42005 13.9601 7.42005 20.5801 7.42005 27.2101C7.42005 27.9501 7.83005 28.3601 8.57005 28.3601C12.0901 28.3601 15.6001 28.3601 19.1201 28.3601C19.2001 28.3601 19.2801 28.3601 19.3201 28.3601C19.1001 27.7901 18.8301 27.2401 18.6801 26.6601C18.5401 26.0801 18.5201 25.4601 18.4501 24.8401H18.1901C17.0301 24.8401 15.8701 24.8401 14.7101 24.8401C14.6001 24.8401 14.4901 24.8401 14.3901 24.8201C14.1501 24.7801 14.0001 24.5901 14.0001 24.3401C14.0001 24.0301 14.2101 23.8401 14.5901 23.8401C15.7801 23.8401 16.9601 23.8401 18.1501 23.8401C18.7101 23.8401 18.7001 23.8401 18.9101 23.3301C19.0501 23.0001 19.2201 22.6701 19.3901 22.3201L19.3701 22.2801ZM24.0401 29.8401C26.5401 29.8401 28.5801 27.8001 28.5801 25.3001C28.5801 22.8201 26.5401 20.7701 24.0601 20.7701C21.5701 20.7701 19.5101 22.8101 19.5101 25.3001C19.5101 27.8001 21.5501 29.8401 24.0401 29.8401Z" fill="#484848"/>
<path id="Vector_2" d="M12.4599 11.9699C12.4599 12.3499 12.4599 12.7399 12.4599 13.1199C12.4599 13.5299 12.2699 13.7199 11.8599 13.7199C11.0899 13.7199 10.3199 13.7199 9.55994 13.7199C9.12994 13.7199 8.93994 13.5299 8.93994 13.1099C8.93994 12.3399 8.93994 11.5699 8.93994 10.7999C8.93994 10.3799 9.12994 10.1899 9.55994 10.1899C10.3299 10.1899 11.0999 10.1899 11.8599 10.1899C12.2699 10.1899 12.4499 10.3699 12.4599 10.7899C12.4599 11.1799 12.4599 11.5799 12.4599 11.9699ZM11.4399 12.7099V11.2199H9.94994V12.7099H11.4399Z" fill="#484848"/>
<path id="Vector_3" d="M10.7099 21.27C11.0899 21.27 11.4799 21.27 11.8599 21.27C12.2699 21.27 12.4599 21.45 12.4599 21.87C12.4599 22.65 12.4599 23.42 12.4599 24.2C12.4599 24.61 12.2799 24.79 11.8799 24.79C11.0999 24.79 10.3099 24.79 9.52994 24.79C9.11994 24.79 8.93994 24.59 8.93994 24.18C8.93994 23.41 8.93994 22.64 8.93994 21.87C8.93994 21.45 9.13994 21.26 9.55994 21.26C9.93994 21.26 10.3299 21.26 10.7099 21.26V21.27ZM9.94994 23.78H11.4399V22.29H9.94994V23.78Z" fill="#484848"/>
<path id="Vector_4" d="M10.69 19.25C10.29 19.25 9.89 19.25 9.49 19.25C9.16 19.25 8.94 19.06 8.94 18.73C8.93 17.9 8.93 17.08 8.94 16.25C8.94 15.92 9.16 15.74 9.49 15.74C10.29 15.74 11.09 15.74 11.89 15.74C12.25 15.74 12.44 15.91 12.45 16.27C12.46 17.09 12.46 17.91 12.45 18.72C12.45 19.08 12.25 19.24 11.89 19.25C11.49 19.25 11.09 19.25 10.69 19.25ZM9.95 18.23H11.44V16.76H9.95V18.23Z" fill="#484848"/>
<path id="Vector_5" d="M18 15.74C19.16 15.74 20.32 15.74 21.48 15.74C21.82 15.74 22.02 15.95 22.01 16.26C22 16.5 21.83 16.69 21.57 16.73C21.51 16.73 21.45 16.73 21.4 16.73C19.13 16.73 16.86 16.73 14.59 16.73C14.24 16.73 14.02 16.57 13.99 16.3C13.95 15.96 14.16 15.73 14.53 15.73C15.69 15.73 16.85 15.73 18.01 15.73L18 15.74Z" fill="#484848"/>
<path id="Vector_6" d="M18 18.25C19.15 18.25 20.3 18.25 21.46 18.25C21.82 18.25 22.03 18.46 22.02 18.78C22.02 19.03 21.84 19.22 21.59 19.25C21.54 19.25 21.49 19.25 21.44 19.25C19.15 19.25 16.87 19.25 14.58 19.25C14.24 19.25 14.03 19.1 14 18.83C13.96 18.49 14.18 18.25 14.56 18.25C15.71 18.25 16.86 18.25 18.02 18.25H18Z" fill="#484848"/>
<path id="Vector_7" d="M17.99 10.1901C19.13 10.1901 20.26 10.1901 21.4 10.1901C21.8 10.1901 22.02 10.3901 22.01 10.7201C22.01 10.9601 21.84 11.1501 21.6 11.1801C21.53 11.1801 21.47 11.1801 21.4 11.1801C19.13 11.1801 16.85 11.1801 14.58 11.1801C14.18 11.1801 13.97 11.0001 13.98 10.6701C13.98 10.4401 14.13 10.2601 14.36 10.2101C14.46 10.1901 14.58 10.1801 14.68 10.1801C15.78 10.1801 16.89 10.1801 17.99 10.1801V10.1901Z" fill="#484848"/>
<path id="Vector_8" d="M17.99 12.72C19.14 12.72 20.3 12.72 21.45 12.72C21.79 12.72 21.99 12.89 22.01 13.16C22.03 13.44 21.88 13.65 21.6 13.7C21.5 13.72 21.4 13.72 21.3 13.72C19.09 13.72 16.89 13.72 14.68 13.72C14.57 13.72 14.46 13.72 14.36 13.69C14.11 13.64 13.97 13.43 13.98 13.18C13.99 12.93 14.17 12.74 14.43 12.73C14.81 12.72 15.2 12.73 15.58 12.73C16.38 12.73 17.18 12.73 17.99 12.73V12.72Z" fill="#484848"/>
<path id="Vector_9" d="M23.55 23.77C23.55 23.26 23.54 22.75 23.55 22.24C23.55 21.98 23.75 21.8 24 21.78C24.23 21.77 24.41 21.87 24.5 22.08C24.54 22.18 24.54 22.31 24.54 22.43C24.54 23.11 24.57 23.8 24.54 24.48C24.52 24.91 24.64 25.22 24.96 25.5C25.28 25.77 25.56 26.08 25.85 26.38C26.11 26.65 26.13 26.94 25.91 27.15C25.69 27.37 25.4 27.34 25.14 27.08C24.68 26.62 24.23 26.15 23.76 25.69C23.61 25.54 23.54 25.36 23.55 25.15C23.55 24.68 23.55 24.21 23.55 23.75V23.77Z" fill="#484848"/>
</g>
</svg>
