<svg width="25" height="24" viewBox="0 0 25 24" fill="none" xmlns="http://www.w3.org/2000/svg">
<path d="M23.4998 9.20823C23.4998 9.83378 23.3973 10.4509 23.1983 11.0442C22.2639 15.2723 14.1836 20.3871 13.8398 20.6048C13.7324 20.6715 13.6118 20.7063 13.489 20.7063C13.3663 20.7063 13.2442 20.6755 13.1368 20.6048C13.0443 20.5446 10.7678 19.108 8.4596 17.1333C8.18322 16.895 8.1542 16.4841 8.38612 16.2089C8.62365 15.936 9.03413 15.9028 9.31098 16.1347C11.0315 17.6046 12.7703 18.793 13.4923 19.2718C15.9191 17.6895 21.2765 13.6641 21.9332 10.6952C22.1047 10.1708 22.1822 9.69384 22.1822 9.20964C22.1822 7.52419 21.2646 5.9705 19.787 5.15656C17.9001 4.10953 15.3743 4.59233 13.9938 6.25648C13.7457 6.55697 13.2355 6.55697 12.9828 6.25648C11.5981 4.59116 9.07414 4.11211 7.1898 5.15469C5.7075 5.9705 4.7899 7.52325 4.7899 9.20706C4.7899 9.68798 4.87134 10.167 5.02298 10.6297C5.12034 11.0626 5.30662 11.486 5.54368 11.9253H9.37135L10.6859 8.90424C10.7984 8.64564 11.0673 8.48299 11.3439 8.51201C11.6257 8.53658 11.8607 8.73925 11.9234 9.01446L12.8911 13.1057L14.1428 11.0531C14.2608 10.8581 14.473 10.739 14.7024 10.739H17.0779C17.4395 10.739 17.7334 11.0318 17.7334 11.395C17.7334 11.7563 17.4395 12.0507 17.0779 12.0507H15.0705L13.1847 15.1483C13.0645 15.3458 12.8524 15.4637 12.6271 15.4637C12.5913 15.4637 12.5566 15.4609 12.5246 15.456C12.2604 15.4136 12.0523 15.2189 11.9889 14.9603L11.1045 11.2337L10.4057 12.8422C10.3014 13.0839 10.0648 13.2365 9.80383 13.2365H2.15597C1.79698 13.2363 1.50024 12.9428 1.50024 12.5808C1.50024 12.2194 1.79698 11.925 2.15597 11.925H4.07894C3.9425 11.5995 3.83228 11.2836 3.76394 10.9779C3.58094 10.4472 3.48195 9.8291 3.48195 9.20683C3.48195 7.04397 4.65814 5.05265 6.55864 4.00563C8.75985 2.78799 11.6727 3.17086 13.4918 4.88018C15.3059 3.17063 18.2167 2.78799 20.4217 4.00563C22.3198 5.05125 23.4998 7.04397 23.4998 9.20823Z" fill="#1B1B21"/>
</svg>
