<svg width="33" height="33" viewBox="0 0 33 33" fill="none" xmlns="http://www.w3.org/2000/svg">
<g id="Group 1">
<circle id="Ellipse 3" cx="16.5" cy="16.5" r="16" fill="#1F443D" stroke="#008268"/>
<path id="Union" fill-rule="evenodd" clip-rule="evenodd" d="M16.5 8C15.6716 8 15 8.67157 15 9.5V15H9.5C8.67157 15 8 15.6716 8 16.5C8 17.3284 8.67157 18 9.5 18H15V23.5C15 24.3284 15.6716 25 16.5 25C17.3284 25 18 24.3284 18 23.5V18H23.5C24.3284 18 25 17.3284 25 16.5C25 15.6716 24.3284 15 23.5 15H18V9.5C18 8.67157 17.3284 8 16.5 8Z" fill="white"/>
</g>
</svg>
