<svg width="247" height="24" viewBox="0 0 247 24" fill="none" xmlns="http://www.w3.org/2000/svg">
<path d="M138.284 16.7353C138.638 16.5301 138.927 16.3248 139.136 15.9998C139.185 15.9314 139.233 15.8629 139.281 15.7945C139.764 15.1787 140.166 14.4944 140.503 13.776C140.616 13.5365 140.793 13.3141 140.954 13.1088C141.05 12.9891 141.179 12.8864 141.307 12.8351C141.645 12.6641 141.967 12.7667 142.16 13.1088C142.24 13.2457 142.288 13.3996 142.32 13.5536C142.369 13.776 142.369 14.0155 142.401 14.2378C142.449 14.4602 142.481 14.6997 142.578 14.905C142.722 15.23 142.996 15.3155 143.301 15.1787C143.382 15.1445 143.446 15.0931 143.51 15.0418C143.735 14.8366 143.961 14.6484 144.154 14.4431C144.684 13.8615 145.215 13.2799 145.746 12.6812C145.89 12.5272 146.003 12.339 146.132 12.168C146.26 11.9969 146.373 11.8088 146.517 11.6548C146.903 11.2614 147.305 10.885 147.691 10.4916C147.949 10.235 148.27 10.2521 148.576 10.3376C148.721 10.3889 148.769 10.4916 148.721 10.6455C148.688 10.7653 148.64 10.885 148.592 11.0048C148.656 11.0903 148.721 11.0561 148.785 11.0219C149.01 10.9363 149.251 10.8337 149.476 10.7653C150.039 10.6113 150.505 10.8166 150.891 11.2271C151.036 11.364 151.1 11.5693 151.149 11.7745C151.293 12.4075 151.277 13.0404 151.117 13.6733C151.036 13.9812 150.891 14.272 150.763 14.5457C150.666 14.7681 150.538 14.9734 150.425 15.1958C150.409 15.23 150.393 15.2813 150.361 15.3155C150.055 15.6405 149.846 16.0682 149.508 16.3761C149.139 16.7182 148.785 17.0946 148.431 17.4367C147.82 18.0183 147.08 18.0867 146.308 17.967C146.276 17.967 146.228 17.9499 146.196 17.9328C145.922 17.7275 145.601 17.5735 145.392 17.2827C145.167 16.9919 145.07 16.6498 145.118 16.2564C145.167 15.88 145.167 15.5037 145.199 15.076C145.086 15.1274 145.006 15.1445 144.958 15.1958C144.684 15.4695 144.395 15.7432 144.138 16.0511C143.752 16.4959 143.269 16.7867 142.722 16.9748C142.61 17.009 142.481 17.0433 142.369 17.0433C141.693 17.0946 141.211 16.7696 140.986 16.0853C140.937 15.9313 140.889 15.7774 140.825 15.6405C140.825 15.6234 140.793 15.6063 140.761 15.5892C140.68 15.5892 140.632 15.6405 140.6 15.6919C140.471 15.8629 140.342 16.034 140.23 16.205C139.86 16.7182 139.49 17.2143 139.12 17.7275C139.024 17.8472 138.927 17.967 138.815 18.0867C138.332 18.5657 137.77 18.7026 137.142 18.4289C136.805 18.292 136.563 18.0525 136.467 17.6591C136.387 17.3512 136.338 17.0261 136.29 16.7182C136.242 16.3932 136.21 16.0511 136.178 15.6919C136.097 15.7261 136.017 15.7432 135.968 15.7945C135.711 16.034 135.438 16.2393 135.229 16.5472C135.181 16.6156 135.116 16.6669 135.052 16.7182C134.988 16.7696 134.907 16.8038 134.843 16.8551C134.505 17.2314 134.039 17.317 133.621 17.5222C133.589 17.5222 133.572 17.5393 133.54 17.5564C133.058 17.5564 132.608 17.488 132.254 17.1117C132.141 16.9919 132.061 16.8551 131.98 16.7353C131.884 16.5985 131.788 16.4959 131.627 16.4616C131.321 16.7011 130.951 17.2485 130.791 17.6249C130.517 18.3262 130.099 18.9078 129.617 19.4552C129.568 19.5237 129.488 19.5921 129.424 19.6092C129.086 19.7118 128.748 19.7289 128.411 19.6263C128.234 19.575 128.105 19.4381 128.041 19.25C127.928 18.8736 127.799 18.5144 127.816 18.1038C127.816 17.7446 127.767 17.3854 127.751 17.0261C127.655 17.0261 127.59 17.0261 127.51 17.0433C127.51 16.9235 127.51 16.8038 127.494 16.7011C127.494 16.4616 127.494 16.205 127.462 15.9656C127.462 15.8116 127.462 15.6748 127.574 15.5721C127.864 15.2813 127.928 14.905 127.992 14.5115C128.25 13.0062 128.555 11.5179 129.054 10.081C129.327 9.31125 129.649 8.55858 129.954 7.7888C130.003 7.65195 130.099 7.5322 130.163 7.41246C130.26 7.2414 130.356 7.07034 130.453 6.89928C130.453 6.88217 130.469 6.84796 130.485 6.81374C130.983 6.04396 131.434 5.22287 131.997 4.4873C132.334 4.04254 132.752 3.68331 133.187 3.34118C133.299 3.25565 133.412 3.18723 133.54 3.1188C133.669 3.03327 133.798 3.01617 133.926 3.1188C134.023 3.20434 134.135 3.23855 134.264 3.25565C134.553 3.30697 134.682 3.49514 134.73 3.78595C134.779 4.12807 134.762 4.4873 134.65 4.81232C134.602 4.98338 134.553 5.13734 134.537 5.3255C134.505 5.5992 134.441 5.8729 134.312 6.11239C134.248 6.23213 134.216 6.35188 134.184 6.47162C134.023 7.34404 133.717 8.18224 133.299 8.95202C132.817 9.82444 132.302 10.6797 131.804 11.5522C131.771 11.6035 131.739 11.6548 131.707 11.689C131.176 12.4075 130.662 13.143 130.131 13.8615C130.051 13.9641 129.986 14.0668 129.922 14.1865C129.697 14.5115 129.584 14.8537 129.568 15.2813C129.552 15.8458 129.472 16.4103 129.424 16.9748C129.391 17.2485 129.408 17.2485 129.552 17.5393C129.617 17.488 129.697 17.4709 129.745 17.4025C129.89 17.1801 130.035 16.9406 130.163 16.7011C130.581 15.88 130.935 15.0247 131.225 14.1523C131.369 13.7075 131.627 13.4681 132.029 13.3825C132.624 13.2457 132.624 13.1773 132.881 13.8273C132.977 14.0839 133.058 14.3405 133.154 14.5971C133.219 14.7681 133.283 14.9563 133.363 15.1103C133.572 15.5208 134.023 15.709 134.457 15.5379C134.666 15.4524 134.843 15.3326 135.004 15.1616C135.309 14.8708 135.583 14.5457 135.808 14.1865C136.178 13.5878 136.531 12.9891 136.885 12.3904C137.03 12.1509 137.142 11.9114 137.287 11.6719C137.496 11.2956 137.818 11.0903 138.204 11.0048C138.493 10.9363 138.654 11.039 138.686 11.364C138.702 11.5179 138.702 11.689 138.686 11.843C138.638 12.1509 138.574 12.4759 138.493 12.7838C138.365 13.297 138.204 13.8102 138.107 14.3405C137.979 15.0247 138.027 15.7261 138.155 16.4274C138.172 16.5301 138.236 16.6156 138.284 16.7353ZM149.766 13.6562C149.766 13.5536 149.75 13.4167 149.718 13.2628C149.621 12.818 149.396 12.6641 148.978 12.7325C148.817 12.7496 148.688 12.818 148.576 12.9378C148.399 13.143 148.222 13.3312 148.061 13.5536C147.933 13.7075 147.82 13.8786 147.627 13.947C147.498 13.9983 147.434 14.0839 147.37 14.2036C147.145 14.6484 147.032 15.1103 146.968 15.6063C146.936 15.8287 146.968 16.034 147.08 16.2393C147.193 16.4616 147.37 16.5301 147.595 16.4445C147.659 16.4274 147.724 16.3761 147.788 16.359C148.335 16.1024 148.753 15.6748 149.187 15.23C149.605 14.8023 149.734 14.272 149.782 13.6562H149.766ZM133.347 5.3255C133.251 5.39393 133.203 5.42814 133.17 5.46235C133.106 5.53078 133.042 5.61631 132.994 5.70184C132.801 5.99265 132.608 6.30056 132.415 6.60847C132.27 6.84796 132.125 7.10455 131.964 7.34404C131.82 7.58352 131.691 7.85722 131.514 8.0625C131.305 8.28488 131.305 8.59279 131.16 8.83228C131.16 8.83228 131.16 8.86649 131.144 8.86649C130.919 9.12308 130.855 9.4481 130.791 9.77312C130.758 9.94418 130.694 10.0981 130.646 10.2692C130.501 10.7482 130.34 11.2271 130.196 11.7232C130.163 11.8088 130.163 11.9114 130.147 12.014C130.292 12.014 130.34 11.9114 130.388 11.843C130.855 11.1074 131.353 10.406 131.739 9.61916C131.771 9.55074 131.82 9.46521 131.884 9.39678C132.093 9.20861 132.19 8.95202 132.286 8.69543C132.431 8.3362 132.575 7.97697 132.72 7.61773C132.881 7.22429 133.058 6.83085 133.235 6.43741C133.363 6.1466 133.38 5.8558 133.412 5.54788C133.412 5.49657 133.396 5.44525 133.363 5.3255H133.347Z" fill="#B0906E"/>
<path d="M166.2 15.7603C167.165 14.7852 168.259 13.9812 169.256 13.0062C169.288 13.0575 169.336 13.1088 169.352 13.1772C169.384 13.4851 169.4 13.793 169.432 14.0838C169.432 14.2207 169.4 14.3404 169.304 14.4431C168.998 14.7681 168.709 15.1273 168.387 15.4352C168.001 15.8116 167.599 16.1537 167.197 16.5129C167.069 16.6327 166.972 16.7524 166.908 16.9235C167.036 17.1116 167.165 17.2827 167.262 17.4709C167.599 18.0867 167.76 18.7538 167.776 19.4723C167.776 19.6091 167.776 19.7631 167.776 19.9C167.776 20.0881 167.744 20.2763 167.648 20.4473C167.551 20.6355 167.471 20.8408 167.438 21.0632C167.438 21.1658 167.358 21.2856 167.294 21.3711C166.924 21.8843 166.49 22.3804 165.991 22.7567C165.605 23.0475 165.219 23.3041 164.817 23.5607C164.287 23.9199 163.708 24.0397 163.081 23.8857C162.679 23.9028 162.437 23.5949 162.148 23.3896C162.1 23.3554 162.067 23.2699 162.051 23.2014C161.987 22.9106 161.907 22.6198 161.907 22.2948C161.923 21.525 162.1 20.8066 162.518 20.1565C163 19.421 163.547 18.7196 164.094 18.0354C164.19 17.9156 164.303 17.7959 164.399 17.6761C164.608 17.4196 164.608 17.3682 164.447 17.0603C164.367 16.9064 164.271 16.7695 164.174 16.6327C164.013 16.3932 163.836 16.1708 163.676 15.9484C163.37 15.5037 163.145 15.0247 163.129 14.4773C163.129 14.3746 163.097 14.2891 163.081 14.1865C162.727 14.3233 162.502 14.5115 162.277 14.8023C162.051 15.1102 161.81 15.4181 161.553 15.6918C161.376 15.88 161.167 16.0339 160.958 16.1537C160.54 16.3932 160.073 16.2734 159.784 15.88C159.623 15.6576 159.479 15.4352 159.302 15.23C159.125 15.0076 158.948 14.7852 158.771 14.5628C158.691 14.4602 158.626 14.3575 158.546 14.2549C158.385 14.0496 158.272 14.0154 158.047 14.1694C157.87 14.3062 157.694 14.4431 157.533 14.6141C157.259 14.8707 156.986 15.1444 156.729 15.4181C156.664 15.4866 156.6 15.5721 156.552 15.6576C156.311 16.1024 156.005 16.4958 155.7 16.8893C155.442 17.2143 155.185 17.5393 154.944 17.8643C154.815 18.0354 154.67 18.138 154.477 18.1722C154.284 18.1893 154.091 18.2235 153.915 18.2235C153.689 18.2235 153.593 18.1038 153.577 17.8643C153.545 17.4196 153.577 16.9577 153.689 16.53C153.77 16.1708 153.866 15.7945 153.947 15.4352C153.995 15.23 154.043 15.0076 154.059 14.8023C154.075 14.5457 154.124 14.2891 154.204 14.0325C154.284 13.793 154.252 13.6391 154.14 13.6049C153.979 13.5364 153.85 13.6391 153.722 13.7417C153.673 13.7759 153.625 13.8444 153.593 13.9128C153.352 14.3575 152.998 14.6997 152.709 15.1102C152.612 15.2471 152.499 15.3839 152.403 15.5208C152.355 15.5721 152.306 15.6063 152.226 15.6747C152.194 15.5721 152.162 15.5208 152.146 15.4523C152.146 15.1102 152.114 14.7852 152.114 14.4431C152.114 14.3233 152.13 14.2036 152.178 14.1009C152.355 13.7417 152.499 13.3654 152.757 13.0575C153.304 12.3561 153.834 11.6548 154.381 10.9705C154.51 10.7995 154.654 10.6455 154.815 10.5086C155.072 10.2863 155.362 10.1323 155.716 10.1494C155.941 10.1494 156.102 10.2692 156.23 10.4573C156.327 10.6284 156.375 10.8337 156.407 11.0389C156.471 11.535 156.391 12.0311 156.278 12.5101C156.118 13.1943 155.957 13.8615 155.796 14.5457C155.764 14.6655 155.716 14.7852 155.78 14.9563C155.844 14.9049 155.909 14.8707 155.941 14.8194C156.295 14.1865 156.777 13.6733 157.259 13.1601C157.372 13.0575 157.452 12.9206 157.549 12.7838C157.758 12.5101 158.015 12.2877 158.272 12.0824C158.658 11.7916 159.076 11.7403 159.527 11.8429C159.639 11.86 159.72 11.9456 159.784 12.0482C160.122 12.5101 160.379 13.0233 160.604 13.5536C160.636 13.622 160.652 13.6904 160.685 13.7588C160.829 14.1009 160.894 14.1694 161.296 14.2891C161.36 14.2549 161.424 14.2036 161.489 14.1523C161.955 13.6904 162.437 13.2285 162.888 12.7325C163.386 12.1679 163.869 11.5692 164.158 10.8337C164.238 10.6284 164.383 10.4402 164.528 10.2521C164.898 9.77308 165.316 9.32832 165.766 8.91777C165.863 8.83224 165.991 8.74671 166.072 8.62696C166.232 8.37037 166.458 8.21642 166.699 8.06246C166.811 7.99403 166.924 7.8914 167.02 7.78876C167.278 7.51506 167.583 7.37821 167.937 7.344C168.242 7.30979 168.435 7.44664 168.532 7.75455C168.677 8.1651 168.612 8.55854 168.468 8.93488C168.452 8.98619 168.419 9.03751 168.371 9.07173C168.194 9.19147 168.082 9.37964 167.969 9.56781C167.567 10.1323 167.069 10.6113 166.57 11.0903C166.168 11.4837 165.766 11.8771 165.364 12.2706C165.075 12.5443 164.978 12.8864 164.962 13.2799C164.93 13.9299 165.187 14.4602 165.493 14.9905C165.67 15.2984 165.863 15.5892 166.184 15.8116L166.2 15.7603ZM165.525 18.4288C165.348 18.463 165.268 18.617 165.171 18.7367C164.93 19.0104 164.769 19.3697 164.464 19.5749C164.415 19.6091 164.399 19.6605 164.367 19.7118C164.271 19.8657 164.174 20.0197 164.078 20.1736C163.836 20.55 163.579 20.9092 163.354 21.2856C163.225 21.525 163.129 21.7816 163.048 22.0382C162.968 22.3119 163.161 22.5856 163.418 22.5856C163.579 22.5856 163.74 22.5514 163.901 22.5001C164.383 22.329 164.817 22.0382 165.171 21.6448C165.364 21.4224 165.557 21.1829 165.75 20.9605C165.991 20.6868 166.104 20.3447 166.088 19.9684C166.088 19.7802 166.088 19.592 166.023 19.4039C165.927 19.0275 165.814 18.6512 165.509 18.4117L165.525 18.4288Z" fill="#B0906E"/>
<path d="M120.901 16.8379C120.804 16.9747 120.804 17.1287 120.804 17.2998C120.804 17.6248 120.804 17.9327 120.804 18.2577C120.804 18.8222 120.917 19.3183 121.303 19.763C121.271 19.8486 121.255 19.9512 121.206 20.0196C121.046 20.3275 120.885 20.6355 120.708 20.9092C120.611 21.0631 120.467 21.2 120.338 21.3026C120.081 21.4908 119.743 21.4223 119.598 21.1315C119.502 20.9434 119.437 20.721 119.405 20.5157C119.341 19.9512 119.325 19.3867 119.373 18.8222C119.405 18.4117 119.421 18.0182 119.309 17.5906C119.18 17.5392 119.035 17.4708 118.907 17.4195C118.601 17.2826 118.553 16.9747 118.794 16.7181C118.875 16.6326 118.955 16.5642 119.052 16.5129C119.373 16.3418 119.47 16.0339 119.486 15.6918C119.486 15.5036 119.486 15.3154 119.486 15.1273C119.421 14.6483 119.486 14.1693 119.534 13.6903C119.63 12.6982 119.743 11.706 119.839 10.6968C119.936 9.75592 120.032 8.81507 120.129 7.87423C120.161 7.60053 120.209 7.32684 120.177 7.05314C120.145 6.79654 119.92 6.60838 119.775 6.4031C119.598 6.14651 119.421 5.88991 119.228 5.65043C119.068 5.44515 119.052 5.23988 119.164 5.00039C119.325 4.65827 119.534 4.36746 119.807 4.09376C119.952 3.95691 120.097 3.83717 120.241 3.70032C120.434 3.51215 120.627 3.42662 120.917 3.52926C121.206 3.6319 121.528 3.649 121.833 3.78585C123.04 4.33325 124.149 5.0175 125.082 6.00966C125.355 6.30046 125.645 6.60838 125.886 6.93339C126.802 8.14793 127.237 9.53354 127.237 11.0902C127.237 12.0995 126.915 12.9719 126.272 13.7074C125.661 14.3917 124.969 14.9391 124.197 15.401C123.409 15.8628 122.589 16.2905 121.737 16.6155C121.48 16.7181 121.222 16.7695 120.949 16.855L120.901 16.8379ZM120.981 5.95834C121.158 6.16361 121.319 6.30046 121.448 6.47153C121.641 6.72812 121.817 7.00182 122.01 7.27552C122.252 7.60053 122.316 7.95976 122.252 8.3361C122.091 9.22562 121.962 10.1494 121.721 11.0218C121.657 11.2784 121.576 11.5521 121.592 11.8258C121.592 11.9455 121.544 12.0824 121.512 12.2021C121.464 12.339 121.415 12.4758 121.367 12.6127C121.158 13.3824 121.062 14.1693 121.013 14.9733C121.013 15.0417 121.013 15.1273 121.013 15.1957C121.046 15.3667 121.19 15.4523 121.351 15.401C121.431 15.3839 121.512 15.3325 121.576 15.3154C122.573 14.8878 123.474 14.272 124.326 13.5877C124.535 13.4166 124.728 13.1943 124.905 12.9719C125.13 12.6982 125.259 12.3732 125.259 12.0139C125.259 11.6034 125.259 11.1928 125.21 10.7994C125.082 9.85855 124.68 9.03746 124.101 8.319C123.425 7.48079 122.589 6.81365 121.737 6.16361C121.528 5.99255 121.287 5.88991 120.949 5.95834H120.981Z" fill="#B0906E"/>
<path d="M176.878 15.3497C176.621 14.6313 176.395 13.947 176.106 13.2799C175.865 12.7325 175.72 12.168 175.607 11.5864C175.591 11.4837 175.559 11.3811 175.511 11.2956C175.366 11.0561 175.302 10.7995 175.254 10.5258C175.222 10.406 175.205 10.2692 175.189 10.1323C175.125 9.68758 175.077 9.24282 174.916 8.81517C174.739 8.30198 174.723 7.75458 174.691 7.22429C174.691 7.05323 174.691 6.88217 174.659 6.694C174.643 6.57426 174.61 6.43741 174.562 6.31766C174.434 6.00975 174.369 5.68473 174.353 5.34261C174.321 4.84653 174.273 4.35045 174.224 3.87148C174.224 3.82016 174.224 3.75173 174.192 3.70041C173.951 2.93064 174.096 2.17796 174.289 1.42529C174.337 1.23712 174.417 1.04895 174.482 0.860785C174.546 0.672617 174.675 0.552873 174.852 0.467342C175.061 0.364705 175.27 0.244962 175.479 0.142325C175.543 0.108112 175.607 0.0738999 175.672 0.0567937C176.058 -0.0800559 176.235 0.0225813 176.315 0.450236C176.508 1.47661 176.588 2.52009 176.428 3.56356C176.411 3.68331 176.428 3.82016 176.428 3.95701C176.492 4.86364 176.556 5.75316 176.637 6.65979C176.653 6.88217 176.669 7.10455 176.701 7.30982C176.878 8.11381 176.974 8.93491 177.087 9.75601C177.087 9.82443 177.087 9.90996 177.119 9.97839C177.296 10.3034 177.28 10.6455 177.296 10.9877C177.296 11.0561 177.312 11.1416 177.344 11.1929C177.569 11.5693 177.666 11.9969 177.794 12.4075C177.843 12.5785 177.907 12.7325 177.971 12.9036C178.003 12.972 178.036 13.0233 178.084 13.0746C178.229 13.0404 178.261 12.9207 178.309 12.818C178.711 12.0996 179.049 11.3469 179.29 10.56C179.676 9.29414 180.126 8.0625 180.528 6.81374C180.769 6.06107 180.85 5.29129 180.85 4.4873C180.85 4.12807 180.898 3.76884 180.978 3.40961C181.075 3.03327 181.268 2.75957 181.606 2.58851C181.815 2.48587 182.024 2.36613 182.233 2.24639C182.442 2.14375 182.619 2.22928 182.667 2.46877C182.683 2.5543 182.699 2.63983 182.699 2.72536C182.699 3.34118 182.699 3.95701 182.57 4.55572C182.442 5.12023 182.345 5.68473 182.217 6.24924C182.168 6.47162 182.072 6.694 182.024 6.91638C181.975 7.08744 181.959 7.2585 181.911 7.42957C181.879 7.54931 181.863 7.65195 181.815 7.75458C181.686 8.13092 181.541 8.50726 181.413 8.9007C181.155 9.70469 180.93 10.5087 180.609 11.2785C180.496 11.5351 180.432 11.8259 180.319 12.0996C180.158 12.5272 179.965 12.9549 179.805 13.3825C179.756 13.5194 179.692 13.6391 179.628 13.776C179.515 13.9812 179.467 14.2036 179.531 14.4431C179.612 14.751 179.515 15.0076 179.306 15.2471C179.049 15.555 178.791 15.8971 178.486 16.1537C178.357 16.2564 178.245 16.3932 178.132 16.5301C177.955 16.7182 177.762 16.8209 177.505 16.8038C177.376 16.8038 177.264 16.8038 177.135 16.8038C176.653 16.7524 176.428 16.2564 176.637 15.8458C176.733 15.6748 176.83 15.4866 176.926 15.3155L176.878 15.3497Z" fill="#B0906E"/>
<path d="M8.31965 12.2193C8.1106 12.2193 7.98195 12.2022 7.85331 12.2022C7.04927 12.2022 6.24523 12.2022 5.42512 12.2022C5.28039 12.2022 5.11958 12.2022 4.97486 12.1509C4.62108 12.0653 4.36379 11.689 4.37987 11.3126C4.41203 10.9021 4.70148 10.5771 5.08742 10.5429C5.19999 10.5429 5.31255 10.5429 5.40904 10.5429C6.56685 10.5429 7.74074 10.5429 8.89856 10.5429C8.97896 10.5429 9.05936 10.5429 9.13977 10.5429C9.55786 10.5258 9.92772 10.8679 9.9438 11.3982C9.9438 11.7745 9.92772 12.1509 9.83124 12.5272C9.3649 14.4944 8.191 15.7603 6.40604 16.4274C5.9397 16.5985 5.4412 16.6327 4.9427 16.6327C4.01001 16.6327 3.12557 16.4103 2.33762 15.8458C1.06724 14.9221 0.214961 13.7246 0.0380733 12.0482C-0.0744918 10.9705 0.054154 9.92705 0.536576 8.95199C1.16372 7.68613 2.12857 6.81372 3.39895 6.35185C4.47635 5.95841 5.58592 6.00973 6.66333 6.40317C7.2744 6.62555 7.80507 6.96767 8.27141 7.42954C8.41613 7.5835 8.56086 7.73745 8.67342 7.90851C8.88247 8.23353 8.85031 8.64408 8.6091 8.91778C8.35181 9.20859 7.94979 9.27701 7.62818 9.07174C7.51561 9.00331 7.41913 8.90067 7.32264 8.79804C6.84022 8.30196 6.2774 7.95983 5.60201 7.84009C4.71757 7.66903 3.88137 7.82298 3.12557 8.35328C2.20897 9.00331 1.66223 9.92705 1.58182 11.0903C1.42102 13.3483 3.1899 14.905 4.73365 14.9392C5.47336 14.9392 6.14875 14.8365 6.7759 14.3918C7.38697 13.9641 7.86939 13.4167 8.14276 12.6983C8.191 12.5614 8.22316 12.4246 8.28749 12.2193H8.31965Z" fill="#B0906E"/>
<path d="M183.921 12.8009C183.664 13.0233 183.471 13.2115 183.278 13.3825C183.101 13.5536 182.956 13.7589 182.683 13.9128C182.683 13.776 182.667 13.6904 182.683 13.622C182.763 13.3825 182.763 13.143 182.683 12.8864C182.619 12.6641 182.651 12.493 182.812 12.3219C182.956 12.168 183.085 11.9969 183.246 11.8601C183.648 11.4666 184.018 11.039 184.339 10.5771C184.548 10.2863 184.773 10.0126 184.999 9.7389C185.111 9.58495 185.272 9.49942 185.449 9.4481C185.61 9.39678 185.77 9.41389 185.931 9.48231C186.221 9.61916 186.349 9.85865 186.285 10.1837C186.172 10.7311 186.06 11.2956 185.947 11.843C185.899 12.0996 185.851 12.3562 185.819 12.6127C185.803 12.7496 185.787 12.9036 185.931 13.0233C185.98 13.0062 186.044 12.9891 186.092 12.9378C186.253 12.8009 186.398 12.647 186.575 12.5272C186.944 12.2535 187.282 11.9285 187.555 11.5351C187.829 11.1587 188.118 10.7824 188.392 10.406C188.52 10.2179 188.681 10.0639 188.858 9.92707C189.131 9.7218 189.356 9.48231 189.582 9.22572C189.71 9.07176 189.855 8.93491 190 8.79806C190.177 8.627 190.386 8.57568 190.611 8.57568C190.997 8.57568 191.141 8.76385 191.109 9.08887C191.093 9.31125 191.061 9.51652 191.013 9.7389C190.756 10.7995 190.482 11.8772 190.209 12.9378C190.177 13.0917 190.128 13.2457 190.096 13.3996C190.096 13.451 190.096 13.5023 190.096 13.5878C190.386 13.3996 190.482 13.0917 190.707 12.9036C190.948 12.6983 191.158 12.4759 191.383 12.2535C191.592 12.0653 191.753 11.7916 192.058 11.7061C192.09 11.7574 192.122 11.7916 192.122 11.8259C192.155 12.1509 192.138 12.4588 192.235 12.7667C192.267 12.8864 192.203 12.9891 192.122 13.0746C191.865 13.3483 191.608 13.622 191.334 13.8957C190.772 14.4773 190.209 15.0418 189.646 15.6234C189.373 15.9142 189.131 16.2222 188.938 16.5814C188.52 17.3512 188.086 18.1038 187.668 18.8736C187.491 19.1986 187.33 19.5408 187.17 19.8829C187.105 20.0197 187.041 20.1395 186.944 20.2421C186.639 20.5329 186.398 20.875 186.156 21.2343C185.98 21.508 185.77 21.7646 185.561 22.0041C185.272 22.3291 184.902 22.4659 184.5 22.483C184.178 22.5001 183.969 22.2435 183.986 21.9014C183.986 21.8501 183.986 21.7817 184.018 21.7304C184.195 21.3711 184.355 20.9948 184.564 20.6527C184.661 20.4816 184.806 20.3276 184.902 20.1566C184.95 20.071 185.015 20.0026 185.079 19.9171C185.143 19.8316 185.208 19.7289 185.272 19.6434C185.529 19.1302 185.835 18.6512 186.189 18.1894C186.301 18.0525 186.382 17.8986 186.462 17.7617C186.784 17.1972 187.121 16.6498 187.604 16.2222C187.7 16.1366 187.732 16.034 187.764 15.9314C187.861 15.5379 187.974 15.1445 188.086 14.7681C188.118 14.6484 188.15 14.5115 188.215 14.4089C188.504 13.8444 188.552 13.2286 188.633 12.6127C188.649 12.4417 188.633 12.2706 188.633 12.0482C188.536 12.0825 188.472 12.0825 188.424 12.1167C188.263 12.2364 188.102 12.3562 187.957 12.4759C187.861 12.5614 187.732 12.6641 187.684 12.8009C187.491 13.2457 187.137 13.5194 186.832 13.8444C186.784 13.8957 186.735 13.9641 186.671 13.9812C186.43 14.0497 186.285 14.2378 186.172 14.4602C186.044 14.6826 185.867 14.8366 185.642 14.9221C185.497 14.9905 185.336 15.0589 185.192 15.1103C184.999 15.1958 184.79 15.1787 184.597 15.1103C184.323 15.0076 184.227 14.8879 184.195 14.58C184.195 14.5286 184.195 14.4944 184.195 14.4431C184.275 13.9812 184.114 13.5536 184.098 13.1088C184.098 13.0233 184.034 12.9207 183.986 12.7667L183.921 12.8009Z" fill="#B0906E"/>
<path d="M109.902 9.85862C109.998 9.77309 110.078 9.68756 110.159 9.61913C110.545 9.2428 110.995 9.00331 111.51 8.91778C112.169 8.79804 112.812 8.84936 113.439 9.12305C113.504 9.15727 113.568 9.17437 113.632 9.20859C114.581 9.84152 115.208 10.6797 115.24 11.9285C115.24 12.0311 115.24 12.1337 115.24 12.2364C115.24 13.297 115.24 14.3576 115.24 15.4181C115.24 15.5892 115.24 15.7603 115.208 15.9313C115.144 16.3419 114.822 16.6156 114.42 16.5985C114.034 16.5985 113.713 16.2906 113.681 15.88C113.665 15.6918 113.664 15.5037 113.664 15.3155C113.664 14.3576 113.664 13.3996 113.664 12.4417C113.664 12.2877 113.664 12.1166 113.664 11.9627C113.648 11.2613 113.021 10.5087 112.169 10.5258C111.381 10.5429 110.77 11.1929 110.706 12.014C110.706 12.1337 110.706 12.2535 110.706 12.3561C110.706 13.3825 110.706 14.426 110.706 15.4523C110.706 15.5892 110.706 15.7432 110.706 15.88C110.657 16.2734 110.352 16.5643 109.998 16.5985C109.612 16.6156 109.291 16.3932 109.194 16.0169C109.146 15.8458 109.146 15.6747 109.146 15.5037C109.146 14.426 109.146 13.3483 109.146 12.2706C109.146 12.0995 109.146 11.9114 109.114 11.7574C108.969 11.0389 108.294 10.4916 107.618 10.5258C106.911 10.56 106.316 11.1245 106.219 11.8772C106.203 12.0653 106.203 12.2535 106.203 12.4417C106.203 13.4509 106.203 14.4773 106.203 15.4866C106.203 15.6234 106.203 15.7774 106.171 15.9142C106.09 16.3419 105.753 16.6156 105.351 16.5985C104.981 16.5643 104.675 16.2563 104.627 15.8287C104.627 15.7432 104.627 15.6576 104.627 15.5721C104.627 14.4431 104.627 13.297 104.627 12.168C104.627 11.7745 104.691 11.3982 104.788 11.0047C105.013 10.1152 106.026 9.03752 107.136 8.88357C107.634 8.81514 108.117 8.81514 108.599 8.95199C109.033 9.07174 109.419 9.27701 109.741 9.61913C109.805 9.68756 109.886 9.75598 109.966 9.82441L109.902 9.85862Z" fill="#B0906E"/>
<path d="M201.401 12.014C201.497 12.1337 201.578 12.2193 201.658 12.3219C202.109 12.8693 202.398 13.5022 202.414 14.2549C202.414 14.751 202.43 15.2471 202.414 15.7431C202.414 15.88 202.382 16.0339 202.318 16.1537C202.173 16.4787 201.819 16.6498 201.497 16.5813C201.208 16.5129 200.935 16.2221 200.886 15.8971C200.886 15.7945 200.886 15.6918 200.886 15.5892C200.886 15.2471 200.886 14.922 200.886 14.5799C200.87 13.622 200.227 12.9035 199.31 12.8522C198.796 12.8351 198.265 12.8522 197.751 12.8522C197.718 12.8522 197.67 12.8693 197.638 12.8864C197.542 12.989 197.558 13.1088 197.558 13.2285C197.558 13.9812 197.558 14.7339 197.558 15.4865C197.558 15.6234 197.558 15.7431 197.558 15.88C197.509 16.3076 197.172 16.6155 196.77 16.5984C196.4 16.5984 196.078 16.2563 196.046 15.8458C196.046 15.7602 196.046 15.6747 196.046 15.5892C196.046 13.3825 196.046 11.1758 196.046 8.96908C196.046 8.52432 196.078 8.09666 196.271 7.70322C196.673 6.79659 197.333 6.2834 198.265 6.18077C198.764 6.11234 199.278 6.12945 199.777 6.19787C200.5 6.2834 201.095 6.65974 201.594 7.20714C202.736 8.45589 202.671 10.4744 201.723 11.6376C201.626 11.7574 201.53 11.8771 201.401 12.0311V12.014ZM197.606 11.1758C197.735 11.1758 197.831 11.21 197.911 11.21C198.41 11.21 198.925 11.21 199.423 11.1758C200.082 11.1416 200.517 10.7481 200.774 10.1323C201.144 9.20856 200.597 8.07955 199.696 7.87428C199.246 7.77164 198.796 7.77164 198.346 7.85717C197.928 7.9256 197.638 8.26772 197.59 8.71248C197.59 8.78091 197.59 8.84933 197.59 8.93486C197.59 9.5849 197.59 10.2349 197.59 10.9021C197.59 10.9876 197.59 11.0731 197.606 11.21V11.1758Z" fill="#B0906E"/>
<path d="M33.3252 9.44803C33.3252 9.22565 33.3252 9.0888 33.3252 8.93484C33.3252 8.35323 33.3252 7.77162 33.3252 7.19001C33.3252 7.05316 33.3252 6.89921 33.3573 6.76236C33.4217 6.36891 33.7433 6.09521 34.1131 6.09521C34.4991 6.09521 34.8207 6.38602 34.885 6.79657C34.9011 6.93342 34.9011 7.05316 34.9011 7.19001C34.9011 9.00327 34.9011 10.8165 34.9011 12.6298C34.9011 13.0403 34.885 13.4509 34.7564 13.8443C34.3222 15.247 33.4217 16.1879 32.0709 16.53C31.0096 16.8037 29.9643 16.6155 29.0799 15.88C28.3562 15.2983 27.8256 14.5799 27.6487 13.6048C27.2788 11.5008 28.2115 9.80726 30.0447 9.05459C30.2216 8.98616 30.4146 8.93484 30.6075 8.91774C31.1864 8.83221 31.7493 8.84931 32.3121 9.00327C32.5533 9.07169 32.7945 9.20854 33.0357 9.31118C33.1 9.34539 33.1805 9.39671 33.3091 9.46514L33.3252 9.44803ZM31.2668 10.5428C30.2055 10.4915 29.1924 11.4495 29.1764 12.6982C29.1603 14.0667 30.2216 14.9733 31.2186 14.9733C32.489 14.9733 33.3252 13.8614 33.3252 12.7837C33.3252 11.4323 32.2317 10.5086 31.2668 10.5599V10.5428Z" fill="#B0906E"/>
<path d="M68.2043 14.3404C68.3651 14.597 68.5741 14.7167 68.8154 14.8193C69.8928 15.2812 71.0506 14.7338 71.5169 13.7417C71.5812 13.6048 71.6295 13.468 71.6938 13.3482C71.8546 13.0574 72.0958 12.9035 72.4014 12.9206C72.7069 12.9206 72.932 13.1087 73.0767 13.4166C73.1732 13.639 73.1571 13.8614 73.0767 14.1009C72.8999 14.6654 72.5943 15.1444 72.1923 15.5378C71.7742 15.9655 71.2757 16.2563 70.729 16.4615C70.4234 16.5813 70.1179 16.5984 69.7963 16.5984C68.7832 16.6497 67.9148 16.3076 67.1751 15.572C66.6284 15.0246 66.2103 14.3746 66.0655 13.5706C65.8887 12.4929 65.9851 11.4494 66.6123 10.5257C67.5932 9.08877 69.1048 8.49005 70.7772 9.02035C71.6134 9.29405 72.2566 9.82434 72.723 10.5941C72.8355 10.7823 72.932 10.9705 72.9963 11.1757C73.125 11.5692 72.9963 11.9455 72.6426 12.1508C72.4978 12.2363 72.3531 12.3047 72.1923 12.3732C71.0506 12.9206 69.8928 13.468 68.751 14.0325C68.5581 14.118 68.3812 14.2206 68.1882 14.3233L68.2043 14.3404ZM71.0023 11.0902C70.7611 10.8336 70.6486 10.7481 70.4073 10.6625C70.0536 10.5257 69.6837 10.5257 69.3139 10.577C68.4133 10.6968 67.6575 11.5692 67.5932 12.5271C67.5932 12.5955 67.5771 12.6811 67.6575 12.7153C68.156 12.5271 70.5842 11.381 71.0184 11.1073L71.0023 11.0902Z" fill="#B0906E"/>
<path d="M76.3572 14.3576C76.4859 14.5457 76.6627 14.6655 76.8396 14.751C77.8688 15.2642 79.1231 14.8023 79.6538 13.7246C79.7181 13.5878 79.7663 13.4509 79.8306 13.3312C79.9915 13.0404 80.2327 12.9035 80.5382 12.9206C80.8437 12.9377 81.0689 13.1259 81.2136 13.4167C81.3101 13.622 81.294 13.8444 81.2136 14.0496C81.0689 14.4944 80.8598 14.8878 80.5543 15.2471C80.0075 15.8971 79.3482 16.359 78.5442 16.53C77.515 16.7353 76.518 16.5814 75.6497 15.8971C74.9099 15.3155 74.3632 14.5799 74.1863 13.6049C73.9773 12.5101 74.0898 11.4495 74.7331 10.5258C75.714 9.08885 77.2256 8.49013 78.898 9.03753C79.702 9.29412 80.3292 9.80731 80.8116 10.5429C80.9081 10.6968 81.0045 10.8679 81.0689 11.039C81.2779 11.5692 81.1493 11.9627 80.6508 12.2364C80.5221 12.3048 80.4096 12.3561 80.2809 12.4246C79.0909 12.9891 77.917 13.5707 76.7271 14.1352C76.5984 14.2036 76.4537 14.2378 76.3411 14.3747L76.3572 14.3576ZM79.1392 11.0732C78.7372 10.4916 77.5311 10.3889 76.8557 10.7653C76.1482 11.1587 75.6657 11.9798 75.7622 12.6811C76.1482 12.5785 78.7372 11.3469 79.1392 11.0732Z" fill="#B0906E"/>
<path d="M232.051 14.2549C232.228 14.5286 232.437 14.6483 232.678 14.7509C233.675 15.1444 234.785 14.6996 235.267 13.6904C235.331 13.5535 235.396 13.3995 235.46 13.2627C235.605 12.989 235.846 12.8521 236.135 12.8693C236.441 12.8693 236.65 13.0403 236.795 13.314C236.907 13.5535 236.875 13.793 236.795 14.0325C236.602 14.5799 236.328 15.0417 235.926 15.4352C235.492 15.8628 234.994 16.1879 234.415 16.3589C233.659 16.5984 232.887 16.5642 232.163 16.2392C231.038 15.7431 230.266 14.8536 229.976 13.5877C229.735 12.5442 229.864 11.5179 230.427 10.6112C231.375 9.08879 232.855 8.50717 234.495 8.98615C235.347 9.22564 235.958 9.80725 236.457 10.5428C236.57 10.7139 236.65 10.9191 236.73 11.1244C236.859 11.5008 236.73 11.86 236.409 12.0653C236.28 12.1508 236.135 12.2192 236.007 12.2705C234.881 12.8179 233.739 13.3824 232.614 13.9298C232.437 14.0154 232.276 14.1009 232.051 14.2206V14.2549ZM231.456 12.7153C232.565 12.185 233.627 11.6718 234.704 11.1415C234.736 11.1415 234.752 11.0731 234.785 11.056C234.463 10.4915 233.321 10.406 232.694 10.6797C231.954 11.0047 231.44 11.8258 231.472 12.7153H231.456Z" fill="#B0906E"/>
<path d="M217.401 15.8628C217.176 16.0168 216.951 16.1707 216.726 16.2905C216.179 16.5813 215.6 16.6155 215.005 16.5471C213.301 16.376 212.175 14.9049 211.902 13.7588C211.66 12.7837 211.709 11.8087 212.175 10.9191C212.899 9.55064 214.008 8.81507 215.536 8.84929C217.224 8.8835 218.591 10.3204 218.881 11.6889C218.929 11.9455 218.977 12.2021 218.977 12.4587C218.993 13.5022 218.993 14.5457 218.993 15.6062C218.993 15.7089 218.993 15.8115 218.961 15.9141C218.897 16.2392 218.688 16.4444 218.382 16.53C218.093 16.6155 217.835 16.4958 217.643 16.2734C217.546 16.1536 217.482 15.9997 217.401 15.8628ZM213.333 12.6811C213.301 13.9469 214.266 14.9049 215.375 14.922C216.436 14.922 217.433 13.8956 217.433 12.7666C217.433 11.6205 216.549 10.5428 215.407 10.5257C214.121 10.5086 213.285 11.6718 213.317 12.6811H213.333Z" fill="#B0906E"/>
<path d="M14.6876 16.6156C12.6454 16.684 10.973 14.751 10.973 12.7838C10.973 10.3547 12.9026 8.84935 14.575 8.83224C16.7299 8.79803 18.3058 10.6968 18.3219 12.6469C18.3379 14.8194 16.6012 16.6327 14.6876 16.5985V16.6156ZM16.7138 12.7667C16.7459 11.4153 15.6203 10.5429 14.6876 10.5429C13.562 10.5429 12.581 11.5008 12.565 12.7154C12.565 14.0667 13.6102 14.9905 14.6072 14.9734C15.8776 14.9734 16.7299 13.8444 16.7138 12.7667Z" fill="#B0906E"/>
<path d="M51.5286 16.6155C49.4702 16.684 47.8139 14.7339 47.8139 12.8009C47.8139 10.3718 49.7436 8.86644 51.3999 8.84933C53.5547 8.81512 55.1306 10.7139 55.1628 12.664C55.1789 14.8365 53.4422 16.6669 51.5286 16.6155ZM53.5547 12.7838C53.5869 11.4324 52.4612 10.56 51.5446 10.5428C50.419 10.5257 49.422 11.5008 49.4059 12.7153C49.3898 14.0838 50.4511 14.9905 51.4481 14.9905C52.7185 14.9905 53.5869 13.8786 53.5547 12.8009V12.7838Z" fill="#B0906E"/>
<path d="M99.7707 16.6156C97.7285 16.684 96.0561 14.751 96.0561 12.7838C96.0561 10.3376 98.0019 8.84938 99.6582 8.83227C101.813 8.81516 103.389 10.6968 103.405 12.6641C103.421 14.8194 101.684 16.6498 99.7707 16.6156ZM99.7386 10.5429C98.6773 10.5087 97.6642 11.4666 97.6642 12.7154C97.6642 14.0668 98.7255 14.9734 99.7225 14.9734C100.993 14.9563 101.829 13.8444 101.829 12.7667C101.829 11.4324 100.736 10.4916 99.7547 10.56L99.7386 10.5429Z" fill="#B0906E"/>
<path d="M23.0014 16.6155C20.9269 16.6839 19.2867 14.7338 19.2706 12.8008C19.2706 10.3718 21.1842 8.88351 22.8084 8.83219C25.0114 8.78088 26.5713 10.6797 26.6195 12.5956C26.6678 14.8365 24.8828 16.6497 23.0014 16.5984V16.6155ZM22.9531 10.5428C21.8918 10.4915 20.8787 11.4665 20.8787 12.7153C20.8787 14.0667 21.924 14.9904 22.921 14.9733C24.1913 14.9733 25.0275 13.8443 25.0275 12.7666C25.0275 11.4323 23.934 10.4915 22.9531 10.5428Z" fill="#B0906E"/>
<path d="M207.045 16.5985C205.244 16.6498 204.006 15.2813 203.604 14.1181C203.282 13.2115 203.298 12.2877 203.604 11.3811C204.295 9.32838 206.724 8.0283 208.927 9.48233C209.972 10.1666 210.551 11.2272 210.599 12.5614C210.647 14.3576 209.666 15.8458 208.074 16.4275C207.737 16.5472 207.383 16.5985 207.061 16.5814L207.045 16.5985ZM206.981 10.56C205.855 10.5429 204.939 11.5522 204.923 12.7154C204.923 13.9471 205.823 14.9734 206.981 14.9563C208.316 14.9563 209.055 13.7076 209.039 12.8009C209.039 11.5009 208.042 10.5258 206.981 10.56Z" fill="#B0906E"/>
<path d="M45.2088 16.6156C43.5525 16.6327 42.25 15.9656 41.2208 14.6826C40.6419 13.947 40.256 13.0917 40.1434 12.1338C39.9987 10.6797 40.2238 9.31124 41.1243 8.14802C42.25 6.67688 43.7133 5.95842 45.5304 6.11238C45.8038 6.12948 46.0772 6.19791 46.3345 6.28344C46.7043 6.38608 46.8651 6.62556 46.8812 7.0019C46.8973 7.36113 46.7365 7.65194 46.431 7.823C46.238 7.92564 46.0289 7.90853 45.8199 7.85721C45.5304 7.78879 45.2571 7.77168 44.9676 7.77168C43.1987 7.80589 42.1213 9.1915 41.8158 10.3547C41.3816 11.9456 42.0409 13.6391 43.3917 14.4773C43.842 14.751 44.3083 14.905 44.839 14.9221C45.1927 14.9221 45.5465 14.9221 45.9003 14.8536C46.1093 14.8023 46.3023 14.8194 46.4953 14.9392C46.7687 15.1102 46.8973 15.3668 46.8812 15.709C46.8812 16.0511 46.7204 16.2906 46.4149 16.4103C46.2058 16.4958 45.9968 16.5472 45.7877 16.5814C45.5787 16.6156 45.3535 16.6156 45.1927 16.6156H45.2088Z" fill="#B0906E"/>
<path d="M88.1927 8.86645C88.3696 8.86645 88.5304 8.86645 88.6912 8.86645C89.0449 8.86645 89.3987 8.86645 89.7525 8.86645C90.1706 8.90066 90.4761 9.22568 90.4761 9.65333C90.4761 10.0981 90.2028 10.4744 89.7525 10.4915C89.3666 10.5257 88.9806 10.4915 88.6108 10.4915C88.466 10.4915 88.3052 10.4573 88.1766 10.5429C88.0962 10.6797 88.1283 10.8337 88.1283 10.9705C88.1283 12.4588 88.1283 13.9299 88.1283 15.4181C88.1283 15.555 88.1283 15.7089 88.1123 15.8458C88.0479 16.3076 87.7102 16.5985 87.2761 16.5813C86.874 16.5642 86.5364 16.1366 86.5524 15.7774C86.5524 15.6918 86.5524 15.6063 86.5524 15.5208C86.5524 13.4338 86.5524 11.3297 86.5524 9.24278C86.5524 8.84934 86.5846 8.4559 86.6972 8.07956C87.0349 7.00187 87.9836 6.18077 89.061 6.07814C89.2862 6.06103 89.4952 6.06103 89.7203 6.07814C90.1545 6.09524 90.46 6.40316 90.4761 6.83081C90.5083 7.29268 90.2349 7.6348 89.8007 7.72033C89.6399 7.75455 89.4791 7.72033 89.3022 7.75455C88.7555 7.78876 88.3213 8.14799 88.1444 8.71249C88.1444 8.7296 88.1444 8.76381 88.1766 8.84934L88.1927 8.86645Z" fill="#B0906E"/>
<path d="M57.9126 8.84936C58.1056 8.84936 58.2664 8.84936 58.4433 8.84936C58.8132 8.84936 59.183 8.84936 59.5529 8.86646C60.0192 8.90068 60.3087 9.32833 60.2283 9.82441C60.18 10.1665 59.9388 10.4402 59.6172 10.4916C59.5046 10.5087 59.3921 10.5087 59.2956 10.5087C58.974 10.5087 58.6684 10.5087 58.3468 10.5087C58.2182 10.5087 58.0734 10.5087 57.9609 10.5258C57.8644 10.6968 57.8965 10.8679 57.8965 11.0218C57.8965 12.493 57.8965 13.9641 57.8965 15.4181C57.8965 15.555 57.8965 15.7089 57.8805 15.8458C57.8161 16.3077 57.4784 16.5985 57.0604 16.5814C56.6423 16.5814 56.3046 16.1195 56.3367 15.7774C56.3367 15.7089 56.3367 15.6405 56.3367 15.555C56.3367 13.4167 56.3367 11.2784 56.3367 9.14016C56.3367 8.78093 56.385 8.4217 56.4814 8.06247C56.8031 6.98478 57.7679 6.14658 58.8453 6.06105C59.0704 6.04394 59.3117 6.04394 59.5368 6.06105C59.9388 6.09526 60.2283 6.40317 60.2604 6.81372C60.2926 7.24138 60.0674 7.5835 59.6654 7.68614C59.4885 7.72035 59.3117 7.72035 59.1348 7.73746C58.5398 7.75456 58.1699 8.09669 57.9448 8.64408C57.9448 8.6783 57.9448 8.72961 57.9448 8.83225L57.9126 8.84936Z" fill="#B0906E"/>
<path d="M62.8494 8.86646C63.0424 8.86646 63.2032 8.86646 63.3801 8.86646C63.7499 8.86646 64.1198 8.86646 64.4896 8.86646C64.956 8.90068 65.2454 9.32833 65.165 9.82441C65.1168 10.1665 64.8756 10.4402 64.554 10.4916C64.4414 10.5087 64.3288 10.5087 64.2323 10.5087C63.9107 10.5087 63.6052 10.5087 63.2836 10.5087C63.1549 10.5087 63.0102 10.5087 62.8976 10.5258C62.8012 10.6968 62.8333 10.8679 62.8333 11.0218C62.8333 12.493 62.8333 13.9641 62.8333 15.4181C62.8333 15.555 62.8333 15.7089 62.8172 15.8458C62.7529 16.3077 62.4152 16.5985 61.9971 16.5814C61.579 16.5814 61.2413 16.1195 61.2735 15.7774C61.2735 15.7089 61.2735 15.6405 61.2735 15.555C61.2735 13.4167 61.2735 11.2784 61.2735 9.14016C61.2735 8.78093 61.3217 8.4217 61.4182 8.06247C61.7398 6.98478 62.7047 6.14658 63.7821 6.06105C64.0072 6.04394 64.2484 6.04394 64.4736 6.06105C64.8756 6.09526 65.165 6.40317 65.1972 6.81372C65.2293 7.24138 65.0042 7.5835 64.6022 7.68614C64.4253 7.72035 64.2484 7.72035 64.0715 7.73746C63.4765 7.75456 63.1067 8.09669 62.8816 8.64408C62.8816 8.6783 62.8816 8.72961 62.8816 8.83225L62.8494 8.86646Z" fill="#B0906E"/>
<path d="M221.775 16.5813C221.518 16.5813 221.261 16.5813 221.003 16.5813C220.875 16.5813 220.762 16.5813 220.65 16.53C220.28 16.3932 220.087 16.0511 220.135 15.6405C220.167 15.2813 220.457 14.9734 220.81 14.922C220.907 14.922 221.003 14.922 221.1 14.922C221.55 14.922 222 14.922 222.451 14.922C222.579 14.922 222.724 14.8878 222.853 14.8365C223.078 14.7339 223.206 14.5286 223.206 14.2549C223.206 13.9983 223.078 13.8272 222.853 13.7075C222.772 13.6733 222.676 13.6391 222.579 13.6049C222.338 13.5364 222.113 13.468 221.872 13.3825C221.695 13.3141 221.502 13.2627 221.325 13.1772C220.521 12.8009 220.167 12.1337 220.167 11.21C220.167 9.99546 220.971 9.20857 221.743 8.96909C221.807 8.95198 221.872 8.91777 221.936 8.91777C222.467 8.84934 222.997 8.84934 223.528 8.88356C223.785 8.88356 223.994 9.03751 224.139 9.25989C224.429 9.75597 224.155 10.406 223.608 10.4915C223.496 10.5086 223.383 10.4915 223.287 10.5086C223.03 10.5086 222.772 10.5086 222.515 10.5086C222.386 10.5086 222.242 10.5258 222.113 10.56C221.856 10.6284 221.727 10.8337 221.679 11.0903C221.63 11.364 221.727 11.5863 221.952 11.7232C222.097 11.8258 222.274 11.8942 222.435 11.9456C222.724 12.0482 223.013 12.1166 223.303 12.2193C223.415 12.2535 223.544 12.3048 223.641 12.3561C224.187 12.6298 224.509 13.0746 224.638 13.7075C224.895 15.0247 224.107 16.3076 222.885 16.5471C222.772 16.5642 222.644 16.5813 222.515 16.5813C222.274 16.5813 222.016 16.5813 221.775 16.5813Z" fill="#B0906E"/>
<path d="M244.015 16.3932C243.79 16.3932 243.581 16.3932 243.356 16.3932C243.243 16.3932 243.13 16.3932 243.034 16.359C242.648 16.2563 242.391 15.8971 242.439 15.4866C242.471 15.1102 242.761 14.7852 243.13 14.751C243.243 14.751 243.356 14.751 243.452 14.751C243.87 14.751 244.304 14.751 244.722 14.751C244.851 14.751 244.996 14.7168 245.124 14.6655C245.366 14.5628 245.478 14.3405 245.478 14.0839C245.478 13.8102 245.35 13.6562 245.124 13.5536C244.98 13.4851 244.835 13.4509 244.69 13.3996C244.433 13.3141 244.16 13.2457 243.902 13.143C243.693 13.0575 243.5 12.972 243.307 12.8522C242.905 12.5956 242.616 12.2193 242.535 11.7232C242.342 10.6113 242.6 9.82441 243.356 9.20859C243.693 8.93489 244.063 8.78093 244.497 8.76383C244.915 8.74672 245.35 8.76383 245.768 8.76383C246.009 8.76383 246.186 8.86647 246.347 9.03753C246.54 9.25991 246.604 9.5165 246.507 9.80731C246.411 10.1152 246.218 10.3034 245.928 10.3547C245.752 10.3889 245.575 10.3718 245.398 10.3889C245.092 10.3889 244.803 10.3889 244.497 10.4231C244.272 10.4231 244.111 10.5771 244.015 10.7824C243.886 11.0732 243.967 11.4153 244.208 11.5864C244.304 11.6548 244.401 11.7061 244.497 11.7403C244.739 11.8258 244.996 11.8943 245.237 11.9969C245.478 12.0824 245.736 12.168 245.961 12.2706C246.459 12.5272 246.765 12.9377 246.893 13.5194C247.151 14.7339 246.507 15.9484 245.414 16.3077C245.189 16.3761 244.931 16.4103 244.69 16.4274C244.465 16.4445 244.224 16.4274 243.999 16.4274L244.015 16.3932Z" fill="#B0906E"/>
<path d="M227.355 8.78091C227.596 8.84933 227.806 8.81512 228.015 8.83222C228.175 8.83222 228.352 8.84933 228.497 8.90065C228.851 9.02039 229.092 9.39673 229.044 9.77306C228.995 10.1665 228.706 10.4573 228.336 10.4915C228.191 10.4915 228.031 10.4915 227.886 10.4915C227.741 10.4915 227.58 10.4915 227.42 10.4915C227.404 10.6113 227.371 10.7139 227.371 10.7994C227.371 11.9113 227.371 13.0403 227.371 14.1523C227.371 14.2207 227.371 14.3062 227.371 14.3746C227.404 14.751 227.532 14.8878 227.886 14.9049C228.015 14.9049 228.127 14.9049 228.256 14.9049C228.368 14.9049 228.497 14.9391 228.61 14.9905C228.899 15.1444 229.06 15.4181 229.044 15.7602C229.044 16.1024 228.803 16.3932 228.497 16.4958C228.24 16.5813 227.982 16.5642 227.725 16.5471C227.13 16.5129 226.648 16.2392 226.262 15.7602C225.972 15.3839 225.812 14.9733 225.812 14.4773C225.812 13.7759 225.812 13.0746 225.812 12.3903C225.812 10.7139 225.812 9.02039 225.812 7.34398C225.812 7.19003 225.812 7.01897 225.812 6.86501C225.844 6.42025 226.165 6.09523 226.551 6.07812C226.969 6.07812 227.307 6.38604 227.339 6.86501C227.355 7.32688 227.339 7.78875 227.339 8.25061C227.339 8.40457 227.339 8.55852 227.339 8.74669L227.355 8.78091Z" fill="#B0906E"/>
<path d="M91.4892 13.6732C91.4892 13.0916 91.4892 12.51 91.4892 11.9284C91.4892 11.6889 91.5214 11.4665 91.5535 11.227C91.6822 10.0638 92.7435 9.12298 93.6119 8.91771C93.9978 8.83218 94.3676 8.81507 94.7536 8.84928C95.1556 8.8835 95.429 9.22562 95.429 9.65328C95.429 10.0638 95.1717 10.4059 94.7857 10.4744C94.5767 10.5086 94.3516 10.5086 94.1264 10.5257C93.5958 10.6112 93.1777 11.0389 93.0973 11.6205C93.0812 11.7916 93.0812 11.9626 93.0812 12.1508C93.0812 13.2627 93.0812 14.3575 93.0812 15.4694C93.0812 15.6233 93.0812 15.7944 93.049 15.9484C92.9686 16.3589 92.647 16.6155 92.245 16.5984C91.8751 16.5813 91.5696 16.2734 91.5214 15.897C91.5214 15.7773 91.5214 15.6576 91.5214 15.5549C91.5214 14.922 91.5214 14.3062 91.5214 13.6732H91.4892Z" fill="#B0906E"/>
<path d="M238.129 13.5365C238.129 13.0062 238.129 12.4588 238.129 11.9285C238.129 11.6719 238.129 11.3982 238.178 11.1416C238.371 9.9613 239.432 9.00335 240.365 8.88361C240.606 8.8494 240.847 8.83229 241.104 8.81519C241.217 8.81519 241.346 8.83229 241.458 8.88361C241.78 9.00335 241.957 9.29416 241.957 9.65339C241.957 9.99551 241.764 10.3034 241.442 10.4061C241.346 10.4403 241.233 10.4574 241.12 10.4574C241.008 10.4574 240.895 10.4574 240.799 10.4574C240.172 10.5087 239.705 11.0048 239.673 11.6719C239.673 11.7917 239.673 11.9114 239.673 12.014C239.673 13.1259 239.673 14.2207 239.673 15.3326C239.673 15.4695 239.673 15.5892 239.673 15.7261C239.641 16.1366 239.319 16.4617 238.95 16.4788C238.564 16.4788 238.21 16.1709 238.162 15.7432C238.162 15.6063 238.162 15.4866 238.162 15.3498C238.162 14.7339 238.162 14.1352 238.162 13.5194L238.129 13.5365Z" fill="#B0906E"/>
</svg>
