<svg width="40" height="40" viewBox="0 0 40 40" fill="none" xmlns="http://www.w3.org/2000/svg">
<g id="icon_banhngot 1">
<path id="Vector" d="M23.02 6.91C26.32 7.64 27.55 11.4 25.39 13.86C25.5 13.86 25.59 13.88 25.69 13.88C26.78 13.88 27.86 13.88 28.95 13.88C31.63 13.89 33.92 15.74 34.46 18.36C34.56 18.83 34.58 19.32 34.58 19.8C34.58 23.64 34.58 27.48 34.58 31.32V31.79C35.02 31.79 35.43 31.79 35.84 31.79C36.41 31.79 36.66 32.05 36.65 32.62C36.61 34.57 35.02 36.34 33.09 36.59C32.85 36.62 32.61 36.65 32.37 36.65C23.99 36.65 15.61 36.65 7.23005 36.65C5.19005 36.65 3.54005 35.35 3.06005 33.36C3.00005 33.11 2.96005 32.84 2.95005 32.58C2.93005 32.05 3.19005 31.78 3.72005 31.78C4.25005 31.78 4.77005 31.78 5.35005 31.78C5.35005 31.62 5.35005 31.49 5.35005 31.35C5.35005 27.49 5.35005 23.63 5.35005 19.77C5.35005 18.62 5.57005 17.53 6.20005 16.55C7.30005 14.85 8.86005 13.96 10.88 13.89C11.89 13.86 12.9 13.89 13.91 13.89C14.02 13.89 14.12 13.89 14.2 13.89C13.87 13.37 13.49 12.88 13.22 12.35C12.65 11.25 12.62 10.08 12.92 8.9C12.99 8.61 13.19 8.44 13.48 8.36C14.54 8.09 15.58 8.13 16.61 8.53C16.68 8.56 16.75 8.58 16.85 8.61C16.81 7.82 16.89 7.08 17.17 6.36C17.61 5.23 18.37 4.39 19.41 3.78C19.68 3.62 19.93 3.68 20.18 3.83C20.94 4.29 21.55 4.88 22.02 5.69C22.09 5.58 22.14 5.5 22.18 5.43C23.02 3.89 24.33 3.08 26.07 2.96C26.53 2.93 26.84 3.16 26.87 3.55C26.91 3.97 26.66 4.24 26.17 4.27C24.82 4.37 23.83 5.01 23.26 6.24C23.16 6.44 23.11 6.67 23.04 6.91H23.02ZM33.25 22.99C33.11 23.08 33.02 23.14 32.93 23.2C31.84 23.89 30.74 23.88 29.66 23.17C29.25 22.9 28.85 22.61 28.44 22.33C27.84 21.92 27.23 21.92 26.63 22.33C26.22 22.61 25.82 22.89 25.41 23.17C24.34 23.89 23.16 23.89 22.09 23.17C21.68 22.9 21.28 22.61 20.87 22.33C20.27 21.93 19.66 21.93 19.06 22.33C18.66 22.6 18.27 22.88 17.87 23.15C16.77 23.89 15.59 23.9 14.5 23.15C14.09 22.87 13.69 22.58 13.28 22.31C12.7 21.93 12.11 21.93 11.53 22.31C11.11 22.59 10.7 22.88 10.28 23.16C9.54005 23.67 8.73005 23.83 7.88005 23.59C7.47005 23.48 7.10005 23.24 6.69005 23.05V31.75H33.25V22.98V22.99ZM6.77005 18.35C6.74005 18.96 6.69005 19.54 6.68005 20.13C6.67005 20.54 6.56005 21.03 6.74005 21.35C6.93005 21.69 7.39005 21.87 7.75005 22.11C8.33005 22.49 8.92005 22.49 9.50005 22.11C9.92005 21.83 10.33 21.54 10.75 21.26C11.82 20.54 12.97 20.54 14.04 21.25C14.43 21.51 14.82 21.78 15.21 22.05C15.9 22.52 16.49 22.52 17.19 22.05C17.57 21.79 17.95 21.52 18.33 21.27C19.4 20.55 20.54 20.55 21.62 21.26C22.01 21.52 22.4 21.79 22.79 22.06C23.49 22.53 24.07 22.53 24.77 22.06C25.13 21.81 25.49 21.56 25.85 21.32C26.99 20.54 28.13 20.55 29.28 21.32C29.68 21.59 30.07 21.88 30.47 22.14C31.04 22.51 31.62 22.51 32.2 22.14C32.5 21.94 32.8 21.74 33.09 21.52C33.17 21.46 33.27 21.36 33.27 21.28C33.27 20.47 33.33 19.64 33.21 18.85C32.87 16.67 31.09 15.22 28.89 15.21C22.97 15.21 17.04 15.21 11.12 15.22C10.59 15.22 10.05 15.33 9.54005 15.48C8.70005 15.74 8.03005 16.28 7.48005 17.05H7.86005C9.38005 17.05 10.91 17.05 12.43 17.05C13.02 17.05 13.35 17.28 13.34 17.71C13.34 18.14 13.02 18.36 12.42 18.36C10.58 18.36 8.74005 18.36 6.78005 18.36L6.77005 18.35ZM35.22 33.11H4.36005C4.38005 33.19 4.39005 33.26 4.41005 33.32C4.78005 34.54 5.92005 35.33 7.30005 35.33C15.63 35.33 23.97 35.33 32.3 35.33C32.38 35.33 32.45 35.33 32.53 35.33C33.85 35.26 35.02 34.3 35.21 33.11H35.22ZM25.15 11.04C25.16 9.47 23.91 8.2 22.33 8.18C20.78 8.16 19.48 9.44 19.47 11C19.47 12.56 20.74 13.86 22.29 13.87C23.85 13.88 25.13 12.61 25.14 11.04H25.15ZM18.35 13.78C18.37 13.71 18.39 13.66 18.39 13.61C18.71 11.14 16.57 9.17 14.26 9.54C14.19 9.55 14.09 9.69 14.08 9.78C13.76 12.47 16.22 14.3 18.35 13.79V13.78ZM19.74 5.12C18.08 6.19 17.83 8.44 18.46 9.44C18.99 8.22 19.9 7.43 21.15 7.01C20.89 6.2 20.42 5.59 19.74 5.11V5.12Z" fill="#000"/>
<path id="Vector_2" d="M15.19 17.04C15.53 17.04 15.84 17.34 15.85 17.69C15.85 18.03 15.55 18.35 15.2 18.35C14.86 18.35 14.54 18.04 14.54 17.7C14.54 17.36 14.85 17.04 15.19 17.04Z" fill="#255D54"/>
</g>
</svg>
