<svg width="36" height="36" viewBox="0 0 36 36" fill="none" xmlns="http://www.w3.org/2000/svg">
<g id="icon_giohang 1">
<path id="Vector" d="M10.82 14.11C10.63 14.55 10.45 14.96 10.27 15.38C10.05 15.89 10.22 16.38 10.68 16.58C11.13 16.77 11.58 16.56 11.81 16.06C12.07 15.47 12.34 14.87 12.59 14.27C12.65 14.13 12.73 14.08 12.88 14.08C16.3 14.08 19.72 14.08 23.14 14.08C23.31 14.08 23.38 14.15 23.44 14.29C23.69 14.88 23.95 15.47 24.21 16.05C24.44 16.57 24.9 16.77 25.36 16.57C25.81 16.37 25.96 15.89 25.75 15.39C25.57 14.97 25.38 14.54 25.19 14.08C25.33 14.08 25.42 14.08 25.51 14.08C27.34 14.08 29.16 14.11 30.99 14.07C31.8 14.05 32.51 14.7 32.28 15.67C31.24 20.14 30.22 24.61 29.19 29.08C29.05 29.67 28.61 30.04 28 30.07C27.92 30.07 27.83 30.07 27.75 30.07C21.26 30.07 14.77 30.07 8.28995 30.07C7.39995 30.07 7.00995 29.78 6.80995 28.92C5.77995 24.45 4.74995 19.98 3.72995 15.5C3.56995 14.8 4.09995 14.09 4.81995 14.08C6.79995 14.07 8.76995 14.08 10.75 14.08C10.77 14.08 10.79 14.09 10.84 14.11H10.82ZM13.81 22.54C13.81 21.53 13.81 20.53 13.81 19.52C13.81 18.97 13.47 18.61 12.97 18.61C12.47 18.61 12.13 18.98 12.13 19.52C12.13 21.51 12.13 23.51 12.13 25.5C12.13 26.03 12.48 26.43 12.96 26.44C13.44 26.45 13.81 26.05 13.81 25.5C13.81 24.51 13.81 23.53 13.81 22.54ZM18.84 22.52C18.84 21.53 18.84 20.55 18.84 19.56C18.84 18.99 18.51 18.62 18 18.62C17.49 18.62 17.16 18.99 17.16 19.56C17.16 21.54 17.16 23.53 17.16 25.51C17.16 26.06 17.53 26.46 18.01 26.45C18.49 26.45 18.84 26.05 18.84 25.52C18.84 24.52 18.84 23.53 18.84 22.53V22.52ZM23.87 22.52C23.87 21.52 23.87 20.53 23.87 19.53C23.87 18.98 23.54 18.61 23.04 18.61C22.53 18.61 22.19 18.97 22.19 19.54C22.19 21.52 22.19 23.51 22.19 25.49C22.19 26.04 22.55 26.44 23.03 26.44C23.52 26.44 23.87 26.04 23.87 25.49C23.87 24.5 23.87 23.52 23.87 22.53V22.52Z" fill="white"/>
<path id="Vector_2" d="M10.86 14.02C11.02 13.65 11.15 13.33 11.29 13.01C12.23 10.85 13.18 8.69001 14.13 6.52001C14.32 6.08001 14.66 5.87001 15.04 5.93001C15.63 6.02001 15.93 6.58001 15.68 7.15001C15.26 8.11001 14.84 9.07001 14.42 10.04C13.88 11.28 13.33 12.52 12.8 13.77C12.72 13.95 12.64 14.02 12.43 14.02C11.93 14 11.42 14.02 10.86 14.02Z" fill="white"/>
<path id="Vector_3" d="M25.1399 14.02C24.5399 14.02 24 14.02 23.45 14.02C23.38 14.02 23.2899 13.94 23.2599 13.87C22.2699 11.62 21.2899 9.38 20.3099 7.13C20.1099 6.68 20.3099 6.19 20.7399 6.01C21.1799 5.82 21.65 6.02 21.86 6.5C22.55 8.07 23.2399 9.65 23.9299 11.22C24.2899 12.05 24.66 12.89 25.02 13.72C25.06 13.8 25.0899 13.89 25.1399 14.02Z" fill="white"/>
</g>
</svg>
