<svg width="36" height="36" viewBox="0 0 36 36" fill="none" xmlns="http://www.w3.org/2000/svg">
<g id="icon_voucher 1">
<path id="Vector" d="M18.03 9.71997C21.59 9.71997 25.14 9.71997 28.7 9.71997C29.16 9.71997 29.57 9.83997 29.92 10.13C30.32 10.46 30.55 10.88 30.59 11.4C30.59 11.5 30.6 11.61 30.6 11.71C30.6 15.94 30.6 20.17 30.6 24.4C30.6 24.92 30.44 25.38 30.08 25.75C29.73 26.11 29.29 26.3 28.78 26.3C24.95 26.3 21.12 26.3 17.29 26.3C16.17 26.3 15.05 26.3 13.93 26.3C11.81 26.3 9.70003 26.3 7.58003 26.3C7.34003 26.3 7.09003 26.3 6.85003 26.26C6.13003 26.13 5.54003 25.49 5.44003 24.77C5.42003 24.63 5.41003 24.5 5.41003 24.36C5.41003 20.09 5.41003 15.82 5.41003 11.55C5.41003 10.64 6.12003 9.84997 7.02003 9.75997C7.14003 9.74997 7.27003 9.73997 7.39003 9.73997C9.27003 9.73997 11.16 9.73997 13.04 9.73997C14.7 9.73997 16.37 9.73997 18.03 9.73997V9.71997ZM14.09 25.34H14.19C18.98 25.34 23.78 25.34 28.57 25.34C28.65 25.34 28.72 25.34 28.8 25.34C29.24 25.33 29.6 24.99 29.62 24.55C29.63 24.18 29.62 23.81 29.62 23.44C29.62 21.16 29.62 18.89 29.62 16.61C29.62 16.57 29.62 16.52 29.62 16.48H14.74C14.74 16.48 14.8 16.54 14.82 16.57C15.2 16.96 15.58 17.35 15.96 17.75C16.33 18.14 16.7 18.52 17.07 18.91C17.13 18.97 17.19 19.04 17.23 19.11C17.35 19.3 17.31 19.56 17.15 19.7C16.97 19.86 16.72 19.87 16.53 19.73C16.49 19.7 16.45 19.67 16.42 19.63C16.09 19.29 15.76 18.96 15.44 18.62C15 18.16 14.55 17.7 14.11 17.24C14.1 17.23 14.08 17.22 14.06 17.2V25.34H14.09ZM14.09 12.74C14.09 12.74 14.1 12.74 14.11 12.74C14.11 12.72 14.13 12.7 14.14 12.68C14.23 12.51 14.33 12.35 14.48 12.22C15.23 11.58 16.32 11.49 17.16 12.01C18.16 12.62 18.57 13.92 18.12 15C18.05 15.17 17.95 15.33 17.87 15.5C17.89 15.5 17.91 15.5 17.93 15.5C19.34 15.5 20.75 15.5 22.16 15.5C24.62 15.5 27.09 15.5 29.55 15.5C29.65 15.5 29.65 15.5 29.65 15.4C29.65 14.77 29.65 14.13 29.65 13.5C29.65 12.86 29.65 12.22 29.65 11.59C29.65 11.41 29.62 11.23 29.52 11.08C29.34 10.81 29.08 10.69 28.76 10.69C27.27 10.69 25.79 10.69 24.3 10.69C20.93 10.69 17.57 10.69 14.2 10.69C14.1334 10.69 14.1 10.7233 14.1 10.79C14.1 11.19 14.1 11.6 14.1 12C14.1 12.25 14.1 12.49 14.1 12.74H14.09ZM13.12 17.19C13.12 17.19 13.1 17.2 13.09 17.21C12.51 17.81 11.94 18.4 11.36 19C11.13 19.23 10.91 19.47 10.68 19.7C10.38 19.99 10 19.79 9.91003 19.51C9.84003 19.3 9.91003 19.13 10.06 18.98C10.84 18.17 11.62 17.36 12.41 16.55C12.43 16.53 12.44 16.51 12.46 16.48H6.39003C6.39003 16.48 6.39003 16.52 6.39003 16.54C6.39003 19.17 6.39003 21.8 6.39003 24.43C6.39003 24.5 6.39003 24.58 6.41003 24.65C6.46003 24.98 6.77003 25.34 7.28003 25.33C9.20003 25.33 11.13 25.33 13.05 25.33C13.08 25.33 13.1 25.33 13.14 25.33V17.17L13.12 17.19ZM9.36003 15.51V15.49C9.36003 15.47 9.34003 15.46 9.33003 15.44C9.05003 15.01 8.92003 14.54 8.92003 14.03C8.92003 13.7 9.01003 13.39 9.14003 13.09C9.61003 12.01 10.82 11.44 11.94 11.8C12.37 11.94 12.75 12.16 13 12.56C13.04 12.63 13.08 12.7 13.12 12.78V10.71C13.12 10.71 13.06 10.71 13.04 10.71C11.12 10.71 9.21003 10.71 7.29003 10.71C7.17003 10.71 7.05003 10.73 6.94003 10.77C6.58003 10.9 6.38003 11.21 6.38003 11.61C6.38003 12.63 6.38003 13.66 6.38003 14.68C6.38003 14.94 6.38003 15.2 6.38003 15.46C6.38003 15.52 6.40003 15.52 6.45003 15.52C7.33003 15.52 8.20003 15.52 9.08003 15.52C9.17003 15.52 9.27003 15.52 9.36003 15.52V15.51ZM14.21 15.49C14.21 15.49 14.25 15.49 14.27 15.49C14.7 15.48 15.12 15.48 15.55 15.45C15.86 15.43 16.16 15.38 16.47 15.34C16.71 15.31 16.89 15.18 17.04 14.98C17.29 14.63 17.38 14.24 17.31 13.82C17.18 13.08 16.52 12.49 15.66 12.67C15.33 12.74 15.06 12.89 14.93 13.23C14.9 13.31 14.86 13.38 14.83 13.45C14.63 13.95 14.48 14.46 14.34 14.98C14.3 15.15 14.26 15.31 14.21 15.49ZM12.99 15.49C12.99 15.49 12.99 15.45 12.99 15.44C12.87 15.02 12.77 14.59 12.64 14.18C12.52 13.82 12.37 13.48 12.23 13.13C12.17 12.99 12.07 12.9 11.94 12.83C11.65 12.66 11.34 12.61 11.01 12.68C10.63 12.75 10.35 12.96 10.13 13.28C9.79003 13.77 9.77003 14.57 10.29 15.13C10.39 15.23 10.5 15.31 10.64 15.34C10.94 15.39 11.24 15.45 11.54 15.47C12.01 15.5 12.47 15.51 12.94 15.52C12.96 15.52 12.98 15.52 13 15.52L12.99 15.49Z" fill="#484848"/>
<path id="Vector_2" d="M24.12 22.76C25.15 22.76 26.17 22.76 27.2 22.76C27.42 22.76 27.6 22.84 27.7 23.05C27.84 23.36 27.61 23.72 27.26 23.74C27.24 23.74 27.23 23.74 27.21 23.74C25.16 23.74 23.1 23.74 21.05 23.74C20.84 23.74 20.67 23.65 20.57 23.46C20.41 23.15 20.64 22.79 20.99 22.77C21.06 22.77 21.14 22.77 21.21 22.77C22.18 22.77 23.15 22.77 24.12 22.77V22.76Z" fill="#484848"/>
<path id="Vector_3" d="M24.3999 21.1801C24.9799 21.1801 25.5599 21.1801 26.1399 21.1801C26.4099 21.1801 26.6099 21.3301 26.6499 21.5701C26.7099 21.8701 26.4799 22.1401 26.1599 22.1401C25.8699 22.1401 25.5699 22.1401 25.2799 22.1401C24.4099 22.1401 23.5399 22.1401 22.6599 22.1401C22.3999 22.1401 22.2099 22.0001 22.1499 21.7701C22.0799 21.5001 22.2899 21.2101 22.5599 21.1801C22.5999 21.1801 22.6399 21.1801 22.6899 21.1801C23.2599 21.1801 23.8299 21.1801 24.3999 21.1801Z" fill="#484848"/>
</g>
</svg>
