<svg width="36" height="36" viewBox="0 0 36 36" fill="none" xmlns="http://www.w3.org/2000/svg">
<g id="icon_sexx 1">
<path id="Vector" d="M28.72 8.27999C27.24 9.73 25.8 11.13 24.36 12.55C25.48 14.01 25.98 15.63 25.71 17.46C25.46 19.13 24.66 20.49 23.36 21.54C20.91 23.52 17.35 23.37 15.04 21.19C12.7 18.98 12.42 15.73 13.86 13.38C14.27 13.57 14.62 13.85 14.91 14.2C14.94 14.24 14.92 14.35 14.89 14.41C13.95 16.46 14.36 18.65 16.02 20.18C17.39 21.44 19.01 21.83 20.79 21.3C22.58 20.76 23.75 19.54 24.2 17.72C24.9 14.86 23.05 12.1 20.15 11.63C19.62 11.54 19.07 11.63 18.53 11.63C18.46 11.63 18.36 11.63 18.32 11.59C17.98 11.24 17.65 10.88 17.3 10.51C19.5 9.76 21.5 10.17 23.36 11.55C24.79 10.15 26.23 8.74 27.7 7.3C27.58 7.3 27.5 7.29 27.43 7.29C26.69 7.29 25.96 7.29 25.22 7.29C24.77 7.29 24.44 6.99 24.45 6.57C24.45 6.17 24.77 5.87 25.21 5.87C26.6 5.87 27.99 5.87 29.38 5.87C29.83 5.87 30.13 6.17 30.13 6.63C30.13 8.02 30.13 9.41 30.13 10.8C30.13 11.24 29.82 11.56 29.42 11.55C29.01 11.55 28.71 11.23 28.71 10.79C28.71 10.05 28.71 9.32 28.71 8.58C28.71 8.5 28.71 8.43 28.71 8.27999H28.72Z" fill="#484848"/>
<path id="Vector_2" d="M12.97 27.25C12.97 27.99 12.97 28.7 12.97 29.41C12.97 29.71 12.83 29.94 12.56 30.07C12.29 30.2 12.04 30.15 11.81 29.97C11.63 29.82 11.55 29.62 11.55 29.39C11.55 28.69 11.55 27.99 11.55 27.25C11.43 27.25 11.34 27.25 11.24 27.25C10.65 27.25 10.05 27.25 9.45999 27.25C9.01999 27.25 8.70999 26.94 8.70999 26.54C8.70999 26.13 9.02999 25.84 9.46999 25.83C10.16 25.83 10.84 25.83 11.54 25.83V22.87C9.72999 22.62 8.23999 21.79 7.12999 20.33C6.32999 19.28 5.89999 18.09 5.86999 16.77C5.79999 13.89 7.50999 11.39 10.17 10.47C12.8 9.56004 15.67 10.43 17.36 12.68C19.03 14.9 19.03 17.63 17.79 19.67C17.38 19.47 17.03 19.2 16.74 18.85C16.71 18.81 16.72 18.7 16.75 18.64C18.09 15.92 16.59 12.97 14.2 11.93C11.33 10.68 7.91999 12.5 7.37999 15.59C6.88999 18.4 8.68999 20.97 11.49 21.43C12.02 21.52 12.57 21.43 13.11 21.43C13.18 21.43 13.28 21.43 13.32 21.47C13.66 21.82 13.99 22.18 14.36 22.57C13.95 22.66 13.55 22.75 13.15 22.82C13.03 22.84 12.97 22.87 12.97 23C12.97 23.92 12.97 24.85 12.97 25.81C13.05 25.81 13.13 25.81 13.2 25.81C13.81 25.81 14.42 25.81 15.03 25.81C15.49 25.81 15.81 26.1 15.81 26.52C15.81 26.94 15.49 27.23 15.04 27.24C14.36 27.24 13.68 27.24 12.97 27.24V27.25Z" fill="#484848"/>
</g>
</svg>
