<svg width="16" height="16" viewBox="0 0 16 16" fill="none" xmlns="http://www.w3.org/2000/svg">
<g clip-path="url(#clip0_1529_2398)">
<path d="M0.0688477 6.25752C0.163802 6.23808 0.25999 6.22526 0.356719 6.21913C2.1148 6.21913 3.87251 6.21913 5.62984 6.21913C6.02383 6.21913 6.14124 6.13447 6.26203 5.7608C6.80993 4.07647 7.35858 2.39252 7.90798 0.708939C7.9429 0.634115 7.98647 0.563642 8.0378 0.498962C8.08744 0.566368 8.12947 0.639061 8.16311 0.715713C8.71402 2.39929 9.26229 4.08249 9.80793 5.76531C9.92082 6.12656 10.0495 6.21688 10.43 6.21688C12.1933 6.21688 13.9567 6.21688 15.72 6.21688C15.8101 6.22454 15.8993 6.24041 15.9864 6.26429C15.9335 6.34092 15.8726 6.41168 15.8047 6.4754C14.3747 7.51775 12.9448 8.55785 11.5148 9.5957C11.2179 9.81132 11.1762 9.96146 11.2891 10.3159C11.8354 12.0003 12.3811 13.6842 12.926 15.3678C12.9435 15.4498 12.9529 15.5334 12.9542 15.6173C12.8692 15.5936 12.7873 15.5599 12.7104 15.5168C11.2684 14.4745 9.82863 13.4302 8.39115 12.3841C8.1157 12.1832 7.95314 12.1832 7.6743 12.3841C6.24058 13.4249 4.80574 14.4654 3.36977 15.5055C3.28902 15.551 3.20294 15.5862 3.11351 15.6105C3.11792 15.5238 3.13 15.4377 3.14964 15.3531C3.69302 13.6748 4.23753 11.9961 4.78316 10.3171C4.89605 9.96598 4.84977 9.8147 4.55061 9.59795L0.274309 6.48443C0.203188 6.43476 0.136582 6.37492 0.0688477 6.32187V6.25752Z" fill="#D80001"/>
</g>
<defs>
<clipPath id="clip0_1529_2398">
<rect width="16" height="16" fill="white"/>
</clipPath>
</defs>
</svg>
