<svg width="34" height="35" viewBox="0 0 34 35" fill="none" xmlns="http://www.w3.org/2000/svg">
<g id="gift-01 1">
<g id="Group">
<path id="Vector" d="M26.8987 25.3348C27.1139 25.7009 27.3291 25.9938 27.4726 26.3599C27.903 27.385 27.1139 28.4833 26.038 28.4833C25.6076 28.4833 25.1055 28.4833 24.6751 28.4833C24.4599 28.4833 24.3882 28.5565 24.2447 28.703C23.2405 30.2406 21.9494 31.339 20.1561 31.8515C19.2236 32.0712 18.2912 31.9979 17.3587 31.9247C15.422 31.7051 13.557 31.1193 11.7637 30.3139C10.3291 29.6549 8.8228 29.2155 7.17301 29.0691C6.09706 28.9959 5.09284 29.0691 4.16035 29.5084C3.58651 29.8013 3.15613 30.1674 2.79748 30.7532C2.65402 30.9728 2.43883 31.1193 2.22364 31.0461C1.93672 30.9728 1.86499 30.7532 1.86499 30.4603C1.86499 28.4833 1.86499 26.5795 1.86499 24.6026C1.86499 24.1632 2.00845 24.0168 2.43883 24.0168C4.44727 23.9436 6.38398 23.5042 8.24896 22.5523C8.53588 22.4059 8.8228 22.3327 9.10972 22.1862C9.18145 22.113 9.32491 22.0398 9.32491 21.9666C9.32491 20.136 9.32491 18.3055 9.32491 16.4749V16.4017C9.18145 16.4017 9.03799 16.4017 8.89453 16.4017C8.60761 16.4017 8.39242 16.182 8.39242 15.8892C8.39242 15.1569 8.39242 14.4979 8.39242 13.7657C8.39242 12.9603 9.10972 12.3745 9.89875 12.3745C11.2616 12.3745 12.6962 12.3745 14.0591 12.3745C14.2025 12.3745 14.2743 12.3745 14.4177 12.3745C14.4177 12.3745 14.4177 12.3745 14.4177 12.3013C14.0591 12.1549 13.7722 12.0816 13.4852 11.9352C13.2701 11.862 12.9831 11.7155 12.7679 11.6423C11.8355 11.1297 11.3333 10.3243 11.4051 9.22598C11.4768 8.12765 12.0506 7.39544 13.0549 6.95611C14.0591 6.59 14.9916 6.73644 15.7089 7.54188C16.0675 7.90799 16.211 8.42054 16.4262 8.85987C16.5696 9.22598 16.6414 9.59209 16.8566 10.0314C16.9283 9.88498 16.9283 9.73853 17 9.66531C17.2152 9.15276 17.3587 8.64021 17.5739 8.12765C18.0042 7.17577 19.0802 6.59 20.0844 6.80966C21.1603 6.95611 22.0211 7.76155 22.2363 8.78665C22.4515 9.9582 21.9494 11.1297 20.8734 11.6423C20.3713 11.862 19.7975 12.0816 19.2236 12.3013C19.3671 12.3013 19.4388 12.3013 19.5106 12.3013C20.8734 12.3013 22.308 12.3013 23.6709 12.3013C24.6751 12.3013 25.249 12.9603 25.249 13.9122C25.249 14.4979 25.249 15.0837 25.249 15.5963C25.249 16.1088 25.1055 16.2553 24.6034 16.2553C24.5317 16.2553 24.3882 16.2553 24.3165 16.2553C24.3165 17.1339 24.3165 18.0126 24.3165 18.9645C24.4599 18.8913 24.5317 18.818 24.6034 18.7448C25.249 18.2323 25.9663 17.8661 26.7553 17.7929C27.1857 17.7929 27.5443 17.8661 27.903 18.159C28.0464 18.3055 28.1899 18.2323 28.3333 18.159C28.9072 17.8661 29.5528 17.7197 30.1983 17.8661C30.9874 18.0858 31.6329 18.818 31.7047 19.6967C31.7047 19.9164 31.6329 20.136 31.4895 20.2825C30.0549 21.8933 28.6203 23.5042 27.2574 25.1151C26.9705 25.2615 26.8987 25.3348 26.8987 25.3348ZM23.2405 28.4833C23.1688 28.4833 23.1688 28.4833 23.0971 28.4833C21.7342 28.4833 20.443 28.4833 19.0802 28.4833C18.5063 28.4833 17.9325 28.703 17.5739 29.2887C17.4304 29.5084 17.1435 29.5816 16.9283 29.4352C16.7131 29.2887 16.5696 28.9959 16.7848 28.7762C17 28.4833 17.2869 28.1904 17.5739 27.9708C18.076 27.6046 18.6498 27.5314 19.2954 27.5314C20.8734 27.5314 22.4515 27.5314 24.0295 27.5314C24.6751 27.5314 25.3207 27.5314 25.9663 27.5314C26.4684 27.5314 26.6836 27.1653 26.4684 26.726C26.3249 26.4331 26.1097 26.2134 25.8945 26.067C25.3924 25.7009 24.7468 25.5544 24.1013 25.5544C22.0211 25.5544 19.8692 25.5544 17.789 25.5544C17.6456 25.5544 17.4304 25.5544 17.2869 25.4812C16.2827 25.3348 15.422 24.8954 14.5612 24.3097C12.6245 22.9185 10.616 22.5523 8.39242 23.6507C7.10128 24.1632 5.73841 24.6026 4.37554 24.749C3.87343 24.8222 3.37132 24.8954 2.86921 24.9687C2.86921 26.3599 2.86921 27.7511 2.86921 29.1423C3.29959 28.9226 3.65824 28.6297 4.08862 28.4833C5.45149 27.8975 6.81436 27.9708 8.17723 28.1904C9.75529 28.4833 11.1899 28.9959 12.6962 29.6549C14.4177 30.4603 16.2827 30.8996 18.1477 31.0461C19.2954 31.1193 20.3713 30.9728 21.3755 30.3139C22.0928 29.8013 22.7384 29.2155 23.2405 28.4833ZM18.7215 16.4017C18.7215 19.1109 18.7215 21.8201 18.7215 24.4561C20.2279 24.4561 21.6625 24.4561 23.1688 24.4561C23.1688 21.7469 23.1688 19.1109 23.1688 16.4017C21.6625 16.4017 20.2279 16.4017 18.7215 16.4017ZM14.7047 23.1381C14.7047 20.8682 14.7047 18.6716 14.7047 16.4017C13.1983 16.4017 11.7637 16.4017 10.2574 16.4017C10.2574 18.2323 10.2574 20.0628 10.2574 21.9666C11.9072 21.8201 13.3418 22.2595 14.7047 23.1381ZM17.7173 24.4561C17.7173 20.7218 17.7173 17.0607 17.7173 13.3264C17.0717 13.3264 16.4262 13.3264 15.7806 13.3264C15.7806 13.4728 15.7806 13.5461 15.7806 13.6925C15.7806 15.5231 15.7806 17.2804 15.7806 19.1109C15.7806 20.5754 15.7806 22.0398 15.7806 23.5042C15.7806 23.6507 15.7806 23.7971 15.8523 23.7971C16.4262 24.1632 17 24.3829 17.7173 24.4561ZM24.173 24.3829C24.7468 24.5293 25.249 24.6026 25.7511 24.749C25.9663 24.8222 26.1097 24.749 26.2532 24.6026C27.616 23.0649 28.9789 21.5272 30.3418 19.9896C30.6287 19.6967 30.6287 19.477 30.3418 19.1841C30.1983 19.0377 29.9114 18.8913 29.6962 18.8913C29.2658 18.818 28.8355 18.9645 28.4768 19.2574C28.0464 19.5502 27.6878 19.9164 27.3291 20.2825C26.3249 21.3808 25.3924 22.5523 24.3882 23.7239C24.173 23.9436 24.1013 24.1632 24.173 24.3829ZM9.32491 15.3034C11.1899 15.3034 12.9831 15.3034 14.7764 15.3034C14.7764 14.6444 14.7764 13.9854 14.7764 13.3264C13.1266 13.3264 11.4768 13.3264 9.82702 13.3264C9.5401 13.3264 9.39664 13.5461 9.39664 13.839C9.25318 14.3515 9.32491 14.7908 9.32491 15.3034ZM18.7215 13.3264C18.7215 14.0586 18.7215 14.6444 18.7215 15.3034C20.5148 15.3034 22.308 15.3034 24.173 15.3034C24.173 14.7908 24.173 14.2783 24.173 13.7657C24.173 13.4728 23.9578 13.2532 23.6709 13.2532C23.2405 13.2532 22.7384 13.2532 22.308 13.2532C21.0886 13.3264 19.8692 13.3264 18.7215 13.3264ZM17.3587 11.6423C18.4346 11.4226 19.4388 11.1297 20.443 10.6904C21.0169 10.3975 21.3038 9.73853 21.2321 9.07954C21.0886 8.42054 20.5865 7.83477 19.9409 7.76155C19.2954 7.68832 18.6498 7.98121 18.3629 8.56698C17.789 9.51887 17.5739 10.544 17.3587 11.6423ZM15.9958 11.6423C15.9958 11.5691 15.9958 11.5691 15.9958 11.4959C15.7806 10.4708 15.5654 9.44565 15.0633 8.49376C14.9916 8.34732 14.8481 8.12765 14.6329 8.05443C13.9156 7.46866 12.9114 7.68832 12.4093 8.49376C11.9072 9.2992 12.1941 10.3243 13.0549 10.6904C13.7004 10.9833 14.4177 11.203 15.0633 11.4226C15.422 11.4959 15.7089 11.5691 15.9958 11.6423ZM24.173 22.4059C25.249 21.3076 26.1814 20.136 27.1857 19.0377C26.6118 18.818 26.1814 18.9645 25.7511 19.1841C25.1772 19.477 24.6751 19.9896 24.2447 20.5021C24.173 20.5754 24.173 20.6486 24.173 20.6486C24.173 21.2344 24.173 21.8201 24.173 22.4059Z" fill="#636363"/>
<path id="Vector_2" d="M9.32491 7.83481C9.25318 7.90803 9.18145 8.12769 9.03799 8.20092C8.89453 8.27414 8.67934 8.27414 8.53588 8.20092C8.32069 8.05447 8.1055 7.83481 7.89031 7.61514C7.74685 7.4687 7.74685 7.24903 7.89031 7.02937C8.03377 6.88292 8.24896 6.73648 8.46415 6.88292C8.75107 7.10259 9.03799 7.39548 9.25318 7.68836C9.25318 7.61514 9.25318 7.68836 9.32491 7.83481Z" fill="#636363"/>
<path id="Vector_3" d="M24.6034 8.27414C24.5316 8.20092 24.3164 8.1277 24.2447 7.98125C24.173 7.83481 24.173 7.61514 24.2447 7.4687C24.3882 7.24903 24.6751 7.02937 24.8903 6.8097C25.0337 6.66326 25.3207 6.66326 25.4641 6.88293C25.5359 7.02937 25.6793 7.32226 25.6076 7.39548C25.3924 7.68837 25.1055 7.98125 24.8186 8.20092C24.7468 8.27414 24.6751 8.27414 24.6034 8.27414Z" fill="#636363"/>
<path id="Vector_4" d="M17.2152 4.46658C17.2152 4.53981 17.2152 4.61303 17.2152 4.68625C17.2152 5.05236 17 5.27202 16.713 5.1988C16.4261 5.1988 16.2827 4.97914 16.2109 4.68625C16.2109 4.53981 16.2109 4.39336 16.2109 4.24692C16.2109 3.88081 16.4261 3.66114 16.713 3.73437C17 3.73437 17.1434 3.95403 17.2152 4.24692C17.2152 4.32014 17.2152 4.39336 17.2152 4.46658Z" fill="#636363"/>
<path id="Vector_5" d="M5.59499 15.3767C5.52326 15.3767 5.45153 15.3767 5.3798 15.3767C5.09288 15.3767 4.94942 15.157 4.87769 14.8641C4.87769 14.5712 5.09288 14.3516 5.3798 14.3516C5.52325 14.3516 5.73844 14.3516 5.8819 14.3516C6.16882 14.3516 6.31228 14.5712 6.38401 14.8641C6.38401 15.157 6.16882 15.3767 5.8819 15.3767C5.73844 15.3767 5.66672 15.3767 5.59499 15.3767Z" fill="#636363"/>
<path id="Vector_6" d="M27.8312 15.3767C27.7595 15.3767 27.7595 15.3767 27.6877 15.3767C27.3291 15.3767 27.1139 15.157 27.1139 14.8641C27.1139 14.5712 27.3291 14.3516 27.6877 14.3516C27.8312 14.3516 27.9029 14.3516 28.0464 14.3516C28.3333 14.3516 28.5485 14.5712 28.5485 14.8641C28.5485 15.157 28.3333 15.3767 28.0464 15.3767C27.9747 15.3767 27.9029 15.3767 27.8312 15.3767Z" fill="#636363"/>
</g>
</g>
</svg>
