<svg width="36" height="36" viewBox="0 0 36 36" fill="none" xmlns="http://www.w3.org/2000/svg">
<g id="icon_vi 1">
<path id="Vector" d="M17.6401 7.34004C18.1001 6.88004 18.5501 6.43004 18.9901 5.98004C19.3301 5.64004 19.5501 5.65004 19.8801 5.98004C22.1801 8.28004 24.4901 10.59 26.7901 12.89C27.0301 13.13 27.3001 13.35 27.5201 13.61C27.8601 14.02 28.0001 14.5 28.0001 15.03C28.0001 15.89 28.0001 16.75 28.0001 17.62C28.0001 17.71 28.0001 17.79 28.0001 17.9C28.4501 17.9 28.8801 17.9 29.3101 17.9C29.7501 17.9 29.9201 18.07 29.9201 18.51C29.9201 20.47 29.9201 22.44 29.9201 24.4C29.9201 24.82 29.7501 24.99 29.3201 24.99C28.8901 24.99 28.4601 24.99 28.0001 24.99C28.0001 25.09 28.0001 25.18 28.0001 25.26C28.0001 26.11 28.0001 26.97 28.0001 27.82C28.0001 29.2 26.9501 30.25 25.5601 30.26C19.8701 30.26 14.1901 30.26 8.50006 30.26C7.11006 30.26 6.06006 29.21 6.06006 27.82C6.06006 23.57 6.06006 19.32 6.06006 15.08C6.06006 13.7 7.11006 12.64 8.50006 12.64C8.68006 12.64 8.79006 12.58 8.91006 12.46C11.0501 10.31 13.2001 8.17004 15.3401 6.02004C15.7301 5.63004 15.9301 5.63004 16.3201 6.02004C16.7501 6.45004 17.1801 6.88004 17.6301 7.33004L17.6401 7.34004ZM27.0501 25C26.9401 25 26.8501 25 26.7601 25C24.4501 25 22.1401 25 19.8401 25C19.6401 25 19.4401 24.99 19.2401 24.96C17.1601 24.67 15.7901 22.58 16.3401 20.56C16.7601 19 18.1601 17.92 19.7801 17.92C22.1001 17.92 24.4301 17.92 26.7501 17.92C26.8401 17.92 26.9401 17.92 27.0501 17.92V17.66C27.0501 16.83 27.0501 16 27.0501 15.17C27.0501 14.2 26.4501 13.61 25.4801 13.61C19.8501 13.61 14.2201 13.61 8.59006 13.61C7.62006 13.61 7.02006 14.21 7.02006 15.17C7.02006 19.36 7.02006 23.55 7.02006 27.75C7.02006 28.73 7.61006 29.32 8.60006 29.32C11.3901 29.32 14.1901 29.32 16.9801 29.32C19.8401 29.32 22.7001 29.32 25.5601 29.32C26.3501 29.32 27.0101 28.76 27.0301 28.01C27.0601 27.02 27.0301 26.03 27.0301 25.01L27.0501 25ZM28.9601 18.87H28.6801C27.1101 18.87 25.5401 18.87 23.9601 18.87C22.5601 18.87 21.1501 18.86 19.7501 18.87C18.3601 18.88 17.2201 20 17.1801 21.36C17.1401 22.85 18.2901 24.04 19.7901 24.04C22.7701 24.04 25.7601 24.04 28.7401 24.04C28.8101 24.04 28.8801 24.04 28.9601 24.03V18.87ZM25.1101 12.64C23.2101 10.74 21.3201 8.84004 19.4601 6.99004C17.5801 8.87004 15.6801 10.77 13.8101 12.64H25.1101ZM16.9201 8.07004C16.5301 7.68004 16.1701 7.32004 15.8401 6.99004C13.9701 8.86004 12.0801 10.75 10.1801 12.65C10.8101 12.65 11.4601 12.65 12.1101 12.65C12.2401 12.65 12.3901 12.58 12.4801 12.5C13.6801 11.32 14.8601 10.12 16.0601 8.93004C16.3501 8.64004 16.6501 8.35004 16.9201 8.08004V8.07004Z" fill="#636363"/>
<path id="Vector_2" d="M19.78 22.89C18.98 22.89 18.34 22.25 18.34 21.45C18.34 20.67 18.99 20.02 19.77 20.02C20.56 20.02 21.21 20.67 21.21 21.46C21.21 22.25 20.57 22.89 19.78 22.89ZM19.76 20.98C19.5 20.98 19.28 21.23 19.29 21.48C19.3 21.74 19.52 21.94 19.78 21.93C20.04 21.93 20.26 21.69 20.25 21.43C20.24 21.18 20.01 20.97 19.76 20.97V20.98Z" fill="#636363"/>
</g>
</svg>
