<svg width="36" height="36" viewBox="0 0 36 36" fill="none" xmlns="http://www.w3.org/2000/svg">
<g id="icon_support 1">
<path id="Vector" d="M26.28 15.9801C27.65 16.2301 28.5 17.1701 28.54 18.5501C28.58 19.8101 28.57 21.0701 28.54 22.3301C28.52 23.3001 27.91 23.9901 26.96 24.1501C26.64 24.2001 26.45 24.3401 26.29 24.6101C25.47 25.9101 24.3 26.7501 22.81 27.1101C22.38 27.2101 21.94 27.2401 21.48 27.3101C21.34 28.0501 20.93 28.6501 20.27 29.0601C19.71 29.4101 19.1 29.5901 18.45 29.5001C16.99 29.3101 15.92 28.1601 15.89 26.7601C15.86 25.4101 16.87 24.1801 18.19 23.9301C19.47 23.6901 21.05 24.3801 21.5 26.1201C22.78 26.2201 24.46 25.3901 25.14 24.2501C24.94 24.2501 24.75 24.2501 24.57 24.2501C24.21 24.2501 24 24.0301 24 23.6701C24 21.3401 24 19.0201 24 16.6901C24 16.2001 24.22 15.9901 24.71 15.9901C24.84 15.9901 24.98 15.9901 25.13 15.9901C25.13 15.5301 25.13 15.1001 25.13 14.6601C25.06 11.6001 23.65 9.39009 20.86 8.15009C16.83 6.37009 12.08 8.93009 11.29 13.2401C11.23 13.5601 11.18 13.8801 11.17 14.2001C11.15 14.7801 11.17 15.3701 11.17 15.9901C11.35 15.9901 11.52 15.9901 11.69 15.9901C12.04 15.9901 12.26 16.1901 12.29 16.5401C12.29 16.6401 12.29 16.7301 12.29 16.8301C12.29 19.0901 12.29 21.3501 12.29 23.6101C12.29 24.0601 12.11 24.2501 11.67 24.2501C10.96 24.2501 10.24 24.2601 9.53 24.2401C8.44 24.2001 7.49 23.2801 7.46 22.1901C7.43 20.8601 7.43 19.5201 7.46 18.1801C7.49 17.0801 8.43 15.9501 9.72 15.9901C9.8 15.9901 9.88 15.9901 9.99 15.9901C9.99 15.8901 10 15.8001 10 15.7201C10.03 14.9101 9.99 14.0901 10.12 13.3001C10.55 10.6501 11.99 8.69009 14.34 7.40009C15.64 6.69009 17.04 6.39009 18.52 6.46009C22.11 6.64009 25.02 9.08009 25.95 12.3601C26.23 13.3201 26.28 14.3101 26.26 15.3001C26.26 15.5201 26.26 15.7501 26.26 15.9601L26.28 15.9801ZM11.15 17.1401C10.69 17.1401 10.25 17.1401 9.82 17.1401C9.09 17.1401 8.6 17.6301 8.59 18.3601C8.59 19.5801 8.59 20.8001 8.59 22.0301C8.59 22.6401 9.08 23.1201 9.69 23.1301C10.12 23.1301 10.55 23.1301 10.97 23.1301C11.03 23.1301 11.08 23.1201 11.14 23.1101V17.1401H11.15ZM25.15 17.1401V23.1301C25.24 23.1301 25.32 23.1301 25.39 23.1301C25.76 23.1301 26.13 23.1501 26.49 23.1301C26.97 23.0901 27.44 22.8801 27.42 22.1301C27.4 20.9801 27.42 19.8401 27.42 18.6901C27.42 18.2901 27.29 17.9201 27.06 17.6001C26.9 17.3701 26.69 17.1701 26.39 17.1601C25.99 17.1401 25.58 17.1601 25.16 17.1601L25.15 17.1401ZM20.4 26.7401C20.4 25.7401 19.67 25.0101 18.7 25.0101C17.79 25.0101 17.04 25.7701 17.04 26.6701C17.04 27.5801 17.84 28.3701 18.76 28.3701C19.66 28.3701 20.41 27.6201 20.4 26.7301V26.7401Z" fill="#484848"/>
</g>
</svg>
