<svg width="51" height="51" viewBox="0 0 51 51" fill="none" xmlns="http://www.w3.org/2000/svg">
<g id="icon_cornor 1">
<path id="Vector" d="M25.72 20.29C25.72 20.29 25.78 20.23 25.79 20.21C25.98 19.94 26.18 19.67 26.37 19.4C26.41 19.33 26.44 19.24 26.44 19.16C26.44 18.82 26.4 18.47 26.4 18.13C26.4 17.14 26.59 16.18 26.92 15.26C27.67 13.17 29.11 11.69 31.09 10.73C32.15 10.22 33.28 9.91 34.44 9.71C34.51 9.7 34.58 9.68001 34.65 9.67001C34.99 9.62001 35.26 9.82 35.28 10.17C35.45 12.59 34.77 14.73 33.17 16.56C32.23 17.64 31.07 18.41 29.78 19C29.04 19.34 28.27 19.6 27.48 19.8C27.33 19.84 27.22 19.92 27.13 20.05C26.68 20.69 26.22 21.33 25.77 21.97C25.72 22.04 25.7 22.14 25.69 22.22C25.68 22.35 25.69 22.48 25.69 22.61C25.69 22.69 25.71 22.72 25.8 22.72C26.04 22.72 26.29 22.72 26.53 22.72C27.47 22.72 28.41 22.72 29.35 22.72C29.81 22.72 30.03 22.98 29.94 23.43C29.76 24.39 29.57 25.36 29.39 26.32C29.33 26.62 29.28 26.93 29.22 27.23C29.2 27.31 29.22 27.34 29.31 27.35C30.11 27.43 30.91 27.5 31.71 27.6C32.89 27.75 34.06 27.96 35.21 28.27C36.09 28.5 36.96 28.78 37.77 29.22C38.2 29.45 38.6 29.73 38.92 30.12C39.17 30.43 39.3 30.79 39.3 31.19C39.3 32.02 39.3 32.84 39.3 33.67C39.3 34.31 38.99 34.77 38.52 35.16C38 35.58 37.4 35.88 36.78 36.1C36.26 36.29 35.72 36.44 35.19 36.61C35.1 36.64 35.09 36.67 35.11 36.75C35.49 38.36 35.86 39.96 36.23 41.57C36.32 41.98 36.42 42.39 36.51 42.8C36.58 43.11 36.46 43.33 36.16 43.42C35.77 43.54 35.37 43.65 34.98 43.77C34.89 43.8 34.8 43.82 34.72 43.85C34.45 43.93 34.23 43.85 34.11 43.58C34 43.33 33.91 43.08 33.81 42.82C33.22 41.24 32.63 39.65 32.03 38.07C31.94 37.83 31.85 37.59 31.76 37.35C31.74 37.28 31.71 37.27 31.64 37.27C30.95 37.35 30.26 37.43 29.57 37.49C28.81 37.55 28.05 37.59 27.3 37.63C27.22 37.63 27.18 37.65 27.18 37.75C27.15 38.34 27.11 38.93 27.07 39.52C27 40.68 26.92 41.85 26.85 43.01C26.81 43.6 26.79 44.19 26.75 44.78C26.69 45.69 26.63 46.6 26.58 47.52C26.57 47.72 26.56 47.92 26.55 48.13C26.54 48.45 26.32 48.68 26 48.69C25.51 48.69 25.03 48.69 24.54 48.69C24.21 48.69 24 48.47 23.98 48.13C23.93 47.44 23.89 46.74 23.84 46.05C23.79 45.3 23.73 44.56 23.68 43.81C23.61 42.84 23.55 41.87 23.48 40.9C23.42 40.11 23.37 39.33 23.31 38.54C23.29 38.27 23.27 38.01 23.26 37.74C23.26 37.65 23.22 37.63 23.14 37.63C22.45 37.59 21.75 37.57 21.06 37.51C20.5 37.47 19.94 37.4 19.37 37.34C19.15 37.32 18.93 37.29 18.71 37.26C18.64 37.26 18.63 37.29 18.61 37.34C18.32 38.11 18.03 38.88 17.74 39.66C17.27 40.93 16.79 42.19 16.32 43.45C16.28 43.56 16.21 43.66 16.13 43.74C16.01 43.86 15.86 43.88 15.69 43.83C15.21 43.69 14.73 43.55 14.25 43.41C13.9 43.31 13.77 43.09 13.86 42.73C14.16 41.43 14.47 40.14 14.77 38.84C14.93 38.14 15.09 37.43 15.26 36.73C15.28 36.64 15.26 36.61 15.17 36.59C14.64 36.42 14.1 36.27 13.57 36.08C12.92 35.84 12.31 35.54 11.78 35.08C11.44 34.79 11.18 34.45 11.1 33.99C11.08 33.86 11.07 33.73 11.06 33.6C11.06 32.85 11.08 32.09 11.06 31.34C11.04 30.65 11.32 30.13 11.83 29.71C12.25 29.36 12.74 29.11 13.24 28.89C14.24 28.47 15.28 28.2 16.34 27.97C17.56 27.71 18.8 27.54 20.04 27.42C20.35 27.39 20.66 27.36 20.97 27.33C21.01 27.33 21.06 27.31 21.11 27.3C21.05 26.98 21 26.67 20.94 26.36C20.76 25.37 20.58 24.38 20.41 23.38C20.33 22.94 20.55 22.69 21 22.69C22.01 22.69 23.02 22.69 24.04 22.69C24.08 22.69 24.12 22.69 24.19 22.69C24.17 22.65 24.15 22.61 24.13 22.59C23.38 21.51 22.64 20.43 21.89 19.36C21.86 19.32 21.79 19.29 21.74 19.27C21.02 19.04 20.32 18.74 19.67 18.35C18.15 17.44 17.01 16.2 16.31 14.55C16.02 13.86 15.84 13.14 15.74 12.4C15.66 11.78 15.63 11.16 15.67 10.54C15.73 9.7 15.86 8.87001 16.06 8.05001C16.11 7.83001 16.24 7.67001 16.47 7.63001C16.56 7.62001 16.65 7.63001 16.74 7.65001C17.46 7.86001 18.13 8.19001 18.77 8.59001C20.25 9.52001 21.34 10.8 22.04 12.4C22.45 13.33 22.67 14.3 22.78 15.31C22.9 16.35 22.85 17.39 22.71 18.43C22.71 18.48 22.71 18.52 22.69 18.57C22.66 18.68 22.69 18.77 22.75 18.86C23.3 19.65 23.85 20.45 24.41 21.24C24.48 21.34 24.54 21.43 24.64 21.53C24.64 21.48 24.65 21.44 24.65 21.39C24.65 19.15 24.64 16.91 24.65 14.67C24.65 14.51 24.6 14.4 24.49 14.28C23.42 13.23 22.6 12.01 22.13 10.56C21.81 9.57001 21.69 8.56001 21.79 7.53001C21.89 6.45001 22.21 5.42 22.69 4.45C23.13 3.54 23.68 2.7 24.31 1.92C24.54 1.63 24.83 1.60001 25.1 1.85001C25.7 2.38001 26.19 2.99001 26.61 3.67001C27.14 4.54001 27.52 5.46001 27.73 6.46001C27.93 7.45001 27.95 8.45001 27.8 9.45001C27.61 10.69 27.21 11.86 26.63 12.97C26.36 13.48 26.04 13.97 25.75 14.47C25.71 14.54 25.68 14.63 25.68 14.7C25.68 16.47 25.68 18.24 25.68 20.01C25.68 20.08 25.68 20.16 25.68 20.27L25.72 20.29ZM25.01 33.92C25.01 33.92 25.01 33.94 25.01 33.95C26.23 33.9 27.46 33.86 28.68 33.8C30.02 33.73 31.34 33.58 32.66 33.37C33.71 33.2 34.75 32.98 35.77 32.66C36.46 32.44 37.14 32.19 37.74 31.77C37.91 31.65 38.06 31.49 38.2 31.33C38.32 31.18 38.32 31 38.2 30.84C38.1 30.7 37.98 30.57 37.85 30.47C37.5 30.18 37.09 29.99 36.67 29.82C35.72 29.43 34.73 29.16 33.72 28.98C32.9 28.83 32.07 28.7 31.23 28.58C30.52 28.49 29.81 28.44 29.1 28.36C29.02 28.36 29.01 28.38 29 28.44C28.94 28.75 28.88 29.06 28.82 29.37C28.74 29.77 28.67 30.18 28.58 30.58C28.52 30.85 28.33 31.01 28.05 31.02C28 31.02 27.94 31.02 27.89 31.02C26.09 31.02 24.29 31.02 22.49 31.02C22.4 31.02 22.31 31.02 22.22 31.02C21.96 31 21.79 30.86 21.72 30.62C21.7 30.56 21.69 30.49 21.68 30.43C21.56 29.77 21.44 29.12 21.33 28.46C21.32 28.38 21.29 28.36 21.2 28.36C20.87 28.4 20.54 28.41 20.21 28.45C19.49 28.53 18.77 28.61 18.05 28.72C17.35 28.83 16.65 28.97 15.96 29.12C15.03 29.32 14.12 29.6 13.25 30.01C12.91 30.17 12.59 30.36 12.32 30.63C12.03 30.94 12.03 31.18 12.32 31.49C12.54 31.72 12.81 31.88 13.09 32.03C13.78 32.39 14.51 32.64 15.26 32.84C16.34 33.13 17.44 33.33 18.55 33.48C19.36 33.59 20.16 33.68 20.97 33.75C22.31 33.87 23.65 33.92 24.99 33.92H25.01ZM12.12 32.65C12.12 32.7 12.12 32.73 12.12 32.77C12.12 33.05 12.14 33.34 12.12 33.62C12.1 33.95 12.24 34.17 12.48 34.37C12.83 34.65 13.23 34.85 13.64 35.03C14.43 35.37 15.27 35.59 16.11 35.79C17.07 36.02 18.05 36.18 19.03 36.29C19.67 36.36 20.31 36.43 20.96 36.48C21.93 36.55 22.9 36.6 23.88 36.64C25.04 36.69 26.21 36.67 27.37 36.61C27.99 36.58 28.61 36.57 29.22 36.51C30.11 36.43 31 36.33 31.88 36.22C32.8 36.11 33.71 35.94 34.61 35.71C35.47 35.5 36.31 35.25 37.11 34.87C37.46 34.7 37.81 34.5 38.08 34.22C38.22 34.08 38.28 33.9 38.28 33.7C38.28 33.39 38.28 33.08 38.28 32.77C38.28 32.74 38.28 32.7 38.27 32.65C38.23 32.67 38.2 32.68 38.18 32.7C37.63 33.05 37.04 33.3 36.43 33.51C35.03 34 33.58 34.29 32.11 34.49C31.06 34.63 30.01 34.72 28.96 34.82C27.75 34.94 26.54 34.94 25.33 34.95C24.49 34.95 23.66 34.95 22.82 34.91C22.03 34.88 21.24 34.81 20.44 34.75C19.9 34.71 19.37 34.64 18.84 34.57C17.64 34.42 16.45 34.21 15.28 33.9C14.21 33.62 13.17 33.29 12.23 32.7C12.2 32.68 12.17 32.67 12.12 32.65ZM28.87 23.74C28.87 23.74 28.82 23.74 28.8 23.74C26.72 23.74 24.64 23.74 22.57 23.74C22.26 23.74 21.96 23.74 21.65 23.74C21.57 23.74 21.53 23.75 21.55 23.86C21.66 24.47 21.77 25.08 21.88 25.69C22.13 27.09 22.38 28.49 22.63 29.9C22.65 29.99 22.68 30.02 22.77 30.02C24.37 30.02 25.96 30.02 27.56 30.02C27.6 30.02 27.63 30.02 27.67 30.02C28.07 27.93 28.47 25.86 28.86 23.77L28.87 23.74ZM34.28 10.78C34.28 10.78 34.2 10.78 34.17 10.79C33.09 11 32.06 11.33 31.09 11.86C29.91 12.51 28.98 13.4 28.32 14.58C27.66 15.78 27.43 17.07 27.42 18.42C27.42 18.53 27.42 18.64 27.42 18.77C27.47 18.76 27.5 18.75 27.53 18.75C28.38 18.51 29.21 18.2 30 17.79C31.07 17.22 32.01 16.49 32.76 15.52C33.54 14.49 34.02 13.34 34.22 12.07C34.29 11.65 34.3 11.23 34.29 10.79L34.28 10.78ZM25.19 13.52C25.23 13.45 25.26 13.4 25.3 13.34C25.87 12.41 26.32 11.43 26.62 10.38C26.93 9.26 27.01 8.13 26.83 6.99001C26.6 5.54 25.97 4.27001 25 3.17001C24.86 3.02001 24.79 3.02001 24.67 3.19001C24.44 3.54001 24.19 3.89001 23.98 4.26001C23.38 5.30001 22.97 6.39001 22.86 7.60001C22.8 8.27001 22.82 8.93001 22.95 9.58001C23.26 11.07 24.02 12.32 25.06 13.41C25.1 13.45 25.14 13.49 25.19 13.53V13.52ZM21.76 18.23C21.76 18.16 21.78 18.11 21.78 18.06C21.8 17.8 21.82 17.53 21.84 17.27C21.91 16.19 21.86 15.12 21.58 14.06C20.93 11.58 19.41 9.86001 17.07 8.85001C17.04 8.84001 17.01 8.83001 16.98 8.82C16.97 8.85001 16.96 8.88 16.95 8.9C16.72 10.11 16.64 11.33 16.83 12.56C16.99 13.59 17.34 14.53 17.93 15.38C18.7 16.48 19.71 17.3 20.93 17.87C21.2 17.99 21.47 18.1 21.76 18.23ZM24.29 37.68C24.29 37.68 24.29 37.76 24.29 37.8C24.32 38.26 24.35 38.71 24.39 39.17C24.44 39.86 24.5 40.54 24.54 41.23C24.58 41.83 24.62 42.43 24.66 43.03C24.71 43.75 24.77 44.47 24.82 45.19C24.88 45.98 24.93 46.78 24.99 47.57C24.99 47.6 25.04 47.65 25.07 47.65C25.21 47.65 25.35 47.65 25.49 47.65C25.52 47.65 25.56 47.61 25.56 47.58C25.59 47.11 25.62 46.64 25.65 46.17C25.7 45.36 25.75 44.54 25.8 43.73C25.86 42.78 25.92 41.84 25.97 40.89C26.02 40.07 26.07 39.24 26.12 38.42C26.14 38.17 26.15 37.93 26.16 37.67H24.29V37.68ZM32.79 37.11C32.82 37.18 32.83 37.24 32.85 37.29C33.28 38.45 33.72 39.61 34.15 40.77C34.38 41.38 34.61 42 34.84 42.61C34.88 42.71 34.91 42.75 35.02 42.7C35.13 42.65 35.24 42.62 35.36 42.59C35.42 42.57 35.44 42.55 35.43 42.48C35.19 41.46 34.96 40.44 34.72 39.41C34.53 38.59 34.34 37.77 34.15 36.96C34.13 36.88 34.1 36.86 34.02 36.88C33.88 36.91 33.74 36.94 33.59 36.96C33.33 37.01 33.07 37.06 32.79 37.11ZM17.63 37.11C17.63 37.11 17.58 37.09 17.56 37.09C17.17 37.02 16.79 36.95 16.4 36.87C16.32 36.85 16.29 36.87 16.27 36.95C16.15 37.46 16.03 37.98 15.92 38.49C15.61 39.82 15.3 41.14 15 42.47C14.98 42.54 15 42.57 15.07 42.59C15.19 42.62 15.31 42.65 15.43 42.69C15.52 42.72 15.55 42.7 15.58 42.62C15.82 41.97 16.06 41.32 16.31 40.67C16.65 39.75 17 38.83 17.34 37.92C17.44 37.65 17.54 37.39 17.64 37.11H17.63Z" fill="#000"/>
</g>
</svg>
