<svg width="36" height="36" viewBox="0 0 36 36" fill="none" xmlns="http://www.w3.org/2000/svg">
<g id="icon_home 3">
<path id="Vector" d="M20.28 20.8999C19.67 20.8999 19.14 20.8799 18.64 20.8799V13.7299C18.64 13.5099 18.56 13.3199 18.4 13.1499C18.24 12.9899 18.05 12.9099 17.82 12.9099H16.96C16.74 12.9099 16.55 12.9899 16.38 13.1499C16.22 13.3099 16.14 13.4999 16.14 13.7299V13.7899C16.14 14.0199 16.22 14.2199 16.38 14.3699C16.54 14.5299 16.73 14.6099 16.96 14.6099H17.14V20.8699C16.64 20.8699 16.32 20.8699 15.71 20.8899C15.05 20.8899 14.75 21.2299 14.75 21.7399C14.75 22.2499 15.04 22.5099 15.74 22.5199C16.67 22.5499 16.93 22.5199 17.87 22.5199C18.84 22.5199 19.24 22.5299 20.21 22.5199C20.9 22.4999 21.21 22.2399 21.24 21.7499C21.26 21.2699 20.92 20.8999 20.29 20.8899L20.28 20.8999Z" fill="#000"/>
<path id="Vector_2" d="M15.33 8.63H20.68C20.93 8.63 21.12 8.43 21.12 8.19C21.12 7.95 20.92 7.75 20.68 7.75H15.33C15.08 7.75 14.89 7.95 14.89 8.19C14.89 8.43 15.09 8.63 15.33 8.63Z" fill="#484848"/>
<path id="Vector_3" d="M17.98 25.79C17.3 25.79 16.75 26.34 16.75 27.02C16.75 27.7 17.3 28.25 17.98 28.25C18.66 28.25 19.21 27.7 19.21 27.02C19.21 26.34 18.66 25.79 17.98 25.79Z" fill="#484848"/>
<path id="Vector_4" d="M22.87 4.36011H13.14C11.61 4.36011 10.36 5.61011 10.36 7.14011V28.8601C10.36 30.3901 11.61 31.6401 13.14 31.6401H22.87C24.4 31.6401 25.65 30.3901 25.65 28.8601V7.14011C25.65 5.61011 24.4 4.36011 22.87 4.36011ZM24.77 29.1301C24.77 30.0301 24.04 30.7601 23.14 30.7601H12.87C11.97 30.7601 11.24 30.0301 11.24 29.1301V6.85011C11.24 5.95011 11.97 5.22011 12.87 5.22011H23.14C24.04 5.22011 24.77 5.95011 24.77 6.85011V29.1301Z" fill="#484848"/>
</g>
</svg>
