<svg width="12" height="14" viewBox="0 0 12 14" fill="none" xmlns="http://www.w3.org/2000/svg">
<path d="M9.86867 7.09077C9.82227 7.04334 9.76689 7.00562 9.70576 6.97981C9.64464 6.954 9.57898 6.94061 9.51263 6.94043C9.44627 6.94025 9.38055 6.95328 9.31928 6.97876C9.25801 7.00424 9.20243 7.04165 9.15577 7.08883C9.10911 7.13601 9.0723 7.192 9.0475 7.25355C9.0227 7.31509 9.0104 7.38096 9.01131 7.44731C9.01223 7.51366 9.02634 7.57916 9.05282 7.64C9.0793 7.70084 9.11763 7.7558 9.16557 7.80167C9.58978 8.2191 9.92633 8.71704 10.1555 9.2663C10.3846 9.81555 10.5018 10.405 10.5 11.0002C10.5 11.6117 8.74707 12.5002 6.00002 12.5002C3.25297 12.5002 1.50002 11.6113 1.50002 10.9992C1.49834 10.4081 1.61391 9.82261 1.84004 9.27653C2.06618 8.73045 2.39838 8.23465 2.81742 7.81782C2.86482 7.77161 2.90257 7.71645 2.92848 7.65554C2.95439 7.59463 2.96795 7.52918 2.96837 7.46299C2.96879 7.39679 2.95606 7.33118 2.93092 7.26994C2.90579 7.20871 2.86874 7.15307 2.82193 7.10627C2.77513 7.05946 2.71949 7.02241 2.65826 6.99727C2.59702 6.97214 2.5314 6.95941 2.46521 6.95983C2.39902 6.96025 2.33357 6.97381 2.27266 6.99972C2.21174 7.02563 2.15658 7.06338 2.11037 7.11077C1.59809 7.62037 1.19197 8.22653 0.915555 8.89415C0.639136 9.56177 0.4979 10.2776 0.500024 11.0002C0.500024 12.624 3.33352 13.5002 6.00002 13.5002C8.66652 13.5002 11.5 12.624 11.5 11.0002C11.5022 10.2727 11.3591 9.55216 11.0789 8.88082C10.7988 8.20947 10.3873 7.60087 9.86867 7.09077Z" fill="#484848"/>
<path d="M6 7.5C6.69223 7.5 7.36892 7.29473 7.9445 6.91015C8.52007 6.52556 8.96867 5.97894 9.23358 5.33939C9.49849 4.69985 9.5678 3.99612 9.43275 3.31719C9.2977 2.63825 8.96436 2.01461 8.47487 1.52513C7.98539 1.03564 7.36175 0.702301 6.68282 0.567253C6.00388 0.432205 5.30015 0.501516 4.66061 0.766423C4.02107 1.03133 3.47444 1.47993 3.08986 2.05551C2.70527 2.63108 2.5 3.30777 2.5 4C2.50107 4.92793 2.87016 5.81755 3.52631 6.47369C4.18246 7.12984 5.07207 7.49893 6 7.5ZM6 1.5C6.49445 1.5 6.9778 1.64662 7.38893 1.92133C7.80005 2.19603 8.12048 2.58648 8.3097 3.04329C8.49892 3.50011 8.54843 4.00277 8.45196 4.48773C8.3555 4.97268 8.1174 5.41814 7.76777 5.76777C7.41814 6.1174 6.97268 6.3555 6.48773 6.45196C6.00277 6.54843 5.50011 6.49892 5.04329 6.3097C4.58648 6.12048 4.19603 5.80005 3.92133 5.38893C3.64662 4.9778 3.5 4.49445 3.5 4C3.50078 3.3372 3.76442 2.70177 4.2331 2.2331C4.70177 1.76443 5.3372 1.50078 6 1.5Z" fill="#484848"/>
</svg>
