<svg width="36" height="36" viewBox="0 0 36 36" fill="none" xmlns="http://www.w3.org/2000/svg">
<path d="M15.1302 23.66C15.0502 23.56 14.9802 23.46 14.9002 23.36C14.4602 22.8 14.0202 22.24 13.5902 21.68C13.2802 21.27 12.9602 20.87 12.6502 20.46C12.1902 19.85 11.7602 19.23 11.3702 18.58C10.8302 17.69 10.4202 16.74 10.2002 15.71C10.1102 15.27 10.0502 14.83 10.0302 14.39C10.0102 13.96 10.0202 13.54 10.0702 13.11C10.1602 12.29 10.3602 11.5 10.6902 10.75C11.0302 9.98999 11.4802 9.28999 12.0302 8.65999C12.3902 8.23999 12.8002 7.87999 13.2402 7.54999C13.6002 7.26999 13.9902 7.03999 14.3902 6.82999C15.0302 6.49999 15.6902 6.26999 16.3902 6.11999C17.0802 5.97999 17.7902 5.90999 18.5002 5.95999C19.2902 6.00999 20.0502 6.17999 20.7902 6.44999C21.7602 6.80999 22.6102 7.34999 23.3802 8.02999C24.0202 8.60999 24.5402 9.27999 24.9702 10.03C25.4002 10.79 25.6902 11.6 25.8602 12.45C25.9802 13.05 26.0302 13.66 26.0002 14.27C25.9502 15.38 25.7102 16.44 25.2302 17.44C25.0402 17.84 24.8402 18.23 24.6202 18.61C24.3202 19.12 23.9802 19.62 23.6302 20.09C23.1202 20.77 22.6002 21.45 22.0802 22.13C21.6902 22.63 21.3002 23.13 20.9002 23.64C20.9702 23.65 21.0402 23.67 21.1002 23.68C21.9802 23.82 22.8402 24.03 23.6702 24.36C24.0502 24.51 24.4102 24.68 24.7502 24.9C25.1402 25.15 25.4902 25.45 25.7402 25.85C25.9002 26.11 26.0002 26.4 26.0002 26.7C26.0002 27.06 25.8802 27.38 25.6802 27.68C25.4202 28.06 25.0702 28.34 24.6802 28.58C24.1502 28.91 23.5702 29.14 22.9702 29.33C22.3802 29.52 21.7702 29.66 21.1602 29.75C20.6502 29.83 20.1302 29.89 19.6202 29.95C19.3402 29.98 19.0602 29.99 18.7802 30C18.3602 30.01 17.9502 30.02 17.5302 30C17.0702 29.99 16.6102 29.96 16.1502 29.92C15.2102 29.83 14.2802 29.68 13.3702 29.42C12.7202 29.24 12.0902 29.01 11.5002 28.67C11.1402 28.47 10.8102 28.23 10.5402 27.92C10.2602 27.61 10.0802 27.26 10.0302 26.85C10.0002 26.6 10.0502 26.35 10.1502 26.12C10.3102 25.73 10.5702 25.43 10.9002 25.17C11.3502 24.81 11.8602 24.55 12.3902 24.34C13.0302 24.09 13.6802 23.91 14.3502 23.78C14.6002 23.73 14.8402 23.69 15.0902 23.65C15.1002 23.65 15.1202 23.65 15.1402 23.64L15.1302 23.66ZM18.0002 25.94C18.0002 25.94 18.0202 25.91 18.0302 25.9C18.5102 25.25 18.9902 24.59 19.4902 23.95C20.2002 23.03 20.9102 22.11 21.6302 21.2C22.2402 20.42 22.8502 19.63 23.4002 18.8C23.8202 18.17 24.1802 17.51 24.4802 16.82C24.8002 16.08 24.9802 15.3 25.0302 14.48C25.0802 13.76 25.0302 13.04 24.8702 12.34C24.5302 10.89 23.7902 9.66999 22.6802 8.67999C21.8702 7.94999 20.9402 7.44999 19.9002 7.14999C19.4402 7.01999 18.9702 6.93999 18.4902 6.90999C18.0102 6.87999 17.5202 6.88999 17.0402 6.95999C16.5702 7.01999 16.1102 7.12999 15.6702 7.28999C14.5602 7.67999 13.6002 8.31999 12.8002 9.18999C12.3302 9.69999 11.9402 10.27 11.6402 10.9C11.2902 11.63 11.0702 12.39 10.9902 13.2C10.9502 13.61 10.9402 14.02 10.9602 14.43C10.9802 14.79 11.0202 15.14 11.0902 15.49C11.2502 16.25 11.5302 16.97 11.9002 17.65C12.2402 18.29 12.6502 18.9 13.0802 19.49C13.5302 20.1 14.0002 20.7 14.4602 21.3C15.0402 22.05 15.6402 22.8 16.2102 23.55C16.7302 24.23 17.2402 24.92 17.7502 25.61C17.8302 25.71 17.9002 25.82 17.9902 25.93L18.0002 25.94ZM18.1902 29.1C18.4502 29.09 18.9102 29.07 19.3702 29.05C19.9102 29.02 20.4402 28.96 20.9702 28.87C21.5502 28.77 22.1202 28.64 22.6702 28.47C23.1802 28.31 23.6702 28.12 24.1302 27.85C24.4102 27.68 24.6702 27.48 24.8702 27.22C25.0002 27.05 25.0602 26.85 25.0202 26.62C24.9902 26.46 24.9102 26.33 24.8102 26.21C24.6102 25.97 24.3602 25.8 24.1002 25.64C23.6202 25.36 23.1002 25.16 22.5602 24.99C22.0502 24.84 21.5402 24.72 21.0202 24.64C20.7702 24.6 20.5202 24.56 20.2702 24.53C20.2402 24.53 20.2002 24.53 20.1902 24.55C20.0902 24.68 19.9902 24.8 19.9002 24.93C19.7302 25.15 19.5702 25.37 19.4102 25.59C19.2102 25.85 19.0202 26.12 18.8302 26.38C18.6702 26.59 18.5202 26.82 18.3602 27.02C18.1702 27.26 17.8402 27.26 17.6402 27.02C17.5902 26.96 17.5502 26.9 17.5002 26.84C16.9402 26.08 16.3802 25.31 15.8102 24.54C15.7902 24.51 15.7602 24.5 15.7202 24.5C15.3002 24.57 14.8702 24.63 14.4502 24.71C13.7202 24.85 13.0002 25.06 12.3202 25.38C12.0002 25.53 11.6902 25.7 11.4202 25.93C11.2502 26.07 11.1002 26.23 11.0002 26.44C10.9402 26.58 10.9202 26.72 10.9602 26.87C11.0102 27.06 11.1202 27.21 11.2502 27.35C11.4702 27.58 11.7302 27.75 12.0102 27.9C12.7302 28.28 13.5002 28.52 14.2902 28.68C14.6302 28.75 14.9802 28.81 15.3302 28.87C15.6102 28.91 15.8902 28.94 16.1702 28.97C16.7702 29.03 17.3802 29.06 18.1802 29.07L18.1902 29.1Z" fill="#484848"/>
<path d="M21.2899 13.96C21.2699 15.78 19.8399 17.25 17.9699 17.25C16.2599 17.25 14.6599 15.83 14.7199 13.85C14.7699 12.18 16.0999 10.67 18.0299 10.67C19.8399 10.67 21.2799 12.16 21.2899 13.96ZM20.3499 13.96C20.3599 12.69 19.3399 11.62 18.0399 11.6C16.7199 11.58 15.6699 12.64 15.6499 13.91C15.6299 15.19 16.6499 16.32 18.0399 16.3C19.3499 16.28 20.3599 15.21 20.3499 13.95V13.96Z" fill="#484848"/>
</svg>
