<svg width="29" height="29" viewBox="0 0 29 29" fill="none" xmlns="http://www.w3.org/2000/svg">
<g id="icon_shop2">
<g id="Group">
<path id="Vector" d="M23.0631 26.2047C23.49 26.1081 23.9008 25.9711 24.2553 25.6811C25.085 24.9803 25.3106 23.8283 24.7869 22.8697C24.7628 22.8214 24.7386 22.7731 24.6903 22.6764C25.0125 22.6764 25.3025 22.6925 25.5844 22.6764C26.2047 22.6442 26.6639 22.3542 26.9056 21.7822C27.1392 21.2183 27.0425 20.6867 26.6397 20.2356C26.3256 19.8731 25.9067 19.7442 25.4314 19.7442C22.62 19.7442 19.8006 19.7442 16.9892 19.7442C16.9328 19.7442 16.8764 19.7442 16.82 19.7442C16.53 19.7764 16.3447 19.9697 16.3528 20.2436C16.3608 20.5014 16.5381 20.6867 16.82 20.7189C16.9006 20.727 16.9811 20.727 17.0617 20.727C19.8247 20.727 22.5958 20.727 25.3589 20.727C25.8019 20.727 26.0436 20.8961 26.0436 21.2103C26.0436 21.5325 25.81 21.7017 25.3669 21.7017C20.2114 21.7017 15.0558 21.7017 9.89223 21.7017C9.39278 21.7017 9.26389 21.605 9.18334 21.1217C8.89334 19.285 8.60334 17.4483 8.32139 15.6117C7.95084 13.2433 7.58028 10.875 7.20973 8.50668C7.04056 7.43529 6.87945 6.3639 6.71028 5.29251C6.64584 4.88168 6.49278 4.75279 6.07389 4.75279C5.12334 4.75279 4.18084 4.75279 3.23028 4.75279C3.14167 4.75279 3.05306 4.75279 2.94834 4.75279C2.94834 4.42251 2.94834 4.10834 2.94834 3.77806C3.00473 3.77806 3.05306 3.77001 3.09334 3.77001C4.38223 3.77001 5.67111 3.77001 6.96 3.77001C7.31445 3.77001 7.48362 3.91501 7.53195 4.26945C7.92667 6.77473 8.31334 9.28001 8.70806 11.7853C9.07056 14.1214 9.44112 16.4575 9.80362 18.7936C9.87612 19.2608 9.94862 19.7281 10.0292 20.1953C10.0936 20.5739 10.2547 20.7189 10.6414 20.7189C11.3664 20.7189 12.0914 20.7189 12.8164 20.7189C13.2192 20.7189 13.4528 20.445 13.3642 20.0986C13.2997 19.8731 13.1144 19.7442 12.8164 19.7442C12.2606 19.7442 11.7047 19.7361 11.1489 19.7442C10.9797 19.7442 10.9233 19.6958 10.9072 19.5267C10.8669 19.1481 10.7944 18.7695 10.73 18.3667C10.8508 18.3667 10.9394 18.3667 11.0361 18.3667C15.4747 18.3667 19.9133 18.3667 24.3519 18.3667C24.8594 18.3667 24.9883 18.27 25.085 17.7786C25.6328 14.935 26.1806 12.0995 26.7203 9.25584C26.8089 8.78862 26.8975 8.32945 26.9861 7.86223C27.0586 7.46751 26.8572 7.21779 26.4464 7.20168C26.3658 7.20168 26.2853 7.20168 26.2047 7.20168C20.5739 7.20168 14.9431 7.20168 9.31223 7.20168C9.2075 7.20168 9.10278 7.20168 8.98195 7.20168C8.88528 6.58945 8.79667 5.99334 8.7 5.39723C8.61945 4.90584 8.56306 4.41445 8.45834 3.92306C8.31334 3.26251 7.77361 2.80334 7.09695 2.79529C5.55834 2.77918 4.01167 2.78723 2.47306 2.78723C2.22334 2.78723 2.07834 2.94029 1.94945 3.12556C1.94945 3.87473 1.94945 4.6239 1.94945 5.38112C2.1025 5.64695 2.33611 5.73556 2.64223 5.72751C3.39139 5.7114 4.14056 5.71945 4.88973 5.71945C5.17973 5.71945 5.46973 5.71945 5.76778 5.71945C5.78389 5.77584 5.8 5.81612 5.80806 5.8564C6.13834 7.9589 6.46056 10.0533 6.79084 12.1558C7.26612 15.225 7.74139 18.2861 8.22473 21.3553C8.35361 22.1608 8.92556 22.6522 9.74723 22.6603C10.2144 22.6683 10.6736 22.6603 11.1408 22.6603C11.2617 22.6603 11.3906 22.6603 11.5436 22.6603C11.5033 22.7489 11.4792 22.7892 11.455 22.8295C10.9233 23.7961 11.1408 24.94 11.9786 25.657C12.325 25.955 12.7358 26.0839 13.1708 26.1806C13.3319 26.1806 13.5011 26.1806 13.6622 26.1806C13.6944 26.1645 13.7186 26.1483 13.7508 26.1403C15.2331 25.8986 16.0628 24.3842 15.4667 23.0147C15.4183 22.902 15.3539 22.7892 15.2975 22.6683C17.1906 22.6683 19.0514 22.6683 20.9444 22.6683C20.9122 22.7328 20.8881 22.7731 20.8719 22.8214C20.3322 23.7881 20.5497 24.94 21.3956 25.6489C21.7419 25.9389 22.1528 26.0758 22.5797 26.1806C22.7408 26.2047 22.9019 26.2047 23.0631 26.2047ZM9.15917 8.20056C14.7739 8.20056 20.3564 8.20056 25.9469 8.20056C25.4958 10.5367 25.0447 12.8567 24.6097 15.1767C24.5694 15.3781 24.505 15.4345 24.2956 15.4345C23.2242 15.4264 22.1608 15.4264 21.0894 15.4264C20.7833 15.4264 20.59 15.5392 20.5175 15.7486C20.3886 16.1031 20.6383 16.4011 21.0653 16.4011C22.0722 16.4011 23.0711 16.4011 24.0781 16.4011C24.1667 16.4011 24.2553 16.4011 24.36 16.4011C24.2956 16.7395 24.2392 17.0536 24.1747 17.3678C19.6394 17.3678 15.1122 17.3678 10.585 17.3678C10.1097 14.3147 9.63445 11.2697 9.15917 8.20056ZM13.4206 22.6764C14.1133 22.6764 14.6933 23.2645 14.6933 23.9572C14.6853 24.642 14.1133 25.2139 13.4286 25.222C12.7278 25.222 12.1478 24.65 12.1478 23.9572C12.1478 23.2564 12.7197 22.6764 13.4206 22.6764ZM22.8133 22.6764C23.5142 22.6683 24.0942 23.2483 24.0942 23.9411C24.0942 24.6339 23.5303 25.2058 22.8456 25.2139C22.1528 25.222 21.5647 24.6581 21.5486 23.9572C21.5406 23.2725 22.1206 22.6845 22.8133 22.6764Z" fill="#3D3D3D"/>
</g>
</g>
</svg>
