<svg width="37" height="35" viewBox="0 0 37 35" fill="none" xmlns="http://www.w3.org/2000/svg">
<path id="Star 6" d="M18.036 1.49718C18.204 1.07894 18.796 1.07894 18.964 1.49717L23.1039 11.8064C23.3184 12.3407 23.8199 12.705 24.3944 12.744L35.4783 13.4955C35.928 13.526 36.1109 14.0891 35.7651 14.3781L27.2397 21.5011C26.7979 21.8703 26.6063 22.4598 26.7468 23.0182L29.4572 33.7919C29.5671 34.2289 29.0881 34.577 28.7064 34.3373L19.2976 28.4303C18.8099 28.1242 18.1901 28.1242 17.7024 28.4303L8.29358 34.3373C7.91187 34.577 7.43287 34.2289 7.54283 33.7919L10.2532 23.0182C10.3937 22.4598 10.2021 21.8703 9.76027 21.5011L1.23492 14.3781C0.88905 14.0891 1.07201 13.526 1.52167 13.4955L12.6056 12.744C13.1801 12.705 13.6816 12.3407 13.8961 11.8064L18.036 1.49718Z" stroke="#FDD60A"/>
</svg>
