<svg width="32" height="32" viewBox="0 0 32 32" fill="none" xmlns="http://www.w3.org/2000/svg">
<g id="icon_drink 1">
<rect width="32" height="32" rx="7" fill="#DCEFED"/>
<g id="Group">
<path id="Vector" d="M7.55554 11.8311C7.56443 11.8133 7.57332 11.7956 7.58221 11.7689C7.62665 11.6 7.75999 11.4756 7.93776 11.4578C8.06221 11.4489 8.18665 11.4489 8.3111 11.4489C8.34665 11.4489 8.38221 11.4489 8.42665 11.4489C8.43554 11.3244 8.44443 11.2089 8.45332 11.0844C8.51554 10.5067 8.63999 9.94667 8.82665 9.39556C9.15554 8.44445 9.65332 7.6 10.3111 6.84445C10.9422 6.12445 11.6889 5.55556 12.5422 5.11111C13.1467 4.8 13.7867 4.57778 14.4622 4.43556C14.5244 4.42667 14.5867 4.40889 14.6578 4.4C14.72 4.39111 14.7378 4.36445 14.7378 4.30222C14.7378 3.45778 14.7378 2.62222 14.7378 1.77778C14.7378 1.70667 14.7467 1.63556 14.7733 1.57334C14.8355 1.41334 14.9689 1.32445 15.1378 1.32445C15.7067 1.31556 16.2667 1.31556 16.8355 1.32445C17.0933 1.32445 17.2622 1.51111 17.2622 1.76889C17.2622 2.61334 17.2622 3.45778 17.2533 4.31111C17.2533 4.37333 17.2711 4.39111 17.3333 4.4C17.6267 4.47111 17.9289 4.52445 18.2133 4.61334C18.9689 4.83556 19.6711 5.19111 20.32 5.64445C21.5289 6.49778 22.4178 7.60889 22.9867 8.97778C23.2622 9.62667 23.4311 10.3111 23.5111 11.0133C23.5289 11.1378 23.5378 11.2711 23.5467 11.3956C23.5467 11.44 23.5644 11.4489 23.6089 11.4489C23.7511 11.4489 23.8933 11.44 24.0355 11.4489C24.2578 11.4667 24.4355 11.68 24.4355 11.9022C24.4355 12.4444 24.4355 12.9778 24.4355 13.52C24.4355 13.7689 24.2311 13.9733 23.9733 13.9733C23.84 13.9733 23.7155 13.9733 23.5822 13.9733C23.5378 13.9733 23.52 13.9911 23.5111 14.0356C23.4755 14.3556 23.4311 14.6756 23.3955 14.9956C23.3511 15.3244 23.3067 15.6533 23.2622 15.9822C23.2 16.4711 23.1378 16.96 23.0844 17.4489C23.04 17.7778 23.0044 18.1156 22.96 18.4444C22.9155 18.8356 22.8622 19.2267 22.8178 19.6178C22.7733 19.9822 22.72 20.3467 22.6755 20.7111C22.6222 21.1378 22.5867 21.5644 22.5333 21.9822C22.4978 22.2578 22.4533 22.5333 22.4178 22.8089C22.3555 23.2978 22.2933 23.7867 22.24 24.2844C22.2133 24.4978 22.2044 24.72 22.1511 24.9244C22.0622 25.2889 22.0444 25.6622 21.9911 26.0356C21.9022 26.6756 21.8311 27.3244 21.7511 27.9733C21.6978 28.4267 21.6355 28.88 21.5822 29.3333C21.5378 29.6533 21.5022 29.9733 21.4667 30.2933C21.44 30.4711 21.3422 30.5867 21.1733 30.64C21.1555 30.6489 21.1289 30.6578 21.1111 30.6667C17.68 30.6667 14.2489 30.6667 10.8178 30.6667C10.8533 30.64 10.8178 30.64 10.8 30.6311C10.6222 30.5778 10.5422 30.4533 10.5155 30.2844C10.4978 30.1689 10.4889 30.0533 10.4711 29.9378C10.4 29.3956 10.3289 28.8444 10.2667 28.3022C10.1955 27.7067 10.1244 27.1111 10.0444 26.5244C9.97332 25.9822 9.89332 25.44 9.82221 24.8978C9.7511 24.3556 9.68887 23.8222 9.61776 23.28C9.54665 22.7467 9.48443 22.2044 9.41332 21.6711C9.36888 21.3333 9.32443 20.9956 9.28888 20.6578C9.24443 20.2667 9.1911 19.8756 9.14665 19.4844C9.1111 19.2 9.06665 18.9067 9.0311 18.6222C8.99554 18.3289 8.96888 18.0444 8.93332 17.7511C8.88888 17.3778 8.83554 16.9956 8.7911 16.6222C8.74665 16.2667 8.70221 15.9111 8.65776 15.5467C8.62221 15.28 8.59554 15.0133 8.55999 14.7467C8.53332 14.5156 8.49776 14.2844 8.4711 14.0533C8.46221 14 8.44443 13.9822 8.3911 13.9911C8.25776 14 8.13332 13.9911 7.99999 13.9911C7.81332 13.9911 7.66221 13.8844 7.59999 13.7156C7.5911 13.6889 7.57332 13.6622 7.56443 13.6356C7.55554 13.0222 7.55554 12.4267 7.55554 11.8311ZM16 13.9822C14.4178 13.9822 12.8355 13.9822 11.2533 13.9822C10.6311 13.9822 10.0089 13.9822 9.39554 13.9822C9.29776 13.9822 9.29776 13.9822 9.30665 14.0889C9.3511 14.3911 9.38665 14.6933 9.42221 14.9956C9.48443 15.4756 9.53776 15.9644 9.59999 16.4444C9.66221 16.9244 9.72443 17.3956 9.78665 17.8756C9.8311 18.2311 9.87554 18.5778 9.91999 18.9333C9.97332 19.3689 10.0355 19.7956 10.0889 20.2311C10.1511 20.6933 10.1955 21.1644 10.2578 21.6267C10.2755 21.7689 10.32 21.9111 10.3467 22.0444C10.4 22.4178 10.4355 22.7822 10.4889 23.1556C10.5333 23.52 10.5867 23.8756 10.6311 24.24C10.6933 24.7467 10.7467 25.2622 10.8089 25.7689C10.8533 26.1511 10.8978 26.5422 10.9511 26.9244C11.0133 27.4044 11.0755 27.8844 11.1378 28.3644C11.1911 28.8 11.2444 29.2267 11.2978 29.6622C11.3155 29.8133 11.3155 29.8133 11.4755 29.8133C13.9111 29.8133 16.3555 29.8133 18.7911 29.8133C19.4133 29.8133 20.0355 29.8133 20.6489 29.8222C20.6933 29.8222 20.7111 29.8044 20.7111 29.76C20.7289 29.6178 20.7467 29.4756 20.7644 29.3422C20.8178 28.9333 20.8711 28.5333 20.9155 28.1244C20.9778 27.6267 21.04 27.1378 21.1022 26.64C21.1555 26.2311 21.2089 25.8222 21.2533 25.4044C21.2978 25.0222 21.3422 24.64 21.3955 24.2578C21.44 23.8756 21.4933 23.5022 21.5378 23.12C21.5822 22.7556 21.6178 22.3911 21.6711 22.0178C21.6978 21.8044 21.7511 21.5911 21.7867 21.3778C21.8667 20.7467 21.9467 20.1156 22.0267 19.4844C22.0622 19.1911 22.0889 18.8978 22.1244 18.6044C22.1689 18.2489 22.2222 17.8844 22.2667 17.5289C22.32 17.0933 22.3733 16.6578 22.4267 16.2222C22.4711 15.8756 22.5067 15.5289 22.5511 15.1733C22.5955 14.7911 22.6489 14.4089 22.7022 14.0267C22.7111 13.9733 22.6933 13.9644 22.6489 13.9644C22.5778 13.9644 22.4978 13.9644 22.4267 13.9644C20.2667 13.9822 18.1333 13.9822 16 13.9822ZM14.7289 5.23556C14.7111 5.23556 14.7022 5.23556 14.6933 5.24445C14.3644 5.30667 14.0355 5.40445 13.7155 5.52C12.8533 5.83111 12.08 6.29334 11.4133 6.93334C10.9333 7.38667 10.5067 7.89334 10.1778 8.46222C9.65332 9.36889 9.34221 10.3556 9.26221 11.4044C9.26221 11.4489 9.2711 11.4578 9.31554 11.4578C9.37776 11.4578 9.44888 11.4578 9.5111 11.4578C11.2355 11.4578 12.9689 11.4578 14.6933 11.4578C14.7022 11.4578 14.72 11.4578 14.7378 11.4489C14.7289 9.37778 14.7289 7.30667 14.7289 5.23556ZM17.2711 5.23556C17.2622 5.24445 17.2622 5.25334 17.2622 5.26222C17.2622 5.53778 17.2622 5.80445 17.2622 6.08C17.2622 6.09778 17.2889 6.11556 17.2978 6.12445C17.4133 6.16 17.5289 6.17778 17.6444 6.21334C18.6844 6.51556 19.5644 7.06667 20.3111 7.84C20.5511 8.08889 20.7467 8.36445 20.9511 8.64C20.9778 8.68445 20.9511 8.69334 20.9244 8.71111C20.72 8.84445 20.5155 8.97778 20.3111 9.10222C20.2755 9.12889 20.2578 9.11111 20.24 9.08445C20.1955 9.01334 20.1511 8.95111 20.1067 8.88C19.52 8.08 18.7644 7.49333 17.84 7.13778C17.6533 7.06667 17.4667 7.01334 17.2711 6.94222C17.2711 7.03111 17.2711 7.11111 17.2711 7.19111C17.2711 8.58667 17.2711 9.98222 17.2711 11.3867C17.2711 11.4311 17.2889 11.4489 17.3333 11.4489C17.3867 11.4489 17.4311 11.44 17.4844 11.44C19.2 11.44 20.9155 11.44 22.6311 11.44C22.6667 11.44 22.7111 11.4311 22.7467 11.4311C22.5155 8.39111 20.2933 5.83111 17.2711 5.23556ZM23.5822 12.3022C18.5155 12.3022 13.4667 12.3022 8.39999 12.3022C8.39999 12.32 8.3911 12.3289 8.3911 12.3467C8.3911 12.5956 8.3911 12.8444 8.3911 13.0933C8.3911 13.1378 8.40888 13.1467 8.44443 13.1378C8.50665 13.1378 8.56888 13.1378 8.62221 13.1378C11.0755 13.1378 13.52 13.1378 15.9733 13.1378C18.4978 13.1378 21.0133 13.1378 23.5378 13.1378C23.5467 13.1378 23.5555 13.1378 23.5733 13.1289C23.5822 12.8622 23.5822 12.5867 23.5822 12.3022ZM15.5644 5.12889C15.5644 5.2 15.5644 5.24445 15.5644 5.29778C15.5644 7.33333 15.5644 9.36889 15.5644 11.4044C15.5644 11.4578 15.5911 11.4578 15.6267 11.4578C15.84 11.4578 16.0444 11.4578 16.2578 11.4489C16.3022 11.4489 16.3555 11.4489 16.4 11.4489C16.4 9.34222 16.4 7.23556 16.4 5.12889C16.1244 5.12889 15.8489 5.12889 15.5644 5.12889ZM16.4 4.29333C16.4 3.58222 16.4 2.87111 16.4 2.16C16.1155 2.16 15.84 2.16 15.5644 2.16C15.5644 2.19556 15.5644 2.23111 15.5644 2.25778C15.5644 2.91556 15.5644 3.57334 15.5644 4.23111C15.5644 4.26667 15.5644 4.28445 15.6178 4.28445C15.8755 4.29334 16.1333 4.29333 16.4 4.29333Z" fill="#255D54"/>
<path id="Vector_2" d="M14.3289 24.1422C14.1956 24.16 14.0622 24.1778 13.9289 24.1867C13.4933 24.2133 13.0667 24.1867 12.6578 24.0356C12.0622 23.8222 11.6 23.4311 11.2622 22.8978C10.9245 22.3733 10.7289 21.7867 10.6133 21.1733C10.5067 20.6222 10.4622 20.0711 10.48 19.5111C10.48 19.36 10.5511 19.2622 10.6667 19.2356C10.7733 19.2089 10.88 19.2445 10.9333 19.3422C10.9778 19.4133 11.0311 19.4667 11.1111 19.4845C11.3867 19.5556 11.6622 19.6356 11.9378 19.7067C12.4089 19.8222 12.8889 19.9378 13.3333 20.1422C13.68 20.3022 14 20.5067 14.2756 20.7733C14.6667 21.1733 14.8711 21.6622 14.9245 22.2133C14.9689 22.6933 14.9244 23.1733 14.7911 23.6445C14.7556 23.76 14.7556 23.8667 14.8089 23.9733C14.8711 24.1067 14.9156 24.2578 14.96 24.4C14.9689 24.4356 14.9867 24.4711 14.9956 24.5156C15.04 24.2756 15.0845 24.0533 15.1289 23.8311C15.2622 23.2267 15.4311 22.64 15.6711 22.08C15.6889 22.0356 15.6978 21.9733 15.68 21.9289C15.5822 21.5645 15.5022 21.1911 15.4578 20.8089C15.3778 20.1778 15.3778 19.5556 15.5556 18.9422C15.8133 18.0267 16.3733 17.3422 17.1911 16.8622C17.7778 16.5245 18.4 16.2933 19.0578 16.1156C19.5467 15.9822 20.0445 15.8756 20.5422 15.7511C20.7467 15.6978 20.9422 15.6267 21.1378 15.5645C21.2533 15.5289 21.3422 15.4578 21.4045 15.3422C21.4667 15.2267 21.5733 15.1733 21.6622 15.1911C21.7778 15.2178 21.8667 15.3245 21.8756 15.4578C21.8845 15.6178 21.8933 15.7778 21.8845 15.9467C21.8667 16.5867 21.8222 17.2267 21.7067 17.8489C21.5733 18.5956 21.36 19.3245 21.0133 20.0089C20.6667 20.7022 20.1956 21.2978 19.5556 21.7422C19.1111 22.0445 18.6222 22.24 18.0978 22.3467C17.6622 22.4356 17.2178 22.4445 16.7733 22.4178C16.5778 22.4 16.3911 22.3822 16.1956 22.3467C16.1244 22.3378 16.0978 22.3556 16.0711 22.4178C15.8311 23.0578 15.6533 23.7067 15.5289 24.3822C15.44 24.8978 15.36 25.4222 15.3422 25.9467C15.3245 26.2578 15.3245 26.56 15.3156 26.8711C15.3156 27.0489 15.3156 27.2178 15.3156 27.3956C15.3156 27.5822 15.1822 27.6622 15.0667 27.6711C14.9245 27.68 14.8178 27.5556 14.8178 27.3956C14.8089 27.1022 14.8267 26.8178 14.8 26.5245C14.7733 26.1511 14.7289 25.7778 14.6756 25.4133C14.6133 25.0045 14.5067 24.6045 14.3556 24.2222C14.3378 24.1956 14.3289 24.1689 14.3289 24.1422ZM21.3689 16.0178C21.3511 16.0178 21.3422 16.0178 21.3333 16.0267C20.9511 16.1956 20.5422 16.2756 20.1511 16.3733C19.6889 16.4889 19.2178 16.6045 18.7556 16.7378C18.2045 16.8978 17.68 17.1289 17.2 17.4489C16.8267 17.7067 16.5156 18.0267 16.2933 18.4267C16.0267 18.8978 15.9289 19.4045 15.9022 19.9378C15.8844 20.2845 15.92 20.6222 15.9733 20.96C15.9911 21.0667 16.0089 21.1733 16.0356 21.2978C16.0533 21.2711 16.0711 21.2533 16.08 21.2445C16.2933 20.8622 16.5511 20.5156 16.8445 20.1956C17.1733 19.8222 17.5556 19.5111 17.9911 19.2622C18.1067 19.1911 18.24 19.2267 18.3111 19.3422C18.3822 19.4578 18.3556 19.5822 18.2489 19.6622C18.2133 19.6889 18.1867 19.7067 18.1511 19.7333C17.8845 19.8933 17.6533 20.0889 17.4311 20.3022C17.0045 20.7022 16.6844 21.1822 16.4089 21.6978C16.3822 21.7511 16.3556 21.8045 16.3289 21.8578C16.3645 21.8578 16.3822 21.8667 16.4089 21.8667C16.9156 21.9378 17.4222 21.9467 17.9289 21.8667C18.5867 21.76 19.1556 21.4845 19.6533 21.04C19.9822 20.7467 20.24 20.3911 20.4533 20C20.8089 19.3689 21.0222 18.6933 21.1556 17.9822C21.2622 17.4578 21.3245 16.9245 21.3511 16.3822C21.36 16.2667 21.36 16.1422 21.3689 16.0178ZM10.9778 19.9733C10.9689 19.9822 10.9689 19.9911 10.9689 19.9911C11.0045 20.3111 11.0311 20.6311 11.0756 20.9422C11.1556 21.4667 11.3067 21.9733 11.5645 22.4445C11.7867 22.8445 12.0711 23.1822 12.48 23.4133C12.9689 23.6889 13.5022 23.7333 14.0445 23.68C14.0622 23.68 14.08 23.6711 14.0978 23.6622C14.0622 23.6 14.0267 23.5467 13.9911 23.4933C13.7245 23.0667 13.4133 22.6756 12.9778 22.4C12.9422 22.3822 12.9156 22.3556 12.88 22.3378C12.7911 22.2667 12.7733 22.1245 12.8356 22.0267C12.8978 21.9289 13.04 21.8845 13.1467 21.9289C13.1911 21.9556 13.2445 21.9822 13.2889 22.0089C13.7156 22.2933 14.0622 22.6578 14.3378 23.0845C14.3467 23.0933 14.3556 23.1111 14.3645 23.1289C14.3733 23.1022 14.3822 23.0756 14.3822 23.0578C14.4089 22.7822 14.4267 22.5067 14.4 22.2311C14.3289 21.6356 14.0533 21.1733 13.5645 20.8445C13.2445 20.6311 12.88 20.4889 12.5067 20.3822C12.1333 20.2845 11.7511 20.1956 11.3778 20.0978C11.2445 20.0533 11.12 20.0089 10.9778 19.9733Z" fill="#255D54"/>
<path id="Vector_3" d="M20.9333 10.7022C20.8533 10.4444 20.7644 10.1867 20.6844 9.92889C20.9333 9.82222 21.1822 9.71555 21.44 9.60889C21.4667 9.68 21.5022 9.75111 21.5289 9.82222C21.5911 10.0178 21.6533 10.2133 21.7156 10.4178C21.7422 10.5067 21.7422 10.5067 21.6444 10.5333C21.4133 10.5867 21.1911 10.64 20.96 10.6933C20.9511 10.6933 20.9422 10.7022 20.9333 10.7022Z" fill="#255D54"/>
</g>
</g>
</svg>
