<svg width="31" height="31" viewBox="0 0 31 31" fill="none" xmlns="http://www.w3.org/2000/svg">
<g id="icon_daubep">
<g id="Group">
<path id="Vector" d="M19.9261 3.25499C20.305 3.3411 20.6925 3.40999 21.0628 3.51332C21.8464 3.73721 22.4836 4.20221 23.0003 4.82221C23.0692 4.90832 23.1467 4.99443 23.1897 5.03749C23.6547 4.94277 24.0767 4.83082 24.5159 4.76193C25.4028 4.63277 26.2295 4.85666 26.9786 5.33888C28.2272 6.14832 28.8128 7.32804 28.7784 8.80916C28.7439 10.2903 27.745 11.6853 26.35 12.2364C26.2639 12.2708 26.1606 12.4 26.1606 12.4861C26.152 13.8639 26.1606 15.2417 26.1692 16.6194C26.1692 16.6367 26.1778 16.6539 26.195 16.6883C26.3414 16.6883 26.4964 16.6797 26.6428 16.6883C27.1681 16.7228 27.5728 17.1361 27.5728 17.6614C27.5814 18.7636 27.59 19.8572 27.5728 20.9594C27.5642 21.4589 27.1078 21.9497 26.5136 21.9239C26.1347 21.9067 26.1261 21.9153 26.0745 22.2942C25.8592 23.7494 25.2134 24.9894 24.1542 25.9969C23.5514 26.5653 22.8625 26.9958 22.0961 27.2972C20.6581 27.8569 19.2028 27.8742 17.7561 27.3919C16.5506 26.9872 15.5517 26.2725 14.7681 25.2564C14.0017 24.2575 13.6056 23.1294 13.4506 21.9325C13.1836 21.9067 12.9253 21.9153 12.6842 21.8464C12.2709 21.7258 12.0642 21.3986 12.0384 20.9939C12.0039 20.5892 12.0211 20.1758 12.0125 19.7625C12.0125 19.065 12.0125 18.3675 12.0125 17.67C12.0125 17.1619 12.4517 16.7055 12.9684 16.6797C13.1147 16.6711 13.2611 16.6797 13.4334 16.6797C13.442 16.585 13.4592 16.4903 13.4592 16.3955C13.4592 15.1555 13.4506 13.9155 13.4592 12.6842C13.4592 12.4086 13.3817 12.2794 13.0975 12.1589C12.1761 11.7628 11.4959 11.0825 11.1084 10.1439C10.6864 9.13638 10.6606 8.11166 11.0997 7.09555C11.5734 6.00193 12.3742 5.26999 13.5109 4.89971C14.3892 4.61555 15.2589 4.64138 16.12 4.98582C16.3267 5.07193 16.43 5.00305 16.5506 4.84805C17.2222 3.99555 18.092 3.48749 19.1597 3.32388C19.3061 3.29805 19.4439 3.25499 19.5903 3.22916C19.6764 3.25499 19.797 3.25499 19.9261 3.25499ZM14.0792 14.9317C14.3547 14.9317 14.6045 14.9317 14.8542 14.9317C18.2814 14.9317 21.7086 14.9317 25.1359 14.9317C25.4717 14.9317 25.4717 14.9317 25.4717 14.5786C25.4717 13.7864 25.4717 12.9942 25.4717 12.2019C25.4717 11.8575 25.5406 11.7972 25.8678 11.6939C26.9528 11.358 27.6589 10.6089 27.9603 9.54971C28.322 8.24943 28.012 7.07832 26.9614 6.18277C26.0314 5.38193 24.9464 5.21832 23.7925 5.60582C22.8539 5.92443 22.2253 6.57888 21.855 7.48305C21.7259 7.78443 21.6053 7.86193 21.3986 7.78443C21.2006 7.70693 21.1403 7.51749 21.2264 7.25916C21.4589 6.5961 21.8722 6.0536 22.4147 5.61443C22.5697 5.49388 22.6042 5.39916 22.4664 5.23555C21.6053 4.2711 20.5375 3.81471 19.2545 4.00416C17.4806 4.2711 16.2836 5.76943 16.2578 7.43138C16.2578 7.63805 16.1717 7.79305 15.9478 7.81027C15.7325 7.82749 15.6206 7.6811 15.612 7.49166C15.612 7.19888 15.6206 6.89749 15.6722 6.61332C15.7325 6.29471 15.8445 5.98471 15.9564 5.62305C15.612 5.56277 15.302 5.49388 14.992 5.45082C14.0361 5.32166 13.1922 5.60582 12.4947 6.24305C11.6336 7.02666 11.2547 8.03416 11.4786 9.18805C11.7197 10.4539 12.4689 11.3236 13.7261 11.7111C13.9414 11.78 14.0706 11.9005 14.0706 12.1589C14.0534 12.9769 14.062 13.795 14.062 14.6217C14.062 14.7078 14.0706 14.8111 14.0792 14.9317ZM14.062 15.6292C14.062 15.7669 14.062 15.9047 14.062 16.0425C14.062 17.8508 14.0534 19.6505 14.062 21.4589C14.062 22.3114 14.2686 23.1294 14.6561 23.8958C15.3881 25.3339 16.5161 26.3242 18.0661 26.815C19.5128 27.2714 20.9164 27.1853 22.2684 26.4964C24.3781 25.42 25.42 23.6461 25.4631 21.3039C25.4975 19.5558 25.4717 17.7992 25.4717 16.0425C25.4717 15.9133 25.4717 15.7928 25.4717 15.6378C21.657 15.6292 17.8767 15.6292 14.062 15.6292ZM26.8925 19.3147C26.8925 18.7808 26.9011 18.2555 26.8839 17.7217C26.8753 17.6097 26.7892 17.4547 26.6945 17.3944C26.4189 17.2222 26.152 17.4289 26.152 17.7992C26.152 18.8153 26.152 19.8314 26.1606 20.8475C26.1606 21.0972 26.307 21.2694 26.5136 21.2694C26.7289 21.278 26.8925 21.1058 26.9011 20.8389C26.8925 20.3394 26.8925 19.8314 26.8925 19.3147ZM13.3903 19.3147C13.3903 18.7808 13.3903 18.2555 13.3903 17.7217C13.3903 17.4375 13.1836 17.3083 12.9167 17.3772C12.6842 17.4375 12.6584 17.6097 12.6584 17.7992C12.6497 18.8153 12.6497 19.84 12.6584 20.8561C12.6584 21.1144 12.8047 21.2608 13.0372 21.2608C13.2697 21.2608 13.3989 21.123 13.3989 20.8561C13.3903 20.3394 13.3903 19.8314 13.3903 19.3147Z" fill="#3D3D3D"/>
<path id="Vector_2" d="M7.92223 21.0886C7.98251 21.1231 7.99112 21.1231 7.99973 21.1231C8.61973 21.1747 8.61112 21.1747 8.61112 21.8119C8.61112 23.4739 8.61112 25.1444 8.61112 26.8064C8.61112 27.3144 8.55946 27.3919 8.04279 27.3919C6.25168 27.4006 4.46918 27.3919 2.67807 27.3833C2.3164 27.3833 2.22168 27.2714 2.22168 26.9011C2.22168 25.1703 2.22168 23.4308 2.23029 21.7C2.23029 21.1919 2.26474 21.1661 2.7814 21.1403C2.82446 21.1403 2.86751 21.1317 2.95362 21.1231C2.87612 20.4256 3.03974 19.7281 2.69529 19.0564C2.3939 18.4794 2.27335 17.8422 2.27335 17.1878C2.27335 14.6389 2.28196 12.0986 2.26474 9.54973C2.25612 8.90389 2.83307 8.41306 3.44446 8.48195C3.52196 8.49056 3.59085 8.49917 3.68557 8.51639C3.68557 8.28389 3.70279 8.06861 3.68557 7.85334C3.62529 7.19028 4.36585 6.5875 4.99446 6.81139C5.16668 6.87167 5.29585 6.86306 5.45946 6.71667C5.97612 6.23445 6.8114 6.39806 7.11279 7.03528C7.18168 7.17306 7.1989 7.35389 7.1989 7.5175C7.1989 8.78334 7.19029 10.0492 7.19029 11.3064C7.19029 11.4183 7.20751 11.5303 7.21612 11.6681C7.5089 11.5044 7.77585 11.315 8.07723 11.1858C9.66168 10.5228 11.4442 11.6422 11.4786 13.4161C11.4786 13.5108 11.4786 13.6228 11.4356 13.7003C11.2461 14.0189 11.3581 14.3117 11.4183 14.6389C11.4958 15.0608 11.4528 15.5258 11.3667 15.9478C11.0997 17.205 10.4711 18.2469 9.41196 18.9961C9.01585 19.2803 8.55085 19.4697 8.12029 19.7194C8.04279 19.7625 7.93946 19.8572 7.93946 19.9261C7.91362 20.3136 7.92223 20.7097 7.92223 21.0886ZM6.52724 10.4625C6.52724 9.54973 6.52724 8.62834 6.52724 7.71556C6.52724 7.61223 6.55307 7.49167 6.5014 7.40556C6.43251 7.285 6.32057 7.13 6.20001 7.09556C6.09668 7.06973 5.91585 7.18167 5.83835 7.285C5.76946 7.37112 5.77807 7.53473 5.77807 7.66389C5.77807 9.455 5.77807 11.2375 5.77807 13.0286C5.77807 13.2008 5.76946 13.3817 5.74362 13.5539C5.71779 13.7089 5.61446 13.7864 5.45085 13.7778C5.20973 13.7778 5.1064 13.6744 5.1064 13.3644C5.1064 11.7283 5.1064 10.0836 5.09779 8.4475C5.09779 8.25806 5.09779 8.06 5.08918 7.87056C5.08057 7.57778 4.96001 7.44 4.74474 7.43139C4.50362 7.42278 4.35724 7.58639 4.34001 7.87917C4.34001 7.93084 4.34001 7.9825 4.34001 8.03417C4.34001 9.72195 4.34001 11.4183 4.34001 13.1061C4.34001 13.2353 4.34001 13.3644 4.3314 13.5022C4.31418 13.6917 4.21085 13.7778 4.0214 13.7778C3.83196 13.7778 3.72001 13.7003 3.70279 13.5108C3.68557 13.3214 3.68557 13.1319 3.68557 12.9339C3.68557 11.8661 3.68557 10.8069 3.68557 9.73917C3.68557 9.30862 3.56501 9.12778 3.31529 9.12778C3.04835 9.12778 2.91918 9.32584 2.91918 9.74778C2.91918 12.1417 2.90196 14.5442 2.9364 16.9381C2.94501 17.4719 3.0139 18.0575 3.23779 18.5397C3.58224 19.2803 3.64251 20.0294 3.60807 20.8131C3.60807 20.8303 3.60807 20.8475 3.60807 20.8647C3.58224 21.0542 3.65112 21.1231 3.84918 21.1231C4.90835 21.1144 5.9589 21.1144 7.01807 21.1317C7.21612 21.1317 7.2764 21.0628 7.2764 20.8733C7.26779 20.4342 7.2764 20.0036 7.2764 19.5644C7.2764 19.3578 7.36251 19.2631 7.56057 19.1942C7.96529 19.0478 8.37862 18.8928 8.7489 18.6689C9.78223 18.0317 10.4281 17.0844 10.7122 15.9219C10.7983 15.5689 10.807 15.1814 10.7983 14.8111C10.7897 14.57 10.6261 14.4925 10.3936 14.5356C10.1439 14.5786 10.0922 14.7681 10.0664 14.9747C10.0406 15.2675 9.94585 15.5172 9.70474 15.6981C9.35168 15.965 8.97279 16.0081 8.57668 15.8272C8.16335 15.6378 7.99973 15.2761 7.9739 14.8628C7.94807 14.3892 7.95668 13.9242 7.9739 13.4506C7.98251 13.1233 8.1289 12.8392 8.39585 12.6411C9.12779 12.0986 10.0406 12.6325 10.075 13.3731C10.0922 13.7003 10.2817 13.8811 10.5142 13.8467C10.7381 13.8122 10.8672 13.5883 10.8328 13.2956C10.6778 11.9867 9.32585 11.2719 8.16335 11.8919C7.59501 12.2019 7.29362 12.7014 7.23335 13.3472C7.21612 13.5367 7.22473 13.7519 6.95779 13.7778C6.69085 13.8122 6.55307 13.6744 6.55307 13.3731C6.52724 12.4 6.52724 11.4356 6.52724 10.4625ZM7.93946 23.2414C7.8964 23.2328 7.86196 23.2156 7.82751 23.2156C6.24307 23.2069 4.65001 23.1983 3.06557 23.2069C3.00529 23.2069 2.90196 23.3103 2.90196 23.3706C2.89335 24.4297 2.90196 25.4975 2.90196 26.5567C2.90196 26.6944 2.95362 26.7461 3.0914 26.7375C3.28085 26.7203 3.47029 26.7117 3.66835 26.7117C4.83946 26.7117 6.00196 26.7117 7.17307 26.7117C7.42279 26.7117 7.67251 26.7117 7.93946 26.7117C7.93946 25.5578 7.93946 24.4125 7.93946 23.2414ZM7.93946 22.5353C7.93946 22.2856 7.93946 22.0531 7.93946 21.8033C6.26029 21.8033 4.59835 21.8033 2.9364 21.8033C2.9364 22.0617 2.9364 22.3028 2.9364 22.5353C4.61557 22.5353 6.27751 22.5353 7.93946 22.5353ZM8.99001 13.0889C8.76612 13.1061 8.63696 13.2611 8.62835 13.4592C8.60251 13.9414 8.61112 14.415 8.62835 14.8972C8.63696 15.1125 8.78335 15.2675 8.99862 15.2675C9.18807 15.2675 9.31723 15.1469 9.3689 14.9317C9.42057 14.6992 9.5239 14.4753 9.6014 14.2514C9.61862 14.2083 9.61001 14.1481 9.6014 14.105C9.5239 13.8553 9.42918 13.6142 9.36029 13.3731C9.30001 13.175 9.17946 13.0975 8.99001 13.0889Z" fill="#3D3D3D"/>
<path id="Vector_3" d="M21.0973 17.9628C21.0886 18.0747 21.08 18.1608 21.08 18.2555C21.08 19.0478 21.08 19.84 21.0714 20.6322C21.0714 20.8389 21.1145 20.9508 21.3642 20.9422C22.6817 20.9164 23.8528 21.9153 24.0595 23.2672C24.0767 23.3533 24.0939 23.4394 24.1025 23.5255C24.137 23.8183 23.9992 24.0164 23.7064 24.0164C23.0089 24.0164 22.3028 24.0422 21.6225 23.9561C20.9423 23.87 20.4084 23.4653 19.9864 22.9228C19.9261 22.8367 19.8659 22.7505 19.797 22.6472C19.642 22.828 19.4956 23.0089 19.3406 23.1725C18.8325 23.7064 18.2039 23.9905 17.472 24.0164C16.9467 24.0336 16.43 24.025 15.9048 24.0164C15.5603 24.0164 15.4484 23.8958 15.4484 23.56C15.457 22.5094 16.2923 21.3642 17.3084 21.0972C17.7561 20.9853 18.2298 20.9594 18.6948 20.9336C19.177 20.9078 19.6506 20.925 20.1328 20.9422C20.3567 20.9508 20.417 20.8647 20.4084 20.658C20.3998 19.6161 20.4084 18.5655 20.4084 17.5236C20.4084 17.4461 20.3911 17.36 20.417 17.2911C20.4686 17.1619 20.5289 16.9811 20.6323 16.938C20.727 16.895 20.925 16.9553 21.0198 17.0414C21.6398 17.5667 22.3286 17.7561 23.1036 17.4978C23.3792 17.403 23.6375 17.2136 23.8873 17.0414C24.0595 16.9294 24.2145 16.8089 24.3953 16.9897C24.5761 17.1619 24.5589 17.36 24.335 17.5494C23.6031 18.1953 22.7592 18.4105 21.812 18.1953C21.5795 18.135 21.3642 18.0489 21.0973 17.9628ZM17.7389 23.2844C18.4967 23.3017 19.4611 22.2769 19.3234 21.6483C18.4967 21.8119 17.8423 22.475 17.7389 23.2844ZM20.2103 21.6569C20.0725 22.1822 20.9853 23.3017 21.7948 23.2758C21.7345 22.4492 20.8992 21.7517 20.2103 21.6569ZM17.8423 21.6742C17.782 21.6655 17.7475 21.6569 17.7131 21.6569C17.0586 21.7517 16.2578 22.5439 16.1631 23.1811C16.1545 23.2242 16.2406 23.3275 16.2836 23.3275C16.5334 23.3447 16.7745 23.3361 17.0242 23.3361C17.0931 22.6644 17.4203 22.1564 17.8423 21.6742ZM23.3792 23.3447C23.1036 22.3544 22.432 21.6828 21.7 21.6828C22.122 22.1392 22.3975 22.6472 22.4923 23.2414C22.5009 23.2844 22.5956 23.3361 22.6473 23.3361C22.897 23.3447 23.1381 23.3447 23.3792 23.3447Z" fill="#3D3D3D"/>
<path id="Vector_4" d="M17.1275 18.2814C16.3697 18.2383 15.7153 18.0403 15.1986 17.5236C14.9834 17.3169 14.9661 17.1705 15.1297 16.9897C15.2589 16.8433 15.4311 16.8605 15.655 17.0328C16.6022 17.8078 17.6442 17.7905 18.557 16.9983C18.712 16.8605 18.867 16.8433 19.022 16.9725C19.177 17.1016 19.1684 17.3428 19.0047 17.5064C18.6259 17.868 18.1781 18.1005 17.6614 18.2039C17.4634 18.2469 17.2739 18.2641 17.1275 18.2814Z" fill="#3D3D3D"/>
</g>
</g>
</svg>
