<svg width="36" height="36" viewBox="0 0 36 36" fill="none" xmlns="http://www.w3.org/2000/svg">
<g id="icon-37_heart_footer 3">
<path id="Vector" d="M3.62012 12.73C3.72012 12.17 3.77012 11.6 3.91012 11.05C4.55012 8.56002 5.91012 6.59002 8.26012 5.44002C10.4601 4.36002 12.6401 4.52002 14.7201 5.84002C16.0101 6.66002 17.0801 7.71002 18.0301 8.88002C18.1001 8.97002 18.1701 9.05002 18.2601 9.15002C18.5801 8.78002 18.8601 8.43002 19.1701 8.10002C20.2101 6.96002 21.3601 5.96002 22.7901 5.31002C24.6901 4.45002 26.5801 4.56002 28.4001 5.50002C30.7601 6.72002 32.1201 8.74002 32.6801 11.29C33.2401 13.84 32.8301 16.25 31.4101 18.45C31.1201 18.9 30.7801 19.32 30.4101 19.69C26.5901 23.52 22.7701 27.34 18.9401 31.16C18.8501 31.25 18.7701 31.34 18.6701 31.41C18.4101 31.62 18.1301 31.62 17.8601 31.41C17.7801 31.35 17.7101 31.27 17.6301 31.19C13.9901 27.55 10.3401 23.92 6.70012 20.28C5.82012 19.4 5.02012 18.47 4.50012 17.32C4.04012 16.31 3.76012 15.27 3.67012 14.17C3.67012 14.09 3.64012 14 3.62012 13.92C3.62012 13.52 3.62012 13.12 3.62012 12.72V12.73ZM18.3301 30.16C18.4101 30.04 18.4701 29.91 18.5701 29.82C22.2401 26.15 25.9101 22.49 29.5701 18.82C29.8701 18.52 30.1401 18.18 30.3701 17.82C31.4801 16.12 31.8801 14.24 31.6001 12.23C31.3001 10.03 30.3301 8.20002 28.4601 6.95002C26.7601 5.82002 24.9401 5.60002 23.0501 6.54002C22.1201 7.01002 21.3001 7.63002 20.6001 8.39002C19.9701 9.07002 19.3901 9.81002 18.8001 10.53C18.4901 10.91 18.0401 10.92 17.7401 10.53C17.6801 10.45 17.6301 10.38 17.5701 10.3C16.5401 8.90002 15.3801 7.64002 13.8601 6.74002C12.5501 5.96002 11.1701 5.74002 9.69012 6.18002C7.98012 6.69002 6.76012 7.79002 5.89012 9.31002C5.10012 10.69 4.78012 12.19 4.86012 13.78C4.92012 14.94 5.21012 16.02 5.72012 17.06C6.20012 18.04 6.94012 18.8 7.69012 19.56C11.1201 23 14.5701 26.43 18.0101 29.87C18.0801 29.94 18.1601 30.01 18.3101 30.16H18.3301Z" fill="#000"/>
</g>
</svg>
