<svg width="40" height="40" viewBox="0 0 40 40" fill="none" xmlns="http://www.w3.org/2000/svg">
<g id="icon_cf 1">
<path id="Vector" d="M28.7001 35.43C28.5101 36.15 28.1901 36.79 27.6601 37.3C26.9701 37.96 26.1401 38.32 25.1901 38.32C20.5401 38.32 15.8801 38.32 11.2301 38.32C9.66005 38.32 8.26005 37.26 7.80005 35.75C7.77005 35.65 7.74005 35.55 7.70005 35.43C6.90005 35.43 6.12005 35.43 5.34005 35.43C3.20005 35.4 1.32005 33.53 1.28005 31.41C1.27005 30.8 1.54005 30.52 2.14005 30.52C3.06005 30.52 3.97005 30.52 4.89005 30.52C4.74005 30.09 4.55005 29.69 4.47005 29.27C4.19005 27.77 4.70005 26.5 5.66005 25.38C5.83005 25.18 5.87005 25.03 5.78005 24.78C5.18005 23.06 4.91005 21.28 4.90005 19.46C4.90005 18.11 4.90005 16.76 4.90005 15.41C4.90005 14.7 5.15005 14.46 5.86005 14.46C14.6101 14.46 23.3601 14.46 32.1101 14.46C35.1501 14.46 37.5601 16.42 38.1901 19.4C38.9001 22.74 36.4001 26.2 33.0101 26.54C32.0501 26.64 31.0901 26.59 30.1201 26.62C30.0001 26.62 29.8201 26.72 29.7701 26.82C29.1101 28.1 28.3101 29.28 27.3501 30.36C27.3201 30.39 27.3001 30.43 27.2301 30.52C27.4101 30.52 27.5401 30.52 27.6701 30.52C29.8501 30.52 32.0301 30.52 34.2201 30.52C34.8801 30.52 35.1401 30.79 35.1301 31.44C35.0801 33.34 33.5201 35.1 31.6501 35.36C31.2601 35.41 30.8601 35.42 30.4601 35.43C29.8801 35.44 29.3001 35.43 28.7101 35.43H28.7001ZM11.2101 30.48C11.3001 30.5 11.3301 30.51 11.3701 30.51C15.9001 30.51 20.4301 30.51 24.9601 30.51C25.0801 30.51 25.2201 30.45 25.3001 30.37C26.6101 29.16 27.6501 27.74 28.4801 26.15C30.1701 22.93 30.1201 19.45 30.0301 15.96C30.0301 15.96 30.0201 15.94 29.9901 15.92H6.35005C6.38005 18.69 6.13005 21.47 7.12005 24.17C7.23005 24.12 7.33005 24.08 7.42005 24.04C8.28005 23.66 9.17005 23.49 10.0901 23.69C12.0101 24.11 13.1001 25.88 12.6701 27.86C12.4501 28.86 11.9701 29.72 11.2101 30.49V30.48ZM2.84005 31.98C2.86005 32.07 2.87005 32.14 2.89005 32.21C3.27005 33.24 4.29005 33.97 5.38005 33.99C6.34005 34 7.31005 33.99 8.27005 33.99C8.77005 33.99 9.04005 34.27 9.07005 34.77C9.14005 35.99 10.0601 36.88 11.2801 36.88C15.8801 36.88 20.4901 36.88 25.0901 36.88C26.3101 36.88 27.2301 35.99 27.3001 34.76C27.3301 34.26 27.6001 33.99 28.1001 33.99C28.7501 33.99 29.4001 33.99 30.0501 33.99C30.5401 33.99 31.0401 33.99 31.5201 33.91C32.4901 33.74 33.3701 32.86 33.5101 31.98H2.85005H2.84005ZM30.5201 25.1C31.3201 25.1 32.1001 25.18 32.8501 25.08C34.9701 24.82 36.4901 23.27 36.8201 21.06C37.0801 19.29 36.1701 17.32 34.2701 16.36C33.4001 15.92 32.4701 15.82 31.5201 15.92V17.63C31.7901 17.63 32.0401 17.63 32.2901 17.63C33.7401 17.65 34.9801 18.8 35.1101 20.26C35.2501 21.73 34.2101 23.11 32.7601 23.34C32.1901 23.43 31.6101 23.41 31.0201 23.45C30.8501 24 30.6801 24.56 30.5201 25.1ZM9.77005 25.07C8.50005 24.9 7.50005 25.43 6.70005 26.36C5.97005 27.21 5.61005 28.18 5.99005 29.41C6.45005 28.07 7.35005 27.36 8.60005 26.98C9.39005 26.74 9.86005 25.91 9.77005 25.07ZM7.38005 30.48C8.69005 30.62 9.70005 30.06 10.5101 29.08C11.2301 28.22 11.5201 26.9 11.1001 26.21C10.6701 27.46 9.77005 28.17 8.54005 28.54C7.72005 28.79 7.25005 29.63 7.37005 30.47L7.38005 30.48ZM31.3301 21.95C31.6801 21.95 32.0601 22 32.4201 21.95C33.5301 21.78 34.0401 20.52 33.3601 19.63C32.8701 19 32.1901 19.03 31.5201 19.1C31.4601 20.07 31.3901 21 31.3301 21.96V21.95Z" fill="#000"/>
<path id="Vector_2" d="M19.95 9.4C19.93 10.55 19.56 11.51 18.81 12.32C18.47 12.69 18.05 12.73 17.73 12.44C17.4 12.15 17.41 11.74 17.73 11.35C18.82 10.05 18.77 8.62 17.61 7.36C16.08 5.72 16.08 3.24 17.59 1.59C17.94 1.21 18.34 1.16 18.67 1.44C19.01 1.73 19.01 2.15 18.67 2.55C17.61 3.81 17.64 5.3 18.77 6.48C19.55 7.3 19.93 8.29 19.95 9.38V9.4Z" fill="#255D54"/>
<path id="Vector_3" d="M23.32 11.81C23.36 11.74 23.41 11.55 23.52 11.41C24.26 10.49 24.24 9.6 23.44 8.73C22.28 7.47 22.2599 5.62 23.3799 4.33C23.7299 3.93 24.14 3.86 24.48 4.14C24.82 4.42 24.82 4.84 24.48 5.25C23.78 6.12 23.82 7.03 24.6 7.87C25.79 9.16 25.77 11.18 24.56 12.38C24.32 12.61 24.06 12.71 23.74 12.57C23.46 12.45 23.31 12.23 23.3 11.81H23.32Z" fill="#255D54"/>
<path id="Vector_4" d="M12.4 10.29C12.39 9.55 12.14 9.1 11.77 8.7C11.15 8.03 10.87 7.23 10.91 6.33C10.95 5.54 11.25 4.84 11.8 4.26C12.13 3.91 12.54 3.88 12.86 4.17C13.16 4.44 13.16 4.88 12.86 5.23C12.14 6.09 12.17 7.01 12.93 7.85C14.11 9.15 14.13 11.05 12.99 12.31C12.78 12.54 12.55 12.69 12.23 12.63C11.68 12.53 11.47 11.9 11.83 11.45C12.25 10.9 12.39 10.57 12.39 10.3L12.4 10.29Z" fill="#255D54"/>
</g>
</svg>
