<svg width="35" height="35" viewBox="0 0 35 35" fill="none" xmlns="http://www.w3.org/2000/svg">
<g id="icon_prime_time_2 copy 2">
<path id="Vector" d="M32.9874 24.1306C32.9874 24.1306 32.9583 24.2084 32.9486 24.2473C32.8708 24.4417 32.7249 24.5389 32.5111 24.5584C32.4138 24.5584 32.3263 24.5584 32.2291 24.5584C31.8111 24.5584 31.3833 24.5584 30.9652 24.5584C30.8972 24.5584 30.8874 24.5875 30.8874 24.6459C30.868 25.1612 30.7513 25.6473 30.4888 26.0945C29.993 26.9598 29.2541 27.4848 28.2722 27.65C26.6388 27.932 25.0249 26.8042 24.7333 25.1514C24.7041 24.9764 24.6944 24.8014 24.6749 24.6264C24.6749 24.5778 24.6555 24.5584 24.6069 24.5584C21.8944 24.5584 19.1819 24.5584 16.4791 24.5584C15.5555 24.5584 14.6319 24.5584 13.7083 24.5584C13.6402 24.5584 13.6208 24.5778 13.6111 24.6459C13.5916 25.1612 13.4749 25.657 13.2027 26.1139C12.7069 26.9598 11.968 27.4848 10.9958 27.65C9.4305 27.9223 7.81661 26.882 7.46661 25.2292C7.418 25.0153 7.39855 24.7917 7.36939 24.5584C7.34994 24.5584 7.32078 24.5584 7.29161 24.5584C6.44578 24.5584 5.60967 24.5584 4.76383 24.5584C4.1805 24.5584 3.75272 24.1403 3.72356 23.557C3.71383 23.2264 3.72356 22.8862 3.72356 22.5556C3.72356 22.5264 3.72356 22.507 3.72356 22.4681C3.66522 22.4681 3.60689 22.4681 3.54856 22.4681C3.09161 22.4681 2.64439 22.4681 2.18744 22.4681C2.02217 22.4681 1.87633 22.4195 1.76939 22.2931C1.643 22.1473 1.60411 21.9917 1.68189 21.807C1.74994 21.6223 1.89578 21.5153 2.09022 21.4862C2.14856 21.4862 2.20689 21.4862 2.2555 21.4862C3.743 21.4862 5.2305 21.4862 6.72772 21.4862C6.8055 21.4862 6.88328 21.4862 6.95133 21.5056C7.18467 21.5639 7.34994 21.7875 7.32078 22.0112C7.29161 22.2737 7.08744 22.4584 6.81522 22.4681C6.41661 22.4681 6.00828 22.4681 5.60967 22.4681C5.32772 22.4681 5.0555 22.4681 4.77356 22.4681C4.75411 22.4681 4.73467 22.4681 4.71522 22.4681C4.71522 22.5167 4.71522 22.5653 4.71522 22.6139C4.71522 22.9056 4.71522 23.1973 4.71522 23.4889C4.71522 23.5667 4.74439 23.5764 4.81244 23.5764C5.57078 23.5764 6.32911 23.5764 7.08744 23.5764C7.22356 23.5764 7.35967 23.5764 7.49578 23.5764C7.55411 23.5764 7.58328 23.557 7.61244 23.4987C8.0305 22.4584 8.77911 21.7973 9.87772 21.5542C11.093 21.2723 12.4055 21.8167 13.0861 22.8667C13.2222 23.0709 13.3097 23.2945 13.4166 23.5181C13.4361 23.557 13.4555 23.5764 13.5041 23.5764C16.8097 23.5764 20.1152 23.5764 23.4305 23.5764C23.4888 23.5764 23.5472 23.5764 23.6249 23.5764C23.6249 23.5473 23.6249 23.5278 23.6249 23.4987C23.6249 22.3223 23.6249 21.1459 23.6249 19.9695C23.6249 19.8528 23.6444 19.7459 23.7027 19.6389C23.8097 19.4542 24.0236 19.357 24.2277 19.4056C24.4416 19.4542 24.5972 19.6292 24.6069 19.8431C24.6069 19.9598 24.6069 20.0764 24.6069 20.1834C24.6069 21.282 24.6069 22.3709 24.6069 23.4695C24.6069 23.4987 24.6069 23.5278 24.6069 23.5667C24.6749 23.5667 24.7527 23.5667 24.8305 23.5667C24.8499 23.5667 24.8694 23.5278 24.8791 23.5084C25.2583 22.5653 25.9194 21.9237 26.9013 21.6223C28.4569 21.1459 30.1291 21.982 30.693 23.5084C30.7124 23.557 30.7222 23.5862 30.7805 23.5862C31.1694 23.5862 31.568 23.5862 31.9569 23.5862C31.9763 23.5862 31.9861 23.5862 32.0055 23.5862V21.4278C31.918 21.4278 31.8305 21.4278 31.743 21.4278C31.4902 21.4278 31.2374 21.4278 30.9944 21.35C30.3333 21.1362 29.9152 20.5528 29.9249 19.8723C29.9249 19.5612 29.9249 19.25 29.9249 18.9389C29.9249 18.8417 29.9249 18.7348 29.9736 18.6473C30.0611 18.4431 30.2361 18.3556 30.4499 18.3556C30.9166 18.3556 31.3736 18.3556 31.8402 18.3556H31.9277C31.9277 18.3556 31.9277 18.3264 31.9277 18.307C31.6944 17.7237 31.2666 17.3737 30.6541 17.257C30.6055 17.257 30.5569 17.257 30.5083 17.257C28.5736 17.257 26.6388 17.257 24.7138 17.257C24.6847 17.257 24.6555 17.257 24.6166 17.257C24.6166 17.4514 24.6166 17.6362 24.6166 17.8209C24.6166 18.025 24.4805 18.2 24.2861 18.2681C24.0138 18.3653 23.693 18.1806 23.6444 17.8889C23.6347 17.8209 23.6249 17.7431 23.6249 17.675C23.6249 14.7778 23.6249 11.8903 23.6249 8.9931V8.88616H4.72494C4.72494 8.95421 4.72494 9.02227 4.72494 9.0806C4.72494 11.1125 4.72494 13.1348 4.72494 15.1667C4.72494 16.032 4.72494 16.8973 4.72494 17.7625C4.72494 18.0056 4.60828 18.1806 4.39439 18.2584C4.11244 18.3653 3.78189 18.1612 3.75272 17.85C3.75272 17.7431 3.743 17.6264 3.743 17.5098C3.743 14.7098 3.743 11.9098 3.743 9.10004C3.743 8.89588 3.75272 8.69171 3.84994 8.49727C4.0055 8.16671 4.25828 7.97227 4.618 7.91393C4.62772 7.91393 4.63744 7.89449 4.64717 7.88477C11.0055 7.88477 17.3638 7.88477 23.7319 7.88477C23.7513 7.89449 23.7708 7.91393 23.7999 7.91393C24.2763 8.00143 24.6069 8.39032 24.6263 8.86671C24.6263 9.18754 24.6263 9.50838 24.6263 9.82921C24.6263 9.87782 24.6263 9.92643 24.6263 9.97504C24.6652 9.97504 24.6847 9.97504 24.7041 9.97504C25.8805 9.97504 27.0472 9.97504 28.2236 9.97504C28.4083 9.97504 28.6124 9.99449 28.7874 10.0334C29.6333 10.2473 30.1583 10.8014 30.3333 11.657C30.3916 11.9584 30.3722 12.2792 30.3722 12.5903C30.3722 12.7556 30.2847 12.8723 30.1486 12.9598C30.0999 12.9889 30.0222 13.0084 30.0124 13.057C29.993 13.1056 30.0319 13.1834 30.0513 13.2417C30.0513 13.2417 30.0513 13.2514 30.0513 13.2612C30.2944 14.2528 30.5472 15.2348 30.7902 16.2264C30.8097 16.2848 30.8388 16.2945 30.8874 16.3042C31.0624 16.3528 31.2569 16.382 31.4222 16.4598C32.1611 16.7709 32.6374 17.325 32.8805 18.0737C32.9291 18.2292 32.9486 18.4042 32.9777 18.55C32.9777 18.55 32.9874 18.5112 32.9972 18.4917V24.1112L32.9874 24.1306ZM29.7791 16.2653C29.7791 16.2653 29.7791 16.2264 29.7694 16.207C29.5166 15.1862 29.2541 14.1653 29.0013 13.1348C28.9916 13.0764 28.9624 13.0667 28.9138 13.0667C27.5333 13.0667 26.1527 13.0667 24.7722 13.0667C24.6685 13.0667 24.6166 13.1186 24.6166 13.2223C24.6166 13.9028 24.6166 14.5834 24.6166 15.2737C24.6166 15.5848 24.6166 15.8862 24.6166 16.1973C24.6166 16.2459 24.6263 16.275 24.6847 16.2653C24.743 16.2653 24.8013 16.2653 24.8499 16.2653C26.4249 16.2653 27.9999 16.2653 29.5652 16.2653C29.6333 16.2653 29.7013 16.2653 29.7791 16.2653ZM27.7861 26.7167C28.9624 26.7167 29.9249 25.7834 29.9152 24.5875C29.9152 23.382 28.9333 22.4778 27.8055 22.4681C26.5999 22.4681 25.6958 23.4306 25.6569 24.5195C25.618 25.7056 26.5708 26.7264 27.7861 26.7167ZM10.5291 26.7167C11.6569 26.7264 12.6388 25.7834 12.6388 24.5875C12.6388 23.4306 11.7055 22.4778 10.5291 22.4584C9.33328 22.4487 8.3805 23.3917 8.3805 24.5875C8.3805 25.7153 9.28467 26.707 10.5291 26.707V26.7167ZM26.9888 12.0848C27.1249 12.0848 27.2708 12.0848 27.4069 12.0848C28.0388 12.0848 28.6708 12.0848 29.3027 12.0848C29.3708 12.0848 29.3902 12.0653 29.3805 11.9973C29.3611 11.8806 29.3513 11.7639 29.3124 11.657C29.1569 11.2292 28.7583 10.9667 28.2722 10.9667C27.0666 10.9667 25.8611 10.9667 24.6652 10.9667C24.6166 10.9667 24.6069 10.9764 24.6069 11.025C24.6069 11.3459 24.6069 11.6764 24.6069 11.9973C24.6069 12.0653 24.6263 12.0848 24.6847 12.0848C25.4527 12.0848 26.2208 12.0848 26.9888 12.0848ZM31.9958 19.3375C31.6361 19.3375 31.2861 19.3375 30.9361 19.3375C30.9166 19.3375 30.8874 19.3667 30.8874 19.3862C30.8874 19.5709 30.8777 19.7459 30.8874 19.9306C30.8874 20.1737 31.0624 20.3875 31.2958 20.4264C31.5291 20.4556 31.7624 20.4556 31.9958 20.4653V19.3473V19.3375Z" fill="#636363"/>
<path id="Vector_2" d="M13.6598 17.1111C13.7278 17.043 13.7861 16.9847 13.8445 16.9264C14.5736 16.1972 15.2931 15.4778 16.0223 14.7486C16.6834 14.0875 17.3348 13.4361 17.9959 12.775C18.2389 12.5319 18.5889 12.5514 18.7639 12.8236C18.9 13.0278 18.8806 13.2611 18.6959 13.4458C18.5403 13.6111 18.3848 13.7667 18.2195 13.9222C16.8389 15.3028 15.4584 16.6833 14.0681 18.0639C14.0292 18.1028 13.9903 18.1417 13.9417 18.1805C13.7473 18.3361 13.5139 18.3361 13.3292 18.1708C13.1348 17.9861 12.95 17.8014 12.7556 17.6069C12.075 16.9264 11.4042 16.2555 10.7236 15.575C10.5875 15.4389 10.5098 15.2833 10.5584 15.0986C10.5973 14.9139 10.7139 14.7778 10.8986 14.7292C11.0834 14.6805 11.2486 14.7292 11.3848 14.8653C11.55 15.0305 11.7056 15.1958 11.8709 15.3514C12.425 15.9055 12.9889 16.4694 13.5528 17.0236C13.582 17.0528 13.6112 17.0819 13.65 17.1208L13.6598 17.1111Z" fill="#636363"/>
<path id="Vector_3" d="M18.375 21.4958C19.5514 21.4958 20.7278 21.4958 21.9042 21.4958C22.0694 21.4958 22.225 21.5056 22.3514 21.6222C22.5069 21.7583 22.5653 21.9625 22.4972 22.1472C22.4292 22.3417 22.2444 22.4681 22.0208 22.4778C21.9236 22.4778 21.8167 22.4778 21.7194 22.4778C19.4056 22.4778 17.0917 22.4778 14.7778 22.4778C14.4958 22.4778 14.2819 22.3222 14.2333 22.0792C14.1847 21.7875 14.3694 21.5347 14.6611 21.5056C14.7292 21.5056 14.7972 21.5056 14.8653 21.5056C16.0319 21.5056 17.2083 21.5056 18.375 21.5056V21.4958Z" fill="#636363"/>
<path id="Vector_4" d="M6.32923 19.4055C7.35006 19.4055 8.36117 19.4055 9.382 19.4055C9.57645 19.4055 9.75145 19.4541 9.86811 19.6291C9.96534 19.7847 9.98478 19.9402 9.907 20.1055C9.82923 20.2708 9.69311 20.3777 9.50839 20.3777C9.18756 20.3777 8.86673 20.3777 8.54589 20.3777C6.87367 20.3777 5.19173 20.3777 3.5195 20.3777C3.39312 20.3777 3.257 20.3777 3.13062 20.3777C2.88756 20.3583 2.70284 20.1541 2.69312 19.9111C2.69312 19.668 2.87784 19.4444 3.12089 19.4152C3.1695 19.4152 3.22784 19.4152 3.27645 19.4152C4.29728 19.4152 5.30839 19.4152 6.32923 19.4152V19.4055Z" fill="#636363"/>
<path id="Vector_5" d="M27.7473 23.5861C28.282 23.5569 28.7681 23.9944 28.7973 24.5292C28.8264 25.093 28.3889 25.5792 27.825 25.6083C27.2903 25.6375 26.8042 25.1903 26.7848 24.6458C26.7653 24.1014 27.1542 23.6153 27.7473 23.5861Z" fill="#636363"/>
<path id="Vector_6" d="M11.5208 24.6166C11.5208 25.2194 11.0152 25.6083 10.4902 25.6083C9.94579 25.6083 9.48884 25.1319 9.49857 24.5874C9.49857 24.0624 9.97495 23.5861 10.5 23.5861C11.0833 23.5861 11.5305 24.043 11.5208 24.6166Z" fill="#636363"/>
</g>
</svg>
