<svg width="338" height="210" viewBox="0 0 338 210" fill="none" xmlns="http://www.w3.org/2000/svg">
<path d="M1.14648 209.051C8.92591 207.246 32.0267 192.601 37.8884 195.025C43.0119 197.143 33.985 203.784 30.9891 203.519C18.3132 202.404 25.5267 187.712 31.3656 183.452C59.61 162.838 101.265 174.162 129.059 153.702C134.467 149.721 139.665 147.843 146.229 146.685C149.042 146.189 152.297 145.627 155.111 146.395C157.767 147.119 160.077 148.976 162.526 150.176C167.24 152.487 172.059 154.562 176.803 156.809C181.323 158.948 185.25 161.125 190.292 161.708C200.892 162.936 211.407 158.564 221.827 157.435C226.152 156.967 231.483 158.801 235.314 156.211C241.858 151.787 247.28 143.584 252.036 137.298C253.417 135.473 254.846 133.718 255.568 131.516C255.73 131.018 256.187 128.9 254.988 129.286C253.416 129.791 252.286 132.33 251.852 133.764C251.676 134.339 251.375 135.39 252.068 135.745C252.778 136.106 253.574 135.348 253.992 134.866C254.892 133.829 256.518 131.169 255.515 129.787C254.35 128.175 252.075 129.914 251.056 130.866C247.748 133.964 245.057 137.718 242.466 141.414C241.639 142.593 240.741 143.721 239.854 144.853C239.542 145.25 239.233 145.651 238.949 146.067C238.802 146.281 238.376 146.933 238.53 146.723C240.513 144.006 241.963 140.828 243.557 137.875C246.007 133.336 248.329 128.564 249.931 123.656C250.165 122.93 250.416 122.166 250.57 121.393C250.275 122.831 249.793 124.336 248.773 125.435C248.637 125.583 248.486 125.724 248.313 125.831C246.583 126.902 246.777 123.804 246.909 122.969C247.11 121.736 247.549 120.152 248.514 119.285C249.819 118.114 250.728 119.98 250.618 121.121C250.682 120.731 250.72 120.34 250.715 119.951C250.709 119.495 250.621 118.871 250.105 118.723C249.494 118.55 248.771 118.993 248.281 119.295C246.961 120.107 245.798 121.184 244.678 122.246C239.989 126.698 236.751 132.732 233.157 138.051C232.058 139.677 230.931 141.285 229.794 142.884C229.69 143.026 228.931 144.253 228.834 144.217C228.822 144.213 230.001 142.269 230.129 142.067C231.07 140.569 232 139.064 232.933 137.561C236.075 132.494 239.462 127.395 241.824 121.9C242.119 121.214 242.405 120.524 242.635 119.812C242.769 119.393 242.915 118.953 242.951 118.511C243.044 117.397 242.332 116.228 241.272 117.313C240.168 118.443 239.28 120.279 239.082 121.838C238.968 122.736 239.243 123.705 240.268 123.855C241.033 123.968 241.637 123.322 242.01 122.736C242.812 121.478 243.197 119.808 243.101 118.325C243.041 117.419 242.711 116.312 241.614 116.372C237.196 116.615 234.425 121.297 232.223 124.615C229.113 129.299 226.535 134.331 223.164 138.844C221.168 141.516 218.835 143.893 216.336 146.095C215.993 146.397 214.954 147.656 214.47 147.496C214.124 147.38 214.844 146.205 214.94 146.032C215.854 144.385 216.93 142.841 217.941 141.252C219.731 138.44 221.263 135.476 222.807 132.523C223.723 130.772 224.561 128.902 225.754 127.319C226.585 126.215 227.555 125.146 227.978 123.802C228.118 123.358 228.329 122.663 228.033 122.242C227.583 121.595 226.358 122.428 225.936 122.716C224.689 123.567 223.858 124.841 223.73 126.375C223.573 128.266 225.177 127.902 225.991 126.676C226.61 125.745 228.753 122.201 226.48 121.843C223.839 121.425 221.27 123.238 219.662 125.106C216.288 129.027 214.272 133.908 210.994 137.905C205.914 144.099 197.074 145.363 189.466 145.119C187.927 145.069 182.143 144.798 181.28 143.412C181.128 143.17 182.771 143.009 182.907 142.996C184.559 142.836 186.233 142.875 187.89 142.753C191.294 142.504 194.685 142.086 198.058 141.572C199.72 141.32 201.689 141.107 202.914 139.813C204.473 138.166 202.082 136.543 200.878 135.631C200.554 135.386 199.331 134.582 199.735 134.074C200.595 132.991 203.87 134.711 204.86 135.004C209.189 136.284 212.211 136.439 214.392 131.955C214.822 131.07 215.294 130.096 215.313 129.091C215.353 126.852 212.197 126.731 210.623 126.336C205.389 125.022 200.378 122.781 195.119 121.454C186.167 119.194 176.547 117.025 167.26 117.758C159.524 118.37 152.365 121.604 145.08 124.004C139.446 125.861 133.615 127.017 127.92 128.661C128.04 129.342 129.358 129.492 129.852 129.56C131.912 129.847 134.009 129.255 136.004 128.807C144.467 126.905 152.594 123.653 161.427 124.033C171.731 124.475 177.154 132.958 187.016 134.766C189.369 135.198 191.861 135.406 194.253 135.241C194.814 135.202 196.252 135.24 196.691 134.772C196.694 134.767 193.919 133.963 193.695 133.886C190.702 132.87 188.527 130.682 185.736 129.308C175.071 124.055 163.685 118.27 160.085 105.891C156.384 93.1642 164.513 78.8747 178.715 79.4034C180.951 79.487 183.364 79.8682 185.393 80.8568C188.05 82.151 188.766 84.541 189.187 87.2684C189.293 87.9663 189.124 89.8584 189.597 90.3517C189.617 90.3719 189.693 89.5793 189.705 89.4875C189.779 88.9091 189.886 88.3363 190.01 87.7671C190.395 86.0043 190.941 84.2627 191.769 82.656C194.101 78.1381 198.523 74.9195 203.562 74.175C214.147 72.6109 227.58 81.0073 225.441 92.741C224.026 100.501 218.953 107.302 213.434 112.706C210.2 115.872 206.622 118.528 203.837 122.141C201.965 124.57 200.453 127.21 198.915 129.855C198.729 130.174 197.766 132.261 197.364 132.195C197.224 132.172 197.507 131.345 197.513 131.325C201.143 119.37 214.739 111.072 214.103 97.6749C213.814 91.5741 208.434 88.3539 204.036 85.0755C201.462 83.1561 199.063 80.7517 201.902 77.8701C206.955 72.7402 214.579 75.9425 217.924 81.355C219.073 83.2125 219.924 87.6421 222.711 87.6506C224.407 87.6563 226.361 85.2728 227.423 84.2088C230.998 80.6271 234.123 76.6412 237.273 72.6916C238.121 71.6297 241.1 68.7367 240.141 67.2407C239.459 66.1764 236.827 67.2957 235.812 67.5524C231.762 68.5761 227.694 69.5333 223.579 70.2614C220.172 70.8643 216.686 71.3325 213.224 70.9663C209.85 70.609 206.562 69.357 203.132 69.5896C195.694 70.0948 189.121 75.1508 181.554 74.697C178.812 74.5329 175.37 73.8944 173.496 71.7009C173.282 71.4503 173.089 71.1836 172.952 70.8827C172.24 69.3329 173.509 68.2208 174.726 67.4853C175.212 67.1917 175.72 66.9353 176.243 66.711C178.641 65.6814 182.972 64.7631 184.162 67.9752C184.326 68.4165 184.422 68.8995 184.439 69.3698C184.484 70.7134 183.22 71.3326 182.134 71.7271C179.989 72.5075 177.657 72.7568 175.818 71.1456C175.1 70.5171 174.43 69.5512 174.715 68.5513C174.911 67.8665 175.485 67.4172 176.068 67.0616C177.175 66.3857 178.41 65.9526 179.606 65.4641C181.467 64.7037 183.327 63.933 185.175 63.1376C185.13 63.106 185.493 62.9316 185.509 62.9262C185.888 62.8076 186.287 62.7904 186.677 62.8547C187.969 63.0672 189.094 64.139 189.652 65.2912C189.798 65.5918 190.181 66.4131 189.875 66.7322C189.573 67.0469 188.972 66.0591 188.868 65.8998C188.294 65.0268 187.826 64.0349 187.528 63.0326C187.419 62.6654 187.35 62.0994 187.671 61.809C187.968 61.5401 188.462 61.7277 188.782 61.8505C189.776 62.2343 190.563 63.2505 191.062 64.153C191.162 64.3317 191.632 65.2129 191.385 65.4072C191.26 65.5057 191 65.2191 190.926 65.1512C190.553 64.811 190.266 64.4017 190.054 63.944C189.391 62.5046 189.73 61.0538 191.249 60.3894C192.018 60.0534 192.759 59.6577 193.509 59.2796C195.126 58.4632 196.726 57.6122 198.332 56.7751C198.532 56.6709 200.725 55.429 200.635 55.3538C200.244 55.0213 198.38 56.0469 197.949 56.1864C195.671 56.9232 193.325 57.4663 191.13 58.4183C180.483 63.0382 170.269 68.6064 159.9 73.8159C156.703 75.4217 152.889 77.4963 149.232 77.6759C148.276 77.7222 147.14 77.5331 146.835 76.4722C146.82 76.417 146.805 76.0828 146.812 75.6854C146.373 76.6834 148.68 77.2072 149.182 77.1608C150.812 77.0084 152.397 75.725 153.093 74.2808C154.078 72.2372 152.619 71.3642 150.749 71.8759C148.952 72.3671 147.719 73.6106 146.83 75.1982C146.868 74.6365 146.961 74.1156 147.161 74.1756C148.159 73.0809 149.347 72.1265 150.476 71.2217C156.727 66.212 164.048 62.6557 170.166 57.5114C171.981 55.9855 173.844 54.518 175.638 52.9665C175.918 52.7241 177.406 51.7382 177.274 51.3926C177.249 51.3267 176.22 51.9941 176.173 52.0256C175.559 52.4304 174.958 52.854 174.359 53.2769C172.601 54.5154 170.863 55.7817 169.118 57.0384C163.524 61.0685 157.653 64.7165 152.258 69.0214C150.526 70.4052 148.844 71.8561 147.252 73.3995C146.236 74.3832 145.316 75.5974 144.034 76.2475C142.855 76.8455 142.02 76.1876 142.025 74.9343C142.032 73.2453 143.173 71.6606 144.702 70.9708C145.422 70.6461 146.824 70.3543 147.104 71.3846C147.555 73.0448 145.665 75.3329 144.403 76.1531C143.138 76.9761 142.052 76.5083 142.185 74.9383C142.219 74.5301 142.304 74.1255 142.416 73.7316C142.566 73.1983 142.763 72.6768 143.099 72.2316C145.443 69.1252 148.329 66.3859 151.149 63.7171C158.652 56.6171 166.11 48.9379 174.847 43.3373C170.552 46.5301 166.528 50.0615 162.496 53.5739C158.177 57.334 153.854 61.0927 149.764 65.1019C147.905 66.9225 146.061 68.7424 144.031 70.3737C143.429 70.8587 142.291 71.9187 141.46 71.3458C140.386 70.6034 142.117 68.5599 142.643 67.9392C142.851 67.6921 143.062 67.4495 143.322 67.2548C144.128 66.6527 144.712 67.2306 144.709 68.113C144.706 69.0068 144.263 69.9312 143.576 70.5C143.196 70.8157 142.47 71.1305 142.114 70.6025C141.436 69.5986 142.68 67.9099 143.287 67.1618C145.462 64.4792 148.044 62.1264 150.452 59.6609C154.272 55.7498 158.21 51.8924 162.735 48.7949C166.508 46.2131 170.652 44.2527 174.827 42.4229C179.621 40.3216 184.339 38.4753 189.367 37.0078C198.706 34.2819 208.525 32.926 218.238 34.0001C227.93 35.0723 237.568 37.5187 247.011 39.8884C255.084 41.9149 268.123 41.7468 276.354 39.962C276.354 39.962 309.042 27.0635 308.205 19.9587C308.12 19.2374 307.742 18.6766 307.123 18.3089C299.707 13.8934 290.859 25.1206 304.328 27.7999C306.341 28.2005 308.41 28.2784 310.458 28.2682C313.513 28.252 316.656 27.9977 319.65 27.3777C343.708 22.3972 366.209 -4.09407 392.061 1.58034" stroke="#B58700" stroke-width="1.3" stroke-miterlimit="10" stroke-linecap="round" stroke-linejoin="round"/>
</svg>
