<svg width="16" height="16" viewBox="0 0 16 16" fill="none" xmlns="http://www.w3.org/2000/svg">
<path fill-rule="evenodd" clip-rule="evenodd" d="M8 2C4.69063 2 2 4.69063 2 8C2 11.3094 4.69063 14 8 14C11.3094 14 14 11.3094 14 8C14 4.69063 11.3094 2 8 2Z" fill="#07C558"/>
<path d="M6.84453 10.7451C6.07812 9.97866 5.31641 9.20522 4.54766 8.43882C4.46328 8.35444 4.46328 8.21382 4.54766 8.12944L5.43125 7.24585C5.51562 7.16147 5.65625 7.16147 5.74063 7.24585L7.00391 8.50913L10.2523 5.25835C10.3391 5.17397 10.4773 5.17397 10.5641 5.25835L11.45 6.14429C11.5367 6.23101 11.5367 6.36929 11.45 6.45366L7.15391 10.7451C7.06953 10.8318 6.93125 10.8318 6.84453 10.7451Z" fill="white"/>
</svg>
