<svg width="93" height="307" viewBox="0 0 93 307" fill="none" xmlns="http://www.w3.org/2000/svg">
<path d="M90.3073 159.818L90.0875 153.868V147.121C89.9799 137.058 91.5148 123.611 90.4095 115.81C89.6868 110.712 87.7087 103.853 87.6753 99.7533C87.5143 80.3254 87.7114 69.0855 84.1369 59.9332C80.7044 51.1457 70.518 50.2744 70.518 50.2744C65.6925 49.8446 57.2519 45.8021 57.2519 45.8021C55.6446 43.6612 53.8555 36.22 54.6578 33.0732C54.8857 32.1784 56.1737 30.8185 56.7489 30.0222C57.5946 28.8501 58.3987 25.7918 58.9125 23.4956C59.0563 23.5895 59.2037 23.6527 59.3584 23.6527C60.3651 23.6527 61.1819 21.5461 61.1819 18.9438C61.1819 16.6513 60.5478 14.7451 59.7066 14.3244L59.2417 10.2729C58.2314 2.19958 50.7522 0 46.5002 0C42.2482 0 34.6953 1.31561 33.5071 10.2729L33.2174 14.3018C32.3359 14.6341 31.6575 16.5763 31.6575 18.9438C31.6575 21.5461 32.4736 23.6527 33.4806 23.6527C33.6268 23.6527 33.7675 23.5968 33.9035 23.5137C34.3084 25.5255 34.8589 28.097 35.3033 29.5409C35.6125 30.545 37.2819 32.2588 37.6084 33.3143C38.5418 36.3301 37.3561 43.6612 35.7479 45.8021C35.7479 45.8021 27.3074 49.8446 22.4819 50.2744C22.4819 50.2744 12.2954 51.1457 8.86328 59.9332C5.28918 69.0855 5.48555 80.3254 5.32482 99.7533C5.2909 103.853 3.31305 110.712 2.59055 115.81C1.48499 123.611 3.02045 137.058 2.91236 147.121V153.868L2.69257 159.818L0 178.491C0 178.491 0.79315 183.872 4.43942 190.361C4.43942 190.361 7.291 193.368 6.49858 189.412L5.39058 179.44L8.71982 172.638C8.71982 172.638 9.67134 176.75 9.03603 179.44L8.40081 183.082C8.40081 183.082 10.7783 184.346 12.2053 180.389C12.2053 180.389 15.6936 169.79 11.0976 161.718L12.0792 153.757L18.0841 124.777C18.0841 124.777 20.1221 119.503 19.4786 110.512C19.4786 110.512 23.3931 102.866 22.365 76.3813C22.3042 75.1587 22.2671 74.4644 22.2671 74.4644C22.3257 74.9501 22.3561 75.603 22.365 76.3813C22.7125 83.3449 23.8559 107.839 23.5966 123.714C23.4881 130.348 22.6369 133.374 21.5163 143.107C19.938 156.811 16.6999 168.578 19.3716 182.927C19.3716 182.927 23.0172 198.876 24.3043 205.193C24.3043 205.193 23.9019 218.245 23.9019 223.39C23.9019 231.686 24.5929 239.465 24.7865 246.51C24.9247 251.532 30.2813 278.227 28.3872 284.201C27.7551 286.196 27.3597 288.741 27.3597 288.741C25.833 293.453 21.0679 298.659 19.3801 300.472C15.7098 304.423 24.3128 309.036 30.7463 306.038C32.8754 305.047 34.1675 300.63 35.0123 297.307C35.544 295.215 39.1817 291.339 39.7534 289.341C41.0407 284.843 38.8118 280.325 38.7796 278.946C38.6182 271.991 39.4934 263.1 40.7095 257.617C42.1613 251.073 41.1926 245.708 40.7095 230.803C40.5332 225.341 42.1568 221.891 41.6747 209.741C41.265 199.428 45.5686 169.125 45.2538 158.681C45.2538 158.681 45.7693 158.836 46.5002 158.85C47.1179 158.863 47.7466 158.681 47.7466 158.681C47.4309 169.125 51.7345 199.428 51.3256 209.741C50.8426 221.891 52.4662 225.341 52.2907 230.803C51.8077 245.708 50.8381 251.073 52.2907 257.617C53.5064 263.1 54.3819 271.991 54.22 278.946C54.1883 280.325 51.9597 284.843 53.2468 289.341C53.8184 291.339 57.4563 295.215 57.9872 297.307C58.8329 300.63 60.1254 305.047 62.2537 306.038C68.6873 309.036 77.2899 304.423 73.6195 300.472C71.9317 298.659 67.1669 293.453 65.6401 288.741C65.6401 288.741 65.2448 286.196 64.6126 284.201C62.7186 278.227 68.075 251.532 68.2134 246.51C68.4069 239.465 69.0979 231.686 69.0979 223.39C69.0979 218.245 68.6964 205.193 68.6964 205.193C69.9825 198.876 73.6285 182.927 73.6285 182.927C76.3004 168.578 73.0614 156.811 71.484 143.107C70.3633 133.374 69.5122 130.348 69.4028 123.714C69.1441 107.839 70.2874 83.3449 70.6347 76.3813C70.6437 75.603 70.6745 74.9501 70.7333 74.4644C70.7333 74.4644 70.6962 75.1587 70.6347 76.3813C69.6072 102.866 73.5209 110.512 73.5209 110.512C72.8778 119.503 74.9156 124.777 74.9156 124.777L80.9214 153.757L81.9028 161.718C77.3062 169.79 80.7948 180.389 80.7948 180.389C82.2212 184.346 84.5991 183.082 84.5991 183.082L83.9641 179.44C83.3292 176.75 84.2798 172.638 84.2798 172.638L87.6092 179.44L86.5012 189.412C85.7089 193.368 88.5608 190.361 88.5608 190.361C92.2067 183.872 93 178.491 93 178.491L90.3073 159.818Z" fill="#DDE1FF"/>
</svg>
