<svg width="36" height="36" viewBox="0 0 36 36" fill="none" xmlns="http://www.w3.org/2000/svg">
<g id="icon_dieukhoan 1">
<path id="Vector" d="M10.92 17.5799C10.92 17.4399 10.92 17.3299 10.92 17.2199C10.92 14.4299 10.92 11.6299 10.92 8.83994C10.92 8.17994 11.26 7.82994 11.92 7.82994C12.86 7.82994 13.8 7.82994 14.74 7.82994C14.9 7.82994 15 7.79994 15.08 7.63994C15.32 7.18994 15.71 6.95994 16.22 6.94994C16.5 6.94994 16.77 6.94994 17.05 6.94994C17.36 6.94994 17.53 6.78994 17.55 6.48994C17.62 5.67994 18.15 5.18994 18.97 5.18994C19.81 5.18994 20.65 5.18994 21.49 5.18994C22.24 5.18994 22.81 5.71994 22.86 6.45994C22.89 6.80994 23.04 6.94994 23.38 6.95994C23.64 6.95994 23.9 6.95994 24.15 6.95994C24.68 6.95994 25.09 7.19994 25.34 7.66994C25.41 7.80994 25.49 7.84994 25.64 7.84994C26.6 7.84994 27.56 7.84994 28.52 7.84994C29.14 7.84994 29.5 8.20994 29.5 8.82994C29.5 15.8499 29.5 22.8699 29.5 29.8799C29.5 30.5099 29.14 30.8699 28.5 30.8699C22.97 30.8699 17.44 30.8699 11.9 30.8699C11.26 30.8699 10.91 30.5199 10.91 29.8799C10.91 29.0299 10.91 28.1899 10.91 27.3199C9.40002 27.1399 8.19002 26.4599 7.33002 25.2099C6.69002 24.2899 6.42002 23.2699 6.49002 22.1499C6.57002 20.9599 7.03002 19.9199 7.86002 19.0599C8.69002 18.2099 9.70002 17.7399 10.91 17.5999L10.92 17.5799ZM13.57 28.1699H26.83V10.4799H25.55C25.37 11.1599 25.12 11.3599 24.41 11.3599C21.62 11.3599 18.82 11.3599 16.03 11.3599C15.3 11.3599 15.06 11.1799 14.87 10.4899H13.57V10.7799C13.57 13.1199 13.57 15.4599 13.57 17.8099C13.57 18.0299 13.65 18.1299 13.82 18.2299C15.61 19.2799 16.54 21.3399 16.12 23.3699C15.83 24.7999 15.03 25.8799 13.78 26.6399C13.7 26.6899 13.58 26.7799 13.58 26.8599C13.56 27.2899 13.58 27.7199 13.58 28.1599L13.57 28.1699ZM11.37 18.4499C9.18002 18.4499 7.38002 20.2199 7.37002 22.3999C7.37002 24.6199 9.14003 26.4199 11.35 26.4199C13.53 26.4199 15.33 24.6399 15.34 22.4599C15.34 20.2599 13.56 18.4499 11.37 18.4499ZM28.59 29.9499V8.72994H25.53V9.58994C26.09 9.58994 26.63 9.58994 27.17 9.58994C27.57 9.58994 27.73 9.74994 27.73 10.1399C27.73 16.2599 27.73 22.3899 27.73 28.5099C27.73 28.9099 27.57 29.0699 27.18 29.0699C22.52 29.0699 17.87 29.0699 13.21 29.0699C12.84 29.0699 12.68 28.9099 12.68 28.5299C12.68 28.0699 12.68 27.6099 12.68 27.1399C12.41 27.1799 12.17 27.2099 11.93 27.2699C11.87 27.2799 11.8 27.3899 11.8 27.4599C11.79 27.7299 11.8 27.9899 11.8 28.2599C11.8 28.8199 11.8 29.3799 11.8 29.9499H28.6H28.59ZM15.79 10.4599H24.64C24.64 9.70994 24.64 8.98994 24.64 8.25994C24.64 7.98994 24.45 7.82994 24.17 7.81994C23.88 7.81994 23.6 7.81994 23.31 7.81994C22.6 7.81994 22.03 7.26994 21.99 6.55994C21.97 6.19994 21.81 6.04994 21.45 6.04994C20.64 6.04994 19.83 6.04994 19.02 6.04994C18.62 6.04994 18.48 6.17994 18.45 6.58994C18.4 7.26994 17.83 7.80994 17.15 7.81994C16.86 7.81994 16.56 7.81994 16.27 7.81994C15.99 7.81994 15.8 7.98994 15.8 8.25994C15.8 8.98994 15.8 9.70994 15.8 10.4599H15.79ZM12.69 17.7299C12.69 17.6099 12.69 17.4999 12.69 17.3899C12.69 14.9999 12.69 12.6199 12.69 10.2299C12.69 9.71994 12.82 9.58994 13.32 9.58994C13.84 9.58994 14.36 9.58994 14.88 9.58994V8.72994H11.81C11.81 8.78994 11.81 8.82994 11.81 8.85994C11.81 11.6899 11.81 14.5199 11.81 17.3499C11.81 17.3899 11.8 17.4299 11.81 17.4599C11.84 17.5099 11.89 17.5899 11.94 17.5999C12.18 17.6499 12.43 17.6799 12.7 17.7299H12.69Z" fill="#484848"/>
<path id="Vector_2" d="M20.18 17.5599C18.78 17.5599 17.38 17.5599 15.98 17.5599C15.91 17.5599 15.83 17.5599 15.76 17.5599C15.52 17.5399 15.35 17.3499 15.35 17.1199C15.35 16.8899 15.52 16.6999 15.76 16.6799C15.83 16.6799 15.91 16.6799 15.98 16.6799C18.81 16.6799 21.63 16.6799 24.46 16.6799C24.53 16.6799 24.61 16.6799 24.68 16.6799C24.92 16.7099 25.09 16.8999 25.08 17.1299C25.06 17.3699 24.92 17.5199 24.69 17.5599C24.62 17.5699 24.54 17.5599 24.47 17.5599C23.04 17.5599 21.62 17.5599 20.19 17.5599H20.18Z" fill="#484848"/>
<path id="Vector_3" d="M21.13 19.3301C22.23 19.3301 23.34 19.3301 24.44 19.3301C24.51 19.3301 24.59 19.3301 24.66 19.3301C24.9 19.3501 25.07 19.5301 25.08 19.7601C25.08 19.9901 24.91 20.1801 24.67 20.2001C24.57 20.2101 24.47 20.2001 24.37 20.2001C22.19 20.2001 20.01 20.2001 17.82 20.2001C17.77 20.2001 17.73 20.2001 17.68 20.2001C17.31 20.2001 17.11 20.0401 17.11 19.7501C17.11 19.4701 17.31 19.3201 17.67 19.3201C18.44 19.3201 19.22 19.3201 19.99 19.3201C20.37 19.3201 20.74 19.3201 21.12 19.3201L21.13 19.3301Z" fill="#484848"/>
<path id="Vector_4" d="M21.1 25.5199C19.96 25.5199 18.82 25.5199 17.68 25.5199C17.33 25.5199 17.13 25.3699 17.12 25.0899C17.12 24.7999 17.32 24.6399 17.69 24.6399C19.97 24.6399 22.26 24.6399 24.54 24.6399C24.89 24.6399 25.09 24.7999 25.09 25.0799C25.09 25.3499 24.89 25.5199 24.57 25.5199C23.42 25.5199 22.27 25.5199 21.12 25.5199H21.1Z" fill="#484848"/>
<path id="Vector_5" d="M21.32 21.99C22.39 21.99 23.4601 21.99 24.5201 21.99C24.8801 21.99 25.07 22.14 25.08 22.42C25.08 22.71 24.88 22.87 24.51 22.87C22.37 22.87 20.2401 22.87 18.1 22.87C17.75 22.87 17.55 22.7 17.55 22.43C17.55 22.16 17.75 21.99 18.07 21.99C19.15 21.99 20.22 21.99 21.3 21.99H21.32Z" fill="#484848"/>
<path id="Vector_6" d="M20.1901 14.9C19.2101 14.9 18.2201 14.9 17.2401 14.9C16.8901 14.9 16.6901 14.74 16.6801 14.46C16.6801 14.18 16.8801 14.01 17.2201 14.01C19.2201 14.01 21.2101 14.01 23.2101 14.01C23.5601 14.01 23.7601 14.18 23.7501 14.46C23.7501 14.74 23.5501 14.89 23.1901 14.89C22.1901 14.89 21.1801 14.89 20.1801 14.89L20.1901 14.9Z" fill="#484848"/>
<path id="Vector_7" d="M10.88 23.11C11.52 22.35 12.13 21.62 12.73 20.89C12.88 20.71 13.05 20.6 13.28 20.69C13.59 20.81 13.66 21.15 13.43 21.44C12.97 22 12.5 22.56 12.03 23.12C11.79 23.4 11.56 23.69 11.32 23.97C11.07 24.27 10.82 24.29 10.55 24.02C10.14 23.62 9.74003 23.21 9.34003 22.81C9.11003 22.57 9.09003 22.32 9.29003 22.13C9.49003 21.94 9.73003 21.95 9.97003 22.19C10.27 22.49 10.56 22.8 10.88 23.12V23.11Z" fill="#484848"/>
<path id="Vector_8" d="M20.22 6.93999C20.38 6.93999 20.53 6.93999 20.69 6.93999C20.93 6.95999 21.1 7.14999 21.1 7.37999C21.1 7.60999 20.93 7.80999 20.69 7.81999C20.38 7.83999 20.07 7.82999 19.76 7.81999C19.51 7.80999 19.33 7.60999 19.34 7.36999C19.34 7.13999 19.52 6.95999 19.76 6.93999C19.92 6.92999 20.07 6.93999 20.23 6.93999H20.22Z" fill="#484848"/>
</g>
</svg>
