<svg width="36" height="36" viewBox="0 0 36 36" fill="none" xmlns="http://www.w3.org/2000/svg">
<g id="icon_logout 1">
<path id="Vector" d="M6.70996 18C6.70996 14.92 6.70996 11.84 6.70996 8.75999C6.70996 7.39999 7.61996 6.48999 8.98996 6.48999C12.59 6.48999 16.2 6.48999 19.8 6.48999C21.14 6.48999 22.05 7.39999 22.06 8.72999C22.06 10.61 22.06 12.49 22.06 14.37C22.06 14.96 21.54 15.31 21.02 15.06C20.71 14.91 20.62 14.64 20.62 14.32C20.62 12.87 20.62 11.42 20.62 9.96999C20.62 9.52999 20.62 9.08999 20.62 8.65999C20.62 8.22999 20.33 7.93999 19.89 7.93999C16.23 7.93999 12.56 7.93999 8.89996 7.93999C8.42996 7.93999 8.15996 8.24999 8.15996 8.75999C8.15996 13.39 8.15996 18.03 8.15996 22.66C8.15996 24.19 8.15996 25.71 8.15996 27.24C8.15996 27.8 8.42996 28.07 8.99996 28.07C12.6 28.07 16.21 28.07 19.81 28.07C20.36 28.07 20.63 27.8 20.63 27.25C20.63 25.39 20.63 23.53 20.63 21.66C20.63 21.11 21.03 20.78 21.54 20.9C21.86 20.97 22.07 21.21 22.07 21.54C22.07 23.53 22.09 25.52 22.07 27.51C22.06 28.59 21.07 29.49 19.96 29.5C18.32 29.5 16.68 29.5 15.04 29.5C13.02 29.5 11.01 29.5 8.98996 29.5C7.63996 29.5 6.72996 28.58 6.72996 27.24C6.72996 24.16 6.72996 21.08 6.72996 18H6.70996Z" fill="#484848"/>
<path id="Vector_2" d="M26.76 18.7399C26.39 18.7399 26.01 18.7399 25.64 18.7399C24.27 18.7399 22.9 18.7199 21.52 18.7199C20.46 18.7199 19.41 18.7199 18.35 18.7199C17.93 18.7199 17.72 18.5699 17.61 18.2199C17.47 17.7499 17.76 17.3299 18.25 17.2899C18.3 17.2899 18.35 17.2899 18.4 17.2899C20.72 17.2899 23.05 17.2699 25.37 17.2699C25.83 17.2699 26.29 17.2699 26.78 17.2699C26.7 17.1899 26.65 17.1299 26.59 17.0699C25.89 16.3699 25.2 15.6699 24.5 14.9799C24.27 14.7499 24.18 14.4899 24.28 14.1899C24.43 13.7199 25 13.5499 25.39 13.8499C25.49 13.9199 25.57 14.0099 25.65 14.0999C26.75 15.1999 27.86 16.3099 28.96 17.4099C29.37 17.8199 29.37 18.1999 28.96 18.6099C27.81 19.7599 26.66 20.9199 25.5 22.0699C25.14 22.4299 24.65 22.4099 24.37 22.0199C24.14 21.7099 24.17 21.3699 24.47 21.0699C25.17 20.3599 25.88 19.6599 26.58 18.9599C26.64 18.8999 26.72 18.8599 26.78 18.7999C26.77 18.7799 26.75 18.7599 26.74 18.7399H26.76Z" fill="#484848"/>
</g>
</svg>
