<svg width="34" height="34" viewBox="0 0 34 34" fill="none" xmlns="http://www.w3.org/2000/svg">
<g id="icon_language 1">
<path id="Vector" d="M16.6505 9.16108C16.745 9.16108 16.8394 9.16108 16.9244 9.16108C20.1355 9.16108 23.3372 9.16108 26.5483 9.16108C27.4455 9.16108 28.135 9.53886 28.5128 10.3605C28.645 10.6439 28.7205 10.9839 28.7205 11.2955C28.73 16.3577 28.73 21.4294 28.7205 26.4916C28.7205 27.7383 27.8044 28.6355 26.5483 28.6355C22.8744 28.6355 19.1911 28.6355 15.5172 28.6355C14.1855 28.6355 13.345 27.8516 13.2222 26.52C13.1561 25.8305 13.0617 25.1505 12.9672 24.4233C12.8728 24.4233 12.7878 24.4233 12.6933 24.4233C10.8705 24.4233 9.03832 24.4233 7.21554 24.4233C6.48832 24.4233 5.88387 24.1589 5.43999 23.5639C5.1661 23.1955 5.03387 22.7705 5.03387 22.3172C5.03387 17.2266 5.03387 12.1361 5.03387 7.05497C5.03387 5.86497 5.94054 4.9583 7.13054 4.9583C9.5011 4.94885 11.8811 4.9583 14.2517 4.9583C15.3189 4.9583 16.1689 5.71385 16.32 6.77163C16.4239 7.5083 16.5089 8.25441 16.6033 8.99108C16.6033 9.04774 16.6222 9.09497 16.6411 9.16108H16.6505ZM17.1511 23.2711C17.1511 23.1955 17.1511 23.1483 17.1511 23.0916C17.085 22.5155 17.0189 21.93 16.9433 21.3539C16.7922 20.145 16.6505 18.9361 16.4994 17.7366C16.3672 16.6883 16.2444 15.64 16.1122 14.6011C15.98 13.5433 15.8478 12.495 15.7155 11.4372C15.6211 10.7194 15.5267 10.0016 15.4417 9.28385C15.3472 8.47163 15.2811 7.65941 15.1678 6.85663C15.1017 6.33719 14.7333 6.0633 14.2044 6.0633C11.8433 6.0633 9.48221 6.0633 7.13054 6.0633C6.47887 6.0633 6.11054 6.42219 6.11054 7.07385C6.11054 12.1361 6.11054 17.2077 6.11054 22.27C6.11054 22.865 6.55443 23.2805 7.11165 23.2805C10.3794 23.2711 13.6472 23.2805 16.915 23.2805C16.9905 23.2805 17.0661 23.2805 17.1605 23.2805L17.1511 23.2711ZM16.8111 10.3605C16.8961 11.0783 16.9811 11.7677 17.0661 12.4666C17.2172 13.6944 17.3589 14.9316 17.5005 16.1594C17.6422 17.3305 17.7933 18.4922 17.9444 19.6633C18.0955 20.8816 18.2467 22.1094 18.3978 23.3277C18.4355 23.6866 18.53 24.0455 18.2467 24.3572C17.6705 24.9994 17.1133 25.6605 16.5467 26.3122C16.2161 26.69 15.895 27.0677 15.5361 27.4833H15.8289C19.4555 27.4833 23.0822 27.4833 26.6994 27.4833C27.3417 27.4833 27.71 27.115 27.71 26.4822C27.71 21.4483 27.71 16.4144 27.71 11.3711C27.71 10.71 27.3511 10.3511 26.6994 10.3511C23.4883 10.3511 20.2867 10.3511 17.0755 10.3511C16.9905 10.3511 16.9055 10.3511 16.8111 10.3511V10.3605ZM14.6011 26.4539C15.2055 25.755 15.7722 25.1127 16.3578 24.4422H14.3744C14.45 25.1033 14.5255 25.755 14.6011 26.4539Z" fill="#484848"/>
<path id="Vector_2" d="M10.3795 15.4134C10.2378 16.1217 10.0961 16.83 9.95446 17.5384C9.86946 17.9823 9.52002 18.2467 9.14224 18.1711C8.72669 18.0956 8.50946 17.7178 8.60391 17.255C9.05724 15.0073 9.50113 12.75 9.95446 10.5023C10.0395 10.0584 10.2945 9.86003 10.7384 9.85059C11.135 9.85059 11.5411 9.85059 11.9378 9.85059C12.3817 9.85059 12.6367 10.0584 12.7311 10.5023C13.1845 12.7784 13.6472 15.0545 14.1006 17.3211C14.1761 17.7178 13.9306 18.0956 13.5434 18.1711C13.175 18.2373 12.8161 17.9823 12.7406 17.5856C12.6084 16.9623 12.495 16.3389 12.3628 15.7061C12.3439 15.6117 12.325 15.5173 12.2967 15.4134H10.3889H10.3795ZM11.2106 11.2484C11.0311 12.1739 10.8422 13.0806 10.6628 13.9967H12.0134C11.8245 13.0711 11.645 12.155 11.4656 11.2484H11.2106Z" fill="#484848"/>
<path id="Vector_3" d="M23.1295 15.4039C23.8378 15.4039 24.5083 15.4039 25.1883 15.4039C25.5 15.4039 25.7172 15.5456 25.8495 15.8289C25.9628 16.0934 25.9345 16.3672 25.7172 16.5561C25.5756 16.6789 25.3678 16.7167 25.1883 16.7922C25.1222 16.8206 25.0278 16.8584 25.0089 16.915C24.6689 17.9634 24.14 18.9172 23.4506 19.7767C23.4411 19.7956 23.4317 19.8145 23.4033 19.8617C23.9133 20.2772 24.4139 20.6834 24.9239 21.0989C25.1506 21.2878 25.2545 21.5239 25.1883 21.8167C25.1222 22.1 24.9333 22.27 24.6595 22.3361C24.4139 22.3928 24.2061 22.3078 24.0172 22.1567C23.5639 21.7884 23.1106 21.4106 22.6572 21.0422C22.5911 20.9856 22.5156 20.9289 22.4306 20.8628C21.9867 21.2311 21.5428 21.59 21.1083 21.9489C20.9856 22.0434 20.8722 22.1472 20.74 22.2322C20.4095 22.4495 20.0222 22.3834 19.7956 22.0811C19.5689 21.7789 19.6161 21.3822 19.9183 21.1272C20.4 20.7306 20.8817 20.3339 21.3633 19.9372C21.3917 19.9089 21.42 19.89 21.4483 19.8522C21.2217 19.5311 20.9667 19.2289 20.7872 18.8795C20.4661 18.2656 20.1733 17.6234 19.89 16.9906C19.8333 16.8678 19.7956 16.7922 19.6445 16.7922C19.2478 16.7922 18.955 16.4711 18.9645 16.0934C18.9645 15.7156 19.2761 15.4134 19.6728 15.4134C20.3528 15.4134 21.0328 15.4134 21.7411 15.4134C21.7411 15.2056 21.7411 14.9978 21.7411 14.79C21.7411 14.3367 22.0245 14.025 22.4306 14.025C22.8367 14.025 23.1295 14.3367 23.1295 14.7806C23.1295 14.9789 23.1295 15.1772 23.1295 15.4134V15.4039ZM23.5639 16.8017H21.3067C21.5711 17.5384 21.9395 18.19 22.4306 18.8039C22.9217 18.19 23.29 17.5384 23.5545 16.8017H23.5639Z" fill="#484848"/>
</g>
</svg>
