<svg width="40" height="40" viewBox="0 0 40 40" fill="none" xmlns="http://www.w3.org/2000/svg">
<g id="icon_decaf 1">
<path id="Vector" d="M7.95 26.34C6.67 25.34 5.54 24.23 4.62 22.91C2.98 20.56 2.15 17.94 2.12 15.08C2.1 12.96 2.12 10.84 2.12 8.72C2.12 8.05 2.36 7.8 3.02 7.8C11.62 7.8 20.23 7.8 28.83 7.8C29.49 7.8 29.73 8.05 29.73 8.72C29.73 8.97 29.73 9.22 29.73 9.47C30.29 9.54 30.83 9.57 31.37 9.67C34.52 10.21 37.06 12.98 37.44 16.15C37.9 19.97 35.36 23.61 31.58 24.42C31.08 24.53 30.56 24.59 30.05 24.6C28.74 24.63 27.44 24.6 26.13 24.62C25.95 24.62 25.74 24.71 25.6 24.83C25.02 25.31 24.46 25.81 23.85 26.34C23.99 26.34 24.12 26.34 24.24 26.34C26.24 26.34 28.24 26.34 30.24 26.34C30.9 26.34 31.15 26.59 31.15 27.25C31.15 29.83 29.2 31.8 26.62 31.8C19.96 31.8 13.3 31.8 6.63 31.8C4 31.8 2.02 29.74 2.1 27.1C2.12 26.62 2.4 26.34 2.9 26.34C4.45 26.34 5.99 26.34 7.54 26.34C7.67 26.34 7.8 26.34 7.93 26.34H7.95ZM3.55 9.25C3.55 11.15 3.53 13 3.55 14.86C3.56 15.65 3.61 16.44 3.76 17.21C4.58 21.39 6.95 24.39 10.79 26.23C10.94 26.3 11.13 26.34 11.3 26.34C14.37 26.34 17.43 26.34 20.5 26.34C20.69 26.34 20.91 26.3 21.08 26.21C25.7 23.91 28.1 20.17 28.26 15.02C28.32 13.23 28.26 11.43 28.26 9.63C28.26 9.5 28.26 9.38 28.26 9.26H3.55V9.25ZM3.61 27.78C3.72 29.18 5.05 30.35 6.54 30.35C13.27 30.35 20 30.35 26.74 30.35C27.61 30.35 28.35 30.01 28.94 29.37C29.35 28.93 29.62 28.41 29.68 27.78H3.61ZM27.04 23.21C28.39 23.17 29.7 23.24 30.96 23.06C33.49 22.72 35.54 20.61 35.97 18.09C36.4 15.55 35.19 13 32.94 11.74C31.95 11.18 30.89 10.92 29.72 10.95V12.37C29.82 12.37 29.88 12.38 29.94 12.38C32.91 12.45 34.97 14.9 34.54 17.85C34.27 19.72 32.58 21.43 30.7 21.64C29.88 21.73 29.05 21.69 28.23 21.72C28.12 21.72 27.97 21.75 27.92 21.82C27.63 22.24 27.37 22.68 27.04 23.19V23.21ZM28.66 20.3C29.11 20.3 29.5 20.3 29.9 20.3C32.01 20.28 33.51 18.46 33.11 16.39C32.81 14.86 31.25 13.67 29.72 13.87C29.82 16.07 29.54 18.21 28.67 20.3H28.66Z" fill="#000"/>
<path id="Vector_2" d="M15.8901 12.58C16.6501 11.84 17.5101 11.38 18.5301 11.24C21.9101 10.79 24.3301 13.84 23.1401 17.04C22.7701 18.03 22.1001 18.81 21.4101 19.58C20.2401 20.88 19.0601 22.17 17.8501 23.43C16.7101 24.62 15.0501 24.63 13.9301 23.44C12.4101 21.82 10.8901 20.18 9.46005 18.47C8.28005 17.05 7.92005 15.39 8.69005 13.64C9.82005 11.06 13.3601 10.37 15.5401 12.27C15.6501 12.36 15.7501 12.46 15.8901 12.58ZM12.9601 12.26C10.9601 12.26 9.67005 13.33 9.44005 14.9C9.27005 16.06 9.65005 17.09 10.4001 17.95C11.7901 19.54 13.2101 21.09 14.6401 22.63C15.4001 23.45 16.3901 23.44 17.1601 22.63C18.4901 21.22 19.8001 19.79 21.0701 18.33C21.5001 17.83 21.8901 17.25 22.1301 16.64C22.7901 14.98 22.1701 13.34 20.6801 12.61C19.3301 11.95 17.9001 12.2 16.6801 13.3C15.8901 14.02 15.8901 14.02 15.1201 13.3C14.4001 12.63 13.5601 12.25 12.9601 12.25V12.26Z" fill="#255D54"/>
<path id="Vector_3" d="M15.05 16.57C14.77 17 14.52 17.36 14.28 17.73C14.12 17.97 13.92 18.09 13.62 18.08C13.21 18.06 12.81 18.08 12.4 18.08C12.05 18.08 11.83 17.89 11.82 17.58C11.81 17.26 12.02 17.04 12.38 17.01C12.43 17.01 12.48 17.01 12.52 17.01C13.24 17.15 13.71 16.87 14.02 16.21C14.19 15.86 14.43 15.53 14.68 15.23C14.81 15.08 15.05 14.91 15.22 14.93C15.39 14.95 15.61 15.15 15.69 15.33C16.03 16.09 16.32 16.88 16.64 17.65C16.68 17.76 16.73 17.86 16.82 18.05C17.07 17.78 17.27 17.55 17.48 17.32C17.54 17.26 17.59 17.2 17.66 17.14C17.91 16.94 19.52 16.89 19.74 17.12C19.86 17.25 19.96 17.49 19.92 17.65C19.88 17.81 19.68 17.94 19.52 18.04C19.44 18.09 19.31 18.07 19.2 18.05C18.49 17.92 17.96 18.18 17.53 18.75C17.39 18.93 17.21 19.08 17.05 19.24C16.64 19.63 16.26 19.56 16.05 19.04C15.74 18.29 15.44 17.53 15.14 16.78C15.12 16.73 15.09 16.68 15.04 16.56L15.05 16.57Z" fill="#255D54"/>
</g>
</svg>
