<svg width="24" height="24" viewBox="0 0 24 24" fill="none" xmlns="http://www.w3.org/2000/svg">
<path d="M23.1406 12.411C22.8923 13.0725 22.2773 13.5 21.5731 13.5H21V21.75C21 22.164 20.6641 22.5 20.25 22.5H15.7501V17.25C15.7501 15.1823 14.0678 13.5 12.0001 13.5C9.9323 13.5 8.25005 15.1823 8.25005 17.25V22.5H3.75005C3.33605 22.5 3.00005 22.164 3.00005 21.75V13.5H2.4263C1.72205 13.5 1.10705 13.0733 0.8588 12.4118C0.61055 11.7503 0.7928 11.0228 1.3238 10.5593L10.0831 2.26429C11.1586 1.24654 12.8423 1.24654 13.9171 2.26429L22.6973 10.5788C23.2058 11.022 23.3888 11.7495 23.1406 12.411Z" fill="#454545"/>
</svg>
