<svg width="28" height="28" viewBox="0 0 28 28" fill="none" xmlns="http://www.w3.org/2000/svg">
<circle cx="14" cy="14" r="14" fill="white"/>
<path d="M20.2804 20.5479H19.3719C19.1234 20.5479 18.9219 20.7494 18.9219 20.9979C18.9219 21.2464 19.1234 21.4479 19.3719 21.4479H20.2804C20.5289 21.4479 20.7304 21.2464 20.7304 20.9979C20.7304 20.7494 20.5289 20.5479 20.2804 20.5479Z" fill="#1B1B21"/>
<path d="M17.5325 20.5479H10.3345C10.086 20.5479 9.88452 20.7494 9.88452 20.9979C9.88452 21.2464 10.086 21.4479 10.3345 21.4479H17.5325C17.781 21.4479 17.9825 21.2464 17.9825 20.9979C17.9825 20.7494 17.7815 20.5479 17.5325 20.5479Z" fill="#1B1B21"/>
<path d="M12.389 18.7823L19.8415 11.3298C20.796 10.3748 20.796 8.82027 19.841 7.86477L19.2455 7.26977C18.2915 6.31527 16.7375 6.31477 15.7805 7.26977L8.32847 14.7218C7.96647 15.0843 7.73047 15.5423 7.64547 16.0458L7.28997 18.1498C7.21247 18.6118 7.36347 19.0853 7.69497 19.4163C7.96897 19.6903 8.33997 19.8413 8.72197 19.8413C8.80147 19.8413 8.88197 19.8343 8.96197 19.8213L11.0645 19.4658C11.5695 19.3808 12.028 19.1443 12.389 18.7823ZM16.4175 7.90677C16.7195 7.60477 17.1165 7.45327 17.513 7.45327C17.91 7.45327 18.307 7.60477 18.609 7.90677L19.2045 8.50127C19.8085 9.10577 19.8085 10.0898 19.2045 10.6938L17.966 11.9323C17.401 11.6338 16.8525 11.2323 16.3665 10.7473C15.875 10.2558 15.474 9.70577 15.1805 9.14327L16.4175 7.90677ZM8.81197 18.9333C8.63297 18.9643 8.45897 18.9078 8.33097 18.7798C8.20347 18.6523 8.14747 18.4773 8.17747 18.2993L8.53297 16.1958C8.58647 15.8768 8.73597 15.5873 8.96497 15.3583L14.514 9.81027C14.8345 10.3648 15.248 10.9003 15.731 11.3838C16.217 11.8698 16.7425 12.2768 17.2995 12.5993L11.7525 18.1463C11.524 18.3748 11.2345 18.5243 10.9145 18.5778L8.81197 18.9333Z" fill="#1B1B21"/>
</svg>
