<svg width="36" height="36" viewBox="0 0 36 36" fill="none" xmlns="http://www.w3.org/2000/svg">
<g id="icon_cuahang 3">
<path id="Vector" d="M7.36 29.1201V28.8201C7.36 24.9301 7.36 21.0401 7.36 17.1501C7.36 16.9501 7.3 16.8501 7.13 16.7501C6.36 16.3101 5.98 15.6201 5.96 14.7401C5.94 13.5501 5.96 12.3501 5.96 11.1601C5.96 10.7701 6.13 10.6001 6.52 10.5901C6.79 10.5901 7.06 10.5901 7.36 10.5901V10.2401C7.36 8.41011 7.36 6.59011 7.36 4.76011C7.36 4.25011 7.5 4.11011 8 4.11011C14.67 4.11011 21.34 4.11011 28.01 4.11011C28.49 4.11011 28.64 4.26011 28.64 4.74011C28.64 6.57011 28.64 8.39011 28.64 10.2201C28.64 10.3301 28.64 10.4301 28.64 10.5901C28.91 10.5901 29.16 10.5901 29.41 10.5901C29.88 10.5901 30.04 10.7601 30.04 11.2301C30.04 12.3601 30.04 13.4901 30.04 14.6201C30.04 15.5801 29.65 16.3301 28.79 16.8001C28.63 16.8901 28.65 17.0101 28.65 17.1401C28.65 19.3001 28.65 21.4601 28.65 23.6201C28.65 25.3301 28.65 27.0401 28.65 28.7501C28.65 28.8601 28.65 28.9701 28.65 29.1201C28.93 29.1201 29.2 29.1201 29.46 29.1201C29.88 29.1201 30.04 29.2901 30.05 29.7201C30.05 30.2401 30.05 30.7701 30.05 31.2901C30.05 31.7201 29.88 31.8901 29.44 31.8901C21.82 31.8901 14.2 31.8901 6.58 31.8901C6.16 31.8901 5.98 31.7201 5.98 31.3101C5.98 30.7801 5.98 30.2401 5.98 29.7101C5.98 29.2901 6.15 29.1301 6.58 29.1301C6.83 29.1301 7.08 29.1301 7.38 29.1301L7.36 29.1201ZM27.7 29.1101V17.0601C26.65 17.1401 25.65 17.0701 24.98 16.1701C24.83 16.3001 24.7 16.4101 24.57 16.5201C24 17.0101 23.33 17.0601 22.61 17.0701C21.7 17.0901 20.91 16.8801 20.31 16.1201C20 16.5201 19.62 16.8201 19.15 16.9501C18.41 17.1401 17.67 17.1301 16.93 16.9701C16.42 16.8601 16.03 16.5401 15.69 16.1301C15.27 16.6501 14.76 16.9801 14.12 17.0401C13.63 17.0801 13.12 17.0801 12.63 17.0401C12.02 16.9901 11.52 16.6901 11.13 16.2101C11.11 16.1801 11.08 16.1701 11.04 16.1401C10.34 17.0901 9.33 17.1101 8.31 17.0601V29.0901H10.14V28.7501C10.14 26.0201 10.14 23.2901 10.14 20.5601C10.14 19.9601 10.26 19.8401 10.88 19.8401C12.24 19.8401 13.61 19.8401 14.97 19.8401C15.56 19.8401 15.68 19.9701 15.68 20.5501C15.68 23.2801 15.68 26.0101 15.68 28.7401C15.68 28.8501 15.68 28.9701 15.68 29.1001H27.7V29.1101ZM27.7 5.05011H8.3V10.5801H27.7V5.05011ZM11.08 20.7901V29.1101H14.73V20.7901H11.08ZM29.11 30.0701H6.9V30.9501H29.11V30.0701ZM6.92 11.5301C6.92 11.5301 6.89 11.6001 6.89 11.6201C6.89 12.6701 6.87 13.7201 6.89 14.7701C6.91 15.5001 7.38 16.0301 8.09 16.1201C8.48 16.1701 8.89 16.1701 9.28 16.1401C10.02 16.0901 10.54 15.5701 10.57 14.8201C10.6 13.8201 10.58 12.8101 10.59 11.8101C10.59 11.7201 10.59 11.6301 10.57 11.5301H6.91H6.92ZM11.53 11.5301C11.53 11.6401 11.53 11.7201 11.53 11.8001C11.53 12.8201 11.53 13.8401 11.55 14.8601C11.57 15.4901 12.02 15.9901 12.65 16.0901C12.99 16.1501 13.35 16.1401 13.7 16.1401C14.65 16.1401 15.23 15.5601 15.24 14.6001C15.24 13.6601 15.24 12.7201 15.24 11.7801C15.24 11.7001 15.24 11.6201 15.23 11.5301H11.54H11.53ZM20.81 11.5301C20.81 11.5301 20.78 11.6001 20.78 11.6201C20.78 12.6701 20.76 13.7201 20.78 14.7701C20.8 15.5001 21.27 16.0301 21.98 16.1201C22.37 16.1701 22.78 16.1701 23.17 16.1401C23.91 16.0901 24.43 15.5701 24.46 14.8201C24.49 13.8401 24.47 12.8501 24.48 11.8601C24.48 11.7501 24.48 11.6501 24.48 11.5301H20.8H20.81ZM25.45 11.5301C25.45 11.5301 25.42 11.5901 25.42 11.6201C25.42 12.7001 25.42 13.7901 25.44 14.8701C25.46 15.4901 25.9 15.9901 26.51 16.0901C26.86 16.1501 27.23 16.1401 27.59 16.1401C28.54 16.1401 29.12 15.5601 29.12 14.6001C29.12 13.7601 29.12 12.9201 29.12 12.0801C29.12 11.9001 29.12 11.7201 29.12 11.5301H25.44H25.45ZM19.85 11.5301H16.17C16.17 12.6701 16.15 13.7901 16.17 14.9101C16.18 15.4701 16.66 16.0001 17.24 16.0801C17.7 16.1501 18.18 16.1501 18.64 16.1101C19.3 16.0401 19.82 15.5201 19.84 14.9101C19.87 13.7901 19.84 12.6701 19.84 11.5301H19.85Z" fill="#000"/>
<path id="Vector_2" d="M21.69 25.4101C20.54 25.4101 19.4 25.4101 18.25 25.4101C17.66 25.4101 17.54 25.2801 17.54 24.6901C17.54 23.3101 17.54 21.9201 17.54 20.5401C17.54 19.9901 17.69 19.8501 18.23 19.8501C20.55 19.8501 22.87 19.8501 25.19 19.8501C25.72 19.8501 25.87 19.9901 25.87 20.5201C25.87 21.9401 25.87 23.3601 25.87 24.7801C25.87 25.2601 25.72 25.4101 25.24 25.4201C24.06 25.4201 22.87 25.4201 21.69 25.4201V25.4101ZM21.23 20.7901H18.49V24.4701H21.23V20.7901ZM22.2 20.7901V24.4801H24.93V20.7901H22.2Z" fill="#484848"/>
<path id="Vector_3" d="M13.39 24.04H14.28V24.93H13.39V24.04Z" fill="#484848"/>
</g>
</svg>
