<svg width="36" height="36" viewBox="0 0 36 36" fill="none" xmlns="http://www.w3.org/2000/svg">
<g id="icon_login 2">
<path id="Vector" d="M25.4825 18C25.4825 20.9 25.4825 23.79 25.4825 26.69C25.4825 28 24.6325 28.85 23.3325 28.85C19.6225 28.85 15.9025 28.85 12.1925 28.85C10.9025 28.85 10.0425 28 10.0425 26.71C10.0425 24.95 10.0425 23.18 10.0425 21.42C10.0425 20.9 10.4625 20.59 10.9425 20.75C11.2425 20.85 11.3925 21.09 11.4025 21.47C11.4025 22.66 11.4025 23.85 11.4025 25.04C11.4025 25.61 11.4025 26.17 11.4025 26.74C11.4025 27.23 11.6625 27.49 12.1425 27.49C15.8925 27.49 19.6325 27.49 23.3825 27.49C23.8625 27.49 24.1325 27.22 24.1325 26.74C24.1325 20.91 24.1325 15.09 24.1325 9.26002C24.1325 8.76002 23.8625 8.50002 23.3625 8.50002C19.6325 8.50002 15.9025 8.50002 12.1725 8.50002C11.6525 8.50002 11.4025 8.75002 11.4025 9.27002C11.4025 11.03 11.4025 12.78 11.4025 14.54C11.4025 15.06 11.0225 15.39 10.5625 15.28C10.2525 15.21 10.0525 14.98 10.0525 14.65C10.0525 12.77 10.0325 10.9 10.0525 9.02002C10.0625 8.00002 10.9925 7.15002 12.0425 7.15002C13.6025 7.15002 15.1625 7.15002 16.7225 7.15002C18.9325 7.15002 21.1425 7.15002 23.3425 7.15002C24.6125 7.15002 25.4725 8.01002 25.4725 9.28002C25.4725 12.19 25.4725 15.09 25.4725 18H25.4825Z" fill="#484848"/>
<path id="Vector_2" d="M17.65 18.7C17.29 18.7 16.93 18.7 16.57 18.7C14.28 18.7 11.99 18.69 9.71001 18.68C9.28001 18.68 9.01001 18.42 9.01001 18.02C9.01001 17.61 9.27001 17.35 9.72001 17.34C9.74001 17.34 9.77001 17.34 9.79001 17.34C11.98 17.34 14.17 17.33 16.36 17.32C16.79 17.32 17.23 17.32 17.69 17.32C17.62 17.24 17.57 17.18 17.51 17.13C16.85 16.47 16.2 15.81 15.54 15.16C15.32 14.95 15.24 14.7 15.33 14.41C15.46 14.01 15.94 13.83 16.3 14.05C16.39 14.1 16.47 14.18 16.54 14.25C17.61 15.32 18.68 16.39 19.75 17.46C20.14 17.85 20.14 18.2 19.75 18.59C18.66 19.68 17.58 20.77 16.49 21.85C16.17 22.17 15.75 22.17 15.47 21.85C15.21 21.56 15.22 21.2 15.52 20.9C16.18 20.23 16.85 19.57 17.51 18.91C17.57 18.85 17.64 18.81 17.7 18.77C17.68 18.75 17.67 18.73 17.65 18.71V18.7Z" fill="#484848"/>
</g>
</svg>
