<svg width="22" height="22" viewBox="0 0 22 22" fill="none" xmlns="http://www.w3.org/2000/svg">
<path d="M21.8333 6.96932C21.8333 5.43753 20.5938 4.198 19.062 4.198C17.5302 4.198 16.2907 5.43753 16.2907 6.96932C16.2907 8.22901 17.1473 9.28715 18.3062 9.61971V15.0313C18.3062 17.9538 15.938 20.322 13.0155 20.322C10.093 20.322 7.72481 17.9538 7.72481 15.0313V13.7313C11.1209 13.3585 13.7713 10.4662 13.7713 6.96932V1.93056C13.7713 0.963116 12.9752 0.166992 12.0078 0.166992H11C10.5868 0.166992 10.2442 0.509628 10.2442 0.922806C10.2442 1.33598 10.5868 1.67862 11 1.67862H12.0078C12.1488 1.67862 12.2597 1.78947 12.2597 1.93056V6.96932C12.2597 9.8918 9.89148 12.26 6.969 12.26C4.04652 12.26 1.6783 9.8918 1.6783 6.96932V1.93056C1.6783 1.78947 1.78915 1.67862 1.93024 1.67862H2.93799C3.35117 1.67862 3.6938 1.33598 3.6938 0.922806C3.6938 0.509628 3.35117 0.166992 2.93799 0.166992H1.93024C0.962796 0.166992 0.166672 0.963116 0.166672 1.93056V6.96932C0.166672 10.4662 2.81706 13.3484 6.21318 13.7313V15.0313C6.21318 18.7802 9.26667 21.8337 13.0155 21.8337C16.7643 21.8337 19.8178 18.7802 19.8178 15.0313V9.61971C20.9767 9.28715 21.8333 8.22901 21.8333 6.96932ZM19.062 8.22901C18.3667 8.22901 17.8023 7.66467 17.8023 6.96932C17.8023 6.27397 18.3667 5.70963 19.062 5.70963C19.7574 5.70963 20.3217 6.27397 20.3217 6.96932C20.3217 7.66467 19.7574 8.22901 19.062 8.22901Z" fill="white"/>
</svg>
