<svg width="40" height="40" viewBox="0 0 40 40" fill="none" xmlns="http://www.w3.org/2000/svg">
<g id="icon_tra 1">
<path id="Vector" d="M31.0999 16.39C31.4599 16.39 31.7799 16.39 32.0999 16.39C33.5599 16.39 35.0199 16.39 36.4799 16.39C37.2199 16.39 37.4399 16.61 37.4399 17.36C37.4399 18.88 37.4399 20.39 37.4399 21.91C37.4399 25.17 35.2899 27.86 32.0899 28.5C31.1799 28.68 30.2199 28.62 29.2799 28.64C28.9699 28.64 28.7799 28.73 28.6099 28.99C27.8899 30.09 27.0099 31.06 26.0099 31.91C25.9199 31.99 25.8299 32.07 25.6499 32.22C25.8799 32.22 25.9999 32.22 26.1199 32.22C28.0299 32.22 29.9299 32.22 31.8399 32.22C32.5199 32.22 32.7699 32.49 32.7399 33.17C32.6499 35.26 30.9699 37.11 28.8799 37.39C28.6199 37.43 28.3599 37.45 28.0899 37.45C20.9899 37.45 13.8899 37.45 6.79994 37.45C4.55994 37.45 2.77994 36.06 2.25994 33.88C2.18994 33.6 2.15994 33.31 2.14994 33.03C2.12994 32.5 2.40994 32.22 2.94994 32.22C4.34994 32.22 5.74994 32.22 7.14994 32.22C7.25994 32.22 7.36994 32.22 7.47994 32.22C7.43994 32.25 7.38994 32.28 7.34994 32.31C6.91994 31.81 6.50994 31.28 6.05994 30.8C4.07994 28.66 2.79994 26.16 2.35994 23.27C2.21994 22.38 2.16994 21.47 2.15994 20.56C2.12994 18.76 2.15994 16.95 2.15994 15.15C2.15994 14.51 2.40994 14.25 3.05994 14.25C12.1099 14.25 21.1599 14.25 30.2099 14.25C30.8499 14.25 31.0999 14.51 31.1099 15.15C31.1099 15.55 31.1099 15.95 31.1099 16.4L31.0999 16.39ZM3.52994 15.63C3.52994 17.32 3.50994 18.98 3.52994 20.63C3.53994 21.45 3.58994 22.29 3.72994 23.09C4.41994 27 6.48994 30 9.84994 32.1C9.95994 32.17 10.1099 32.2 10.2399 32.2C14.4899 32.2 18.7399 32.2 22.9899 32.2C23.1199 32.2 23.2699 32.17 23.3799 32.11C27.3099 29.62 29.4399 26.04 29.6999 21.4C29.7999 19.56 29.7199 17.7 29.7199 15.85C29.7199 15.78 29.7099 15.72 29.6999 15.64H12.5699C12.5699 16.37 12.5699 17.09 12.5699 17.8C12.5699 17.86 12.6099 17.93 12.6499 17.97C13.3799 18.69 14.1099 19.4 14.8399 20.11C15.1199 20.38 15.2599 20.7 15.2499 21.09C15.2499 22.5 15.2499 23.92 15.2499 25.33C15.2499 26.1 14.7099 26.63 13.9499 26.63C12.6899 26.63 11.4199 26.63 10.1599 26.63C9.37994 26.63 8.84994 26.09 8.83994 25.3C8.83994 23.9 8.83994 22.5 8.83994 21.1C8.83994 20.73 8.95994 20.4 9.22994 20.14C9.96994 19.42 10.7099 18.7 11.4399 17.98C11.4799 17.94 11.5199 17.89 11.5199 17.84C11.5199 17.11 11.5199 16.38 11.5199 15.64H3.53994L3.52994 15.63ZM3.62994 33.6C3.64994 33.7 3.66994 33.79 3.68994 33.88C4.07994 35.17 5.31994 36.07 6.74994 36.07C13.8799 36.07 21.0099 36.07 28.1399 36.07C28.8499 36.07 29.4999 35.88 30.0699 35.45C30.6899 34.98 31.1099 34.39 31.2699 33.6H3.63994H3.62994ZM11.5299 19.32C10.9799 19.86 10.4799 20.34 9.98994 20.84C9.90994 20.92 9.87994 21.07 9.87994 21.18C9.87994 22.52 9.87994 23.87 9.87994 25.21C9.87994 25.49 9.97994 25.6 10.2699 25.6C11.4599 25.6 12.6599 25.6 13.8499 25.6C14.1299 25.6 14.2399 25.5 14.2299 25.21C14.2299 23.87 14.2299 22.52 14.2299 21.18C14.2299 21.08 14.2299 20.95 14.1699 20.89C13.6599 20.38 13.1299 19.87 12.5799 19.35C12.5799 19.77 12.5799 20.16 12.5799 20.56C12.5799 21.02 12.3999 21.26 12.0599 21.25C11.7199 21.25 11.5499 21.01 11.5499 20.54C11.5499 20.15 11.5499 19.76 11.5499 19.31L11.5299 19.32ZM31.1099 19.15H31.4899C32.2699 19.15 33.0499 19.15 33.8299 19.15C34.4399 19.15 34.6799 19.41 34.6799 20.02C34.6799 20.69 34.6899 21.35 34.6799 22.02C34.6399 23.46 34.0199 24.57 32.7999 25.33C32.1099 25.77 31.3399 25.91 30.5299 25.89C30.4099 25.89 30.2299 25.93 30.1899 26.01C29.9899 26.41 29.8399 26.82 29.6399 27.3C30.3699 27.26 31.0499 27.26 31.7099 27.18C33.8399 26.9 35.7999 24.94 35.9799 22.79C36.0999 21.34 36.0399 19.88 36.0699 18.42C36.0699 18.22 36.0699 18.01 36.0699 17.79H31.1199V19.15H31.1099ZM30.7299 24.5C31.6799 24.5 32.4299 24.1 32.9399 23.28C33.4699 22.43 33.2599 21.48 33.2999 20.55H31.1799C31.0299 21.87 30.8799 23.17 30.7299 24.51V24.5Z" fill="#000"/>
<path id="Vector_2" d="M20.17 3.67C20.72 3.73 21.04 4.23 20.82 4.69C20.7 4.94 20.53 5.16 20.45 5.42C20.24 6.05 20.4 6.62 20.81 7.12C21.24 7.66 21.64 8.22 21.81 8.9C22.12 10.14 21.84 11.26 21.05 12.25C20.86 12.48 20.63 12.69 20.37 12.84C20.12 12.98 19.88 12.84 19.71 12.63C19.53 12.42 19.48 12.18 19.61 11.93C19.71 11.75 19.83 11.58 19.96 11.42C20.77 10.39 20.77 9.26 19.95 8.25C19.49 7.69 19.13 7.1 19.03 6.36C18.91 5.48 19.14 4.7 19.67 4.01C19.79 3.85 20.01 3.78 20.18 3.66L20.17 3.67Z" fill="#000"/>
<path id="Vector_3" d="M18.0899 8.33C18.1099 9.42 17.6099 10.32 16.8799 11.12C16.6499 11.37 16.2599 11.4 15.9999 11.21C15.7199 11 15.6299 10.65 15.7999 10.32C15.8899 10.15 16.0199 10 16.1399 9.85C16.9299 8.83 16.9199 7.71 16.1099 6.7C15.7099 6.21 15.3599 5.69 15.2299 5.05C15.0399 4.08 15.2399 3.21 15.8299 2.43C16.0699 2.11 16.4699 2.06 16.7799 2.29C17.0699 2.5 17.1499 2.9 16.9299 3.24C16.5199 3.85 16.3999 4.48 16.7099 5.15C16.8299 5.41 17.0199 5.63 17.1999 5.85C17.7599 6.57 18.0999 7.36 18.0899 8.32V8.33Z" fill="#000"/>
<path id="Vector_4" d="M12.43 3.73C13.08 3.72 13.4 4.23 13.17 4.71C13.04 4.97 12.87 5.21 12.79 5.48C12.6 6.11 12.78 6.68 13.19 7.18C13.76 7.86 14.18 8.61 14.26 9.51C14.38 10.79 13.86 11.83 13 12.73C12.78 12.96 12.39 12.95 12.15 12.76C11.89 12.56 11.8 12.22 11.96 11.93C12.06 11.75 12.19 11.59 12.31 11.43C13.11 10.4 13.11 9.3 12.29 8.29C11.79 7.67 11.4 7.01 11.34 6.2C11.28 5.37 11.52 4.63 12.03 3.99C12.14 3.85 12.34 3.79 12.42 3.75L12.43 3.73Z" fill="#000"/>
<path id="Vector_5" d="M27.8 21.13C27.67 24.06 26.64 26.55 24.66 28.65C24.32 29.02 23.92 29.07 23.6 28.79C23.3 28.52 23.3 28.09 23.65 27.72C24.33 26.99 24.92 26.19 25.37 25.29C26.05 23.94 26.39 22.5 26.43 20.99C26.44 20.52 26.74 20.21 27.13 20.22C27.52 20.22 27.8 20.56 27.8 21.02C27.8 21.08 27.8 21.13 27.8 21.13Z" fill="#000"/>
<path id="Vector_6" d="M21.8 30.69C21.42 30.69 21.13 30.4 21.12 30.02C21.12 29.66 21.45 29.32 21.82 29.32C22.18 29.32 22.49 29.64 22.5 30C22.5 30.38 22.19 30.69 21.81 30.69H21.8Z" fill="#000"/>
</g>
</svg>
