<svg width="38" height="38" viewBox="0 0 38 38" fill="none" xmlns="http://www.w3.org/2000/svg">
<g id="icon_rateting_daubep copy 3">
<path id="Vector" d="M32.68 28.1938C32.5744 28.2993 32.4794 28.4155 32.3633 28.5105C31.8461 28.8905 31.3394 29.2705 30.8116 29.6293C30.6427 29.7455 30.6111 29.851 30.6744 30.041C30.8961 30.6638 31.0861 31.3077 31.2972 31.9305C31.3711 32.1521 31.3816 32.3527 31.1705 32.5005C30.97 32.6377 30.7905 32.5638 30.6111 32.4371C30.0622 32.036 29.5027 31.6349 28.9539 31.2232C28.8166 31.1282 28.7322 31.1388 28.6055 31.2232C28.0672 31.6243 27.5183 32.0149 26.9694 32.416C26.79 32.5532 26.5894 32.6377 26.3889 32.4899C26.1777 32.3421 26.1989 32.131 26.2727 31.9093C26.4839 31.2655 26.6844 30.6321 26.9061 29.9882C26.9589 29.8299 26.9377 29.7455 26.79 29.6399C26.2411 29.2493 25.7027 28.8482 25.1433 28.4577C24.9533 28.3205 24.8266 28.1621 24.9005 27.9193C24.985 27.6766 25.1855 27.6449 25.4177 27.6449C26.0933 27.6449 26.7689 27.6449 27.4444 27.6449C27.6027 27.6449 27.6766 27.5921 27.7189 27.4443C27.9194 26.7899 28.1411 26.146 28.3416 25.5021C28.405 25.291 28.5211 25.1221 28.7533 25.1116C29.0066 25.1116 29.1227 25.2805 29.1861 25.5021C29.3866 26.146 29.6083 26.7793 29.7983 27.4232C29.8511 27.6027 29.9355 27.6555 30.115 27.6449C30.7694 27.6343 31.4344 27.6449 32.0889 27.6449C32.3316 27.6449 32.5216 27.7082 32.6483 27.9088V28.1727L32.68 28.1938ZM27.4233 31.0332C27.4233 31.0332 27.455 31.0543 27.4655 31.0649C27.7716 30.8432 28.0777 30.6216 28.3839 30.3893C28.7216 30.1466 28.8272 30.1466 29.165 30.3893C29.4711 30.611 29.7877 30.8432 30.0939 31.0649C30.0094 30.6427 29.8933 30.2521 29.7561 29.8721C29.6611 29.6082 29.7244 29.4077 29.9566 29.2493C30.0727 29.1755 30.1677 29.091 30.2839 29.0171C30.5055 28.8588 30.7272 28.6899 30.9489 28.5316C30.5266 28.4788 30.1255 28.4788 29.735 28.4682C29.3866 28.4682 29.2916 28.3943 29.1755 28.0566C29.0805 27.7716 28.9855 27.4866 28.9011 27.2016C28.8694 27.1066 28.8377 27.0221 28.785 26.8638C28.6372 27.3177 28.5 27.6977 28.3839 28.0777C28.2994 28.3627 28.1305 28.4788 27.835 28.4682C27.4339 28.4577 27.0222 28.4682 26.6211 28.4682C26.9061 28.7427 27.2122 28.9643 27.5077 29.186C27.8666 29.4499 27.8983 29.5343 27.7611 29.9671C27.645 30.3155 27.5289 30.6743 27.4127 31.0227L27.4233 31.0332Z" fill="#636363"/>
<path id="Vector_2" d="M21.9132 12.2128H22.2299C24.1932 12.2128 26.1566 12.2128 28.1199 12.2128C28.7004 12.2128 29.2282 12.3606 29.6293 12.8039C30.2943 13.5323 30.2732 14.5984 29.5871 15.3056C29.5449 15.3478 29.5027 15.4006 29.471 15.4428C30.4316 16.72 30.326 17.67 29.1121 18.5145C29.4816 18.9578 29.6188 19.4856 29.5132 20.045C29.4077 20.615 29.0699 21.0373 28.5949 21.3117C28.7216 21.6178 28.8799 21.8923 28.9432 22.1878C29.1649 23.2961 28.3732 24.2884 27.2438 24.3623C27.1277 24.3623 27.0116 24.3623 26.8954 24.3623C23.5599 24.3623 20.2349 24.3623 16.8993 24.3623C16.1604 24.3623 15.4532 24.2356 14.7988 23.8873C14.7354 23.8556 14.5982 23.8661 14.5454 23.9084C14.2182 24.1934 13.8382 24.2989 13.416 24.2989C12.4132 24.2989 11.4104 24.2989 10.4077 24.2989C9.41544 24.2989 8.80322 23.655 8.80322 22.6734C8.80322 20.045 8.80322 17.4167 8.80322 14.7884C8.80322 13.7961 9.426 13.1839 10.4182 13.1734C11.4316 13.1734 12.4449 13.1734 13.4582 13.1734C13.796 13.1734 14.1021 13.2473 14.3871 13.4267C14.4504 13.4689 14.5666 13.49 14.6193 13.4689C15.9599 12.8356 17.1632 12.0228 18.1027 10.8617C18.6727 10.165 18.9366 9.35226 19.0843 8.47615C19.1899 7.80059 19.306 7.12504 19.3904 6.44948C19.5066 5.58393 20.0449 5.26726 20.8577 5.60504C21.6493 5.93226 22.0821 6.56559 22.3143 7.36782C22.5466 8.17004 22.536 8.99337 22.4621 9.82726C22.3882 10.6189 22.2193 11.3789 21.9132 12.1178C21.9132 12.1389 21.9132 12.1706 21.9132 12.2234V12.2128ZM14.9888 14.25C14.9993 14.3556 15.031 14.4928 15.031 14.6195C15.031 17.3534 15.031 20.0978 15.031 22.8317C15.031 23.0323 15.1049 23.1167 15.2527 23.2011C15.7593 23.465 16.3188 23.5495 16.8782 23.5495C20.256 23.5495 23.6338 23.5495 27.0116 23.5495C27.096 23.5495 27.1699 23.5495 27.2543 23.5389C27.8454 23.465 28.2149 23.0323 28.1832 22.4728C28.1516 21.9134 27.7293 21.5334 27.1277 21.5334C26.8743 21.5334 26.6104 21.5334 26.3571 21.5334C26.0932 21.5228 25.9243 21.3539 25.9243 21.1217C25.9243 20.9 26.0827 20.7523 26.3466 20.7311C26.4521 20.7311 26.5577 20.7311 26.6632 20.7311C27.0432 20.7311 27.4338 20.7417 27.8032 20.71C28.4049 20.6573 28.7849 20.2139 28.7427 19.6334C28.711 19.1056 28.2782 18.715 27.6977 18.7045C27.3599 18.7045 27.0221 18.7045 26.6843 18.7045C26.3571 18.7045 26.1566 18.4723 26.241 18.1873C26.3043 17.9445 26.5049 17.8917 26.716 17.8917C27.2543 17.8917 27.8032 17.9023 28.3416 17.8811C28.9221 17.8495 29.3338 17.385 29.3127 16.8573C29.281 16.2978 28.8588 15.8967 28.2782 15.8861C27.7821 15.8861 27.286 15.8861 26.7899 15.8861C26.6843 15.8861 26.5788 15.8756 26.4732 15.8439C26.2938 15.7806 26.1777 15.6328 26.2304 15.4534C26.2727 15.3267 26.3888 15.1895 26.5049 15.1156C26.5893 15.0628 26.7266 15.0734 26.8427 15.0734C27.3704 15.0734 27.8877 15.0839 28.4154 15.0523C28.9854 15.0206 29.3866 14.4611 29.281 13.9017C29.186 13.3634 28.7954 13.0678 28.1938 13.0678C25.9454 13.0678 23.6971 13.0678 21.4488 13.0678C21.3643 13.0678 21.2693 13.0678 21.1849 13.0678C20.826 13.0361 20.6571 12.73 20.8471 12.4134C21.5966 11.1678 21.7654 9.79559 21.681 8.38115C21.6493 7.93782 21.491 7.48393 21.3116 7.0617C21.1216 6.62893 20.7521 6.36504 20.256 6.3017C20.2349 6.35448 20.2243 6.3967 20.2138 6.43893C20.1188 7.10393 20.0449 7.77948 19.9288 8.44448C19.8021 9.1517 19.6543 9.85893 19.3166 10.5028C18.7571 11.5478 17.9443 12.3606 16.9943 13.0256C16.361 13.4689 15.6749 13.8595 14.9993 14.2817L14.9888 14.25ZM14.0282 18.7256C14.0282 17.2795 14.0282 15.8334 14.0282 14.3873C14.0282 14.1656 13.9332 14.06 13.7432 14.0073C13.6377 13.9756 13.5216 13.965 13.4054 13.965C12.4132 13.965 11.421 13.965 10.4182 13.965C9.87989 13.965 9.59489 14.25 9.59489 14.7884C9.59489 17.4167 9.59489 20.045 9.59489 22.6734C9.59489 23.2011 9.86933 23.465 10.3971 23.465C11.3999 23.465 12.4027 23.465 13.4054 23.465C13.5532 23.465 13.7116 23.4439 13.8382 23.3806C13.9227 23.3384 14.0071 23.2011 14.0071 23.0956C14.0071 21.6389 14.0071 20.1823 14.0071 18.7256H14.0282Z" fill="#636363"/>
<path id="Vector_3" d="M16.6461 27.6662C16.9733 27.6662 17.3005 27.6556 17.6277 27.6662C17.8283 27.6662 17.9233 27.6239 17.9866 27.4128C18.1766 26.7795 18.3983 26.1462 18.5988 25.5128C18.6727 25.2912 18.7783 25.1117 19.0316 25.1223C19.2744 25.1223 19.3799 25.3017 19.4433 25.5128C19.6544 26.1673 19.8655 26.8112 20.0661 27.455C20.1188 27.6134 20.1822 27.6662 20.3405 27.6556C21.0266 27.6556 21.7127 27.6556 22.3883 27.6556C22.6099 27.6556 22.7999 27.7084 22.8844 27.93C22.9583 28.1517 22.8422 28.3206 22.6627 28.4473C22.1033 28.8484 21.5544 29.26 20.9949 29.6506C20.8472 29.7562 20.8261 29.8406 20.8788 29.9989C21.1005 30.6428 21.3011 31.2973 21.5122 31.9412C21.5861 32.1523 21.5861 32.3528 21.3961 32.49C21.1955 32.6273 21.0161 32.5639 20.8366 32.4267C20.2877 32.0256 19.7388 31.635 19.2005 31.2339C19.0527 31.1284 18.9577 31.1178 18.8099 31.2339C18.2822 31.635 17.7333 32.015 17.1949 32.4162C17.0155 32.5534 16.8255 32.6378 16.6144 32.5006C16.3822 32.3423 16.4244 32.1312 16.4983 31.8989C16.6988 31.2762 16.8994 30.6534 17.1105 30.0306C17.1844 29.83 17.1316 29.735 16.9733 29.6189C16.4349 29.2495 15.9072 28.8484 15.3794 28.4684C15.1894 28.3312 15.0522 28.1834 15.1261 27.9406C15.1999 27.6978 15.4111 27.645 15.6433 27.6556C15.9705 27.6556 16.2977 27.6556 16.6249 27.6556L16.6461 27.6662ZM19.0527 26.9378C19.0527 26.9378 19.0105 26.9378 18.9894 26.9378C18.8733 27.2967 18.7572 27.6556 18.6411 28.0039C18.5038 28.4156 18.4405 28.4684 18.0183 28.4684C17.6277 28.4684 17.2477 28.4684 16.8572 28.4684C17.1738 28.7639 17.5011 29.0173 17.8388 29.2495C18.0605 29.4078 18.1238 29.5978 18.0394 29.8512C17.9761 30.0517 17.9022 30.2523 17.8388 30.4528C17.7755 30.6428 17.7227 30.8434 17.6383 31.1073C18.0288 30.8223 18.3455 30.6006 18.6622 30.3684C18.9577 30.1573 19.0844 30.1573 19.3799 30.3684C19.6966 30.6006 20.0238 30.8328 20.4038 31.1073C20.2561 30.6428 20.1399 30.2523 20.0027 29.8723C19.9077 29.5978 19.9605 29.3867 20.2138 29.2284C20.3827 29.1228 20.5305 29.0067 20.6888 28.8906C20.8577 28.7639 21.0266 28.6373 21.2588 28.4684C20.7733 28.4684 20.3827 28.4684 19.9922 28.4684C19.6016 28.4684 19.5172 28.405 19.4011 28.0356C19.2849 27.6662 19.1583 27.3073 19.0422 26.9378H19.0527Z" fill="#636363"/>
<path id="Vector_4" d="M9.27826 31.1179C8.66604 31.5612 8.06437 31.994 7.47326 32.4268C7.29382 32.564 7.10382 32.6484 6.89271 32.5006C6.6816 32.3529 6.70271 32.1418 6.7766 31.9306C6.98771 31.2973 7.18826 30.664 7.39937 30.0412C7.46271 29.8618 7.4416 29.7668 7.28326 29.6506C6.73437 29.2706 6.2066 28.8695 5.65771 28.479C5.46771 28.3418 5.33049 28.194 5.40437 27.9512C5.48882 27.7084 5.68937 27.6662 5.9216 27.6662C6.59715 27.6662 7.27271 27.6662 7.94826 27.6662C8.1066 27.6662 8.18049 27.624 8.23326 27.4656C8.43382 26.8218 8.65549 26.1884 8.85604 25.5445C8.92993 25.3123 9.03549 25.1223 9.29937 25.1223C9.55271 25.1223 9.64771 25.3123 9.7216 25.534C9.92215 26.1779 10.1438 26.8112 10.3444 27.4551C10.3972 27.6134 10.4605 27.6556 10.6188 27.6556C11.3049 27.6556 11.991 27.6556 12.6666 27.6556C12.8883 27.6556 13.0783 27.7084 13.1522 27.9301C13.226 28.1518 13.1099 28.3206 12.9305 28.4473C12.371 28.8484 11.8327 29.2601 11.2627 29.6506C11.1149 29.7562 11.1044 29.8406 11.1572 29.999C11.3683 30.6323 11.5794 31.2762 11.7905 31.9201C11.8644 32.1418 11.8855 32.3423 11.6744 32.4901C11.4633 32.6379 11.2733 32.5429 11.0938 32.4162C10.5027 31.9834 9.90104 31.5506 9.28882 31.1073L9.27826 31.1179ZM7.12493 28.479C7.12493 28.479 7.11437 28.5212 7.10382 28.5423C7.42049 28.7745 7.73715 29.0068 8.06437 29.239C8.35993 29.4501 8.3916 29.5662 8.28604 29.9251C8.16993 30.3051 8.04326 30.6745 7.89549 31.1284C8.27549 30.854 8.60271 30.6218 8.91937 30.3895C9.21493 30.1784 9.3416 30.1784 9.63715 30.3895C9.95382 30.6218 10.281 30.854 10.661 31.1284C10.5344 30.7379 10.4394 30.4212 10.3338 30.1045C10.1438 29.5029 10.1438 29.4923 10.661 29.1229C10.9249 28.9329 11.1888 28.7323 11.4633 28.5423C11.0727 28.4895 10.7138 28.4895 10.3444 28.4895C9.82715 28.4895 9.80604 28.4684 9.64771 27.9829C9.5316 27.6345 9.41549 27.2968 9.30993 26.9484C9.13049 27.3179 9.01437 27.6873 8.89826 28.0568C8.78215 28.4051 8.68715 28.479 8.31771 28.479C7.92715 28.479 7.52604 28.479 7.13549 28.479H7.12493Z" fill="#636363"/>
<path id="Vector_5" d="M10.7033 21.4277C10.7033 20.7521 11.2733 20.2032 11.9383 20.2138C12.6033 20.2349 13.1311 20.7732 13.1311 21.4382C13.1311 22.1138 12.5822 22.6521 11.9066 22.6521C11.2311 22.6521 10.6927 22.1032 10.7033 21.4277ZM11.9172 21.0477C11.6955 21.0477 11.5055 21.2271 11.5161 21.4488C11.5161 21.6704 11.7166 21.8604 11.9277 21.8499C12.1388 21.8499 12.3183 21.6599 12.3183 21.4488C12.3183 21.2271 12.1494 21.0477 11.9172 21.0477Z" fill="#636363"/>
</g>
</svg>
