<svg width="16" height="16" viewBox="0 0 16 16" fill="none" xmlns="http://www.w3.org/2000/svg">
<path d="M13.6873 2.66247C13.6873 1.74374 12.9436 1 12.0248 1H3.97497C3.05624 1 2.3125 1.74374 2.3125 2.66247V13.3373C2.3125 14.256 3.05624 14.9998 3.97497 14.9998H12.0248C12.9436 14.9998 13.6873 14.256 13.6873 13.3373V2.66247ZM12.8123 13.3373C12.8123 13.7748 12.4623 14.1248 12.0248 14.1248H3.97497C3.53748 14.1248 3.18749 13.7748 3.18749 13.3373V2.66247C3.18749 2.22498 3.53748 1.87499 3.97497 1.87499H12.0248C12.4623 1.87499 12.8123 2.22498 12.8123 2.66247V13.3373Z" fill="#484848"/>
<path d="M5.33129 8.87569H10.4937C10.625 8.87569 10.7562 8.83194 10.8437 8.70069C10.9312 8.61319 10.9749 8.48194 10.9312 8.3507C10.7562 7.30071 10.1 6.46948 9.22498 6.07573C9.48747 5.76949 9.66247 5.37574 9.66247 4.8945C9.66247 3.93202 8.87498 3.14453 7.9125 3.14453C6.95001 3.14453 6.16253 3.93202 6.16253 4.8945C6.16253 5.332 6.33753 5.72574 6.60002 6.07573C5.72504 6.51323 5.02505 7.34446 4.8938 8.3507C4.8938 8.48194 4.8938 8.61319 4.9813 8.70069C5.0688 8.83194 5.20004 8.87569 5.33129 8.87569ZM7.03751 4.93825C7.03751 4.45701 7.43126 4.06327 7.9125 4.06327C8.39374 4.06327 8.78748 4.45701 8.78748 4.93825C8.78748 5.41949 8.39374 5.81324 7.9125 5.81324C7.43126 5.81324 7.03751 5.41949 7.03751 4.93825ZM7.9125 6.68822C8.78748 6.68822 9.57497 7.21321 9.92497 8.0007H5.90003C6.25003 7.21321 7.03751 6.68822 7.9125 6.68822Z" fill="#484848"/>
<path d="M11.4999 10.1875H4.49999C4.2375 10.1875 4.0625 10.3625 4.0625 10.625C4.0625 10.8875 4.2375 11.0625 4.49999 11.0625H11.4999C11.7624 11.0625 11.9374 10.8875 11.9374 10.625C11.9374 10.3625 11.7624 10.1875 11.4999 10.1875Z" fill="#484848"/>
<path d="M11.4999 11.9385H4.49999C4.2375 11.9385 4.0625 12.1135 4.0625 12.376C4.0625 12.6385 4.2375 12.8135 4.49999 12.8135H11.4999C11.7624 12.8135 11.9374 12.6385 11.9374 12.376C11.9374 12.1135 11.7624 11.9385 11.4999 11.9385Z" fill="#484848"/>
</svg>
