<svg width="36" height="36" viewBox="0 0 36 36" fill="none" xmlns="http://www.w3.org/2000/svg">
<g id="icon_mail 1">
<path id="Vector" d="M18.01 9.83997C21.63 9.83997 25.24 9.83997 28.86 9.83997C29.58 9.83997 30.08 10.22 30.21 10.87C30.23 10.98 30.23 11.09 30.23 11.2C30.23 15.73 30.23 20.26 30.23 24.79C30.23 25.63 29.71 26.16 28.86 26.16C25.62 26.16 22.38 26.16 19.13 26.16C15.14 26.16 11.15 26.16 7.16001 26.16C6.42001 26.16 5.92001 25.79 5.78001 25.13C5.76001 25.03 5.76001 24.92 5.76001 24.82C5.76001 20.27 5.76001 15.73 5.76001 11.18C5.76001 10.37 6.29001 9.83997 7.11001 9.83997C8.34001 9.83997 9.56001 9.83997 10.79 9.83997C13.2 9.83997 15.6 9.83997 18.01 9.83997ZM29.28 11.4C29.2 11.45 29.15 11.49 29.1 11.52C27.88 12.43 26.67 13.34 25.45 14.26C23.41 15.79 21.38 17.32 19.34 18.84C18.53 19.44 17.46 19.44 16.67 18.84C13.72 16.63 10.78 14.42 7.83001 12.21C7.47001 11.94 7.11001 11.67 6.73001 11.39V24.49C8.48001 22.33 10.2 20.21 11.91 18.09C12.13 17.82 12.4 17.76 12.63 17.94C12.86 18.12 12.87 18.4 12.65 18.67C11.08 20.61 9.50001 22.55 7.93001 24.5C7.75001 24.72 7.57001 24.95 7.38001 25.19H28.6C28.54 25.1 28.49 25.04 28.44 24.98C26.74 22.88 25.03 20.77 23.33 18.67C23.11 18.4 23.12 18.12 23.35 17.94C23.58 17.77 23.85 17.82 24.06 18.08C25.51 19.87 26.95 21.66 28.4 23.44C28.68 23.78 28.96 24.12 29.27 24.5V11.38L29.28 11.4ZM7.51001 10.8C7.58001 10.86 7.60001 10.88 7.62001 10.9C10.81 13.29 14 15.68 17.19 18.07C17.71 18.46 18.3 18.44 18.84 18.04C22 15.67 25.15 13.31 28.31 10.94C28.36 10.91 28.4 10.87 28.47 10.8H7.51001Z" fill="#484848"/>
</g>
</svg>
