<svg width="36" height="36" viewBox="0 0 36 36" fill="none" xmlns="http://www.w3.org/2000/svg">
<g id="icon_touch 1">
<path id="Vector" d="M8.65997 21.09C8.63997 18.43 9.63997 16.24 11.63 14.49C13.11 13.19 14.84 12.44 16.79 12.21C19.25 11.92 21.51 12.47 23.54 13.91C25.38 15.21 26.6 16.96 27.11 19.17C27.31 20.02 27.43 20.89 27.23 21.76C26.89 23.21 25.61 24.25 24.12 24.36C22.54 24.48 21.2 23.59 20.64 22.4C20.42 21.93 20.36 21.43 20.32 20.92C20.25 19.96 19.71 19.33 18.85 19C17.82 18.6 16.78 18.9 16.08 19.74C15.78 20.1 15.61 20.53 15.62 21C15.64 23.04 16.37 24.78 17.81 26.22C18.8 27.2 19.98 27.83 21.31 28.21C21.46 28.25 21.61 28.33 21.72 28.44C21.91 28.62 21.92 28.86 21.78 29.09C21.66 29.3 21.41 29.4 21.17 29.34C19.36 28.88 17.82 27.98 16.58 26.57C15.38 25.2 14.7 23.61 14.51 21.8C14.42 20.95 14.46 20.11 14.94 19.36C15.68 18.22 16.74 17.67 18.09 17.69C19.67 17.72 21.01 18.78 21.37 20.32C21.45 20.64 21.44 20.98 21.49 21.31C21.63 22.19 22.15 22.77 22.96 23.07C24 23.46 25.02 23.17 25.73 22.32C26.07 21.91 26.21 21.42 26.18 20.88C26.14 19.98 25.98 19.11 25.64 18.28C25.18 17.14 24.47 16.17 23.55 15.36C22.4 14.35 21.08 13.7 19.58 13.44C16.53 12.92 13.89 13.73 11.74 15.98C10.64 17.13 9.98997 18.53 9.83997 20.13C9.68997 21.78 9.91997 23.38 10.48 24.94C10.56 25.16 10.64 25.37 10.51 25.6C10.4 25.79 10.23 25.92 9.99997 25.9C9.74997 25.88 9.54997 25.76 9.46997 25.5C9.27997 24.85 9.03997 24.21 8.91997 23.55C8.75997 22.75 8.69997 21.93 8.58997 21.12C8.60997 21.12 8.62997 21.12 8.64997 21.12L8.65997 21.09Z" fill="#484848"/>
<path id="Vector_2" d="M12.7201 21.1801C12.7201 22.6301 13.0201 24.0101 13.7001 25.2901C14.2101 26.2501 14.8301 27.1201 15.6001 27.8901C15.6801 27.9701 15.7701 28.0601 15.8401 28.1501C16.0501 28.4001 16.0501 28.7301 15.8201 28.9501C15.6001 29.1601 15.2601 29.1701 15.0301 28.9301C14.6901 28.5801 14.3501 28.2301 14.0401 27.8501C12.8501 26.4001 12.0101 24.7801 11.7101 22.9101C11.5301 21.7401 11.4501 20.5601 11.7901 19.4001C12.1701 18.1001 12.9101 17.0501 13.9901 16.2401C15.4001 15.1801 17.0001 14.7301 18.7401 14.9601C21.3501 15.3001 23.1901 16.6901 24.1201 19.1901C24.3301 19.7601 24.4101 20.3601 24.4201 20.9701C24.4201 21.3001 24.1801 21.5701 23.8801 21.5901C23.6001 21.6101 23.3401 21.3801 23.2901 21.0601C23.2201 20.6201 23.2101 20.1801 23.0901 19.7501C22.6901 18.3001 21.7701 17.2501 20.4301 16.6101C18.6301 15.7501 16.8401 15.8201 15.1201 16.8401C13.7301 17.6701 12.9301 18.9101 12.7101 20.5201C12.7101 20.5501 12.7101 20.5801 12.7101 20.6101C12.7101 20.8001 12.7101 20.9901 12.7101 21.1901L12.7201 21.1801Z" fill="#484848"/>
<path id="Vector_3" d="M17.79 9.42003C20.25 9.43003 22.37 9.94003 24.32 11.05C25.83 11.91 27.07 13.05 28.09 14.45C28.28 14.72 28.23 15.08 27.98 15.26C27.73 15.45 27.37 15.39 27.16 15.1C26.45 14.13 25.62 13.29 24.64 12.59C23.33 11.66 21.89 11.06 20.32 10.76C17.94 10.31 15.62 10.52 13.38 11.47C11.6 12.22 10.14 13.39 8.98 14.93C8.92 15.01 8.86 15.1 8.79 15.18C8.58 15.42 8.24 15.46 7.99 15.28C7.76 15.11 7.7 14.74 7.89 14.49C8.88 13.1 10.11 11.96 11.58 11.1C13.11 10.2 14.77 9.69003 16.52 9.49003C17.01 9.43003 17.51 9.43003 17.78 9.41003L17.79 9.42003Z" fill="#484848"/>
<path id="Vector_4" d="M18.03 6.65001C20.44 6.64001 22.69 7.25001 24.82 8.36001C25.12 8.52001 25.24 8.85001 25.11 9.12001C24.97 9.41001 24.65 9.52002 24.34 9.38001C23.65 9.08001 22.97 8.76001 22.27 8.49001C21.28 8.11001 20.25 7.91001 19.19 7.83001C17.44 7.69001 15.72 7.83001 14.06 8.38001C13.28 8.64001 12.54 9.02001 11.78 9.32001C11.61 9.39001 11.41 9.42002 11.23 9.39002C11.02 9.35002 10.88 9.17001 10.87 8.94001C10.85 8.67001 10.96 8.46002 11.21 8.35002C11.94 8.03002 12.65 7.67001 13.4 7.40001C14.9 6.86001 16.46 6.64001 18.04 6.64001L18.03 6.65001Z" fill="#484848"/>
<path id="Vector_5" d="M23.59 27.02C21.81 27.02 20.26 26.44 19.03 25.12C17.98 23.99 17.39 22.65 17.37 21.09C17.37 20.73 17.59 20.47 17.91 20.46C18.21 20.45 18.47 20.69 18.49 21.03C18.53 21.77 18.66 22.5 19.02 23.16C19.81 24.63 21 25.57 22.68 25.82C23.34 25.92 24 25.89 24.66 25.79C25.06 25.73 25.37 25.92 25.42 26.28C25.47 26.58 25.23 26.86 24.86 26.92C24.74 26.94 24.63 26.96 24.51 26.97C24.2 26.99 23.89 27.01 23.58 27.03L23.59 27.02Z" fill="#484848"/>
</g>
</svg>
