<svg width="10" height="14" viewBox="0 0 10 14" fill="none" xmlns="http://www.w3.org/2000/svg">
<path d="M9.55892 3.16037L7.08654 0.821342C6.82356 0.572547 6.47936 0.435547 6.11736 0.435547H1.41026C0.632641 0.435547 0 1.06819 0 1.8458V12.1535C0 12.9311 0.632641 13.5638 1.41026 13.5638H8.58974C9.36736 13.5638 10 12.9311 10 12.1535V4.18483C10 3.79896 9.83923 3.42555 9.55892 3.16037ZM8.81182 3.51247H6.89744C6.82674 3.51247 6.76923 3.45496 6.76923 3.38426V1.58006L8.81182 3.51247ZM8.58974 12.7945H1.41026C1.05679 12.7945 0.769231 12.507 0.769231 12.1535V1.8458C0.769231 1.49234 1.05679 1.20478 1.41026 1.20478H6V3.38426C6 3.87911 6.40259 4.2817 6.89744 4.2817H9.23077V12.1535C9.23077 12.507 8.9432 12.7945 8.58974 12.7945Z" fill="#484848"/>
<path d="M7.74366 5.56348H2.10263C1.89022 5.56348 1.71802 5.73568 1.71802 5.94809C1.71802 6.1605 1.89022 6.33271 2.10263 6.33271H7.74366C7.95607 6.33271 8.12827 6.1605 8.12827 5.94809C8.12827 5.73568 7.95607 5.56348 7.74366 5.56348Z" fill="#484848"/>
<path d="M7.74366 7.61523H2.10263C1.89022 7.61523 1.71802 7.78744 1.71802 7.99985C1.71802 8.21226 1.89022 8.38447 2.10263 8.38447H7.74366C7.95607 8.38447 8.12827 8.21226 8.12827 7.99985C8.12827 7.78744 7.95607 7.61523 7.74366 7.61523Z" fill="#484848"/>
<path d="M3.96725 9.66602H2.10263C1.89022 9.66602 1.71802 9.83822 1.71802 10.0506C1.71802 10.263 1.89022 10.4352 2.10263 10.4352H3.96725C4.17966 10.4352 4.35186 10.263 4.35186 10.0506C4.35186 9.83822 4.17966 9.66602 3.96725 9.66602Z" fill="#484848"/>
</svg>
