<svg width="40" height="40" viewBox="0 0 40 40" fill="none" xmlns="http://www.w3.org/2000/svg">
<g id="icon_hoaqua 1">
<path id="Vector" d="M5.75004 22.56C5.32004 22.22 4.93004 21.91 4.54004 21.6C4.18004 21.32 3.95004 20.99 4.07004 20.52C4.19004 20.06 4.51004 19.83 4.98004 19.77C5.90004 19.66 6.82004 19.51 7.75004 19.46C9.03004 19.39 10.12 19.87 11.03 20.76C11.35 20.45 11.68 20.15 12 19.83C12.05 19.79 12.06 19.69 12.06 19.62C11.88 17.96 11.69 16.31 11.51 14.65C11.49 14.41 11.37 14.34 11.17 14.27C9.80004 13.83 8.55004 13.17 7.58004 12.1C7.23004 11.72 7.01004 11.22 6.74004 10.78C6.26004 10.88 5.75004 11 5.23004 11.11C4.42004 11.27 3.72004 10.7 3.77004 9.83C3.85004 8.34 4.58004 6.81 6.62004 6.4C6.08004 5.93 5.58004 5.48 4.92004 5.27C4.46004 5.12 4.29004 4.89 4.40004 4.52C4.50004 4.18 4.88004 3.99 5.26004 4.19C5.89004 4.51 6.48004 4.92 7.08004 5.29C7.20004 5.37 7.31004 5.47 7.46004 5.6C7.51004 5.41 7.55004 5.25 7.60004 5.1C8.12004 3.19 9.99004 2.6 11.28 2.71C11.88 2.76 12.31 3.38 12.21 4.04C12.13 4.59 11.99 5.14 11.87 5.73C12.01 5.79 12.19 5.87 12.38 5.95C13.28 6.36 13.87 7.09 14.35 7.91C14.71 8.52 15 9.18 15.28 9.83C15.36 10.02 15.45 10.08 15.65 10.08C18.67 10.08 21.69 10.08 24.71 10.08C24.93 10.08 25.03 10 25.1 9.8C25.41 8.93 25.73 8.05 26.07 7.19C26.15 6.99 26.29 6.79 26.46 6.66C28.26 5.38 30.08 4.12 31.89 2.85C32.14 2.68 32.39 2.57 32.67 2.75C33.03 2.99 33.01 3.45 32.61 3.74C31.83 4.3 31.03 4.85 30.24 5.4C29.28 6.07 28.32 6.73 27.37 7.41C27.23 7.51 27.09 7.68 27.03 7.84C26.75 8.55 26.49 9.28 26.21 10.03C26.34 10.03 26.43 10.05 26.53 10.05C27.25 10.05 27.96 10.05 28.68 10.05C30.05 10.05 30.78 10.87 30.62 12.22C30.34 14.65 30.08 17.09 29.8 19.52C29.59 21.42 29.36 23.33 29.16 25.23C29.15 25.37 29.24 25.55 29.34 25.66C31.73 28.06 34.1 30.47 36.52 32.83C37.22 33.51 37.16 34.35 36.4 34.93C33.79 36.9 30.93 37.42 27.8 36.48C27.69 36.45 27.51 36.48 27.42 36.54C27.07 36.81 26.69 36.94 26.25 36.94C22.7 36.94 19.14 36.94 15.59 36.94C15.16 36.94 14.77 36.8 14.42 36.54C14.33 36.47 14.15 36.45 14.05 36.5C12.98 36.99 11.9 37.08 10.78 36.67C10.69 36.64 10.58 36.62 10.5 36.66C8.76004 37.32 7.26004 36.76 5.93004 35.65C4.11004 34.13 3.16004 32.1 2.76004 29.8C2.55004 28.57 2.56004 27.34 2.87004 26.12C3.29004 24.5 4.09004 23.2 5.76004 22.56H5.75004ZM22.31 17.23C22.18 17.19 22.07 17.16 21.96 17.13C20.91 16.87 19.89 16.99 18.91 17.45C17.88 17.93 16.82 18.16 15.68 18.03C14.85 17.94 14.1 17.65 13.37 17.27C13.23 17.2 13.08 17.13 12.9 17.04C12.99 17.85 13.08 18.58 13.16 19.31C13.35 21.04 13.54 22.78 13.73 24.52C13.92 26.25 14.12 27.99 14.32 29.72C14.52 31.52 14.72 33.32 14.92 35.13C14.98 35.69 15.14 35.81 15.72 35.81C19.07 35.81 22.42 35.81 25.77 35.81C25.88 35.81 25.98 35.81 26.18 35.81C25.98 35.68 25.87 35.61 25.76 35.54C21.06 32.58 20.05 26.15 23.61 21.9C24.14 21.26 24.85 21.22 25.44 21.8C26.23 22.58 27.01 23.37 27.8 24.16C27.88 24.24 27.96 24.31 28.08 24.42C28.36 21.94 28.63 19.52 28.91 17.01C27.13 18.08 25.32 18.42 23.39 17.67C23.34 17.79 23.3 17.88 23.26 17.97C21.44 22.89 19.62 27.82 17.8 32.74C17.67 33.08 17.56 33.42 17.41 33.75C17.29 34.01 17.06 34.14 16.77 34.06C16.48 33.99 16.31 33.74 16.35 33.45C16.37 33.33 16.41 33.21 16.45 33.09C17.93 29.08 19.41 25.07 20.9 21.06C21.37 19.79 21.84 18.52 22.32 17.23H22.31ZM10.03 24.67C9.51004 24.42 9.03004 24.22 8.58004 23.97C6.92004 23.06 5.30004 23.53 4.41004 25.19C4.02004 25.92 3.82004 26.71 3.77004 27.53C3.65004 29.42 4.07004 31.2 5.02004 32.84C5.66004 33.96 6.49004 34.91 7.69004 35.48C8.54004 35.88 9.41004 35.95 10.27 35.5C10.53 35.36 10.76 35.41 11.01 35.53C11.88 35.96 12.75 35.86 13.59 35.45C13.68 35.4 13.78 35.22 13.77 35.11C13.62 33.64 13.45 32.18 13.29 30.72C13.12 29.16 12.94 27.59 12.77 26.03C12.7 25.38 12.62 24.74 12.55 24.09C12.09 24.28 11.66 24.45 11.2 24.64C11.2 24.9 11.21 25.19 11.2 25.48C11.18 25.85 10.93 26.08 10.59 26.07C10.26 26.05 10.06 25.83 10.06 25.45C10.06 25.17 10.06 24.89 10.06 24.68L10.03 24.67ZM24.52 11.23C24.44 11.21 24.42 11.21 24.4 11.21C20.6 11.21 16.8 11.21 12.99 11.21C12.52 11.21 12.29 11.44 12.34 11.91C12.45 13.06 12.59 14.21 12.7 15.36C12.72 15.6 12.82 15.74 13.05 15.84C13.41 15.99 13.76 16.18 14.12 16.36C15.55 17.1 16.98 17.11 18.43 16.42C19.72 15.8 21.06 15.68 22.43 16.08C22.67 16.15 22.75 16.08 22.82 15.87C23.08 15.15 23.35 14.42 23.61 13.7C23.91 12.88 24.21 12.07 24.52 11.23ZM35.06 33.07C31.9 35.61 28.02 34.77 25.97 32.83C24.77 31.7 24.03 30.33 23.82 28.69C23.56 26.69 24.1 24.9 25.34 23.37C25.07 23.08 24.82 22.81 24.58 22.55C22.02 25.33 21.71 30.4 25.17 33.63C28.56 36.8 33.42 36.15 35.86 33.81C35.6 33.56 35.34 33.31 35.07 33.06L35.06 33.07ZM23.76 16.58C24.63 16.93 25.51 17.08 26.37 16.81C27.25 16.54 28.08 16.11 28.92 15.72C29.01 15.68 29.06 15.5 29.08 15.38C29.21 14.24 29.33 13.11 29.45 11.97C29.5 11.44 29.29 11.21 28.76 11.2C27.85 11.2 26.94 11.21 26.04 11.2C25.79 11.2 25.71 11.3 25.63 11.5C25.37 12.22 25.1 12.94 24.84 13.67C24.49 14.63 24.13 15.6 23.77 16.59L23.76 16.58ZM14.12 10.06C13.8 9.17 13.36 8.43 12.81 7.74C12.39 7.21 11.85 6.88 11.2 6.75C11.07 6.72 10.9 6.75 10.79 6.81C10.17 7.19 9.51004 7.43 8.78004 7.45C8.58004 7.45 8.53004 7.54 8.53004 7.72C8.51004 8.35 8.36004 8.97 8.01004 9.49C7.76004 9.87 7.78004 10.21 7.96004 10.56C8.11004 10.87 8.27004 11.21 8.51004 11.44C9.30004 12.21 10.24 12.74 11.32 13.11C11.28 12.78 11.25 12.48 11.21 12.18C11.04 10.96 11.8 10.06 13.03 10.06C13.38 10.06 13.73 10.06 14.13 10.06H14.12ZM24.93 27.19H29.16C28.16 26.19 27.17 25.2 26.17 24.19C25.46 25.05 25.06 26.05 24.93 27.19ZM31.22 29.3V33.49C32.35 33.37 33.35 32.96 34.2 32.27C33.2 31.27 32.21 30.29 31.22 29.31V29.3ZM30.03 33.49V29.29C29.04 30.27 28.06 31.26 27.05 32.26C27.9 32.96 28.9 33.36 30.03 33.5V33.49ZM26.12 31.32C27.12 30.32 28.1 29.34 29.05 28.39H24.93C25.06 29.53 25.47 30.52 26.12 31.32ZM5.43004 20.85C6.29004 21.62 7.18004 22.21 8.21004 22.55C8.79004 22.74 9.40004 22.71 9.97004 22.48C10.44 22.29 10.53 21.91 10.17 21.55C9.73004 21.09 9.19004 20.78 8.55004 20.68C7.52004 20.52 6.50004 20.6 5.42004 20.85H5.43004ZM11.03 3.85C9.42004 3.8 8.45004 4.95 8.58004 6.32C10.18 6.3 11.01 5.35 11.03 3.85ZM7.38004 7.48C5.78004 7.45 4.82004 8.58 4.95004 9.96C6.46004 9.96 7.41004 9.04 7.38004 7.48ZM11.26 23.41C11.66 23.2 12 23.02 12.34 22.83C12.37 22.81 12.39 22.73 12.38 22.68C12.33 22.21 12.28 21.74 12.21 21.2C11.66 21.86 11.37 22.55 11.25 23.41H11.26Z" fill="#000"/>
<path id="Vector_2" d="M16.5999 19.23C17.7099 19.23 18.5999 20.09 18.6099 21.19C18.6199 22.31 17.7399 23.21 16.6299 23.21C15.5099 23.21 14.5999 22.32 14.6099 21.22C14.6099 20.13 15.5099 19.24 16.5999 19.23ZM17.4599 21.23C17.4599 20.74 17.0799 20.36 16.5999 20.37C16.1399 20.37 15.7599 20.77 15.7499 21.22C15.7499 21.69 16.1499 22.09 16.6199 22.08C17.0899 22.08 17.4499 21.7 17.4499 21.23H17.4599Z" fill="#255D54"/>
<path id="Vector_3" d="M16.91 28.38C16.91 28.69 16.65 28.93 16.34 28.93C16.01 28.93 15.75 28.67 15.77 28.35C15.79 28.04 16.04 27.81 16.36 27.82C16.68 27.82 16.92 28.08 16.92 28.39L16.91 28.38Z" fill="#255D54"/>
<path id="Vector_4" d="M15.77 24.95C16.09 24.95 16.32 25.19 16.32 25.51C16.32 25.84 16.08 26.08 15.74 26.07C15.42 26.06 15.2 25.82 15.21 25.5C15.21 25.18 15.45 24.95 15.77 24.96V24.95Z" fill="#255D54"/>
<path id="Vector_5" d="M4.82996 28.2C4.89996 27.26 5.05996 26.36 5.52996 25.55C5.73996 25.18 6.03996 24.92 6.42996 24.76C6.77996 24.62 7.09996 24.72 7.23996 25.02C7.36996 25.32 7.23996 25.57 6.93996 25.79C6.72996 25.94 6.51996 26.15 6.41996 26.37C5.94996 27.47 5.89996 28.6 6.21996 29.76C6.23996 29.85 6.26996 29.93 6.28996 30.02C6.35996 30.38 6.20996 30.65 5.88996 30.74C5.58996 30.82 5.26996 30.65 5.19996 30.3C5.05996 29.61 4.94996 28.9 4.82996 28.2Z" fill="#255D54"/>
<path id="Vector_6" d="M12.33 8.92C12.33 9.22 12.06 9.49 11.76 9.49C11.45 9.49 11.18 9.22 11.19 8.9C11.19 8.6 11.47 8.34 11.76 8.34C12.06 8.34 12.33 8.62 12.33 8.91V8.92Z" fill="#255D54"/>
<path id="Vector_7" d="M10.03 10.07C10.34 10.07 10.59 10.31 10.6 10.62C10.61 10.94 10.38 11.19 10.07 11.21C9.73998 11.23 9.48998 10.99 9.47998 10.65C9.47998 10.34 9.71998 10.08 10.03 10.07Z" fill="#255D54"/>
</g>
</svg>
