<svg width="222" height="197" viewBox="0 0 222 197" fill="none" xmlns="http://www.w3.org/2000/svg">
<path d="M85.8301 75.5179C99.7501 89.0638 88.079 116.797 90.6488 128.04C93.2187 139.283 106.068 152.294 109.923 163.216C113.777 174.138 113.296 183.133 102.855 190.842C92.4155 198.552 76.8877 204.72 50.8151 171.889C43.8401 163.105 20.6197 143.942 17.246 125.47C13.873 106.999 20.6197 90.9377 35.2356 80.1762C49.8516 69.4146 68.9784 59.1199 85.8301 75.5179Z" fill="#DDE1FF"/>
<path d="M15.1112 105.412C15.1112 109.119 11.7282 112.124 7.55599 112.124C3.38299 112.124 0 109.119 0 105.412C0 101.705 3.38299 98.7001 7.55599 98.7001C11.7282 98.7001 15.1112 101.705 15.1112 105.412Z" fill="#DDE1FF"/>
<path d="M20.595 92.0518C18.3731 95.4564 13.3221 96.096 9.31423 93.4798C5.30633 90.8637 3.859 85.9832 6.0809 82.5794C8.30279 79.1748 13.3537 78.5352 17.3609 81.1514C21.3688 83.7667 22.8169 88.6472 20.595 92.0518Z" fill="#DDE1FF"/>
<path d="M31.3071 79.9245C27.3354 82.0893 22.05 80.0534 19.5017 75.3781C16.9535 70.7021 18.1076 65.1574 22.0793 62.9926C26.0509 60.8285 31.3364 62.8638 33.8847 67.539C36.4329 72.215 35.2787 77.7597 31.3071 79.9245Z" fill="#DDE1FF"/>
<path d="M50.468 67.6773C45.3352 69.5127 39.4225 66.1012 37.2616 60.0588C35.1014 54.0157 37.5115 47.6286 42.6443 45.794C47.7778 43.9586 53.6905 47.3693 55.8507 53.4124C58.0116 59.4555 55.6015 65.8419 50.468 67.6773Z" fill="#DDE1FF"/>
<path d="M73.1305 64.2075C65.8939 63.4352 60.7141 56.373 61.5619 48.4328C62.409 40.4926 68.9621 34.6817 76.1987 35.4548C83.4353 36.2263 88.6143 43.2893 87.7672 51.2295C86.9193 59.1689 80.3663 64.9798 73.1305 64.2075Z" fill="#DDE1FF"/>
<path d="M136.171 40.1337C122.25 53.6788 133.922 81.4124 131.352 92.6553C128.782 103.899 115.932 116.909 112.078 127.831C108.223 138.753 108.705 147.748 119.145 155.457C129.585 163.167 145.113 169.335 171.185 136.504C178.161 127.72 201.381 108.557 204.754 90.0855C208.127 71.6144 201.381 55.5527 186.765 44.7912C172.148 34.0304 153.022 23.7356 136.171 40.1337Z" fill="#DDE1FF"/>
<path d="M206.89 70.0263C206.89 73.7333 210.272 76.7383 214.445 76.7383C218.618 76.7383 222 73.7333 222 70.0263C222 66.3201 218.618 63.3151 214.445 63.3151C210.272 63.3151 206.89 66.3201 206.89 70.0263Z" fill="#DDE1FF"/>
<path d="M201.406 56.6697C203.628 60.0735 208.678 60.7131 212.686 58.097C216.694 55.4816 218.142 50.6011 215.919 47.1966C213.697 43.792 208.647 43.1532 204.639 45.7685C200.631 48.3847 199.184 53.2651 201.406 56.6697Z" fill="#DDE1FF"/>
<path d="M190.693 44.5396C194.665 46.7044 199.951 44.6692 202.499 39.9932C205.047 35.318 203.893 29.7725 199.921 27.6084C195.95 25.4436 190.664 27.4789 188.116 32.1549C185.568 36.8301 186.722 42.3756 190.693 44.5396Z" fill="#DDE1FF"/>
<path d="M171.532 32.2958C176.665 34.1304 182.578 30.7196 184.738 24.6765C186.899 18.6334 184.489 12.247 179.356 10.4116C174.223 8.57624 168.31 11.9878 166.149 18.0309C163.989 24.074 166.399 30.4604 171.532 32.2958Z" fill="#DDE1FF"/>
<path d="M148.87 28.8217C156.107 28.0495 161.286 20.9873 160.439 13.0471C159.592 5.10765 153.039 -0.703243 145.802 0.0690193C138.565 0.841284 133.386 7.90354 134.233 15.8437C135.081 23.7839 141.634 29.594 148.87 28.8217Z" fill="#DDE1FF"/>
</svg>
