<svg width="36" height="36" viewBox="0 0 36 36" fill="none" xmlns="http://www.w3.org/2000/svg">
<g id="icon_menu 3">
<path id="Vector" d="M11.78 23.0199C11.68 22.9999 11.6 22.9899 11.52 22.9699C11.36 22.9199 11.26 22.8199 11.22 22.6599C11.2 22.5899 11.19 22.5099 11.19 22.4399C11.19 21.2999 11.19 20.1499 11.19 19.0099C11.19 18.8299 11.23 18.6699 11.39 18.5599C11.43 18.5299 11.48 18.5099 11.53 18.4999C11.56 18.4899 11.57 18.4699 11.57 18.4399C11.54 17.6199 11.5 16.8099 11.47 15.9899C11.44 15.2599 11.41 14.5199 11.38 13.7899C11.36 13.2099 11.33 12.6399 11.3 12.0599C11.28 11.4799 11.25 10.8999 11.23 10.3199C11.23 10.1599 11.21 9.99988 11.21 9.83988C11.18 9.83988 11.17 9.83988 11.15 9.83988C10.85 9.83988 10.55 9.83988 10.25 9.82988C9.61 9.80988 9.07 9.33988 8.96 8.69988C8.82 7.93988 9.39 7.18988 10.16 7.12988C10.3 7.11988 10.3 7.11988 10.3 6.97988C10.3 6.71988 10.3 6.45988 10.35 6.20988C10.46 5.69988 10.7 5.27988 11.1 4.93988C11.41 4.67988 11.76 4.50988 12.15 4.42988C12.33 4.39988 12.52 4.37988 12.7 4.37988C16.24 4.37988 19.79 4.37988 23.33 4.37988C23.67 4.37988 24 4.41988 24.31 4.55988C24.78 4.75988 25.15 5.06988 25.4 5.51988C25.53 5.74988 25.64 5.99988 25.67 6.25988C25.7 6.49988 25.7 6.74988 25.71 6.98988C25.71 7.10988 25.71 7.10988 25.83 7.11988C26.1 7.13988 26.34 7.22988 26.54 7.39988C26.98 7.75988 27.16 8.21988 27.03 8.76988C26.9 9.32988 26.54 9.66988 25.98 9.79988C25.83 9.82988 25.67 9.82988 25.52 9.83988C25.3 9.83988 25.08 9.83988 24.86 9.83988C24.82 9.83988 24.8 9.83988 24.8 9.89988C24.78 10.4699 24.75 11.0399 24.73 11.6099C24.69 12.4899 24.66 13.3599 24.62 14.2399C24.6 14.8199 24.58 15.3999 24.55 15.9799C24.52 16.7299 24.48 17.4799 24.45 18.2299C24.45 18.2999 24.45 18.3799 24.45 18.4499C24.45 18.4899 24.45 18.5099 24.5 18.5199C24.72 18.5899 24.81 18.7599 24.83 18.9799C24.83 18.9999 24.83 19.0299 24.83 19.0499C24.83 20.1799 24.83 21.3199 24.83 22.4499C24.83 22.5799 24.83 22.6999 24.75 22.8099C24.66 22.9399 24.54 22.9999 24.39 23.0099C24.35 23.0099 24.31 23.0099 24.25 23.0299C24.25 23.1199 24.25 23.2099 24.25 23.2899C24.23 23.6999 24.22 24.1099 24.2 24.5099C24.18 24.8899 24.17 25.2699 24.16 25.6499C24.14 26.2399 24.12 26.8399 24.09 27.4299C24.06 28.1399 24.03 28.8399 24 29.5499C23.99 29.8199 23.98 30.0899 23.96 30.3599C23.91 30.9099 23.63 31.2999 23.12 31.5299C22.93 31.6199 22.72 31.6399 22.52 31.6399C19.53 31.6399 16.54 31.6399 13.56 31.6399C13.1 31.6399 12.7 31.4899 12.4 31.1199C12.21 30.8899 12.12 30.6199 12.1 30.3299C12.08 29.9499 12.06 29.5699 12.05 29.1899C12.02 28.5999 12 28.0199 11.98 27.4299C11.96 26.8299 11.93 26.2199 11.91 25.6199C11.88 24.9199 11.85 24.2199 11.82 23.5299C11.82 23.3599 11.82 23.1799 11.82 23.0099L11.78 23.0199ZM12.48 18.4599H12.68C16.23 18.4599 19.77 18.4599 23.32 18.4599C23.38 18.4599 23.43 18.4599 23.49 18.4599C23.53 18.4599 23.54 18.4499 23.54 18.4099C23.54 18.2999 23.54 18.1999 23.54 18.0899C23.57 17.3999 23.6 16.7099 23.63 16.0199C23.65 15.4299 23.67 14.8399 23.7 14.2399C23.72 13.6699 23.75 13.0999 23.78 12.5199C23.82 11.6599 23.85 10.8099 23.89 9.94988C23.89 9.90988 23.89 9.86988 23.89 9.81988H12.13C12.25 12.6999 12.37 15.5699 12.49 18.4499L12.48 18.4599ZM12.67 23.0099C12.67 23.0099 12.67 23.0499 12.67 23.0699C12.69 23.5499 12.71 24.0399 12.73 24.5199C12.75 25.0599 12.77 25.5999 12.79 26.1399C12.8 26.4499 12.82 26.7699 12.83 27.0799C12.85 27.6199 12.87 28.1599 12.89 28.6999C12.9 29.0699 12.92 29.4399 12.93 29.7999C12.93 29.9699 12.93 30.1399 12.96 30.2999C12.98 30.5299 13.13 30.6699 13.36 30.6999C13.44 30.7099 13.52 30.7099 13.6 30.7099C16.55 30.7099 19.51 30.7099 22.46 30.7099C22.48 30.7099 22.51 30.7099 22.53 30.7099C22.8 30.7099 23 30.5299 23.01 30.2699C23.02 29.9699 23.04 29.6699 23.05 29.3699C23.06 28.9999 23.08 28.6399 23.09 28.2699C23.12 27.5799 23.15 26.8799 23.18 26.1899C23.2 25.6099 23.22 25.0399 23.25 24.4599C23.27 23.9899 23.29 23.5099 23.31 23.0399C23.31 23.0199 23.31 23.0099 23.31 22.9899H12.65L12.67 23.0099ZM23.9 19.3699H12.09V22.0899H23.9V19.3699ZM24.8 7.08988C24.8 6.89988 24.81 6.71988 24.8 6.53988C24.76 6.03988 24.51 5.66988 24.07 5.42988C23.85 5.30988 23.6 5.27988 23.35 5.27988C19.84 5.27988 16.34 5.27988 12.83 5.27988C12.69 5.27988 12.56 5.27988 12.42 5.28988C12.07 5.31988 11.78 5.46988 11.55 5.71988C11.18 6.10988 11.17 6.59988 11.2 7.08988H24.81H24.8ZM17.99 8.90988C20.45 8.90988 22.91 8.90988 25.37 8.90988C25.5 8.90988 25.62 8.90988 25.75 8.90988C25.98 8.89988 26.15 8.71988 26.16 8.48988C26.17 8.25988 26.02 8.04988 25.8 8.01988C25.65 7.99988 25.5 7.99988 25.34 7.99988C21.73 7.99988 18.13 7.99988 14.52 7.99988C14.44 7.99988 14.35 7.99988 14.27 7.99988C13.02 7.99988 11.77 7.99988 10.53 7.99988C10.42 7.99988 10.31 7.99988 10.21 8.01988C9.97 8.04988 9.82 8.24988 9.83 8.48988C9.84 8.71988 10.02 8.89988 10.25 8.90988C10.4 8.90988 10.54 8.90988 10.69 8.90988C13.13 8.90988 15.56 8.90988 18 8.90988H17.99Z" fill="#000"/>
</g>
</svg>
