<svg width="36" height="36" viewBox="0 0 36 36" fill="none" xmlns="http://www.w3.org/2000/svg">
<g id="icon_call 1">
<path id="Vector" d="M5.64 14.78C5.68 13.01 6.22 11.67 7.29 10.55C7.62 10.21 7.95001 9.87003 8.3 9.54003C8.9 8.95003 9.72 8.95003 10.32 9.54003C11.59 10.8 12.85 12.06 14.11 13.33C14.7 13.93 14.7 14.75 14.11 15.35C13.61 15.86 13.1 16.36 12.59 16.87C12.13 17.33 12.09 17.75 12.45 18.29C13.87 20.41 15.63 22.17 17.76 23.57C18.2 23.86 18.65 23.8 19.05 23.41C19.56 22.91 20.06 22.4 20.57 21.89C21.22 21.24 22.03 21.24 22.67 21.89C23.91 23.13 25.15 24.37 26.39 25.61C27.02 26.24 27.03 27.06 26.39 27.68C25.84 28.22 25.31 28.81 24.69 29.24C22.85 30.52 20.85 30.7 18.83 29.7C13.66 27.16 9.71 23.31 6.9 18.29C6.48 17.54 6.02 16.79 5.83 15.93C5.73 15.47 5.67 15 5.63 14.75L5.64 14.78ZM21.39 29.37C22.45 29.35 23.43 29.06 24.25 28.4C24.77 27.98 25.23 27.49 25.7 27.03C25.95 26.78 25.95 26.56 25.7 26.3C24.47 25.06 23.23 23.83 22 22.6C21.72 22.32 21.52 22.33 21.24 22.6C20.72 23.12 20.2 23.65 19.67 24.17C19.01 24.82 18.02 24.93 17.26 24.4C16.55 23.91 15.83 23.41 15.19 22.84C13.84 21.64 12.6 20.34 11.62 18.81C11.05 17.91 11.14 16.98 11.89 16.23C12.38 15.74 12.87 15.25 13.36 14.76C13.67 14.45 13.67 14.27 13.36 13.95C13.09 13.68 12.83 13.42 12.56 13.15C11.61 12.2 10.66 11.25 9.71 10.3C9.42 10.01 9.23001 10.01 8.93001 10.3C8.58001 10.65 8.22 11 7.88 11.36C6.56 12.8 6.25 14.91 7.13 16.65C9.74 21.83 13.54 25.85 18.69 28.58C19.54 29.03 20.42 29.39 21.41 29.38L21.39 29.37Z" fill="#484848"/>
<path id="Vector_2" d="M20.05 5.64001C22.51 5.74001 24.73 6.57001 26.64 8.21001C28.48 9.79001 29.65 11.78 30.14 14.15C30.28 14.81 30.3 15.5 30.36 16.18C30.39 16.53 30.18 16.75 29.89 16.75C29.6 16.75 29.41 16.54 29.4 16.19C29.34 13.45 28.33 11.11 26.34 9.23001C24.84 7.81001 23.05 6.96001 21 6.70001C20.6 6.65001 20.2 6.63001 19.8 6.61001C19.47 6.59001 19.25 6.42001 19.25 6.13001C19.25 5.84001 19.47 5.64001 19.81 5.64001C19.87 5.64001 19.94 5.64001 20.06 5.64001H20.05Z" fill="#484848"/>
<path id="Vector_3" d="M19.91 8.54004C23.54 8.62004 26.72 11.34 27.32 14.9C27.39 15.33 27.43 15.76 27.45 16.19C27.47 16.54 27.27 16.76 26.97 16.76C26.68 16.76 26.49 16.55 26.49 16.2C26.41 12.92 24.16 10.25 20.92 9.62004C20.56 9.55004 20.19 9.51004 19.82 9.52004C19.43 9.52004 19.23 9.28004 19.23 9.03004C19.23 8.73004 19.46 8.55004 19.83 8.55004C19.85 8.55004 19.88 8.55004 19.9 8.55004L19.91 8.54004Z" fill="#484848"/>
<path id="Vector_4" d="M19.85 11.44C22.23 11.53 24.14 13.23 24.51 15.6C24.54 15.79 24.55 15.98 24.56 16.18C24.57 16.53 24.38 16.75 24.08 16.76C23.8 16.76 23.61 16.56 23.59 16.22C23.49 14.37 22.36 12.95 20.62 12.52C20.35 12.45 20.07 12.41 19.79 12.41C19.45 12.41 19.23 12.18 19.24 11.91C19.25 11.61 19.48 11.43 19.85 11.44Z" fill="#484848"/>
<path id="Vector_5" d="M19.83 14.36C20.82 14.42 21.59 15.18 21.64 16.18C21.66 16.52 21.5 16.74 21.21 16.76C20.93 16.78 20.72 16.61 20.7 16.28C20.66 15.75 20.28 15.34 19.72 15.31C19.39 15.29 19.22 15.07 19.25 14.79C19.28 14.5 19.49 14.34 19.83 14.36Z" fill="#484848"/>
</g>
</svg>
