<svg width="32" height="32" viewBox="0 0 32 32" fill="none" xmlns="http://www.w3.org/2000/svg">
<g id="icon_daubep">
<rect width="32" height="32" rx="7" fill="#DCEFED"/>
<g id="Group">
<path id="Vector" d="M20.5689 3.36001C20.96 3.4489 21.36 3.52001 21.7422 3.62668C22.5511 3.85779 23.2089 4.33779 23.7422 4.97779C23.8134 5.06668 23.8934 5.15557 23.9378 5.20001C24.4178 5.10223 24.8534 4.98668 25.3067 4.91557C26.2222 4.78223 27.0756 5.01334 27.8489 5.51112C29.1378 6.34668 29.7422 7.56445 29.7067 9.09334C29.6711 10.6222 28.64 12.0622 27.2 12.6311C27.1111 12.6667 27.0045 12.8 27.0045 12.8889C26.9956 14.3111 27.0045 15.7333 27.0134 17.1556C27.0134 17.1733 27.0222 17.1911 27.04 17.2267C27.1911 17.2267 27.3511 17.2178 27.5022 17.2267C28.0445 17.2622 28.4622 17.6889 28.4622 18.2311C28.4711 19.3689 28.48 20.4978 28.4622 21.6356C28.4534 22.1511 27.9823 22.6578 27.3689 22.6311C26.9778 22.6133 26.9689 22.6222 26.9156 23.0133C26.6934 24.5156 26.0267 25.7956 24.9334 26.8356C24.3111 27.4222 23.6 27.8667 22.8089 28.1778C21.3245 28.7556 19.8223 28.7733 18.3289 28.2756C17.0845 27.8578 16.0534 27.12 15.2445 26.0711C14.4534 25.04 14.0445 23.8756 13.8845 22.64C13.6089 22.6133 13.3423 22.6222 13.0934 22.5511C12.6667 22.4267 12.4534 22.0889 12.4267 21.6711C12.3911 21.2533 12.4089 20.8267 12.4 20.4C12.4 19.68 12.4 18.96 12.4 18.24C12.4 17.7156 12.8534 17.2445 13.3867 17.2178C13.5378 17.2089 13.6889 17.2178 13.8667 17.2178C13.8756 17.12 13.8934 17.0222 13.8934 16.9245C13.8934 15.6445 13.8845 14.3645 13.8934 13.0933C13.8934 12.8089 13.8134 12.6756 13.52 12.5511C12.5689 12.1422 11.8667 11.44 11.4667 10.4711C11.0311 9.43112 11.0045 8.37334 11.4578 7.32445C11.9467 6.19557 12.7734 5.44001 13.9467 5.05779C14.8534 4.76445 15.7511 4.79112 16.64 5.14668C16.8534 5.23557 16.96 5.16445 17.0845 5.00445C17.7778 4.12445 18.6756 3.60001 19.7778 3.43112C19.9289 3.40445 20.0711 3.36001 20.2222 3.33334C20.3111 3.36001 20.4356 3.36001 20.5689 3.36001ZM14.5334 15.4133C14.8178 15.4133 15.0756 15.4133 15.3334 15.4133C18.8711 15.4133 22.4089 15.4133 25.9467 15.4133C26.2934 15.4133 26.2934 15.4133 26.2934 15.0489C26.2934 14.2311 26.2934 13.4133 26.2934 12.5956C26.2934 12.24 26.3645 12.1778 26.7022 12.0711C27.8223 11.7245 28.5511 10.9511 28.8622 9.85779C29.2356 8.51557 28.9156 7.30668 27.8311 6.38223C26.8711 5.55557 25.7511 5.38668 24.56 5.78668C23.5911 6.11557 22.9422 6.79112 22.56 7.72445C22.4267 8.03557 22.3022 8.11557 22.0889 8.03557C21.8845 7.95557 21.8222 7.76001 21.9111 7.49334C22.1511 6.8089 22.5778 6.2489 23.1378 5.79557C23.2978 5.67112 23.3334 5.57334 23.1911 5.40445C22.3022 4.4089 21.2 3.93779 19.8756 4.13334C18.0445 4.4089 16.8089 5.95557 16.7822 7.67112C16.7822 7.88445 16.6934 8.04445 16.4623 8.06223C16.24 8.08001 16.1245 7.9289 16.1156 7.73334C16.1156 7.43112 16.1245 7.12001 16.1778 6.82668C16.24 6.49779 16.3556 6.17779 16.4711 5.80445C16.1156 5.74223 15.7956 5.67112 15.4756 5.62668C14.4889 5.49334 13.6178 5.78668 12.8978 6.44445C12.0089 7.25334 11.6178 8.29334 11.8489 9.48445C12.0978 10.7911 12.8711 11.6889 14.1689 12.0889C14.3911 12.16 14.5245 12.2845 14.5245 12.5511C14.5067 13.3956 14.5156 14.24 14.5156 15.0933C14.5156 15.1822 14.5245 15.2889 14.5334 15.4133ZM14.5156 16.1333C14.5156 16.2756 14.5156 16.4178 14.5156 16.56C14.5156 18.4267 14.5067 20.2845 14.5156 22.1511C14.5156 23.0311 14.7289 23.8756 15.1289 24.6667C15.8845 26.1511 17.0489 27.1733 18.6489 27.68C20.1422 28.1511 21.5911 28.0622 22.9867 27.3511C25.1645 26.24 26.24 24.4089 26.2845 21.9911C26.32 20.1867 26.2934 18.3733 26.2934 16.56C26.2934 16.4267 26.2934 16.3022 26.2934 16.1422C22.3556 16.1333 18.4534 16.1333 14.5156 16.1333ZM27.76 19.9378C27.76 19.3867 27.7689 18.8445 27.7511 18.2933C27.7422 18.1778 27.6534 18.0178 27.5556 17.9556C27.2711 17.7778 26.9956 17.9911 26.9956 18.3733C26.9956 19.4222 26.9956 20.4711 27.0045 21.52C27.0045 21.7778 27.1556 21.9556 27.3689 21.9556C27.5911 21.9645 27.76 21.7867 27.7689 21.5111C27.76 20.9956 27.76 20.4711 27.76 19.9378ZM13.8223 19.9378C13.8223 19.3867 13.8223 18.8445 13.8223 18.2933C13.8223 18 13.6089 17.8667 13.3334 17.9378C13.0934 18 13.0667 18.1778 13.0667 18.3733C13.0578 19.4222 13.0578 20.48 13.0667 21.5289C13.0667 21.7956 13.2178 21.9467 13.4578 21.9467C13.6978 21.9467 13.8311 21.8045 13.8311 21.5289C13.8223 20.9956 13.8223 20.4711 13.8223 19.9378Z" fill="#255D54"/>
<path id="Vector_2" d="M8.17778 21.7689C8.24 21.8044 8.24889 21.8044 8.25778 21.8044C8.89778 21.8578 8.88889 21.8578 8.88889 22.5156C8.88889 24.2311 8.88889 25.9556 8.88889 27.6711C8.88889 28.1956 8.83556 28.2756 8.30222 28.2756C6.45334 28.2844 4.61333 28.2756 2.76445 28.2667C2.39111 28.2667 2.29333 28.1511 2.29333 27.7689C2.29333 25.9822 2.29333 24.1867 2.30222 22.4C2.30222 21.8756 2.33778 21.8489 2.87111 21.8222C2.91556 21.8222 2.96 21.8133 3.04889 21.8044C2.96889 21.0844 3.13778 20.3644 2.78222 19.6711C2.47111 19.0756 2.34667 18.4178 2.34667 17.7422C2.34667 15.1111 2.35556 12.4889 2.33778 9.85778C2.32889 9.19111 2.92445 8.68445 3.55556 8.75556C3.63556 8.76445 3.70667 8.77334 3.80445 8.79111C3.80445 8.55111 3.82222 8.32889 3.80445 8.10667C3.74222 7.42223 4.50667 6.8 5.15556 7.03111C5.33334 7.09334 5.46667 7.08445 5.63556 6.93334C6.16889 6.43556 7.03111 6.60445 7.34222 7.26223C7.41334 7.40445 7.43111 7.59111 7.43111 7.76C7.43111 9.06667 7.42222 10.3733 7.42222 11.6711C7.42222 11.7867 7.44 11.9022 7.44889 12.0444C7.75111 11.8756 8.02667 11.68 8.33778 11.5467C9.97334 10.8622 11.8133 12.0178 11.8489 13.8489C11.8489 13.9467 11.8489 14.0622 11.8044 14.1422C11.6089 14.4711 11.7244 14.7733 11.7867 15.1111C11.8667 15.5467 11.8222 16.0267 11.7333 16.4622C11.4578 17.76 10.8089 18.8356 9.71556 19.6089C9.30667 19.9022 8.82667 20.0978 8.38222 20.3556C8.30222 20.4 8.19556 20.4978 8.19556 20.5689C8.16889 20.9689 8.17778 21.3778 8.17778 21.7689ZM6.73778 10.8C6.73778 9.85778 6.73778 8.90667 6.73778 7.96445C6.73778 7.85778 6.76445 7.73334 6.71111 7.64445C6.64 7.52 6.52445 7.36 6.4 7.32445C6.29333 7.29778 6.10667 7.41334 6.02667 7.52C5.95556 7.60889 5.96445 7.77778 5.96445 7.91111C5.96445 9.76 5.96445 11.6 5.96445 13.4489C5.96445 13.6267 5.95556 13.8133 5.92889 13.9911C5.90222 14.1511 5.79556 14.2311 5.62667 14.2222C5.37778 14.2222 5.27111 14.1156 5.27111 13.7956C5.27111 12.1067 5.27111 10.4089 5.26222 8.72C5.26222 8.52445 5.26222 8.32 5.25333 8.12445C5.24445 7.82223 5.12 7.68 4.89778 7.67111C4.64889 7.66223 4.49778 7.83111 4.48 8.13334C4.48 8.18667 4.48 8.24 4.48 8.29334C4.48 10.0356 4.48 11.7867 4.48 13.5289C4.48 13.6622 4.48 13.7956 4.47111 13.9378C4.45334 14.1333 4.34667 14.2222 4.15111 14.2222C3.95556 14.2222 3.84 14.1422 3.82222 13.9467C3.80445 13.7511 3.80445 13.5556 3.80445 13.3511C3.80445 12.2489 3.80445 11.1556 3.80445 10.0533C3.80445 9.60889 3.68 9.42223 3.42222 9.42223C3.14667 9.42223 3.01334 9.62667 3.01334 10.0622C3.01334 12.5333 2.99556 15.0133 3.03111 17.4844C3.04 18.0356 3.11111 18.64 3.34222 19.1378C3.69778 19.9022 3.76 20.6756 3.72445 21.4844C3.72445 21.5022 3.72445 21.52 3.72445 21.5378C3.69778 21.7333 3.76889 21.8044 3.97333 21.8044C5.06667 21.7956 6.15111 21.7956 7.24445 21.8133C7.44889 21.8133 7.51111 21.7422 7.51111 21.5467C7.50222 21.0933 7.51111 20.6489 7.51111 20.1956C7.51111 19.9822 7.6 19.8844 7.80445 19.8133C8.22222 19.6622 8.64889 19.5022 9.03111 19.2711C10.0978 18.6133 10.7644 17.6356 11.0578 16.4356C11.1467 16.0711 11.1556 15.6711 11.1467 15.2889C11.1378 15.04 10.9689 14.96 10.7289 15.0044C10.4711 15.0489 10.4178 15.2444 10.3911 15.4578C10.3644 15.76 10.2667 16.0178 10.0178 16.2044C9.65334 16.48 9.26222 16.5244 8.85333 16.3378C8.42667 16.1422 8.25778 15.7689 8.23111 15.3422C8.20445 14.8533 8.21334 14.3733 8.23111 13.8844C8.24 13.5467 8.39111 13.2533 8.66667 13.0489C9.42222 12.4889 10.3644 13.04 10.4 13.8044C10.4178 14.1422 10.6133 14.3289 10.8533 14.2933C11.0844 14.2578 11.2178 14.0267 11.1822 13.7244C11.0222 12.3733 9.62667 11.6356 8.42667 12.2756C7.84 12.5956 7.52889 13.1111 7.46667 13.7778C7.44889 13.9733 7.45778 14.1956 7.18222 14.2222C6.90667 14.2578 6.76445 14.1156 6.76445 13.8044C6.73778 12.8 6.73778 11.8044 6.73778 10.8ZM8.19556 23.9911C8.15111 23.9822 8.11556 23.9644 8.08 23.9644C6.44445 23.9556 4.8 23.9467 3.16445 23.9556C3.10222 23.9556 2.99556 24.0622 2.99556 24.1244C2.98667 25.2178 2.99556 26.32 2.99556 27.4133C2.99556 27.5556 3.04889 27.6089 3.19111 27.6C3.38667 27.5822 3.58222 27.5733 3.78667 27.5733C4.99556 27.5733 6.19556 27.5733 7.40445 27.5733C7.66222 27.5733 7.92 27.5733 8.19556 27.5733C8.19556 26.3822 8.19556 25.2 8.19556 23.9911ZM8.19556 23.2622C8.19556 23.0044 8.19556 22.7644 8.19556 22.5067C6.46222 22.5067 4.74667 22.5067 3.03111 22.5067C3.03111 22.7733 3.03111 23.0222 3.03111 23.2622C4.76445 23.2622 6.48 23.2622 8.19556 23.2622ZM9.28 13.5111C9.04889 13.5289 8.91556 13.6889 8.90667 13.8933C8.88 14.3911 8.88889 14.88 8.90667 15.3778C8.91556 15.6 9.06667 15.76 9.28889 15.76C9.48445 15.76 9.61778 15.6356 9.67111 15.4133C9.72445 15.1733 9.83111 14.9422 9.91111 14.7111C9.92889 14.6667 9.92 14.6044 9.91111 14.56C9.83111 14.3022 9.73334 14.0533 9.66222 13.8044C9.6 13.6 9.47556 13.52 9.28 13.5111Z" fill="#255D54"/>
<path id="Vector_3" d="M21.7778 18.5422C21.7689 18.6578 21.76 18.7467 21.76 18.8444C21.76 19.6622 21.76 20.48 21.7511 21.2978C21.7511 21.5111 21.7955 21.6267 22.0533 21.6178C23.4133 21.5911 24.6222 22.6222 24.8355 24.0178C24.8533 24.1067 24.8711 24.1956 24.88 24.2844C24.9155 24.5867 24.7733 24.7911 24.4711 24.7911C23.7511 24.7911 23.0222 24.8178 22.32 24.7289C21.6178 24.64 21.0667 24.2222 20.6311 23.6622C20.5689 23.5733 20.5067 23.4844 20.4355 23.3778C20.2755 23.5644 20.1244 23.7511 19.9644 23.92C19.44 24.4711 18.7911 24.7644 18.0355 24.7911C17.4933 24.8089 16.96 24.8 16.4178 24.7911C16.0622 24.7911 15.9467 24.6667 15.9467 24.32C15.9555 23.2356 16.8178 22.0533 17.8667 21.7778C18.3289 21.6622 18.8178 21.6356 19.2978 21.6089C19.7955 21.5822 20.2844 21.6 20.7822 21.6178C21.0133 21.6267 21.0755 21.5378 21.0667 21.3244C21.0578 20.2489 21.0667 19.1644 21.0667 18.0889C21.0667 18.0089 21.0489 17.92 21.0755 17.8489C21.1289 17.7156 21.1911 17.5289 21.2978 17.4844C21.3955 17.44 21.6 17.5022 21.6978 17.5911C22.3378 18.1333 23.0489 18.3289 23.8489 18.0622C24.1333 17.9644 24.4 17.7689 24.6578 17.5911C24.8355 17.4756 24.9955 17.3511 25.1822 17.5378C25.3689 17.7156 25.3511 17.92 25.12 18.1156C24.3644 18.7822 23.4933 19.0044 22.5155 18.7822C22.2755 18.72 22.0533 18.6311 21.7778 18.5422ZM18.3111 24.0356C19.0933 24.0533 20.0889 22.9956 19.9467 22.3467C19.0933 22.5156 18.4178 23.2 18.3111 24.0356ZM20.8622 22.3556C20.72 22.8978 21.6622 24.0533 22.4978 24.0267C22.4355 23.1733 21.5733 22.4533 20.8622 22.3556ZM18.4178 22.3733C18.3555 22.3644 18.32 22.3556 18.2844 22.3556C17.6089 22.4533 16.7822 23.2711 16.6844 23.9289C16.6755 23.9733 16.7644 24.08 16.8089 24.08C17.0667 24.0978 17.3155 24.0889 17.5733 24.0889C17.6444 23.3956 17.9822 22.8711 18.4178 22.3733ZM24.1333 24.0978C23.8489 23.0756 23.1555 22.3822 22.4 22.3822C22.8355 22.8533 23.12 23.3778 23.2178 23.9911C23.2267 24.0356 23.3244 24.0889 23.3778 24.0889C23.6355 24.0978 23.8844 24.0978 24.1333 24.0978Z" fill="#255D54"/>
<path id="Vector_4" d="M17.68 18.8711C16.8978 18.8267 16.2222 18.6222 15.6889 18.0889C15.4667 17.8756 15.4489 17.7245 15.6178 17.5378C15.7511 17.3867 15.9289 17.4045 16.16 17.5822C17.1378 18.3822 18.2133 18.3645 19.1555 17.5467C19.3155 17.4045 19.4755 17.3867 19.6355 17.52C19.7955 17.6534 19.7867 17.9022 19.6178 18.0711C19.2267 18.4445 18.7644 18.6845 18.2311 18.7911C18.0267 18.8356 17.8311 18.8534 17.68 18.8711Z" fill="#255D54"/>
</g>
</g>
</svg>
