<svg width="16" height="12" viewBox="0 0 16 12" fill="none" xmlns="http://www.w3.org/2000/svg">
<path d="M14.7518 11.4461H4.72134C4.30793 11.4461 3.97287 11.1111 3.97287 10.6977C3.97287 10.2843 4.30793 9.94922 4.72134 9.94922H14.7515C15.1649 9.94922 15.5 10.2843 15.5 10.6977C15.5 11.1111 15.1652 11.4461 14.7518 11.4461Z" fill="black"/>
<path d="M14.7518 6.74888H4.72134C4.30793 6.74888 3.97287 6.41382 3.97287 6.00042C3.97287 5.58702 4.30793 5.25195 4.72134 5.25195H14.7515C15.1649 5.25195 15.5 5.58702 15.5 6.00042C15.5002 6.41382 15.1652 6.74888 14.7518 6.74888Z" fill="black"/>
<path d="M14.7518 2.04967H4.72134C4.30793 2.04967 3.97287 1.7146 3.97287 1.3012C3.97287 0.887797 4.30793 0.552734 4.72134 0.552734H14.7515C15.1649 0.552734 15.5 0.887797 15.5 1.3012C15.5 1.7146 15.1652 2.04967 14.7518 2.04967Z" fill="black"/>
<path d="M1.50519 2.36487C2.06034 2.36487 2.51038 1.91483 2.51038 1.35968C2.51038 0.804531 2.06034 0.354492 1.50519 0.354492C0.950038 0.354492 0.5 0.804531 0.5 1.35968C0.5 1.91483 0.950038 2.36487 1.50519 2.36487Z" fill="black"/>
<path d="M1.50519 7.00452C2.06034 7.00452 2.51038 6.55448 2.51038 5.99933C2.51038 5.44418 2.06034 4.99414 1.50519 4.99414C0.950038 4.99414 0.5 5.44418 0.5 5.99933C0.5 6.55448 0.950038 7.00452 1.50519 7.00452Z" fill="black"/>
<path d="M1.50519 11.6451C2.06034 11.6451 2.51038 11.1951 2.51038 10.64C2.51038 10.0848 2.06034 9.63477 1.50519 9.63477C0.950038 9.63477 0.5 10.0848 0.5 10.64C0.5 11.1951 0.950038 11.6451 1.50519 11.6451Z" fill="black"/>
</svg>
