<svg width="128" height="127" viewBox="0 0 128 127" fill="none" xmlns="http://www.w3.org/2000/svg">
<rect x="1.5" y="1" width="125" height="125" rx="29" fill="#11463E"/>
<path d="M43.376 57.295C43.376 57.9877 43.129 58.5814 42.635 59.0514C42.1411 59.5462 41.5483 59.7936 40.8815 59.7936H40.8074C40.1405 59.7936 39.5477 59.5462 39.0538 59.0514C38.5598 58.5814 38.3128 57.9877 38.3128 57.295L38.2634 38.1725C38.2634 36.614 37.7201 35.2782 36.6333 34.1897C35.5219 33.1012 34.1882 32.5322 32.6075 32.5322C31.0515 32.5322 29.7178 33.1012 28.631 34.1897C27.5443 35.3029 27.0009 36.6388 27.0009 38.1973L27.0503 57.3198C27.0503 58.0124 26.8033 58.6062 26.3094 59.0762C25.8154 59.5709 25.2226 59.8183 24.5558 59.8183H24.4817C23.8148 59.8183 23.2221 59.5709 22.7281 59.0762C22.2341 58.6062 21.9871 58.0124 21.9871 57.3198L21.9377 38.1973C21.9377 35.2534 22.9751 32.7301 25.0744 30.6027C27.1738 28.5247 29.6684 27.4609 32.6075 27.4609C35.5466 27.4609 38.0905 28.4999 40.1899 30.5779C42.2893 32.6559 43.3513 35.204 43.3513 38.1478L43.4007 57.2703L43.376 57.295Z" fill="white"/>
<path d="M54.4909 41.1163H64.3456C65.0124 41.1163 65.6052 41.3389 66.0992 41.8089C66.5931 42.3037 66.8401 42.8974 66.8401 43.5901V43.6396C66.8401 44.3322 66.5931 44.9259 66.0992 45.4207C65.6052 45.8907 65.0124 46.1381 64.3456 46.1381H54.4909V52.2484C54.4909 52.9411 54.7379 53.5348 55.2071 54.0048C55.7011 54.4996 56.2692 54.7222 56.9607 54.7222H64.3456C65.0124 54.7222 65.6052 54.9449 66.0992 55.4644C66.5931 55.9591 66.8401 56.5528 66.8401 57.2455V57.295C66.8401 57.9876 66.5931 58.5813 66.0992 59.0514C65.6052 59.5461 65.0124 59.7935 64.3456 59.7935H56.9607C54.8861 59.7935 53.1078 59.0761 51.6259 57.6166C50.144 56.1323 49.403 54.3759 49.403 52.2731V35.0554C49.3536 32.9774 50.0946 31.1963 51.5765 29.712C53.0584 28.2277 54.8367 27.4856 56.9113 27.4856H64.2962C64.963 27.4856 65.5558 27.7082 66.0498 28.2277C66.5437 28.6978 66.7907 29.2915 66.7907 29.9841V30.0336C66.7907 30.7263 66.5437 31.32 66.0498 31.8148C65.5558 32.3095 64.963 32.5569 64.2962 32.5569H56.9113C56.2198 32.5569 55.627 32.8043 55.1578 33.299C54.6885 33.7938 54.4415 34.3628 54.4415 35.0554V41.141L54.4909 41.1163Z" fill="white"/>
<path fill-rule="evenodd" clip-rule="evenodd" d="M72.9416 43.7818C72.9416 43.7818 73.1639 43.9055 73.2627 43.9797C73.3368 44.0292 73.485 44.2024 73.4109 44.425C73.3862 44.524 73.3368 44.5982 73.238 44.6229C72.991 44.6971 72.9416 44.8951 72.991 45.1177C73.0157 45.2414 73.0404 45.3651 73.0651 45.4888L73.3862 45.2166C73.3862 45.2166 75.1151 44.4745 75.7326 44.2024C76.3253 43.9303 77.5108 43.3118 78.0048 42.7428C78.4988 42.1739 80.3265 41.1843 80.6722 41.6791C80.3512 41.976 80.6722 41.6791 80.3512 41.976C80.0548 42.2481 79.4373 42.5202 78.9681 42.9655C78.4741 43.4108 77.8813 43.9303 77.3133 44.1034C76.7452 44.2766 75.9301 44.8703 75.535 45.1919C75.2633 45.3898 74.2506 46.2309 73.238 46.8494C73.3862 47.2946 73.485 47.7647 73.6579 48.1852C74.1518 47.7894 74.8434 47.2699 75.3868 46.973C76.3253 46.4535 77.8072 45.6619 78.3259 45.3156C78.8446 44.994 80.1783 44.054 81.018 43.4108C81.8825 42.7676 82.2529 42.6439 82.4999 42.2728C82.7716 41.9265 83.4879 40.9864 84.1053 41.407C83.7349 42.0996 83.068 42.7676 82.4999 43.3118C81.9319 43.856 80.9933 44.3755 80.6228 44.6724C80.2524 44.9693 78.8199 46.0083 78.153 46.503C77.659 46.8741 75.7819 48.2347 74.4482 49.7437C74.4729 49.7437 74.4976 49.7932 74.5223 49.8179C74.5964 49.8674 74.6211 49.9416 74.5964 49.9911C74.4482 50.5106 74.7693 50.8569 74.9916 51.228C75.6091 51.0054 76.4488 50.7085 77.1404 50.3127C78.4 49.62 80.9439 48.3336 83.1915 46.0083C84.6981 44.4745 86.8222 43.1881 88.1312 42.5697C87.0938 39.1063 85.9577 37.3747 85.4143 34.7524C85.0192 32.8229 84.7969 31.6354 85.4884 28.0979C85.3402 28.1969 85.2168 28.3205 85.118 28.4937C84.9945 28.5927 84.871 28.6421 84.7228 28.6421C84.4264 28.6669 84.13 28.6421 83.8336 28.6421C83.6361 28.6916 83.4138 28.6421 83.3397 28.8895C83.3397 28.9143 83.2903 28.9637 83.2656 28.9885C83.068 29.0874 82.8951 29.0627 82.6975 29.0132C82.3517 28.9143 82.0801 28.9885 81.8331 29.2359C81.7837 29.2606 81.7343 29.3101 81.7096 29.3595C81.6108 29.409 81.5861 29.508 81.5367 29.6069C81.4132 29.7059 81.265 29.7306 81.1168 29.7306C80.8451 29.7059 80.5981 29.7801 80.4006 29.9533C80.2771 29.9533 80.203 30.0522 80.1042 30.1264C78.894 30.9923 77.7825 31.9818 76.7946 33.0703C76.7205 33.095 76.6711 33.1445 76.6711 33.2187C76.5229 33.3424 76.3994 33.4908 76.3006 33.664C76.0289 33.9856 75.7572 34.3319 75.535 34.703C75.041 35.4204 74.6211 36.1872 74.2753 36.9789C74.1765 37.1768 74.0778 37.3747 74.0284 37.5726C73.9543 37.6715 73.9049 37.7952 73.8802 37.9189C73.8308 38.0179 73.7814 38.1168 73.7814 38.2158C73.7814 38.2158 73.7814 38.2652 73.7567 38.29C73.7073 38.4384 73.6332 38.5868 73.6085 38.76C73.4603 39.1063 73.3615 39.4774 73.3121 39.8485C73.2627 39.9227 73.2627 39.9969 73.2627 40.0711C73.2133 40.1701 73.2133 40.269 73.1886 40.368C72.9663 41.407 72.8181 42.2233 72.8428 43.2871C72.8428 43.4108 72.8428 43.5592 72.9663 43.6829L72.9416 43.7818Z" fill="#EB914B"/>
<path fill-rule="evenodd" clip-rule="evenodd" d="M105.321 47.4677C105.223 46.6266 103.79 47.344 103.345 47.443C102.901 47.5172 102.111 48.1851 101.987 47.6409C102.135 47.0471 102.901 46.7998 104.111 46.2308C104.827 45.8845 105.519 45.3402 105.988 44.9444C106.038 44.4744 106.062 44.0044 106.062 43.5343C105.889 43.658 105.741 43.8065 105.544 43.9302C104.333 44.7465 101.567 45.7113 100.555 45.9339C99.5419 46.1566 99.5666 45.8845 99.7148 45.6618C99.9864 45.4639 103.197 44.0044 104.235 43.3859C105.025 42.9159 105.618 41.8274 105.889 41.3079C105.791 40.7884 105.642 40.2689 105.494 39.7742C105.494 39.6257 105.445 39.502 105.371 39.4031C105.346 39.3289 105.321 39.2547 105.297 39.1804C105.223 38.9578 105.148 38.7104 105.025 38.5125C104.976 38.4136 104.951 38.3146 104.901 38.2157C104.506 37.3746 104.037 36.5829 103.42 35.8655C103.37 35.7419 103.321 35.5934 103.173 35.5687C102.728 35.0987 102.333 34.6039 101.987 34.0349C101.789 33.6639 101.345 33.5649 100.999 33.2928C100.876 33.1691 100.925 32.798 100.801 32.6743C100.752 32.5506 100.678 32.4022 100.579 32.3033C100.431 32.1054 100.258 31.9569 99.9864 31.9322C99.9617 31.8085 99.8383 31.7838 99.7395 31.759C99.6654 31.7095 99.5666 31.6601 99.4925 31.6106C99.3196 31.5364 99.1961 31.388 99.0726 31.2643C98.8997 31.0911 98.7021 30.9179 98.5045 30.7695C97.5907 30.9427 96.4052 31.5859 96.2323 31.759C95.516 32.3527 94.7504 32.8475 94.2811 32.9464C94.4293 32.1796 95.1702 31.5364 95.6395 31.0911C96.1088 30.6458 96.5781 30.0768 96.5781 30.0768C96.5781 30.0768 96.6769 29.9284 96.8003 29.7305C96.7509 29.7058 96.7016 29.681 96.6522 29.6563C96.5287 29.6068 96.3805 29.5573 96.257 29.5079C96.0594 29.4089 95.7877 29.3594 95.6148 29.2605C95.5654 29.2605 95.5407 29.211 95.4913 29.1863C95.4419 29.1863 95.4172 29.1368 95.3678 29.112C94.9974 28.8647 94.8739 28.5678 94.3058 28.4689C93.7624 28.2462 93.0956 28.172 92.5275 28.0483C91.9595 27.8504 91.3667 27.7762 90.7492 27.702C90.354 27.6772 89.9836 27.6278 89.5884 27.603C89.3167 27.603 89.0697 27.603 88.798 27.603C88.5017 28.2215 87.8348 30.25 88.9956 33.9854C89.2673 33.936 90.6257 33.7133 90.9962 33.1691C91.3914 32.5506 92.0088 31.9569 92.6263 32.2538C92.6263 32.2538 92.2064 33.0949 90.0577 35.1234C89.8354 35.2718 89.6625 35.3708 89.5143 35.4203C89.7613 36.0634 90.0577 36.7066 90.4281 37.424L90.9221 37.2509C90.9221 37.2509 91.4161 37.1519 92.0335 36.7561C92.651 36.3603 94.3799 35.1729 95.0468 34.5544C95.7136 33.9607 97.5166 32.5506 98.2082 33.0454C98.4304 33.268 97.6154 33.3917 96.257 34.6781C94.8986 35.9645 91.7372 38.8588 91.8854 39.8484C91.9595 40.071 92.651 39.7494 93.2932 39.4278C93.9353 39.131 95.6395 37.8198 96.0841 37.424C96.4299 37.1024 96.7756 36.7561 96.7756 36.7561C96.7756 36.7561 96.9979 36.7066 96.7756 37.1024C96.5781 37.4983 95.6642 38.5125 94.1082 40.0958C93.1944 41.0358 92.7251 41.4563 92.5028 41.6543C92.6757 42.0501 92.8239 42.4459 92.9474 42.8664C93.4167 42.619 94.2317 42.0748 95.5901 40.8874C97.9612 38.8094 98.8256 38.1167 99.4184 37.9188C100.011 37.7209 100.505 37.7456 100.53 37.9188C100.357 38.2157 100.135 38.3641 100.011 38.4383C99.9124 38.4878 98.8997 39.1557 98.3316 39.7742C97.7389 40.4173 96.2076 42.0748 95.4172 42.718C94.8245 43.2127 93.8612 43.9302 93.392 44.6723C93.7377 46.775 93.4908 48.9767 92.0335 51.2774C89.4896 55.2602 86.1059 58.1545 85.118 58.9462C85.1921 58.9462 85.2662 58.9956 85.3403 58.9956C85.9577 59.1441 86.5258 59.3667 87.1433 59.4657C87.3408 59.5646 87.5878 59.5399 87.7854 59.6388C88.3535 59.713 88.9215 59.6388 89.4896 59.6636C89.6625 59.6636 89.8354 59.713 89.9836 59.6141C89.9836 59.6141 89.9836 59.5893 89.9836 59.5646C90.1565 59.5646 90.354 59.5646 90.5269 59.4904C91.095 59.4657 91.6384 59.3667 92.157 59.1935C92.4287 59.1935 92.6757 59.0699 92.9227 58.9956C93.1203 58.9462 93.3179 58.8719 93.5155 58.8225C93.6142 58.7977 93.713 58.7483 93.7871 58.7235C93.7871 58.7235 93.8118 58.7235 93.8365 58.7235C94.0094 58.674 94.1823 58.6493 94.3552 58.5504C94.948 58.3772 95.5407 58.1545 96.0841 57.8824C96.3311 57.8082 96.5287 57.6598 96.7262 57.5114C96.7262 57.5114 96.7756 57.4866 96.8003 57.4619C97.319 57.3134 97.7142 56.9919 98.1094 56.6703C98.9491 56.2497 99.8383 55.9034 100.555 55.2602C100.579 55.2355 100.629 55.2354 100.653 55.2107C100.876 55.186 100.999 55.0375 101.098 54.8644C101.493 54.4933 101.864 54.0975 101.938 53.5285C101.962 53.479 101.987 53.4543 101.987 53.4048C102.012 53.2811 102.086 53.1822 102.061 53.0585C102.16 52.9348 102.259 52.8111 102.357 52.6874C102.555 52.5143 102.753 52.3164 102.95 52.1432C102.95 52.1432 103 52.0937 103.024 52.0937C103.098 52.069 103.148 52.0195 103.173 51.9453C103.173 51.9453 103.247 51.8711 103.296 51.8216C103.988 51.0547 104.309 50.1147 104.704 49.1746C104.778 49.1004 104.803 49.0262 104.803 48.9272C104.803 48.853 104.852 48.8036 104.877 48.7541C104.926 48.6799 104.976 48.5809 104.976 48.482C105.074 48.2098 105.173 47.9377 105.247 47.6656C105.173 47.6656 105.124 47.6161 105.099 47.4677H105.321ZM104.926 38.3888C104.926 38.3888 104.926 38.3888 104.926 38.4136C104.926 38.4136 104.926 38.4136 104.926 38.463C104.926 38.463 104.926 38.4136 104.926 38.3888Z" fill="#EB914B"/>
<path fill-rule="evenodd" clip-rule="evenodd" d="M89.045 46.4039C88.8474 45.4391 88.6499 44.5733 88.4523 43.8064C88.0077 44.0538 87.5137 44.3754 86.921 44.7959C85.0439 46.1813 82.4752 48.3582 81.4873 48.9024C80.4994 49.4467 77.7084 50.6836 77.0663 51.2278C76.7205 51.5247 76.0783 51.8957 75.7573 52.3905C75.8808 52.5637 76.0042 52.7121 76.1277 52.8853C76.2759 53.1326 76.4488 53.3553 76.6217 53.5779C78.4988 52.6131 82.3518 50.5599 83.2409 50.0651C84.2782 49.4962 85.8095 48.185 86.0318 48.0861C86.2541 48.0119 86.18 48.5561 85.5379 49.2488C84.871 49.9414 83.2903 51.4505 82.1295 52.0689C80.9686 52.6874 79.3632 53.0584 78.3506 54.3201C78.1777 54.518 78.0295 54.7406 77.8813 54.9385C78.2024 55.2601 78.4988 55.6559 78.894 55.8291C79.4373 56.0765 79.9313 56.3981 80.45 56.6455C80.5488 56.7691 80.697 56.7939 80.8204 56.8681C81.265 57.165 81.6849 57.4618 82.1295 57.7834C82.4258 57.9813 82.6975 58.204 83.0433 58.3276C83.1668 58.4266 83.315 58.4761 83.4385 58.5008C85.118 57.066 90.2306 52.6131 89.0203 46.3544L89.045 46.4039Z" fill="#EB914B"/>
<path d="M39.4004 71.3377C40.5118 71.6346 41.0798 72.352 41.0798 73.4652V73.5147C41.0798 74.2321 40.7835 74.8258 40.2154 75.2711C39.8202 75.5679 39.4004 75.7411 38.9311 75.7411C38.7335 75.7411 38.5359 75.7411 38.3136 75.6669C37.4986 75.469 36.6835 75.37 35.8438 75.37C33.1269 75.37 30.83 76.3348 28.9282 78.2644C27.0264 80.1939 26.0632 82.5193 26.0632 85.2405C26.0632 87.9617 27.0264 90.2871 28.9529 92.1919C30.8794 94.0967 33.1763 95.0368 35.8932 95.0368C36.7329 95.0368 37.548 94.9378 38.363 94.7399C38.5606 94.6904 38.7582 94.6657 38.9558 94.6657C39.4251 94.6657 39.8449 94.8141 40.2401 95.111C40.8329 95.5563 41.1292 96.1252 41.1292 96.8674V96.9169C41.1292 98.0548 40.5612 98.797 39.4498 99.0938C38.2889 99.3907 37.1034 99.5391 35.8932 99.5391C31.9661 99.5391 28.5824 98.1538 25.7915 95.3584C23.0006 92.563 21.5928 89.1986 21.5928 85.2652C21.5928 81.3319 22.9759 77.9428 25.7668 75.1474C28.5577 72.352 31.9167 70.9419 35.8438 70.9419C37.054 70.9419 38.2395 71.0903 39.4004 71.3872V71.3377Z" fill="white"/>
<path d="M65.4325 97.2385C65.4325 97.857 65.2102 98.3765 64.7656 98.797C64.3211 99.2423 63.8024 99.465 63.2096 99.465H63.1602C62.5675 99.465 62.0488 99.2423 61.6042 98.797C61.1597 98.3765 60.9374 97.857 60.9374 97.2385V89.075H50.9592V97.2385C50.9592 97.857 50.7616 98.3765 50.3171 98.797C49.8725 99.2423 49.3538 99.465 48.761 99.465H48.7117C48.1189 99.465 47.6002 99.2423 47.1556 98.8218C46.7111 98.4012 46.4888 97.8817 46.4888 97.2633V80.3424C46.4394 77.7202 47.3779 75.4938 49.2303 73.6384C51.0827 71.7831 53.3056 70.8678 55.8989 70.843C58.5169 70.843 60.7398 71.7583 62.5922 73.5889C64.4446 75.4443 65.3831 77.6707 65.3831 80.293V97.2138L65.4325 97.2385ZM60.9374 84.5974V80.3177C60.9374 78.9324 60.4434 77.7697 59.4802 76.7802C58.4922 75.8154 57.3067 75.3206 55.9236 75.3206C54.5405 75.3206 53.3797 75.8154 52.3917 76.8049C51.4285 77.7944 50.9592 78.9571 50.9592 80.3424V84.6221H60.9374V84.5974Z" fill="white"/>
<path d="M76.1516 82.8904H83.7835C84.3762 82.8904 84.8949 83.0883 85.3395 83.5089C85.784 83.9542 86.0063 84.4737 86.0063 85.0921V85.1416C86.0063 85.76 85.784 86.2795 85.3395 86.7001C84.8949 87.1454 84.3762 87.368 83.7835 87.368H76.1516V97.2385C76.1516 97.8569 75.9293 98.3764 75.4848 98.797C75.0402 99.2423 74.5215 99.4649 73.9288 99.4649H73.8794C73.2866 99.4649 72.7679 99.2423 72.3234 98.797C71.8788 98.3764 71.6565 97.8569 71.6565 97.2385L71.6071 77.5223C71.6071 75.6669 72.2493 74.1084 73.5583 72.7973C74.8673 71.4862 76.4233 70.8182 78.2757 70.8182H83.8822C84.475 70.8182 84.9937 71.0161 85.4382 71.4367C85.8828 71.882 86.1051 72.4015 86.1051 73.0199V73.0694C86.1051 73.6879 85.8828 74.2074 85.4382 74.6526C84.9937 75.0732 84.475 75.2958 83.8822 75.2958H78.2757C77.6582 75.2958 77.1396 75.5185 76.7197 75.9638C76.2998 76.409 76.0775 76.9285 76.0775 77.547V82.9399L76.1516 82.8904Z" fill="white"/>
<path d="M95.4658 82.8657H104.184C104.777 82.8657 105.296 83.0636 105.74 83.4841C106.185 83.9294 106.407 84.4489 106.407 85.0674C106.407 85.7106 106.185 86.2301 105.74 86.6753C105.296 87.0959 104.777 87.3185 104.184 87.3185H95.4658V92.7114C95.4658 93.3299 95.6881 93.8494 96.108 94.2699C96.5279 94.6905 97.0465 94.9131 97.664 94.9131H104.184C104.777 94.9131 105.296 95.111 105.74 95.5563C106.185 96.0016 106.407 96.5211 106.407 97.1395V97.189C106.407 97.8075 106.185 98.327 105.74 98.7475C105.296 99.1928 104.777 99.4154 104.184 99.4154H97.664C95.8116 99.4154 94.2556 98.797 92.9466 97.4859C91.6376 96.1748 90.9954 94.6163 90.9707 92.7609V77.5223C90.946 75.6669 91.5882 74.1084 92.8972 72.7973C94.2062 71.4862 95.7622 70.8182 97.6146 70.8182H104.135C104.728 70.8182 105.246 71.0161 105.691 71.4614C106.136 71.882 106.358 72.4015 106.358 73.0199V73.0694C106.358 73.6879 106.136 74.2074 105.716 74.6526C105.271 75.0979 104.752 75.3206 104.16 75.3206H97.6393C97.0218 75.3206 96.5032 75.5432 96.0833 75.9885C95.6634 76.409 95.4411 76.9285 95.4411 77.547V82.9399L95.4658 82.8657Z" fill="white"/>
<rect x="1.5" y="1" width="125" height="125" rx="29" stroke="#B29171" stroke-width="2"/>
</svg>
