<svg width="36" height="36" viewBox="0 0 36 36" fill="none" xmlns="http://www.w3.org/2000/svg">
<g id="icon-06 6">
<path id="Vector" d="M18.32 31.58C11.04 31.74 4.75997 26.11 4.41997 18.6C4.08997 11.07 9.80997 5.07002 16.75 4.46002C24.68 3.77002 30.91 9.76002 31.53 16.76C32.23 24.7 26.07 31.38 18.32 31.58ZM14.4 17.38C12.38 15.21 12.68 12.13 14.53 10.35C16.43 8.52002 19.36 8.47002 21.31 10.21C23.21 11.9 23.72 15.1 21.56 17.42C21.68 17.48 21.79 17.53 21.89 17.59C24.45 18.96 26.02 21.06 26.47 23.93C26.62 24.92 26.56 25.94 26.59 26.95C26.59 27.05 26.59 27.15 26.59 27.28C29.93 24.33 31.7 19.13 30.06 14.14C28.25 8.63002 23.22 5.11002 17.48 5.33002C11.87 5.54002 7.09997 9.43002 5.69997 14.86C4.40997 19.86 6.41997 24.71 9.38997 27.26C9.38997 26.62 9.35997 26.01 9.38997 25.39C9.42997 24.7 9.45997 23.99 9.60997 23.31C10.06 21.29 11.14 19.64 12.8 18.39C13.3 18.02 13.85 17.71 14.39 17.37L14.4 17.38ZM25.69 26.33C25.69 26.33 25.71 26.33 25.72 26.33C25.69 25.63 25.72 24.93 25.62 24.24C25.19 21.43 23.67 19.41 21.09 18.2C20.84 18.08 20.66 18.11 20.44 18.24C19.71 18.69 18.9 18.89 18.05 18.9C17.12 18.9 16.25 18.68 15.46 18.19C15.31 18.09 15.18 18.09 15.02 18.16C14.22 18.51 13.48 18.96 12.84 19.55C11.41 20.85 10.54 22.47 10.37 24.39C10.26 25.57 10.32 26.76 10.31 27.94C10.31 28.03 10.41 28.14 10.49 28.2C12.21 29.47 14.12 30.25 16.23 30.56C17.53 30.75 18.82 30.73 20.11 30.51C22.1 30.17 23.91 29.4 25.53 28.19C25.62 28.12 25.69 27.98 25.7 27.88C25.72 27.37 25.7 26.85 25.7 26.34L25.69 26.33ZM17.97 18C20.21 18 22.06 16.17 22.07 13.93C22.08 11.7 20.23 9.85002 17.99 9.84002C15.77 9.84002 13.92 11.66 13.9 13.9C13.88 16.13 15.73 17.99 17.97 18Z" fill="#484848"/>
</g>
</svg>
