<svg width="40" height="40" viewBox="0 0 40 40" fill="none" xmlns="http://www.w3.org/2000/svg">
<g id="icon_uongnong 1">
<path id="Vector" d="M31.19 16.36C31.71 16.36 32.18 16.36 32.65 16.36C33.97 16.36 35.29 16.36 36.61 16.36C37.36 16.36 37.58 16.59 37.58 17.33C37.58 18.86 37.58 20.39 37.58 21.91C37.58 25.2 35.42 27.91 32.19 28.55C31.26 28.73 30.28 28.67 29.32 28.69C29.03 28.69 28.86 28.77 28.7 29.02C27.97 30.14 27.08 31.13 26.06 31.99C25.97 32.07 25.88 32.15 25.7 32.3C25.93 32.3 26.05 32.3 26.17 32.3C28.09 32.3 30.01 32.3 31.93 32.3C32.62 32.3 32.87 32.57 32.84 33.26C32.75 35.37 31.06 37.23 28.95 37.51C28.69 37.55 28.42 37.57 28.16 37.57C21.01 37.57 13.85 37.57 6.70005 37.57C4.44005 37.57 2.65005 36.16 2.13005 33.97C2.06005 33.69 2.03005 33.4 2.02005 33.11C2.00005 32.58 2.28005 32.29 2.82005 32.29C4.23005 32.29 5.64005 32.29 7.06005 32.29C7.17005 32.29 7.28005 32.29 7.39005 32.29C7.35005 32.32 7.30005 32.35 7.26005 32.38C6.83005 31.87 6.41005 31.35 5.96005 30.86C3.96005 28.7 2.68005 26.18 2.23005 23.27C2.09005 22.35 2.04005 21.41 2.02005 20.47C1.99005 18.68 2.02005 16.88 2.02005 15.09C2.02005 14.44 2.27005 14.18 2.92005 14.18C12.04 14.18 21.16 14.18 30.28 14.18C30.93 14.18 31.18 14.44 31.18 15.09C31.18 15.49 31.18 15.9 31.18 16.35L31.19 16.36ZM29.8 15.6H3.43005C3.43005 15.69 3.42005 15.76 3.42005 15.83C3.42005 17.59 3.40005 19.35 3.43005 21.11C3.44005 21.87 3.51005 22.64 3.66005 23.38C4.43005 27.13 6.42005 30.06 9.67005 32.11C9.84005 32.22 10.07 32.29 10.28 32.29C14.25 32.3 18.22 32.27 22.19 32.32C23.03 32.32 23.7 32.1 24.35 31.61C27.35 29.35 29.15 26.39 29.69 22.67C29.76 22.17 29.81 21.66 29.81 21.15C29.82 19.31 29.81 17.47 29.81 15.61L29.8 15.6ZM31.36 33.7H3.51005C3.53005 33.8 3.55005 33.9 3.58005 33.98C3.99005 35.31 5.25005 36.19 6.77005 36.19C13.89 36.19 21 36.19 28.12 36.19C28.21 36.19 28.31 36.19 28.4 36.19C29.86 36.12 31.13 35.06 31.37 33.71L31.36 33.7ZM29.74 27.31C30.19 27.31 30.62 27.32 31.05 27.31C33.51 27.23 35.64 25.59 36.03 23.15C36.31 21.4 36.2 19.58 36.27 17.77H31.23V19.14C31.38 19.14 31.5 19.14 31.63 19.14C32.4 19.14 33.18 19.14 33.95 19.14C34.56 19.14 34.81 19.4 34.81 20.01C34.81 20.7 34.82 21.4 34.81 22.09C34.78 23.25 34.33 24.22 33.45 24.98C32.64 25.68 31.69 25.96 30.63 25.93C30.51 25.93 30.31 25.99 30.26 26.08C30.07 26.47 29.92 26.88 29.74 27.31ZM30.83 24.53C31.79 24.54 32.54 24.13 33.06 23.3C33.59 22.44 33.38 21.49 33.42 20.55H31.28C31.13 21.88 30.98 23.19 30.83 24.53Z" fill="#000"/>
<path id="Vector_2" d="M20.1799 3.54C20.7399 3.61 21.0499 4.11 20.8299 4.58C20.7899 4.66 20.7399 4.74 20.6899 4.82C20.2199 5.57 20.2799 6.28 20.7899 7.01C21.1499 7.53 21.5399 8.05 21.7399 8.64C22.1999 9.94 21.8999 11.14 21.0499 12.21C20.8599 12.44 20.6199 12.65 20.3599 12.8C20.1099 12.94 19.8699 12.8 19.6899 12.59C19.5099 12.38 19.4599 12.13 19.5999 11.88C19.6999 11.7 19.8299 11.53 19.9499 11.37C20.7599 10.33 20.7599 9.19 19.9299 8.17C19.4699 7.61 19.1099 7.01 19.0099 6.27C18.8899 5.39 19.1299 4.6 19.6599 3.9C19.7799 3.74 19.9999 3.67 20.1799 3.55V3.54Z" fill="#255D54"/>
<path id="Vector_3" d="M17.0399 2.81C17.0099 2.89 16.9599 3.05 16.8699 3.2C16.3599 4.05 16.3899 4.75 17.0099 5.53C17.4499 6.09 17.8399 6.67 17.9899 7.37C18.2499 8.56 17.9799 9.63 17.2399 10.59C17.1299 10.74 17.0199 10.89 16.8899 11.02C16.6199 11.3 16.2299 11.35 15.9599 11.14C15.6599 10.91 15.5899 10.52 15.8099 10.18C15.9299 10 16.0799 9.84 16.2099 9.66C16.9099 8.68 16.8699 7.57 16.0699 6.6C15.4299 5.83 15.0499 4.99 15.1399 3.97C15.1999 3.34 15.4299 2.79 15.8199 2.3C16.0099 2.06 16.2799 1.96 16.5899 2.08C16.8799 2.19 17.0299 2.41 17.0299 2.81H17.0399Z" fill="#255D54"/>
<path id="Vector_4" d="M12.49 3.55C13.04 3.61 13.35 4.12 13.12 4.58C12.99 4.84 12.82 5.08 12.74 5.35C12.55 5.99 12.72 6.56 13.14 7.06C13.7 7.74 14.13 8.48 14.22 9.38C14.35 10.69 13.83 11.74 12.96 12.66C12.74 12.89 12.35 12.89 12.1 12.69C11.84 12.49 11.74 12.15 11.9 11.86C12 11.67 12.14 11.5 12.28 11.32C13.06 10.3 13.06 9.18 12.25 8.18C11.75 7.57 11.36 6.92 11.3 6.11C11.23 5.26 11.47 4.51 11.99 3.85C12.11 3.7 12.33 3.64 12.5 3.54L12.49 3.55Z" fill="#255D54"/>
<path id="Vector_5" d="M27.86 21.14C27.73 24.11 26.68 26.63 24.67 28.74C24.34 29.09 23.93 29.13 23.63 28.85C23.33 28.58 23.33 28.16 23.66 27.8C24.34 27.07 24.93 26.28 25.38 25.38C26.08 24 26.44 22.53 26.47 20.99C26.48 20.52 26.78 20.2 27.18 20.21C27.58 20.22 27.85 20.55 27.86 21.02C27.86 21.08 27.86 21.14 27.86 21.13V21.14Z" fill="#255D54"/>
<path id="Vector_6" d="M21.8 30.78C21.42 30.78 21.13 30.48 21.13 30.09C21.13 29.72 21.48 29.38 21.85 29.39C22.21 29.4 22.52 29.72 22.52 30.09C22.52 30.47 22.2 30.78 21.81 30.77L21.8 30.78Z" fill="#255D54"/>
</g>
</svg>
