<svg width="61" height="28" viewBox="0 0 61 28" fill="none" xmlns="http://www.w3.org/2000/svg">
<path d="M61 10.4723C61 10.8532 60.8494 11.2186 60.5813 11.488C60.3131 11.7573 59.9495 11.9087 59.5703 11.9087H46.0884L43.2647 15.4812C43.1204 15.6638 42.934 15.8084 42.7216 15.9024C42.5092 15.9965 42.2773 16.0372 42.0457 16.021C41.8142 16.0048 41.59 15.9322 41.3927 15.8095C41.1953 15.6868 41.0306 15.5177 40.9129 15.3167L38.187 10.668L34.5234 26.8815C34.4516 27.1991 34.2746 27.4828 34.0213 27.686C33.7681 27.8892 33.4536 27.9999 33.1294 28C33.1199 28 33.1104 28 33.1008 28C32.7719 27.9935 32.4553 27.8732 32.2043 27.6594C31.9534 27.4456 31.7836 27.1513 31.7235 26.8264L27.9037 6.1718L22.5332 18.0003C22.4215 18.2463 22.243 18.4556 22.0181 18.6042C21.7933 18.7528 21.5313 18.8346 21.2623 18.8402C20.9932 18.8459 20.7281 18.7751 20.4973 18.6361C20.2665 18.497 20.0794 18.2954 19.9576 18.0543L17.0091 12.2181H1.42969C1.05051 12.2181 0.686864 12.0668 0.418746 11.7974C0.150627 11.528 0 11.1627 0 10.7817C0 10.4008 0.150627 10.0354 0.418746 9.76605C0.686864 9.49668 1.05051 9.34535 1.42969 9.34535H17.8866C18.1506 9.34536 18.4095 9.41883 18.6345 9.55762C18.8595 9.69641 19.0419 9.89509 19.1614 10.1316L21.1635 14.0945L27.1812 0.840102C27.3074 0.562309 27.5184 0.332136 27.7836 0.182994C28.0488 0.0338522 28.3544 -0.0264983 28.6561 0.0107002C28.9577 0.0478988 29.2397 0.180712 29.4612 0.389862C29.6826 0.599013 29.8319 0.873617 29.8875 1.17382L33.2692 19.4574L36.1964 6.50288C36.2598 6.22231 36.4056 5.96734 36.6149 5.771C36.8243 5.57467 37.0875 5.44602 37.3704 5.40173C37.6534 5.35743 37.9431 5.39954 38.202 5.52258C38.4608 5.64563 38.677 5.84395 38.8223 6.09184L42.3201 12.0567L44.2783 9.579C44.4122 9.40959 44.5824 9.27276 44.7764 9.17872C44.9703 9.08469 45.1828 9.03587 45.3982 9.03593H59.5703C59.9495 9.03593 60.3131 9.18726 60.5813 9.45663C60.8494 9.726 61 10.0913 61 10.4723Z" fill="#CBC7C7"/>
</svg>
