<svg width="129" height="128" viewBox="0 0 129 128" fill="none" xmlns="http://www.w3.org/2000/svg">
<g id="Group 68">
<path id="Vector" d="M0.637695 60.0937C0.854362 58.252 1.07103 56.4104 1.34186 54.5687C3.12936 42.5437 7.9502 31.8729 15.8585 22.6104C24.7419 12.1562 35.9002 5.22288 49.2252 1.86454C59.6252 -0.735457 70.0252 -0.572957 80.371 2.08121C83.0794 2.78538 85.7877 3.54371 88.6585 4.35621C88.3335 4.73538 88.171 5.00621 87.9544 5.22288C85.0294 8.14788 82.1044 11.0187 79.2335 13.9437C78.6919 14.4854 78.2044 14.5937 77.5002 14.4312C71.6502 12.8604 65.6377 12.427 59.6252 12.9687C52.5294 13.6187 45.8127 15.7854 39.6377 19.3062C31.4585 23.9645 24.9585 30.3562 20.246 38.5354C16.8877 44.4395 14.721 50.7229 13.8544 57.4937C12.5002 68.2187 14.396 78.3479 19.4877 87.827C24.5252 97.2521 31.8919 104.456 41.4794 109.385C47.0585 112.256 52.9627 114.044 59.246 114.694C68.1835 115.615 76.796 114.26 84.9752 110.631C93.8585 106.677 101.063 100.719 106.534 92.7562C111.192 85.9854 114.171 78.5646 115.146 70.3312C115.417 68.2187 115.525 66.1062 115.742 63.9396H128.471C128.254 66.7562 128.146 69.5187 127.767 72.2812C126.304 83.2229 122.296 93.1896 115.579 101.965C105.396 115.398 92.0169 123.74 75.3335 126.719C72.9502 127.152 70.5669 127.369 68.2377 127.694H60.7627C60.3835 127.64 60.0585 127.531 59.6794 127.477C56.2127 126.935 52.6919 126.61 49.2794 125.798C35.7919 122.494 24.5794 115.398 15.6419 104.781C7.89603 95.5729 3.0752 84.9562 1.34186 72.9854C1.07103 71.1979 0.854362 69.3562 0.637695 67.5687C0.637695 65.077 0.637695 62.5854 0.637695 60.0937Z" fill="#688D86"/>
<path id="Vector_2" d="M57.9459 89.0729C48.5209 79.6479 39.0417 70.1687 29.6167 60.7437C32.5417 57.8729 35.4667 55.002 38.5 52.077C44.8375 58.4145 51.3917 64.9687 57.9459 71.577C76.3625 53.1604 94.6167 34.9062 112.763 16.7604C115.796 19.7937 118.721 22.7187 121.538 25.5354C100.467 46.6062 79.2334 67.8395 58 89.0729H57.9459Z" fill="#688D86"/>
</g>
</svg>
