<svg width="29" height="29" viewBox="0 0 29 29" fill="none" xmlns="http://www.w3.org/2000/svg">
<g id="icon_drink">
<g id="Group">
<path id="Vector" d="M6.84723 10.722C6.85528 10.7058 6.86334 10.6897 6.8714 10.6656C6.91167 10.5125 7.03251 10.3997 7.19362 10.3836C7.3064 10.3756 7.41917 10.3756 7.53195 10.3756C7.56417 10.3756 7.5964 10.3756 7.63667 10.3756C7.64473 10.2628 7.65278 10.1581 7.66084 10.0453C7.71723 9.52168 7.83001 9.01417 7.99917 8.51473C8.29723 7.65279 8.74834 6.88751 9.34445 6.20279C9.9164 5.55029 10.5931 5.03473 11.3664 4.63195C11.9142 4.35001 12.4942 4.14862 13.1064 4.01973C13.1628 4.01167 13.2192 3.99556 13.2836 3.98751C13.34 3.97945 13.3561 3.95529 13.3561 3.8989C13.3561 3.13362 13.3561 2.3764 13.3561 1.61112C13.3561 1.54667 13.3642 1.48223 13.3883 1.42584C13.4447 1.28084 13.5656 1.20029 13.7186 1.20029C14.2342 1.19223 14.7417 1.19223 15.2572 1.20029C15.4908 1.20029 15.6439 1.36945 15.6439 1.60306C15.6439 2.36834 15.6439 3.13362 15.6358 3.90695C15.6358 3.96334 15.652 3.97945 15.7083 3.98751C15.9742 4.05195 16.2481 4.10029 16.5058 4.18084C17.1906 4.38223 17.827 4.70445 18.415 5.11529C19.5106 5.88862 20.3161 6.89556 20.8317 8.13612C21.0814 8.72417 21.2345 9.34445 21.307 9.98084C21.3231 10.0936 21.3311 10.2145 21.3392 10.3272C21.3392 10.3675 21.3553 10.3756 21.3956 10.3756C21.5245 10.3756 21.6533 10.3675 21.7822 10.3756C21.9836 10.3917 22.1447 10.585 22.1447 10.7864C22.1447 11.2778 22.1447 11.7611 22.1447 12.2525C22.1447 12.4781 21.9594 12.6633 21.7258 12.6633C21.605 12.6633 21.4922 12.6633 21.3714 12.6633C21.3311 12.6633 21.315 12.6795 21.307 12.7197C21.2747 13.0097 21.2345 13.2997 21.2022 13.5897C21.162 13.8878 21.1217 14.1858 21.0814 14.4839C21.025 14.927 20.9686 15.37 20.9203 15.8131C20.88 16.1111 20.8478 16.4172 20.8075 16.7153C20.7672 17.0697 20.7189 17.4242 20.6786 17.7786C20.6383 18.1089 20.59 18.4392 20.5497 18.7695C20.5014 19.1561 20.4692 19.5428 20.4208 19.9214C20.3886 20.1711 20.3483 20.4208 20.3161 20.6706C20.2597 21.1136 20.2033 21.5567 20.155 22.0078C20.1308 22.2011 20.1228 22.4025 20.0745 22.5878C19.9939 22.9181 19.9778 23.2564 19.9295 23.5947C19.8489 24.1747 19.7845 24.7628 19.712 25.3508C19.6636 25.7617 19.6072 26.1725 19.5589 26.5833C19.5186 26.8733 19.4864 27.1633 19.4542 27.4533C19.43 27.6145 19.3414 27.7192 19.1883 27.7675C19.1722 27.7756 19.1481 27.7836 19.132 27.7917C16.0225 27.7917 12.9131 27.7917 9.80362 27.7917C9.83584 27.7675 9.80362 27.7675 9.78751 27.7595C9.6264 27.7111 9.5539 27.5983 9.52973 27.4453C9.51362 27.3406 9.50556 27.2358 9.48945 27.1311C9.42501 26.6397 9.36056 26.1403 9.30417 25.6489C9.23973 25.1092 9.17528 24.5695 9.10278 24.0378C9.03834 23.5464 8.96584 23.055 8.9014 22.5636C8.83695 22.0722 8.78056 21.5889 8.71612 21.0975C8.65167 20.6142 8.59528 20.1228 8.53084 19.6395C8.49056 19.3333 8.45028 19.0272 8.41806 18.7211C8.37778 18.3667 8.32945 18.0122 8.28917 17.6578C8.25695 17.4 8.21667 17.1342 8.18445 16.8764C8.15223 16.6106 8.12806 16.3528 8.09584 16.087C8.05556 15.7486 8.00723 15.4022 7.96695 15.0639C7.92667 14.7417 7.8864 14.4195 7.84612 14.0892C7.8139 13.8475 7.78973 13.6058 7.75751 13.3642C7.73334 13.1547 7.70112 12.9453 7.67695 12.7358C7.6689 12.6875 7.65278 12.6714 7.60445 12.6795C7.48362 12.6875 7.37084 12.6795 7.25001 12.6795C7.08084 12.6795 6.9439 12.5828 6.88751 12.4297C6.87945 12.4056 6.86334 12.3814 6.85528 12.3572C6.84723 11.8014 6.84723 11.2617 6.84723 10.722ZM14.5 12.6714C13.0661 12.6714 11.6322 12.6714 10.1983 12.6714C9.63445 12.6714 9.07056 12.6714 8.51473 12.6714C8.42612 12.6714 8.42612 12.6714 8.43417 12.7681C8.47445 13.042 8.50667 13.3158 8.5389 13.5897C8.59528 14.0247 8.64362 14.4678 8.70001 14.9028C8.7564 15.3378 8.81278 15.7647 8.86917 16.1997C8.90945 16.522 8.94973 16.8361 8.99001 17.1583C9.03834 17.5531 9.09473 17.9397 9.14306 18.3345C9.19945 18.7533 9.23973 19.1803 9.29612 19.5992C9.31223 19.7281 9.35251 19.857 9.37667 19.9778C9.42501 20.3161 9.45723 20.6464 9.50556 20.9847C9.54584 21.315 9.59417 21.6372 9.63445 21.9675C9.69084 22.4267 9.73917 22.8939 9.79556 23.3531C9.83584 23.6995 9.87612 24.0539 9.92445 24.4003C9.98084 24.8353 10.0372 25.2703 10.0936 25.7053C10.142 26.1 10.1903 26.4867 10.2386 26.8814C10.2547 27.0183 10.2547 27.0183 10.3997 27.0183C12.607 27.0183 14.8222 27.0183 17.0295 27.0183C17.5933 27.0183 18.1572 27.0183 18.7131 27.0264C18.7533 27.0264 18.7695 27.0103 18.7695 26.97C18.7856 26.8411 18.8017 26.7122 18.8178 26.5914C18.8661 26.2208 18.9145 25.8583 18.9547 25.4878C19.0111 25.0367 19.0675 24.5936 19.1239 24.1425C19.1722 23.772 19.2206 23.4014 19.2608 23.0228C19.3011 22.6764 19.3414 22.33 19.3897 21.9836C19.43 21.6372 19.4783 21.2989 19.5186 20.9525C19.5589 20.6222 19.5911 20.292 19.6395 19.9536C19.6636 19.7603 19.712 19.567 19.7442 19.3736C19.8167 18.8017 19.8892 18.2297 19.9617 17.6578C19.9939 17.392 20.0181 17.1261 20.0503 16.8603C20.0906 16.5381 20.1389 16.2078 20.1792 15.8856C20.2275 15.4908 20.2758 15.0961 20.3242 14.7014C20.3645 14.3872 20.3967 14.0731 20.437 13.7508C20.4772 13.4045 20.5256 13.0581 20.5739 12.7117C20.582 12.6633 20.5658 12.6553 20.5256 12.6553C20.4611 12.6553 20.3886 12.6553 20.3242 12.6553C18.3667 12.6714 16.4333 12.6714 14.5 12.6714ZM13.3481 4.74473C13.332 4.74473 13.3239 4.74473 13.3158 4.75279C13.0178 4.80917 12.7197 4.89779 12.4297 5.00251C11.6483 5.28445 10.9475 5.70334 10.3433 6.28334C9.90834 6.69417 9.52167 7.15334 9.22362 7.6689C8.74834 8.49056 8.4664 9.38473 8.3939 10.3353C8.3939 10.3756 8.40195 10.3836 8.44223 10.3836C8.49862 10.3836 8.56306 10.3836 8.61945 10.3836C10.1822 10.3836 11.7531 10.3836 13.3158 10.3836C13.3239 10.3836 13.34 10.3836 13.3561 10.3756C13.3481 8.49862 13.3481 6.62167 13.3481 4.74473ZM15.652 4.74473C15.6439 4.75279 15.6439 4.76084 15.6439 4.7689C15.6439 5.01862 15.6439 5.26029 15.6439 5.51001C15.6439 5.52612 15.6681 5.54223 15.6761 5.55029C15.7808 5.58251 15.8856 5.59862 15.9903 5.63084C16.9328 5.90473 17.7303 6.40417 18.407 7.10501C18.6245 7.33056 18.8017 7.58029 18.987 7.83001C19.0111 7.87029 18.987 7.87834 18.9628 7.89445C18.7775 8.01529 18.5922 8.13612 18.407 8.2489C18.3747 8.27306 18.3586 8.25695 18.3425 8.23279C18.3022 8.16834 18.262 8.11195 18.2217 8.04751C17.69 7.32251 17.0053 6.79084 16.1675 6.46862C15.9983 6.40417 15.8292 6.35584 15.652 6.2914C15.652 6.37195 15.652 6.44445 15.652 6.51695C15.652 7.78167 15.652 9.0464 15.652 10.3192C15.652 10.3595 15.6681 10.3756 15.7083 10.3756C15.7567 10.3756 15.797 10.3675 15.8453 10.3675C17.4 10.3675 18.9547 10.3675 20.5094 10.3675C20.5417 10.3675 20.582 10.3595 20.6142 10.3595C20.4047 7.60445 18.3908 5.28445 15.652 4.74473ZM21.3714 11.1489C16.7797 11.1489 12.2042 11.1489 7.61251 11.1489C7.61251 11.165 7.60445 11.1731 7.60445 11.1892C7.60445 11.4147 7.60445 11.6403 7.60445 11.8658C7.60445 11.9061 7.62056 11.9142 7.65278 11.9061C7.70917 11.9061 7.76556 11.9061 7.8139 11.9061C10.0372 11.9061 12.2525 11.9061 14.4758 11.9061C16.7636 11.9061 19.0433 11.9061 21.3311 11.9061C21.3392 11.9061 21.3472 11.9061 21.3633 11.8981C21.3714 11.6564 21.3714 11.4067 21.3714 11.1489ZM14.1053 4.64806C14.1053 4.71251 14.1053 4.75279 14.1053 4.80112C14.1053 6.64584 14.1053 8.49056 14.1053 10.3353C14.1053 10.3836 14.1295 10.3836 14.1617 10.3836C14.355 10.3836 14.5403 10.3836 14.7336 10.3756C14.7739 10.3756 14.8222 10.3756 14.8625 10.3756C14.8625 8.4664 14.8625 6.55723 14.8625 4.64806C14.6128 4.64806 14.3631 4.64806 14.1053 4.64806ZM14.8625 3.89084C14.8625 3.2464 14.8625 2.60195 14.8625 1.95751C14.6047 1.95751 14.355 1.95751 14.1053 1.95751C14.1053 1.98973 14.1053 2.02195 14.1053 2.04612C14.1053 2.64223 14.1053 3.23834 14.1053 3.83445C14.1053 3.86667 14.1053 3.88279 14.1536 3.88279C14.3872 3.89084 14.6208 3.89084 14.8625 3.89084Z" fill="#3D3D3D"/>
<path id="Vector_2" d="M12.9856 21.8789C12.8648 21.895 12.7439 21.9111 12.6231 21.9192C12.2284 21.9433 11.8417 21.9192 11.4711 21.7822C10.9314 21.5889 10.5125 21.2345 10.2064 20.7511C9.90031 20.2758 9.72309 19.7442 9.61837 19.1883C9.5217 18.6889 9.48142 18.1895 9.49753 17.682C9.49753 17.545 9.56198 17.4564 9.6667 17.4322C9.76337 17.4081 9.86003 17.4403 9.90837 17.5289C9.94864 17.5933 9.99698 17.6417 10.0695 17.6578C10.3192 17.7222 10.5689 17.7947 10.8186 17.8592C11.2456 17.9639 11.6806 18.0686 12.0834 18.2539C12.3975 18.3989 12.6875 18.5842 12.9373 18.8258C13.2917 19.1883 13.477 19.6314 13.5253 20.1308C13.5656 20.5658 13.5253 21.0008 13.4045 21.4278C13.3723 21.5325 13.3723 21.6292 13.4206 21.7258C13.477 21.8467 13.5173 21.9836 13.5575 22.1125C13.5656 22.1447 13.5817 22.177 13.5898 22.2172C13.63 21.9997 13.6703 21.7983 13.7106 21.597C13.8314 21.0492 13.9845 20.5175 14.202 20.01C14.2181 19.9697 14.2261 19.9133 14.21 19.8731C14.1214 19.5428 14.0489 19.2045 14.0086 18.8581C13.9361 18.2861 13.9361 17.7222 14.0973 17.1664C14.3309 16.3367 14.8384 15.7164 15.5795 15.2814C16.1111 14.9753 16.675 14.7658 17.2711 14.6047C17.7142 14.4839 18.1653 14.3872 18.6164 14.2745C18.8017 14.2261 18.9789 14.1617 19.1561 14.1053C19.2609 14.0731 19.3414 14.0086 19.3978 13.9039C19.4542 13.7992 19.5509 13.7508 19.6314 13.767C19.7361 13.7911 19.8167 13.8878 19.8248 14.0086C19.8328 14.1536 19.8409 14.2986 19.8328 14.4517C19.8167 15.0317 19.7764 15.6117 19.6717 16.1756C19.5509 16.8522 19.3575 17.5128 19.0434 18.1331C18.7292 18.7614 18.3023 19.3011 17.7223 19.7039C17.3195 19.9778 16.8764 20.155 16.4011 20.2517C16.0064 20.3322 15.6036 20.3403 15.2009 20.3161C15.0236 20.3 14.8545 20.2839 14.6773 20.2517C14.6128 20.2436 14.5886 20.2597 14.5645 20.3161C14.347 20.8961 14.1859 21.4842 14.0731 22.0964C13.9925 22.5636 13.92 23.0389 13.9039 23.5142C13.8878 23.7961 13.8878 24.07 13.8798 24.352C13.8798 24.5131 13.8798 24.6661 13.8798 24.8272C13.8798 24.9964 13.7589 25.0689 13.6542 25.077C13.5253 25.085 13.4286 24.9722 13.4286 24.8272C13.4206 24.5614 13.4367 24.3036 13.4125 24.0378C13.3884 23.6995 13.3481 23.3611 13.2998 23.0308C13.2434 22.6603 13.1467 22.2978 13.0098 21.9514C12.9936 21.9272 12.9856 21.9031 12.9856 21.8789ZM19.3656 14.5161C19.3495 14.5161 19.3414 14.5161 19.3334 14.5242C18.987 14.6772 18.6164 14.7497 18.262 14.8383C17.8431 14.9431 17.4161 15.0478 16.9973 15.1686C16.4978 15.3136 16.0225 15.5231 15.5875 15.8131C15.2492 16.0467 14.9673 16.3367 14.7659 16.6992C14.5242 17.1261 14.4356 17.5853 14.4114 18.0686C14.3953 18.3828 14.4275 18.6889 14.4759 18.995C14.492 19.0917 14.5081 19.1883 14.5323 19.3011C14.5484 19.277 14.5645 19.2608 14.5725 19.2528C14.7659 18.9064 14.9995 18.5922 15.2653 18.3022C15.5634 17.9639 15.9098 17.682 16.3045 17.4564C16.4092 17.392 16.53 17.4242 16.5945 17.5289C16.6589 17.6336 16.6348 17.7464 16.5381 17.8189C16.5059 17.8431 16.4817 17.8592 16.4495 17.8833C16.2078 18.0283 15.9984 18.2056 15.797 18.3989C15.4103 18.7614 15.1203 19.1964 14.8706 19.6636C14.8464 19.712 14.8223 19.7603 14.7981 19.8086C14.8303 19.8086 14.8464 19.8167 14.8706 19.8167C15.3298 19.8811 15.7889 19.8892 16.2481 19.8167C16.8442 19.72 17.3598 19.4703 17.8109 19.0675C18.1089 18.8017 18.3425 18.4795 18.5359 18.125C18.8581 17.5531 19.0514 16.9408 19.1723 16.2964C19.2689 15.8211 19.3253 15.3378 19.3495 14.8464C19.3575 14.7417 19.3575 14.6289 19.3656 14.5161ZM9.94864 18.1008C9.94059 18.1089 9.94059 18.117 9.94059 18.117C9.97281 18.407 9.99698 18.697 10.0373 18.9789C10.1098 19.4542 10.2467 19.9133 10.4803 20.3403C10.6817 20.7028 10.9395 21.0089 11.31 21.2183C11.7531 21.4681 12.2364 21.5083 12.7278 21.46C12.7439 21.46 12.76 21.452 12.7761 21.4439C12.7439 21.3875 12.7117 21.3392 12.6795 21.2908C12.4378 20.9042 12.1559 20.5497 11.7611 20.3C11.7289 20.2839 11.7048 20.2597 11.6725 20.2436C11.592 20.1792 11.5759 20.0503 11.6323 19.9617C11.6886 19.8731 11.8175 19.8328 11.9142 19.8731C11.9545 19.8972 12.0028 19.9214 12.0431 19.9456C12.4298 20.2033 12.7439 20.5336 12.9936 20.9203C13.0017 20.9283 13.0098 20.9445 13.0178 20.9606C13.0259 20.9364 13.0339 20.9122 13.0339 20.8961C13.0581 20.6464 13.0742 20.3967 13.05 20.147C12.9856 19.6072 12.7359 19.1883 12.2928 18.8903C12.0028 18.697 11.6725 18.5681 11.3342 18.4714C10.9959 18.3828 10.6495 18.3022 10.3111 18.2136C10.1903 18.1733 10.0775 18.1331 9.94864 18.1008Z" fill="#3D3D3D"/>
<path id="Vector_3" d="M18.9709 9.6989C18.8984 9.46529 18.8178 9.23168 18.7453 8.99807C18.9709 8.9014 19.1964 8.80474 19.43 8.70807C19.4542 8.77251 19.4864 8.83696 19.5106 8.9014C19.567 9.07862 19.6234 9.25585 19.6797 9.44112C19.7039 9.52168 19.7039 9.52168 19.6153 9.54585C19.4059 9.59418 19.2045 9.64251 18.995 9.69085C18.987 9.69085 18.9789 9.6989 18.9709 9.6989Z" fill="#3D3D3D"/>
</g>
</g>
</svg>
