<svg width="36" height="36" viewBox="0 0 36 36" fill="none" xmlns="http://www.w3.org/2000/svg">
<g id="icon-37_heart_footer 1">
<path id="Vector" d="M3.62 12.73C3.72 12.17 3.77 11.6 3.91 11.05C4.55 8.55999 5.91 6.58999 8.26 5.43999C10.46 4.35999 12.64 4.51999 14.72 5.83999C16.01 6.65999 17.08 7.70999 18.03 8.87999C18.1 8.96999 18.17 9.04999 18.26 9.14999C18.58 8.77999 18.86 8.42999 19.17 8.09999C20.21 6.95999 21.36 5.95999 22.79 5.30999C24.69 4.44999 26.58 4.55999 28.4 5.49999C30.76 6.71999 32.12 8.73999 32.68 11.29C33.24 13.84 32.83 16.25 31.41 18.45C31.12 18.9 30.78 19.32 30.41 19.69C26.59 23.52 22.77 27.34 18.94 31.16C18.85 31.25 18.77 31.34 18.67 31.41C18.41 31.62 18.13 31.62 17.86 31.41C17.78 31.35 17.71 31.27 17.63 31.19C13.99 27.55 10.34 23.92 6.7 20.28C5.81999 19.4 5.02 18.47 4.5 17.32C4.04 16.31 3.76 15.27 3.67 14.17C3.67 14.09 3.64 14 3.62 13.92C3.62 13.52 3.62 13.12 3.62 12.72V12.73ZM18.33 30.16C18.41 30.04 18.47 29.91 18.57 29.82C22.24 26.15 25.91 22.49 29.57 18.82C29.87 18.52 30.14 18.18 30.37 17.82C31.48 16.12 31.88 14.24 31.6 12.23C31.3 10.03 30.33 8.19999 28.46 6.94999C26.76 5.81999 24.94 5.59999 23.05 6.53999C22.12 7.00999 21.3 7.62999 20.6 8.38999C19.97 9.06999 19.39 9.80999 18.8 10.53C18.49 10.91 18.04 10.92 17.74 10.53C17.68 10.45 17.63 10.38 17.57 10.3C16.54 8.89999 15.38 7.63999 13.86 6.73999C12.55 5.95999 11.17 5.73999 9.68999 6.17999C7.97999 6.68999 6.75999 7.78999 5.89 9.30999C5.1 10.69 4.78 12.19 4.86 13.78C4.92 14.94 5.21 16.02 5.72 17.06C6.2 18.04 6.94 18.8 7.69 19.56C11.12 23 14.57 26.43 18.01 29.87C18.08 29.94 18.16 30.01 18.31 30.16H18.33Z" fill="#000"/>
</g>
</svg>
