<svg width="16" height="16" viewBox="0 0 16 16" fill="none" xmlns="http://www.w3.org/2000/svg">
<path d="M13.9703 10.922C13.9352 10.7894 13.8727 10.6656 13.7868 10.5586C13.7009 10.4516 13.5936 10.3639 13.4717 10.301L10.9128 8.97418C10.7063 8.86463 10.4673 8.83301 10.2395 8.88506C10.0116 8.93712 9.81006 9.06939 9.67155 9.25776L9.25782 9.82492C9.23656 9.8544 9.20527 9.87508 9.16984 9.88308C9.13441 9.89109 9.09728 9.88587 9.06543 9.86839C8.45698 9.52194 7.89994 9.09206 7.41049 8.59124C6.90999 8.10146 6.48038 7.54408 6.13412 6.93528C6.11666 6.90341 6.11143 6.86625 6.11943 6.8308C6.12744 6.79535 6.14811 6.76404 6.17756 6.74278L6.74231 6.32879C6.93056 6.19019 7.06275 5.98851 7.11477 5.76053C7.1668 5.53254 7.13519 5.29343 7.02572 5.08682L5.70797 2.52837C5.64469 2.40626 5.5564 2.29886 5.44886 2.21317C5.34132 2.12748 5.21694 2.06543 5.08384 2.03106C4.95073 1.99669 4.81187 1.99077 4.67632 2.01368C4.54077 2.0366 4.41157 2.08784 4.29714 2.16406L2.68978 3.24043C2.46408 3.3908 2.28183 3.59788 2.16129 3.84092C2.04076 4.08396 1.98616 4.35442 2.00298 4.62522C2.02425 5.08308 2.08586 5.53816 2.18709 5.98518C2.62358 7.67011 3.67654 9.40265 5.13909 10.8682C6.60164 12.3337 8.33519 13.3832 10.0191 13.8158C10.4658 13.917 10.9206 13.9787 11.3782 14H11.4816C11.7341 13.9994 11.9826 13.9371 12.2054 13.8184C12.4282 13.6997 12.6187 13.5282 12.7601 13.319L13.8317 11.7106C13.909 11.5964 13.9613 11.4671 13.9852 11.3311C14.0091 11.1952 14.004 11.0558 13.9703 10.922ZM13.1428 11.249L12.0774 12.8595C12.0067 12.9639 11.91 13.0481 11.7968 13.1036C11.6836 13.1592 11.5578 13.1842 11.432 13.1762C11.0262 13.1574 10.6227 13.1041 10.226 13.0168C8.68272 12.6152 7.08571 11.6444 5.72659 10.2782C4.36747 8.91208 3.39313 7.32029 2.9918 5.77611C2.90382 5.37917 2.84984 4.97545 2.83045 4.56933C2.82218 4.44369 2.84707 4.31807 2.90262 4.20508C2.95817 4.0921 3.04243 3.99571 3.14696 3.92558L4.75431 2.85335C4.77878 2.83696 4.80761 2.8283 4.83706 2.82851H4.87637C4.89674 2.83382 4.91575 2.8434 4.93215 2.8566C4.94855 2.8698 4.96197 2.88633 4.97153 2.9051L6.29548 5.46562C6.31193 5.49737 6.3166 5.53393 6.30864 5.5688C6.30069 5.60368 6.28063 5.63459 6.25203 5.65605L5.68729 6.07004C5.49578 6.2126 5.3631 6.42042 5.31431 6.65421C5.26552 6.88801 5.30401 7.13159 5.4225 7.33892C5.80538 8.00861 6.27874 8.62226 6.82919 9.16254C7.3691 9.71337 7.98239 10.187 8.65169 10.5701C8.8589 10.6887 9.10233 10.7272 9.33598 10.6784C9.56963 10.6295 9.77732 10.4968 9.91979 10.3052L10.3335 9.73798C10.355 9.70937 10.3859 9.6893 10.4207 9.68134C10.4556 9.67338 10.4921 9.67805 10.5238 9.69452L13.0828 11.0193C13.1015 11.0291 13.118 11.0427 13.1311 11.0593C13.1442 11.0759 13.1538 11.095 13.159 11.1155C13.1643 11.136 13.1652 11.1574 13.1617 11.1782C13.1582 11.1991 13.1503 11.219 13.1386 11.2366L13.1428 11.249Z" fill="#484848"/>
</svg>
