<svg width="16" height="16" viewBox="0 0 16 16" fill="none" xmlns="http://www.w3.org/2000/svg">
<mask id="mask0_1153_17668" style="mask-type:luminance" maskUnits="userSpaceOnUse" x="2" y="2" width="12" height="12">
<path d="M14 2H2V14H14V2Z" fill="white"/>
</mask>
<g mask="url(#mask0_1153_17668)">
<mask id="mask1_1153_17668" style="mask-type:luminance" maskUnits="userSpaceOnUse" x="2" y="2" width="12" height="12">
<path d="M2 2H14V14H2V2Z" fill="white"/>
</mask>
<g mask="url(#mask1_1153_17668)">
<path fill-rule="evenodd" clip-rule="evenodd" d="M2 12.125C2 13.1605 2.83947 14 3.875 14H8.58594C9.62147 14 10.4609 13.1605 10.4609 12.125V11.1875C10.4609 10.9286 10.2511 10.7188 9.99219 10.7188C9.7333 10.7188 9.52344 10.9286 9.52344 11.1875V12.125C9.52344 12.6428 9.1037 13.0625 8.58594 13.0625H3.875C3.35723 13.0625 2.9375 12.6428 2.9375 12.125V3.875C2.9375 3.35723 3.35723 2.9375 3.875 2.9375H8.58594C9.1037 2.9375 9.52344 3.35723 9.52344 3.875V4.8125C9.52344 5.07138 9.7333 5.28125 9.99219 5.28125C10.2511 5.28125 10.4609 5.07138 10.4609 4.8125V3.875C10.4609 2.83947 9.62147 2 8.58594 2H3.875C2.83947 2 2 2.83947 2 3.875V12.125Z" fill="#EF0000"/>
<path fill-rule="evenodd" clip-rule="evenodd" d="M6.59375 8.02344C6.59375 8.28232 6.80362 8.49219 7.0625 8.49219H13.4141C13.6729 8.49219 13.8828 8.28232 13.8828 8.02344C13.8828 7.76455 13.6729 7.55469 13.4141 7.55469H7.0625C6.80362 7.55469 6.59375 7.76455 6.59375 8.02344Z" fill="#EF0000"/>
<path fill-rule="evenodd" clip-rule="evenodd" d="M11.9449 9.90177C12.128 10.0848 12.4248 10.0848 12.6078 9.90177L13.6575 8.85207C13.6575 8.85207 13.6575 8.85207 13.6575 8.85207C14.1151 8.39442 14.1151 7.65246 13.6575 7.19481C13.6575 7.1948 13.6575 7.19481 13.6575 7.19481L12.6078 6.14511C12.4248 5.96205 12.128 5.96205 11.9449 6.1451C11.7619 6.32816 11.7619 6.62495 11.9449 6.80802L12.9946 7.85771C13.0861 7.94925 13.0861 8.09763 12.9946 8.18916L11.9449 9.23886C11.7619 9.42192 11.7619 9.71872 11.9449 9.90177Z" fill="#EF0000"/>
</g>
</g>
</svg>
