<svg width="16" height="16" viewBox="0 0 16 16" fill="none" xmlns="http://www.w3.org/2000/svg">
<path d="M6.58696 8.28263C6.56772 8.1863 5.90486 4.87201 5.88383 4.76698C5.851 4.60266 5.70669 4.48438 5.53912 4.48438H4.83599C4.66841 4.48438 4.52411 4.60266 4.49127 4.76698C4.46992 4.87379 3.80638 8.19146 3.78815 8.28261C3.75006 8.47302 3.87355 8.65822 4.06394 8.69628C4.25432 8.73437 4.43955 8.61088 4.47761 8.42049L4.70233 7.29688H5.67278L5.8975 8.42052C5.93558 8.61099 6.12088 8.73439 6.31117 8.69631C6.50155 8.65822 6.62504 8.47302 6.58696 8.28263ZM4.84295 6.59375L5.1242 5.1875H5.2509L5.53215 6.59375H4.84295Z" fill="#484848"/>
<path d="M12.2188 7.29688H11.1641V6.94531C11.1641 6.75116 11.0067 6.59375 10.8125 6.59375C10.6183 6.59375 10.4609 6.75116 10.4609 6.94531V7.29688H9.40625C9.21209 7.29688 9.05469 7.45428 9.05469 7.64844C9.05469 7.84259 9.21209 8 9.40625 8H9.49133C9.69165 8.64716 9.99324 9.14389 10.3251 9.54195C10.055 9.78903 9.78167 9.99165 9.5382 10.1864C9.38659 10.3077 9.362 10.5289 9.48331 10.6805C9.60467 10.8322 9.82592 10.8567 9.97745 10.7354C10.2223 10.5396 10.5157 10.3219 10.8125 10.0496C11.1095 10.3221 11.4035 10.5402 11.6476 10.7354C11.7992 10.8568 12.0204 10.8321 12.1417 10.6805C12.263 10.5289 12.2384 10.3077 12.0868 10.1864C11.844 9.99209 11.5703 9.78927 11.2999 9.54195C11.6318 9.14389 11.9334 8.64716 12.1337 8H12.2188C12.4129 8 12.5703 7.84259 12.5703 7.64844C12.5703 7.45428 12.4129 7.29688 12.2188 7.29688ZM10.8125 9.02527C10.5881 8.74355 10.3862 8.4073 10.234 7.99766H11.391C11.2388 8.4073 11.0369 8.74355 10.8125 9.02527Z" fill="#484848"/>
<path d="M12.9453 4.13281H7.87341L7.72271 2.92386C7.65688 2.39717 7.20697 2 6.67618 2H3.05469C2.47313 2 2 2.47313 2 3.05469V10.8125C2 11.3941 2.47313 11.8672 3.05469 11.8672H6.01913L6.16791 13.0761C6.23363 13.6018 6.68354 14 7.21447 14H12.9453C13.5269 14 14 13.5269 14 12.9453V5.1875C14 4.60595 13.5269 4.13281 12.9453 4.13281ZM3.05469 11.1641C2.86084 11.1641 2.70312 11.0064 2.70312 10.8125V3.05469C2.70312 2.86084 2.86084 2.70312 3.05469 2.70312H6.67618C6.85311 2.70312 7.00309 2.8355 7.025 3.01095C7.07595 3.41961 7.99081 10.7587 8.04134 11.1641H3.05469ZM6.84509 12.8223L6.72755 11.8672H7.67077L6.84509 12.8223ZM13.2969 12.9453C13.2969 13.1392 13.1392 13.2969 12.9453 13.2969H7.36423L8.70261 11.7488C8.77112 11.6715 8.80182 11.5689 8.78766 11.4669L7.96107 4.83594H12.9453C13.1392 4.83594 13.2969 4.99365 13.2969 5.1875V12.9453Z" fill="#484848"/>
</svg>
