<svg width="38" height="38" viewBox="0 0 38 38" fill="none" xmlns="http://www.w3.org/2000/svg">
<g id="icon_camera_camera 1">
<path id="Vector" d="M32.775 12.8672V28.5739C32.775 28.5739 32.7433 28.595 32.7433 28.6161C32.3422 29.925 31.6033 30.4845 30.2206 30.4845C22.7472 30.4845 15.2633 30.4845 7.79 30.4845C7.63167 30.4845 7.46278 30.4845 7.30445 30.4633C6.16445 30.3789 5.23556 29.3867 5.225 28.2467C5.225 23.2328 5.225 18.2295 5.225 13.2156C5.225 12.0545 6.15389 11.0306 7.315 10.9883C8.52889 10.9461 9.75333 10.9567 10.9672 10.9672C11.5794 10.9672 12.0756 10.7772 12.5083 10.3339C13.1839 9.63723 13.87 8.96167 14.5667 8.28612C15.0522 7.82167 15.6328 7.54723 16.3083 7.54723C18.0606 7.52612 19.8022 7.52612 21.5544 7.53667C22.3672 7.53667 23.0428 7.87445 23.6128 8.44445C24.2144 9.05667 24.8478 9.64778 25.4283 10.2706C25.8928 10.7667 26.4417 10.9778 27.1278 10.9672C28.2994 10.9461 29.4817 10.9461 30.6533 10.9778C31.6139 11.0095 32.395 11.6639 32.68 12.5928C32.7117 12.6878 32.7433 12.7722 32.775 12.8672ZM19 27.0222C22.7894 27.0222 25.8717 23.9506 25.8822 20.1611C25.8822 16.3717 22.7894 13.2683 18.9894 13.2683C15.2 13.2683 12.1178 16.3506 12.1072 20.14C12.1072 23.9295 15.2 27.0328 19 27.0328V27.0222ZM28.1622 16.6883C28.7956 16.6883 29.3233 16.1922 29.3233 15.5589C29.3233 14.9467 28.8167 14.4189 28.2044 14.4083C27.55 14.4083 27.0328 14.8939 27.0328 15.5483C27.0328 16.1817 27.5289 16.6778 28.1517 16.6778L28.1622 16.6883Z" fill="#255D54"/>
<path id="Vector_2" d="M19 14.3978C22.1667 14.3978 24.7528 16.9733 24.7528 20.14C24.7528 23.3067 22.1772 25.8822 19 25.8822C15.8228 25.8822 13.2472 23.3067 13.2472 20.1506C13.2472 16.9839 15.8228 14.4083 18.9894 14.4083L19 14.3978Z" fill="#255D54"/>
</g>
</svg>
