<svg width="125" height="129" viewBox="0 0 125 129" fill="none" xmlns="http://www.w3.org/2000/svg">
<path d="M106.694 68.4225C131.102 82.0847 131.102 104.236 106.694 117.898C82.2862 131.56 42.7134 131.56 18.3058 117.898C-6.10201 104.236 -6.1019 82.085 18.306 68.4227C42.714 54.7605 82.2867 54.7605 106.694 68.4225Z" fill="#ECEBEB"/>
<path d="M15.0488 86.0235L64.5824 114.622L106.132 90.6423L56.5978 62.0438L15.0488 86.0235Z" fill="#E1E1E1"/>
<path d="M93.0486 66.4753L91.0039 67.656V74.1105C91.0039 74.4578 91.2482 74.8806 91.5491 75.0545L92.5039 75.6059C92.8048 75.7798 93.2924 75.7798 93.5933 75.6059L94.5486 75.0545C94.8496 74.8806 95.1857 74.4736 95.2999 74.1452L97.1391 68.8367L93.0486 66.4753Z" fill="#17282F"/>
<path d="M91.0044 74.1108C91.0044 74.4582 91.2487 74.881 91.5496 75.0549L92.5044 75.6062C92.8053 75.7802 93.1415 75.6547 93.2552 75.3262L95.0949 70.0178L91.0039 67.6564L91.0044 74.1108Z" fill="#273E47"/>
<path d="M102.204 89.7314L64.5833 111.451L22.2188 86.9374L59.8395 65.2177L102.204 89.7314Z" fill="#26B6A6"/>
<path d="M64.5815 82.0049L55.7341 69.7809L53.834 68.6818L59.8377 65.2156L67.6208 69.7192L64.5815 82.0049Z" fill="#967207"/>
<path d="M59.8405 35.7747L59.8395 65.2168L22.2188 86.9365L22.2196 57.4939L59.8405 35.7747Z" fill="#26B6A6"/>
<path d="M53.8309 68.6836L28.3594 53.9472L59.8356 35.7753L59.8346 65.2174L53.8309 68.6836Z" fill="#F0B506"/>
<path d="M64.5833 82.0069V111.451L22.2188 86.9374L22.2196 57.4948L64.5833 82.0069Z" fill="#26B6A6"/>
<path d="M64.5833 111.451L22.2188 86.9374L22.2196 57.4948L64.5833 82.0069V111.451Z" fill="#EFB40B"/>
<path d="M102.2 60.2848V89.7295L59.8359 65.2158L59.837 35.7736L102.2 60.2848Z" fill="#26B6A6"/>
<path d="M67.619 69.7197L59.8359 65.2161L59.837 35.774L91.6268 54.1673L68.1076 67.7459L67.619 69.7197Z" fill="#E5AC03"/>
<path d="M102.201 89.7314V60.2867L64.5801 82.0069V111.451L102.201 89.7314Z" fill="#26B6A6"/>
<path d="M64.5801 82.0069L102.201 60.2867V89.7314L64.5801 111.451L65.2819 82.5986L102.201 60.2867L64.5801 82.0069ZM69.1938 104.724C69.0663 104.724 68.9628 104.828 68.9628 104.955V105.59C68.9628 105.842 69.0633 106.045 69.2392 106.145C69.3157 106.189 69.4014 106.21 69.4922 106.21C69.6085 106.21 69.7329 106.174 69.8548 106.102C70.2297 105.882 70.5128 105.262 70.5128 104.658V102.079L73.2027 100.526V100.392C73.2027 99.4296 72.8661 98.7049 72.255 98.3519C71.999 98.2041 71.7108 98.1306 71.4002 98.1306C70.9703 98.1306 70.4985 98.2714 70.014 98.5508C68.3834 99.4919 67.0573 101.791 67.0573 103.674V104.073L70.0502 102.346V104.658C70.0502 105.126 69.8237 105.584 69.6202 105.704C69.5636 105.737 69.5203 105.749 69.4932 105.749C69.482 105.749 69.4738 105.747 69.4693 105.743C69.4514 105.733 69.4254 105.684 69.4254 105.59V104.955C69.4254 104.828 69.3219 104.724 69.1938 104.724ZM75.4254 98.3978V102.463C75.4254 102.59 75.5284 102.694 75.657 102.694C75.7845 102.694 75.888 102.59 75.888 102.463V97.9027L76.1588 98.2158C76.2042 98.2683 76.268 98.2947 76.3328 98.2947C76.3868 98.2947 76.4409 98.276 76.4848 98.2391C76.5817 98.1551 76.5919 98.0086 76.5082 97.9122L75.5907 96.8519L75.4458 97.1864C75.4448 97.1886 75.4438 97.1912 75.4428 97.1932L74.7675 98.7533C74.717 98.8707 74.7705 99.0068 74.8878 99.0574L74.9796 99.0761C75.0694 99.0761 75.1541 99.0237 75.1918 98.9369L75.4254 98.3978ZM77.5635 97.1794V101.243C77.5635 101.371 77.667 101.475 77.7945 101.475C77.9225 101.475 78.0261 101.371 78.0261 101.243V96.6832L78.2969 96.9963C78.3428 97.0488 78.4071 97.0759 78.4718 97.0759C78.5249 97.0759 78.5789 97.0569 78.6228 97.0192C78.7197 96.9362 78.7299 96.7892 78.6463 96.6927L77.7287 95.6344L77.5874 95.9613C77.5839 95.9681 77.5808 95.9751 77.5783 95.9819L76.906 97.5339C76.8555 97.6512 76.9091 97.7873 77.0269 97.8383L77.1182 97.8572C77.208 97.8572 77.2926 97.8046 77.3309 97.718L77.5635 97.1794ZM67.5413 103.261C67.7122 101.614 68.8598 99.7509 70.2455 98.9518C70.6571 98.7141 71.0498 98.5932 71.3982 98.5932C71.6287 98.5932 71.8394 98.6462 72.0235 98.7524C72.4596 99.0042 72.711 99.5368 72.7381 100.261L67.5413 103.261Z" fill="#FFC51B"/>
<path d="M59.8398 35.775L59.8919 19.4743L102.152 44.0171L102.203 60.2861L59.8398 35.775Z" fill="#26B6A6"/>
<path d="M91.6297 54.168L59.8398 35.7747L59.8919 19.474L102.152 44.0168L102.165 48.0853L91.6297 54.168Z" fill="#FFC725"/>
<path d="M64.5801 82.0049L68.108 67.7454L105.388 46.222L102.201 60.2846L64.5801 82.0049Z" fill="#26B6A6"/>
<path d="M64.5801 82.0049L68.108 67.7454L105.388 46.222L102.201 60.2846L64.5801 82.0049Z" fill="#F7BA08"/>
<path d="M22.2162 57.4941L17.7285 42.7042L55.3492 20.9845L59.8372 35.7749L22.2162 57.4941Z" fill="#26B6A6"/>
<path d="M28.3609 53.9473L19.6023 48.8801L17.7285 42.7046L55.3492 20.9849L59.8372 35.7753L28.3609 53.9473Z" fill="#FFC725"/>
<path d="M22.2171 57.4927L13.3652 45.2698L55.7334 69.7809L64.5809 82.0049L22.2171 57.4927Z" fill="#26B6A6"/>
<path d="M55.7334 69.7809L13.3652 45.2698L55.2624 70.2119L64.5809 82.0049L22.2171 57.4927L13.3652 45.2698L55.7334 69.7809Z" fill="#DBA507"/>
<path d="M75.6593 102.692C75.5308 102.692 75.4277 102.588 75.4277 102.461V98.3964L75.7246 97.7104L75.8903 97.9013V102.461C75.8903 102.588 75.7868 102.692 75.6593 102.692ZM75.4451 97.1918C75.4461 97.1898 75.4471 97.1872 75.4481 97.1851L75.4451 97.1918Z" fill="#FFE188"/>
<path d="M74.9773 99.0752L74.8855 99.0564C74.7682 99.0058 74.7146 98.8698 74.7651 98.7524L75.4404 97.1923L75.4434 97.1855L75.5883 96.8509L76.5058 97.9112C76.5895 98.0077 76.5793 98.1541 76.4824 98.2382C76.4385 98.2751 76.3844 98.2938 76.3304 98.2938C76.2656 98.2938 76.2019 98.2673 76.1565 98.2149L75.8856 97.9017L75.7199 97.7109L75.423 98.3968L75.1894 98.9359C75.1517 99.0228 75.067 99.0752 74.9773 99.0752Z" fill="#FFE188"/>
<path d="M77.7935 101.474C77.666 101.474 77.5625 101.37 77.5625 101.242V97.1782L77.8598 96.491L78.0251 96.6819V101.242C78.0251 101.37 77.9216 101.474 77.7935 101.474ZM77.5773 95.9806C77.5798 95.9738 77.5829 95.9669 77.5865 95.9601L77.5773 95.9806Z" fill="#FFE188"/>
<path d="M77.1179 97.8564L77.0266 97.8375C76.9088 97.7865 76.8552 97.6504 76.9057 97.5331L77.5779 95.9811L77.5871 95.9606L77.7284 95.6336L78.6459 96.6919C78.7296 96.7884 78.7194 96.9354 78.6225 97.0185C78.5786 97.0562 78.5245 97.0751 78.4715 97.0751C78.4067 97.0751 78.3425 97.048 78.2966 96.9956L78.0257 96.6824L77.8605 96.4915L77.5631 97.1787L77.3306 97.7172C77.2923 97.8039 77.2076 97.8564 77.1179 97.8564Z" fill="#FFE188"/>
<path d="M69.4923 106.209C69.4015 106.209 69.3158 106.187 69.2393 106.144C69.0634 106.044 68.9629 105.841 68.9629 105.589V104.954C68.9629 104.827 69.0664 104.723 69.1939 104.723C69.3219 104.723 69.4255 104.827 69.4255 104.954V105.589C69.4255 105.683 69.4515 105.732 69.4693 105.742C69.4739 105.746 69.4821 105.748 69.4933 105.748C69.5204 105.748 69.5637 105.736 69.6203 105.703C69.8238 105.583 70.0503 105.125 70.0503 104.657V102.345L70.5129 102.078V104.657C70.5129 105.261 70.2298 105.881 69.8549 106.101C69.733 106.173 69.6086 106.209 69.4923 106.209Z" fill="#FFE188"/>
<path d="M67.0566 104.073V103.673C67.0566 101.79 68.3827 99.4917 70.0133 98.5506C70.4978 98.2712 70.9696 98.1304 71.3996 98.1304C71.7102 98.1304 71.9983 98.2039 72.2544 98.3517C72.8654 98.7047 73.202 99.4293 73.202 100.392V100.526L70.5121 102.079L70.0495 102.346L67.0566 104.073ZM71.3975 98.593C71.0492 98.593 70.6565 98.7139 70.2449 98.9516C68.8591 99.7507 67.7115 101.614 67.5407 103.26L72.7374 100.26C72.7104 99.5366 72.4589 99.004 72.0228 98.7522C71.8387 98.646 71.6281 98.593 71.3975 98.593Z" fill="#FFE188"/>
<path d="M64.5809 82.0049L55.2624 70.2119L13.3652 45.2698L55.7334 69.7809L64.5809 82.0049Z" fill="#FFE188"/>
<path d="M64.5801 111.451V82.0069L102.201 60.2867L65.2819 82.5986L64.5801 111.451Z" fill="#FFE188"/>
<path d="M46.9939 48.5091C50.8751 47.9476 54.4211 45.4612 56.671 42.3041C57.7185 40.8342 58.5146 39.1888 58.966 37.4389C59.3807 35.8333 59.6127 34.0303 59.2027 32.3993C58.5009 29.6033 55.9103 27.9446 53.1703 27.5953C51.7892 27.4188 50.3594 27.5468 49.0414 28.0018C47.6375 28.4868 46.4909 29.3702 45.626 30.5759C45.1768 31.2022 44.7055 31.9805 44.6846 32.7757C44.6663 33.4678 45.1618 33.963 45.8258 34.0757C46.6277 34.2124 47.4741 33.8697 48.1596 33.4841C49.0062 33.0087 49.7316 32.387 50.3368 31.6291C51.5725 30.0806 52.6256 28.1884 53.1639 26.2722C53.6285 24.6167 53.5285 22.8086 53.1741 21.1428C52.8117 19.4404 52.1062 17.7011 50.86 16.45C49.5565 15.1413 47.693 14.4941 45.896 14.2589C44.0726 14.0207 42.1554 14.185 40.4147 14.7873C39.6656 15.0459 38.892 15.3922 38.3106 15.9369C37.8731 16.347 37.3728 17.0213 37.5516 17.6818C37.7504 18.4177 38.6983 18.6386 39.3558 18.5539C40.3161 18.4305 41.2311 17.8332 41.9113 17.1702C42.6605 16.4398 43.3343 15.5483 43.8323 14.6277C44.1999 13.9483 44.425 13.193 44.4093 12.4157C44.3434 9.17849 40.7701 7.08685 37.9678 6.49674C37.2075 6.33659 36.4404 6.28661 35.6664 6.34526C35.4066 6.36464 35.565 6.77267 35.7756 6.75686C37.2469 6.64567 38.7621 7.08787 40.0677 7.73918C41.334 8.37162 42.5391 9.30652 43.2354 10.5617C43.9365 11.8251 43.8552 13.2781 43.1163 14.5078C42.6106 15.3494 41.9974 16.2037 41.2688 16.8657C40.6613 17.4176 39.7489 18.0531 38.884 17.9908C38.6302 17.9725 38.3078 17.8516 38.2116 17.5695C38.0977 17.2355 38.3514 16.8479 38.5158 16.6433C38.9289 16.1302 39.5608 15.8206 40.1623 15.5539C41.6563 14.8909 43.3801 14.6746 45.0014 14.7598C46.6712 14.8475 48.4089 15.2775 49.7662 16.294C51.0415 17.2498 51.7916 18.7299 52.2455 20.2258C52.7141 21.7722 52.9109 23.465 52.6921 25.0726C52.4696 26.7093 51.6898 28.2767 50.8429 29.6742C49.8987 31.2313 48.7135 32.7165 46.9391 33.3464C46.5006 33.5019 45.5826 33.733 45.407 33.0929C45.2341 32.463 45.7338 31.6735 46.0577 31.1788C46.7941 30.0541 47.7791 29.184 49.0253 28.674C50.1934 28.1956 51.4884 28.0165 52.7447 28.1114C55.1467 28.2925 57.5859 29.5477 58.4223 31.9341C58.9119 33.3321 58.8125 34.8857 58.5508 36.3209C58.2622 37.9076 57.6715 39.4362 56.8629 40.8296C55.1289 43.8174 52.4202 46.0615 49.2692 47.4309C48.5138 47.7594 47.7295 48.0323 46.9481 48.2909C46.8658 48.3179 46.9021 48.5224 46.9939 48.5091Z" fill="#D7D7D7"/>
<path d="M30.778 4.2271C28.7107 4.08174 25.9273 5.6858 26.9266 6.8599C27.9262 8.03348 30.5813 6.13463 30.5813 6.13463C30.5813 6.13463 30.3309 8.5068 31.1993 8.77507C32.0678 9.04284 33.2164 6.78339 32.3708 5.33642C32.3708 5.33642 33.6748 5.91531 34.9067 5.00694C36.1383 4.09909 34.8317 3.24479 33.093 3.39678C33.093 3.39678 34.3375 -0.67074 31.8236 0.0978794C30.5813 0.477854 30.135 1.95389 30.778 4.2271Z" fill="#26B6A6"/>
<path d="M31.3447 8.79492C31.2957 8.79492 31.2471 8.78779 31.1993 8.7735C30.648 8.60315 30.5476 7.58512 30.5478 6.86444C30.5478 6.44928 30.5813 6.13306 30.5813 6.13306C30.5813 6.13306 29.0318 7.24136 27.8546 7.24136C27.4908 7.24136 27.1625 7.13528 26.9266 6.85833C26.7817 6.68849 26.7164 6.50896 26.7168 6.32739C26.7186 5.30987 28.7874 4.21636 30.51 4.21636C30.6002 4.21636 30.6899 4.21941 30.7779 4.22553C30.5795 3.52424 30.4849 2.89844 30.4852 2.3578C30.4862 1.14596 30.9646 0.358979 31.8235 0.0963125C32.0405 0.0300083 32.2295 -7.82013e-05 32.3937 -7.82013e-05C33.1846 -7.82013e-05 33.4006 0.702749 33.401 1.46933C33.4014 2.38688 33.093 3.39521 33.093 3.39521C33.2297 3.38348 33.3633 3.37736 33.4935 3.37736C34.5677 3.37736 35.3911 3.76855 35.3905 4.29184C35.3905 4.51269 35.2435 4.75699 34.9066 5.00538C34.3649 5.40473 33.8092 5.51643 33.3566 5.51643C32.7802 5.51643 32.3708 5.33486 32.3708 5.33486C32.58 5.6929 32.667 6.10041 32.6666 6.50691C32.6655 7.65448 31.9673 8.79492 31.3447 8.79492Z" fill="#5B86E7"/>
<path d="M32.6756 5.09329C32.5648 4.98211 32.4432 4.87909 32.3189 4.7832C32.1398 4.64549 31.9538 4.51492 31.7714 4.38129C31.5977 4.25378 31.4142 4.14209 31.2251 4.03906C31.1156 3.97939 31.0034 3.92379 30.8892 3.87381C30.7125 3.79679 30.5599 3.76823 30.3664 3.79271C30.1868 3.81566 30.027 4.0207 30.1613 4.19105C30.3218 4.39557 30.5187 4.43434 30.697 4.52614C30.79 4.57409 30.8819 4.62509 30.9723 4.67813C31.1594 4.78779 31.3308 4.9158 31.5053 5.04433C31.6792 5.17184 31.8593 5.29171 32.0304 5.42278C32.3012 5.62935 32.5767 5.83539 32.9015 5.95117L32.9908 5.93434C33.2057 5.72777 32.8258 5.24426 32.6756 5.09329Z" fill="#05102A"/>
</svg>
