<svg width="36" height="36" viewBox="0 0 36 36" fill="none" xmlns="http://www.w3.org/2000/svg">
<g id="icon_giohang 2">
<path id="Vector" d="M10.8201 14.11C10.6301 14.55 10.4501 14.96 10.2701 15.38C10.0501 15.89 10.2201 16.38 10.6801 16.58C11.1301 16.77 11.5801 16.56 11.8101 16.06C12.0701 15.47 12.3401 14.87 12.5901 14.27C12.6501 14.13 12.7301 14.08 12.8801 14.08C16.3001 14.08 19.7201 14.08 23.1401 14.08C23.3101 14.08 23.3801 14.15 23.4401 14.29C23.6901 14.88 23.9501 15.47 24.2101 16.05C24.4401 16.57 24.9001 16.77 25.3601 16.57C25.8101 16.37 25.9601 15.89 25.7501 15.39C25.5701 14.97 25.3801 14.54 25.1901 14.08C25.3301 14.08 25.4201 14.08 25.5101 14.08C27.3401 14.08 29.1601 14.11 30.9901 14.07C31.8001 14.05 32.5101 14.7 32.2801 15.67C31.2401 20.14 30.2201 24.61 29.1901 29.08C29.0501 29.67 28.6101 30.04 28.0001 30.07C27.9201 30.07 27.8301 30.07 27.7501 30.07C21.2601 30.07 14.7701 30.07 8.29007 30.07C7.40007 30.07 7.01008 29.78 6.81008 28.92C5.78008 24.45 4.75007 19.98 3.73008 15.5C3.57008 14.8 4.10008 14.09 4.82008 14.08C6.80008 14.07 8.77007 14.08 10.7501 14.08C10.7701 14.08 10.7901 14.09 10.8401 14.11H10.8201ZM13.8101 22.54C13.8101 21.53 13.8101 20.53 13.8101 19.52C13.8101 18.97 13.4701 18.61 12.9701 18.61C12.4701 18.61 12.1301 18.98 12.1301 19.52C12.1301 21.51 12.1301 23.51 12.1301 25.5C12.1301 26.03 12.4801 26.43 12.9601 26.44C13.4401 26.45 13.8101 26.05 13.8101 25.5C13.8101 24.51 13.8101 23.53 13.8101 22.54ZM18.8401 22.52C18.8401 21.53 18.8401 20.55 18.8401 19.56C18.8401 18.99 18.5101 18.62 18.0001 18.62C17.4901 18.62 17.1601 18.99 17.1601 19.56C17.1601 21.54 17.1601 23.53 17.1601 25.51C17.1601 26.06 17.5301 26.46 18.0101 26.45C18.4901 26.45 18.8401 26.05 18.8401 25.52C18.8401 24.52 18.8401 23.53 18.8401 22.53V22.52ZM23.8701 22.52C23.8701 21.52 23.8701 20.53 23.8701 19.53C23.8701 18.98 23.5401 18.61 23.0401 18.61C22.5301 18.61 22.1901 18.97 22.1901 19.54C22.1901 21.52 22.1901 23.51 22.1901 25.49C22.1901 26.04 22.5501 26.44 23.0301 26.44C23.5201 26.44 23.8701 26.04 23.8701 25.49C23.8701 24.5 23.8701 23.52 23.8701 22.53V22.52Z" fill="white"/>
<path id="Vector_2" d="M10.8601 14.02C11.0201 13.65 11.1501 13.33 11.2901 13.01C12.2301 10.85 13.1801 8.69001 14.1301 6.52001C14.3201 6.08001 14.6601 5.87001 15.0401 5.93001C15.6301 6.02001 15.9301 6.58001 15.6801 7.15001C15.2601 8.11001 14.8401 9.07001 14.4201 10.04C13.8801 11.28 13.3301 12.52 12.8001 13.77C12.7201 13.95 12.6401 14.02 12.4301 14.02C11.9301 14 11.4201 14.02 10.8601 14.02Z" fill="white"/>
<path id="Vector_3" d="M25.1401 14.02C24.5401 14.02 24.0001 14.02 23.4501 14.02C23.3801 14.02 23.2901 13.94 23.2601 13.87C22.2701 11.62 21.2901 9.38 20.3101 7.13C20.1101 6.68 20.3101 6.19 20.7401 6.01C21.1801 5.82 21.6501 6.02 21.8601 6.5C22.5501 8.07 23.2401 9.65 23.9301 11.22C24.2901 12.05 24.6601 12.89 25.0201 13.72C25.0601 13.8 25.0901 13.89 25.1401 14.02Z" fill="white"/>
</g>
</svg>
